<?xml version="1.0" encoding="utf-8" standalone="no"?>
<!DOCTYPE svg PUBLIC "-//W3C//DTD SVG 1.1//EN"
  "http://www.w3.org/Graphics/SVG/1.1/DTD/svg11.dtd">
<!-- Created with matplotlib (http://matplotlib.org/) -->
<svg height="216pt" version="1.1" viewBox="0 0 288 216" width="288pt" xmlns="http://www.w3.org/2000/svg" xmlns:xlink="http://www.w3.org/1999/xlink">
 <defs>
  <style type="text/css">
*{stroke-linecap:butt;stroke-linejoin:round;}
  </style>
 </defs>
 <g id="figure_1">
  <g id="patch_1">
   <path d="M 0 216 
L 288 216 
L 288 0 
L 0 0 
z
" style="fill:#ffffff;"/>
  </g>
  <g id="axes_1">
   <g id="patch_2">
    <path d="M 57.6 172.8 
L 273.6 172.8 
L 273.6 10.8 
L 57.6 10.8 
z
" style="fill:#ffffff;"/>
   </g>
   <g id="matplotlib.axis_1">
    <g id="xtick_1">
     <g id="line2d_1">
      <defs>
       <path d="M 0 0 
L 0 3.5 
" id="m0e0f641ad6" style="stroke:#000000;stroke-width:0.8;"/>
      </defs>
      <g>
       <use style="stroke:#000000;stroke-width:0.8;" x="62.383217" xlink:href="#m0e0f641ad6" y="172.8"/>
      </g>
     </g>
     <g id="text_1">
      <!-- $0$ -->
      <defs>
       <path d="M 26.296875 69 
C 10.796875 69 2.90625 56.6875 2.90625 32.4375 
C 2.90625 20.71875 5 10.609375 8.5 5.703125 
C 12 0.796875 17.59375 -2 23.796875 -2 
C 38.90625 -2 46.5 11 46.5 36.640625 
C 46.5 58.578125 40 69 26.296875 69 
z
M 24.5 65.484375 
C 34.203125 65.484375 38.09375 55.671875 38.09375 31.640625 
C 38.09375 10.3125 34.296875 1.5 25.09375 1.5 
C 15.40625 1.5 11.296875 11.609375 11.296875 36.046875 
C 11.296875 57.1875 15 65.484375 24.5 65.484375 
z
" id="URW_Palladio_L_Roman-48"/>
      </defs>
      <g transform="translate(59.394425 188.353876)scale(0.12 -0.12)">
       <use transform="scale(0.996264)" xlink:href="#URW_Palladio_L_Roman-48"/>
      </g>
     </g>
    </g>
    <g id="xtick_2">
     <g id="line2d_2">
      <g>
       <use style="stroke:#000000;stroke-width:0.8;" x="112.732867" xlink:href="#m0e0f641ad6" y="172.8"/>
      </g>
     </g>
     <g id="text_2">
      <!-- $10$ -->
      <defs>
       <path d="M 6.703125 55.796875 
L 7.703125 55.796875 
L 20.59375 61.59375 
C 20.703125 61.703125 20.796875 61.703125 20.90625 61.703125 
C 21.5 61.703125 21.703125 60.796875 21.703125 58.390625 
L 21.703125 9.890625 
C 21.703125 4.6875 20.59375 3.59375 15.203125 3.296875 
L 9.59375 3 
L 9.59375 0 
C 25 0 25 0 26.09375 0 
C 27.40625 0 29.59375 0 33 -0.109375 
C 34.203125 0.09375 37.703125 0.09375 41.796875 0 
L 41.796875 3 
L 36.59375 3.296875 
C 31.09375 3.578125 30.09375 4.671875 30.09375 9.8125 
L 30.09375 68.484375 
L 28.703125 69 
C 22.203125 65.609375 15.09375 62.640625 6 59.484375 
z
" id="URW_Palladio_L_Roman-49"/>
      </defs>
      <g transform="translate(106.755283 188.353876)scale(0.12 -0.12)">
       <use transform="scale(0.996264)" xlink:href="#URW_Palladio_L_Roman-49"/>
       <use transform="translate(49.8132 0)scale(0.996264)" xlink:href="#URW_Palladio_L_Roman-48"/>
      </g>
     </g>
    </g>
    <g id="xtick_3">
     <g id="line2d_3">
      <g>
       <use style="stroke:#000000;stroke-width:0.8;" x="163.082517" xlink:href="#m0e0f641ad6" y="172.8"/>
      </g>
     </g>
     <g id="text_3">
      <!-- $20$ -->
      <defs>
       <path d="M 1.59375 2.59375 
L 1.59375 0 
C 20.296875 0 20.296875 0 23.90625 0 
C 27.5 0.296875 27.5 0.296875 46.796875 0 
C 46.59375 2.09375 46.59375 3.09375 46.59375 4.484375 
C 46.59375 5.78125 46.59375 6.78125 46.796875 8.96875 
C 35.296875 8.46875 30.703125 8.375 12.203125 7.96875 
L 30.40625 27.203125 
C 40.09375 37.46875 43.09375 42.953125 43.09375 50.4375 
C 43.09375 61.890625 35.296875 69 22.59375 69 
C 15.40625 69 10.5 66.984375 5.59375 61.984375 
L 3.90625 48.4375 
L 6.796875 48.4375 
L 8.09375 53.03125 
C 9.703125 58.796875 13.296875 61.296875 20 61.296875 
C 28.59375 61.296875 34.09375 55.90625 34.09375 47.4375 
C 34.09375 39.96875 29.90625 32.59375 18.59375 20.625 
z
" id="URW_Palladio_L_Roman-50"/>
      </defs>
      <g transform="translate(157.104933 188.353876)scale(0.12 -0.12)">
       <use transform="scale(0.996264)" xlink:href="#URW_Palladio_L_Roman-50"/>
       <use transform="translate(49.8132 0)scale(0.996264)" xlink:href="#URW_Palladio_L_Roman-48"/>
      </g>
     </g>
    </g>
    <g id="xtick_4">
     <g id="line2d_4">
      <g>
       <use style="stroke:#000000;stroke-width:0.8;" x="213.432168" xlink:href="#m0e0f641ad6" y="172.8"/>
      </g>
     </g>
     <g id="text_4">
      <!-- $30$ -->
      <defs>
       <path d="M 4.296875 49.9375 
L 7.40625 49.9375 
L 9.203125 55.515625 
C 10.296875 58.90625 16.59375 62.296875 21.796875 62.296875 
C 28.296875 62.296875 33.59375 57.015625 33.59375 50.734375 
C 33.59375 43.265625 27.703125 37 20.59375 37 
C 19.796875 37 18.703125 37.09375 17.40625 37.1875 
L 15.90625 37.296875 
L 14.703125 31.984375 
L 15.40625 31.375 
C 19.203125 33.09375 21.09375 33.59375 23.796875 33.59375 
C 32.09375 33.59375 36.90625 28.25 36.90625 19.09375 
C 36.90625 8.828125 30.796875 2.09375 21.5 2.09375 
C 16.90625 2.09375 12.796875 3.609375 9.796875 6.421875 
C 7.40625 8.640625 6.09375 10.953125 4.203125 16.375 
L 1.5 15.375 
C 3.59375 9.234375 4.40625 5.609375 5 0.59375 
C 10.296875 -1.203125 14.703125 -2 18.40625 -2 
C 26.40625 -2 35.59375 2.5 41.09375 9.234375 
C 44.5 13.359375 46.203125 17.796875 46.203125 22.515625 
C 46.203125 27.34375 44.203125 31.578125 40.59375 34.09375 
C 38.09375 35.890625 35.796875 36.6875 30.796875 37.59375 
C 38.796875 43.765625 41.796875 48.34375 41.796875 54.21875 
C 41.796875 63.09375 34.40625 69 23.296875 69 
C 16.5 69 12 67.09375 7.203125 62.296875 
z
" id="URW_Palladio_L_Roman-51"/>
      </defs>
      <g transform="translate(207.454584 188.353876)scale(0.12 -0.12)">
       <use transform="scale(0.996264)" xlink:href="#URW_Palladio_L_Roman-51"/>
       <use transform="translate(49.8132 0)scale(0.996264)" xlink:href="#URW_Palladio_L_Roman-48"/>
      </g>
     </g>
    </g>
    <g id="xtick_5">
     <g id="line2d_5">
      <g>
       <use style="stroke:#000000;stroke-width:0.8;" x="263.781818" xlink:href="#m0e0f641ad6" y="172.8"/>
      </g>
     </g>
     <g id="text_5">
      <!-- $40$ -->
      <defs>
       <path d="M 28 18 
L 28 10.6875 
C 28 4.84375 26.90625 3.484375 22 3.28125 
L 15.796875 3 
L 15.796875 0 
C 29.09375 0 29.09375 0 31.5 0 
C 33.90625 0.296875 33.90625 0.296875 47.203125 0 
L 47.203125 3 
L 42.40625 3.28125 
C 37.5 3.578125 36.40625 4.84375 36.40625 10.6875 
L 36.40625 18 
C 42.296875 18 44.40625 17.890625 47.203125 17.609375 
L 47.203125 24.6875 
C 42.5 24.296875 40.59375 24.296875 39.09375 24.390625 
L 38.796875 24.390625 
L 36.40625 24.390625 
L 36.40625 38.203125 
C 36.40625 55.875 36.59375 64.40625 37.09375 68.484375 
L 35.90625 69 
L 28.5 66.296875 
L 0.203125 20.296875 
L 1.296875 18 
z
M 28 24.390625 
L 6.5 24.390625 
L 28 59.34375 
z
" id="URW_Palladio_L_Roman-52"/>
      </defs>
      <g transform="translate(257.804234 188.353876)scale(0.12 -0.12)">
       <use transform="scale(0.996264)" xlink:href="#URW_Palladio_L_Roman-52"/>
       <use transform="translate(49.8132 0)scale(0.996264)" xlink:href="#URW_Palladio_L_Roman-48"/>
      </g>
     </g>
    </g>
    <g id="text_6">
     <!-- Source out-degree -->
     <defs>
      <path d="M 44.703125 52.671875 
C 44.703125 57.984375 45.09375 61.390625 46.09375 66.796875 
C 38.09375 69.984375 33.59375 71 28.09375 71 
C 13.203125 71 2.40625 61.59375 2.40625 48.46875 
C 2.40625 43.5625 3.703125 39.953125 6.59375 37.25 
C 10 34.140625 14.59375 32.546875 24.296875 31.234375 
C 32 30.140625 35.5 29.03125 38.09375 26.734375 
C 40.703125 24.625 41.90625 21.71875 41.90625 17.921875 
C 41.90625 8.90625 34.40625 2.390625 24 2.390625 
C 16 2.390625 8.203125 6.296875 7.703125 10.40625 
L 6.90625 17.109375 
L 3.703125 17.109375 
C 3.796875 15.3125 3.796875 13.703125 3.796875 13.109375 
C 3.796875 8.5 3.59375 6.296875 3 1.796875 
C 8.703125 -0.703125 14.5 -2 20.296875 -2 
C 37.703125 -2 50.296875 8.5 50.296875 23.03125 
C 50.296875 27.734375 49 31.03125 46.203125 33.640625 
C 42.703125 36.953125 38.5 38.25 27.296875 39.75 
C 15.09375 41.359375 10.796875 44.65625 10.796875 52.375 
C 10.796875 60.78125 17.09375 66.796875 25.90625 66.796875 
C 29.796875 66.796875 33.5 66 36.203125 64.484375 
C 39.5 62.78125 40.59375 61.28125 40.90625 58.375 
L 41.5 52.671875 
z
" id="URW_Palladio_L_Roman-83"/>
      <path d="M 27.90625 47 
C 13.296875 47 3.203125 36.671875 3.203125 21.734375 
C 3.203125 7.609375 12.09375 -2 25 -2 
C 40.40625 -2 51.40625 8.703125 51.40625 23.75 
C 51.40625 37.28125 41.59375 47 27.90625 47 
z
M 26.09375 43.6875 
C 35.296875 43.6875 42.09375 33.671875 42.09375 20.03125 
C 42.09375 8.515625 37 1.296875 28.90625 1.296875 
C 19.09375 1.296875 12.5 10.921875 12.5 25.140625 
C 12.5 37.171875 17.296875 43.6875 26.09375 43.6875 
z
" id="URW_Palladio_L_Roman-111"/>
      <path d="M 50.296875 46.59375 
L 49.40625 47 
C 44.296875 44.890625 39.09375 43.5 33.796875 42.890625 
L 33.796875 40.109375 
L 37.5 40.109375 
C 41.5 40.109375 41.90625 39.40625 41.90625 32.828125 
L 41.90625 16.5625 
C 41.90625 14.375 40.5 11.578125 38.203125 9.28125 
C 35.40625 6.484375 32.203125 5.09375 28.296875 5.09375 
C 24.796875 5.09375 22 6.1875 20.40625 8.078125 
C 19 9.6875 18.296875 12.765625 18.296875 17.15625 
L 18.296875 46.59375 
L 17.40625 47 
C 12.296875 44.890625 7.09375 43.5 1.796875 42.890625 
L 1.796875 40.109375 
L 5.5 40.109375 
C 9.5 40.109375 9.90625 39.40625 9.90625 32.828125 
L 9.90625 16.0625 
C 9.90625 9.078125 10.5 5.984375 12.296875 3.5 
C 14.5 0.5 18.296875 -1 24 -1 
C 28.5 -0.90625 32.5 0.5 35.203125 3 
L 41.90625 9.1875 
C 41.90625 6.296875 41.796875 4.6875 41.5 0 
C 48.203125 0 48.296875 0 49.796875 0 
C 51.203125 0.296875 51.203125 0.296875 58.09375 0 
L 58.09375 3 
L 54 3.296875 
C 50.59375 3.5 50.296875 4.09375 50.296875 10.5 
z
" id="URW_Palladio_L_Roman-117"/>
      <path d="M 2.296875 40.296875 
L 6 40.296875 
C 10 40.296875 10.40625 39.59375 10.40625 33 
L 10.40625 10.5 
C 10.40625 4.1875 10.09375 3.5 6.703125 3.296875 
L 2.09375 3 
L 2.09375 0 
C 9.296875 -0.109375 11.90625 0 14.40625 0 
C 16.40625 0.296875 16.40625 0.296875 28.703125 0 
L 28.703125 3 
L 23.5 3.296875 
C 19 3.59375 18.796875 3.890625 18.796875 10.453125 
L 18.796875 27.546875 
C 18.796875 33.515625 22.796875 38.484375 27.703125 38.484375 
C 30.703125 38.484375 32.796875 37.09375 34.40625 33.921875 
L 36.5 33.921875 
L 37.40625 45.890625 
C 36.296875 46.59375 34.5 47 32.703125 47 
C 29.703125 47 26.5 45.390625 24.40625 42.890625 
L 18.796875 36.3125 
L 18.796875 46.59375 
L 17.90625 47 
C 12.796875 44.890625 7.59375 43.484375 2.296875 42.890625 
z
" id="URW_Palladio_L_Roman-114"/>
      <path d="M 39.90625 31.171875 
C 39.90625 35.78125 40.40625 39.890625 41.296875 43.484375 
C 37.296875 45.890625 33.796875 47 29.703125 47 
C 24.90625 47 19.296875 45.09375 13.296875 41.296875 
C 6.296875 36.875 2.59375 29.859375 2.59375 21.046875 
C 2.59375 7.5 12.09375 -2 25.5 -2 
C 30.703125 -2 38.203125 -0.109375 39.203125 1.390625 
L 41.296875 4.59375 
L 40.296875 6.09375 
C 36.59375 4.09375 33.40625 3.1875 29.796875 3.1875 
C 18.703125 3.1875 11.40625 11.8125 11.40625 25.046875 
C 11.40625 35.78125 16.40625 41.796875 25.40625 41.796875 
C 29.796875 41.796875 34.59375 39.796875 36.40625 37.28125 
L 37.09375 31.171875 
z
" id="URW_Palladio_L_Roman-99"/>
      <path d="M 43.703125 6.984375 
L 42.40625 7.984375 
C 36 4.1875 33.703125 3.296875 29.40625 3.296875 
C 22.90625 3.296875 17.5 6.1875 14.703125 11.09375 
C 12.796875 14.390625 12.09375 17.1875 11.90625 23 
L 26.5 23 
C 33.40625 23 37.703125 23.296875 44.59375 24.390625 
C 44.703125 25.796875 44.796875 26.6875 44.796875 27.90625 
C 44.796875 39.46875 37.40625 47 26.203125 47 
C 22.5 47 18.203125 45.6875 14.09375 43.296875 
C 5.90625 38.5625 2.59375 32.328125 2.59375 21.890625 
C 2.59375 15.59375 4.09375 10.1875 6.796875 6.390625 
C 10.796875 1.09375 17.5 -2 25 -2 
C 28.703125 -2 32.40625 -1.203125 36.5 0.59375 
C 39.203125 1.6875 41.296875 3 41.703125 3.59375 
z
M 35.90625 26.6875 
C 30.703125 26.5 28.296875 26.390625 24.703125 26.390625 
C 20.09375 26.390625 17.5 26.5 12.09375 27 
C 12.09375 31.71875 12.5 33.9375 13.796875 36.546875 
C 15.90625 40.984375 20.203125 43.6875 25 43.6875 
C 28.296875 43.6875 30.90625 42.390625 32.703125 39.671875 
C 34.90625 36.34375 35.59375 33.4375 35.90625 26.6875 
z
" id="URW_Palladio_L_Roman-101"/>
      <path d="M 9.796875 38.390625 
L 9.796875 9.59375 
C 9.796875 2.1875 13.09375 -1 20.796875 -1 
C 23.09375 -1 25.5 -0.5 26.09375 0.1875 
L 30.90625 5.5 
L 29.59375 7.1875 
C 27.09375 5.796875 25.59375 5.296875 23.703125 5.296875 
C 19.796875 5.296875 18.203125 7.296875 18.203125 12.1875 
L 18.203125 38.390625 
L 31 38.390625 
L 31.90625 43.796875 
L 18.203125 43.1875 
L 18.203125 47 
C 18.203125 51.203125 18.5 54.796875 19.296875 61.203125 
L 18.09375 62.296875 
C 15.703125 60.796875 12.703125 59.5 9.59375 58.5 
C 9.90625 55.5 10 53.59375 10 50.59375 
L 10 43.59375 
L 2.203125 40.09375 
L 2.203125 38 
z
" id="URW_Palladio_L_Roman-116"/>
      <path d="M 28.203125 21.796875 
L 31.203125 28.484375 
L 30.703125 29 
L 4.40625 29 
L 1.703125 22.296875 
L 2.203125 21.796875 
z
" id="URW_Palladio_L_Roman-45"/>
      <path d="M 41.203125 43.796875 
C 35.59375 46.1875 32.796875 47 29.296875 47 
C 26.59375 47 24.203125 46.390625 21.703125 45.09375 
L 12.90625 40.5 
C 7.203125 37.5 3.5 30.21875 3.5 21.75 
C 3.5 13.765625 6.203125 7.1875 11.09375 3.1875 
C 14.5 0.296875 19.203125 -1 25.703125 -1 
C 27.703125 -1 30 -0.609375 30.5 -0.203125 
L 41.59375 9.078125 
L 41.09375 0 
C 46 -0.109375 47.59375 0 48.796875 0 
C 49.59375 0 51 0 53.09375 -0.109375 
C 53.796875 0.09375 55.796875 0.09375 57.90625 0 
L 57.90625 3 
L 53.296875 3.296875 
C 49.90625 3.5 49.59375 4.1875 49.59375 10.5 
L 49.59375 72.09375 
L 48.703125 72.890625 
C 44.296875 71.203125 41 70.390625 33.09375 69.203125 
L 33.09375 66.390625 
L 38.703125 66.390625 
C 40.5 66.390625 41.203125 65.296875 41.203125 62.296875 
z
M 41.203125 22.25 
C 41.203125 15.765625 41 14.765625 39.703125 12.46875 
C 36.90625 7.78125 32 4.6875 27.296875 4.6875 
C 18.5 4.6875 12.203125 13.171875 12.203125 25.03125 
C 12.203125 35.90625 17.59375 42.296875 26.59375 42.296875 
C 30.40625 42.296875 34.40625 41 37.90625 38.59375 
C 40 37.203125 41.203125 35.90625 41.203125 35.109375 
z
" id="URW_Palladio_L_Roman-100"/>
      <path d="M 51.90625 38.3125 
L 54.40625 42.390625 
L 54 43.59375 
L 39.796875 43.1875 
C 36.09375 46.1875 32.5 47.390625 27.59375 47.390625 
C 23.203125 47.390625 18.09375 46 14 43.59375 
C 8.40625 40.40625 5.5 35.53125 5.5 29.453125 
C 5.5 22.078125 10.09375 16.984375 17.5 16.1875 
L 9.59375 9.96875 
C 8.59375 8.4375 8.09375 7.109375 8.09375 5.59375 
C 8.09375 2.796875 9.90625 1.1875 14.703125 -0.203125 
L 6 -4.921875 
C 4.59375 -5.734375 3.203125 -9.4375 3.203125 -12.5625 
C 3.203125 -21.6875 12.09375 -28 24.796875 -28 
C 39.90625 -28 51.796875 -18.484375 51.796875 -6.234375 
C 51.796875 1 47 6 40 6 
L 24 6 
C 18.796875 6 16.40625 7.21875 16.40625 9.96875 
C 16.40625 11.296875 17.203125 12.421875 19.796875 14.671875 
C 20.40625 15.1875 20.59375 15.390625 21 15.796875 
C 22 15.6875 22.59375 15.59375 23.40625 15.59375 
C 27.703125 15.59375 33 17.484375 37.09375 20.390625 
C 41.59375 23.671875 43.796875 27.65625 43.796875 32.9375 
C 43.796875 34.921875 43.5 36.21875 42.703125 38.3125 
z
M 24 44 
C 30.796875 44 35.40625 38.40625 35.40625 29.953125 
C 35.40625 23.46875 31.203125 19 25.09375 19 
C 18.40625 19 13.90625 24.171875 13.90625 31.84375 
C 13.90625 39.515625 17.59375 44 24 44 
z
M 28.703125 -1 
C 40 -1 43.90625 -3.3125 43.90625 -9.84375 
C 43.90625 -18.484375 36 -24.90625 25.5 -24.90625 
C 16.796875 -24.90625 10.796875 -19.78125 10.796875 -12.359375 
C 10.796875 -7.84375 13.40625 -3.71875 17.40625 -2.015625 
C 19 -1.203125 21.796875 -1 28.703125 -1 
z
" id="URW_Palladio_L_Roman-103"/>
     </defs>
     <g transform="translate(109.71919 205.704689)scale(0.14 -0.14)">
      <use transform="scale(0.996264)" xlink:href="#URW_Palladio_L_Roman-83"/>
      <use transform="translate(52.303815 0)scale(0.996264)" xlink:href="#URW_Palladio_L_Roman-111"/>
      <use transform="translate(106.699395 0)scale(0.996264)" xlink:href="#URW_Palladio_L_Roman-117"/>
      <use transform="translate(166.77313 0)scale(0.996264)" xlink:href="#URW_Palladio_L_Roman-114"/>
      <use transform="translate(204.332447 0)scale(0.996264)" xlink:href="#URW_Palladio_L_Roman-99"/>
      <use transform="translate(248.566016 0)scale(0.996264)" xlink:href="#URW_Palladio_L_Roman-101"/>
      <use transform="translate(321.192911 0)scale(0.996264)" xlink:href="#URW_Palladio_L_Roman-111"/>
      <use transform="translate(375.588491 0)scale(0.996264)" xlink:href="#URW_Palladio_L_Roman-117"/>
      <use transform="translate(435.662226 0)scale(0.996264)" xlink:href="#URW_Palladio_L_Roman-116"/>
      <use transform="translate(468.139314 0)scale(0.996264)" xlink:href="#URW_Palladio_L_Roman-45"/>
      <use transform="translate(501.314544 0)scale(0.996264)" xlink:href="#URW_Palladio_L_Roman-100"/>
      <use transform="translate(562.186174 0)scale(0.996264)" xlink:href="#URW_Palladio_L_Roman-101"/>
      <use transform="translate(609.90647 0)scale(0.996264)" xlink:href="#URW_Palladio_L_Roman-103"/>
      <use transform="translate(665.298146 0)scale(0.996264)" xlink:href="#URW_Palladio_L_Roman-114"/>
      <use transform="translate(702.857464 0)scale(0.996264)" xlink:href="#URW_Palladio_L_Roman-101"/>
      <use transform="translate(750.577759 0)scale(0.996264)" xlink:href="#URW_Palladio_L_Roman-101"/>
     </g>
    </g>
   </g>
   <g id="matplotlib.axis_2">
    <g id="ytick_1">
     <g id="line2d_6">
      <defs>
       <path d="M 0 0 
L -3.5 0 
" id="m4a609c97d3" style="stroke:#000000;stroke-width:0.8;"/>
      </defs>
      <g>
       <use style="stroke:#000000;stroke-width:0.8;" x="57.6" xlink:href="#m4a609c97d3" y="147.190001"/>
      </g>
     </g>
     <g id="text_7">
      <!-- $18$ -->
      <defs>
       <path d="M 16.796875 34.546875 
C 12.703125 32.640625 11 31.546875 8.796875 29.4375 
C 5 25.625 3 21.125 3 15.921875 
C 3 5.59375 11.296875 -2 22.59375 -2 
C 35.59375 -2 46.40625 8.203125 46.40625 20.625 
C 46.40625 28.640625 42.703125 32.9375 31.296875 38.15625 
C 40.40625 44.359375 43.59375 48.5625 43.59375 54.578125 
C 43.59375 63.1875 36.5 69 25.90625 69 
C 14 69 5.296875 61.390625 5.296875 50.875 
C 5.296875 44.0625 8 40.25 16.796875 34.546875 
z
M 28.40625 29.53125 
C 34.703125 26.734375 38.5 21.828125 38.5 16.421875 
C 38.5 8 32.203125 1.390625 24.09375 1.390625 
C 15.59375 1.390625 10.09375 7.40625 10.09375 16.71875 
C 10.09375 24.03125 13 28.640625 20.40625 33.140625 
z
M 22.296875 42.359375 
C 16 45.46875 12.796875 49.46875 12.796875 54.46875 
C 12.796875 61.09375 17.59375 65.59375 24.703125 65.59375 
C 32 65.59375 36.796875 60.78125 36.796875 53.46875 
C 36.796875 47.765625 34.296875 43.859375 27.796875 39.65625 
z
" id="URW_Palladio_L_Roman-56"/>
      </defs>
      <g transform="translate(38.644832 151.466938)scale(0.12 -0.12)">
       <use transform="scale(0.996264)" xlink:href="#URW_Palladio_L_Roman-49"/>
       <use transform="translate(49.8132 0)scale(0.996264)" xlink:href="#URW_Palladio_L_Roman-56"/>
      </g>
     </g>
    </g>
    <g id="ytick_2">
     <g id="line2d_7">
      <g>
       <use style="stroke:#000000;stroke-width:0.8;" x="57.6" xlink:href="#m4a609c97d3" y="106.088931"/>
      </g>
     </g>
     <g id="text_8">
      <!-- $20$ -->
      <g transform="translate(38.644832 110.365869)scale(0.12 -0.12)">
       <use transform="scale(0.996264)" xlink:href="#URW_Palladio_L_Roman-50"/>
       <use transform="translate(49.8132 0)scale(0.996264)" xlink:href="#URW_Palladio_L_Roman-48"/>
      </g>
     </g>
    </g>
    <g id="ytick_3">
     <g id="line2d_8">
      <g>
       <use style="stroke:#000000;stroke-width:0.8;" x="57.6" xlink:href="#m4a609c97d3" y="64.987862"/>
      </g>
     </g>
     <g id="text_9">
      <!-- $22$ -->
      <g transform="translate(38.644832 69.2648)scale(0.12 -0.12)">
       <use transform="scale(0.996264)" xlink:href="#URW_Palladio_L_Roman-50"/>
       <use transform="translate(49.8132 0)scale(0.996264)" xlink:href="#URW_Palladio_L_Roman-50"/>
      </g>
     </g>
    </g>
    <g id="ytick_4">
     <g id="line2d_9">
      <g>
       <use style="stroke:#000000;stroke-width:0.8;" x="57.6" xlink:href="#m4a609c97d3" y="23.886793"/>
      </g>
     </g>
     <g id="text_10">
      <!-- $24$ -->
      <g transform="translate(38.644832 28.163731)scale(0.12 -0.12)">
       <use transform="scale(0.996264)" xlink:href="#URW_Palladio_L_Roman-50"/>
       <use transform="translate(49.8132 0)scale(0.996264)" xlink:href="#URW_Palladio_L_Roman-52"/>
      </g>
     </g>
    </g>
    <g id="text_11">
     <!-- Target out-degree -->
     <defs>
      <path d="M 25.5 64 
C 25.796875 60.625 25.90625 58.34375 25.90625 54.09375 
L 25.90625 12.203125 
C 25.90625 4.375 25.40625 3.59375 20.796875 3.296875 
L 16 3 
L 16 0 
C 21.90625 -0.109375 25.40625 0 30.59375 0 
C 35.796875 0.296875 39.40625 0.1875 45.296875 0 
L 45.296875 3 
L 40.5 3.296875 
C 35.90625 3.59375 35.40625 4.375 35.40625 12.203125 
L 35.40625 54.09375 
C 35.40625 58.546875 35.5 60.734375 35.796875 64 
L 51.296875 64 
C 54.09375 64 55.203125 63.109375 55.296875 60.734375 
L 55.703125 52.90625 
L 58.796875 52.90625 
C 58.796875 59.390625 59 63.296875 59.5 69 
C 52.296875 68.890625 49 68.890625 46.203125 68.796875 
C 42.296875 68.59375 39.40625 68.59375 37.90625 68.59375 
L 22.09375 68.59375 
C 21.09375 68.59375 15.703125 68.6875 8.59375 68.796875 
L 1.796875 69 
C 2.296875 63.296875 2.5 59.390625 2.5 52.890625 
L 5.59375 52.890625 
L 6 60.796875 
C 6.09375 63.09375 7.203125 64 10 64 
z
" id="URW_Palladio_L_Roman-84"/>
      <path d="M 32.40625 8.5 
L 31.90625 0 
C 38.40625 0 38.40625 0 39.703125 0 
C 40.203125 0.296875 42.703125 0.1875 47.09375 0 
L 47.09375 3 
L 43.203125 3.1875 
C 40.796875 3.296875 40.40625 4.09375 40.40625 9 
L 40.40625 27.359375 
C 40.40625 42 36.203125 47.296875 24.59375 47.296875 
C 20.296875 47.296875 16.296875 46.1875 12.5 43.890625 
L 7.203125 40.6875 
L 7.203125 34.171875 
L 9.796875 33.46875 
L 11.09375 36.578125 
C 13.203125 41.28125 14.203125 42 18.796875 42 
C 28.203125 42 32.09375 38.28125 32.40625 29.15625 
L 22.5 27.359375 
C 8.90625 24.84375 3.203125 20.140625 3.203125 11.40625 
C 3.203125 3.5 7.90625 -1 15.796875 -1 
C 17.59375 -1 19.296875 -0.703125 20 -0.203125 
z
M 32.40625 12.59375 
C 29.5 8.5 23.203125 4.6875 19.296875 4.6875 
C 15.296875 4.6875 11.796875 8.390625 11.796875 12.6875 
C 11.796875 16.390625 13.796875 19.890625 16.796875 21.796875 
C 19.296875 23.296875 24.796875 24.6875 32.40625 25.796875 
z
" id="URW_Palladio_L_Roman-97"/>
     </defs>
     <g transform="translate(30.71166 146.181427)rotate(-90)scale(0.14 -0.14)">
      <use transform="scale(0.996264)" xlink:href="#URW_Palladio_L_Roman-84"/>
      <use transform="translate(51.904951 0)scale(0.996264)" xlink:href="#URW_Palladio_L_Roman-97"/>
      <use transform="translate(101.718151 0)scale(0.996264)" xlink:href="#URW_Palladio_L_Roman-114"/>
      <use transform="translate(139.277468 0)scale(0.996264)" xlink:href="#URW_Palladio_L_Roman-103"/>
      <use transform="translate(194.669145 0)scale(0.996264)" xlink:href="#URW_Palladio_L_Roman-101"/>
      <use transform="translate(242.38944 0)scale(0.996264)" xlink:href="#URW_Palladio_L_Roman-116"/>
      <use transform="translate(299.773129 0)scale(0.996264)" xlink:href="#URW_Palladio_L_Roman-111"/>
      <use transform="translate(354.168709 0)scale(0.996264)" xlink:href="#URW_Palladio_L_Roman-117"/>
      <use transform="translate(414.242443 0)scale(0.996264)" xlink:href="#URW_Palladio_L_Roman-116"/>
      <use transform="translate(446.719531 0)scale(0.996264)" xlink:href="#URW_Palladio_L_Roman-45"/>
      <use transform="translate(479.894761 0)scale(0.996264)" xlink:href="#URW_Palladio_L_Roman-100"/>
      <use transform="translate(540.766392 0)scale(0.996264)" xlink:href="#URW_Palladio_L_Roman-101"/>
      <use transform="translate(588.486687 0)scale(0.996264)" xlink:href="#URW_Palladio_L_Roman-103"/>
      <use transform="translate(643.878364 0)scale(0.996264)" xlink:href="#URW_Palladio_L_Roman-114"/>
      <use transform="translate(681.437681 0)scale(0.996264)" xlink:href="#URW_Palladio_L_Roman-101"/>
      <use transform="translate(729.157976 0)scale(0.996264)" xlink:href="#URW_Palladio_L_Roman-101"/>
     </g>
    </g>
   </g>
   <g id="LineCollection_1">
    <path clip-path="url(#pc149c0003b)" d="M 67.418182 116.197096 
L 67.418182 106.375119 
" style="fill:none;stroke:#1f77b4;stroke-width:1.5;"/>
    <path clip-path="url(#pc149c0003b)" d="M 72.453147 137.284051 
L 72.453147 127.508763 
" style="fill:none;stroke:#1f77b4;stroke-width:1.5;"/>
    <path clip-path="url(#pc149c0003b)" d="M 77.488112 148.363298 
L 77.488112 138.661041 
" style="fill:none;stroke:#1f77b4;stroke-width:1.5;"/>
    <path clip-path="url(#pc149c0003b)" d="M 82.523077 149.264444 
L 82.523077 139.131273 
" style="fill:none;stroke:#1f77b4;stroke-width:1.5;"/>
    <path clip-path="url(#pc149c0003b)" d="M 87.558042 165.056895 
L 87.558042 155.440495 
" style="fill:none;stroke:#1f77b4;stroke-width:1.5;"/>
    <path clip-path="url(#pc149c0003b)" d="M 92.593007 165.436364 
L 92.593007 155.931274 
" style="fill:none;stroke:#1f77b4;stroke-width:1.5;"/>
    <path clip-path="url(#pc149c0003b)" d="M 97.627972 144.766711 
L 97.627972 134.764964 
" style="fill:none;stroke:#1f77b4;stroke-width:1.5;"/>
    <path clip-path="url(#pc149c0003b)" d="M 102.662937 133.436093 
L 102.662937 123.849861 
" style="fill:none;stroke:#1f77b4;stroke-width:1.5;"/>
    <path clip-path="url(#pc149c0003b)" d="M 107.697902 112.207888 
L 107.697902 102.579567 
" style="fill:none;stroke:#1f77b4;stroke-width:1.5;"/>
    <path clip-path="url(#pc149c0003b)" d="M 112.732867 103.954144 
L 112.732867 94.089807 
" style="fill:none;stroke:#1f77b4;stroke-width:1.5;"/>
    <path clip-path="url(#pc149c0003b)" d="M 117.767832 69.69345 
L 117.767832 59.602919 
" style="fill:none;stroke:#1f77b4;stroke-width:1.5;"/>
    <path clip-path="url(#pc149c0003b)" d="M 122.802797 52.274749 
L 122.802797 42.455704 
" style="fill:none;stroke:#1f77b4;stroke-width:1.5;"/>
    <path clip-path="url(#pc149c0003b)" d="M 127.837762 47.806602 
L 127.837762 37.753142 
" style="fill:none;stroke:#1f77b4;stroke-width:1.5;"/>
    <path clip-path="url(#pc149c0003b)" d="M 132.872727 29.094353 
L 132.872727 19.262503 
" style="fill:none;stroke:#1f77b4;stroke-width:1.5;"/>
    <path clip-path="url(#pc149c0003b)" d="M 137.907692 28.027655 
L 137.907692 18.163636 
" style="fill:none;stroke:#1f77b4;stroke-width:1.5;"/>
    <path clip-path="url(#pc149c0003b)" d="M 142.942657 45.40003 
L 142.942657 35.840536 
" style="fill:none;stroke:#1f77b4;stroke-width:1.5;"/>
    <path clip-path="url(#pc149c0003b)" d="M 147.977622 44.703645 
L 147.977622 34.972806 
" style="fill:none;stroke:#1f77b4;stroke-width:1.5;"/>
    <path clip-path="url(#pc149c0003b)" d="M 153.012587 54.846338 
L 153.012587 45.159857 
" style="fill:none;stroke:#1f77b4;stroke-width:1.5;"/>
    <path clip-path="url(#pc149c0003b)" d="M 158.047552 80.537507 
L 158.047552 70.515689 
" style="fill:none;stroke:#1f77b4;stroke-width:1.5;"/>
    <path clip-path="url(#pc149c0003b)" d="M 163.082517 98.462725 
L 163.082517 88.405533 
" style="fill:none;stroke:#1f77b4;stroke-width:1.5;"/>
    <path clip-path="url(#pc149c0003b)" d="M 168.117483 126.155062 
L 168.117483 115.748892 
" style="fill:none;stroke:#1f77b4;stroke-width:1.5;"/>
    <path clip-path="url(#pc149c0003b)" d="M 173.152448 136.011667 
L 173.152448 126.824576 
" style="fill:none;stroke:#1f77b4;stroke-width:1.5;"/>
    <path clip-path="url(#pc149c0003b)" d="M 178.187413 149.241749 
L 178.187413 139.826883 
" style="fill:none;stroke:#1f77b4;stroke-width:1.5;"/>
    <path clip-path="url(#pc149c0003b)" d="M 183.222378 156.934733 
L 183.222378 147.57649 
" style="fill:none;stroke:#1f77b4;stroke-width:1.5;"/>
    <path clip-path="url(#pc149c0003b)" d="M 188.257343 156.192873 
L 188.257343 146.675757 
" style="fill:none;stroke:#1f77b4;stroke-width:1.5;"/>
    <path clip-path="url(#pc149c0003b)" d="M 193.292308 151.10331 
L 193.292308 141.712348 
" style="fill:none;stroke:#1f77b4;stroke-width:1.5;"/>
    <path clip-path="url(#pc149c0003b)" d="M 198.327273 136.445067 
L 198.327273 126.710444 
" style="fill:none;stroke:#1f77b4;stroke-width:1.5;"/>
    <path clip-path="url(#pc149c0003b)" d="M 203.362238 136.030872 
L 203.362238 126.376006 
" style="fill:none;stroke:#1f77b4;stroke-width:1.5;"/>
    <path clip-path="url(#pc149c0003b)" d="M 208.397203 117.573481 
L 208.397203 107.910124 
" style="fill:none;stroke:#1f77b4;stroke-width:1.5;"/>
    <path clip-path="url(#pc149c0003b)" d="M 213.432168 91.131863 
L 213.432168 80.766952 
" style="fill:none;stroke:#1f77b4;stroke-width:1.5;"/>
    <path clip-path="url(#pc149c0003b)" d="M 218.467133 71.747896 
L 218.467133 60.038112 
" style="fill:none;stroke:#1f77b4;stroke-width:1.5;"/>
    <path clip-path="url(#pc149c0003b)" d="M 223.502098 54.271935 
L 223.502098 44.56606 
" style="fill:none;stroke:#1f77b4;stroke-width:1.5;"/>
    <path clip-path="url(#pc149c0003b)" d="M 228.537063 48.309193 
L 228.537063 38.539223 
" style="fill:none;stroke:#1f77b4;stroke-width:1.5;"/>
    <path clip-path="url(#pc149c0003b)" d="M 233.572028 28.156606 
L 233.572028 19.431002 
" style="fill:none;stroke:#1f77b4;stroke-width:1.5;"/>
    <path clip-path="url(#pc149c0003b)" d="M 238.606993 31.438474 
L 238.606993 22.483962 
" style="fill:none;stroke:#1f77b4;stroke-width:1.5;"/>
    <path clip-path="url(#pc149c0003b)" d="M 243.641958 46.263792 
L 243.641958 37.496064 
" style="fill:none;stroke:#1f77b4;stroke-width:1.5;"/>
    <path clip-path="url(#pc149c0003b)" d="M 248.676923 61.721893 
L 248.676923 51.798342 
" style="fill:none;stroke:#1f77b4;stroke-width:1.5;"/>
    <path clip-path="url(#pc149c0003b)" d="M 253.711888 64.938572 
L 253.711888 54.942153 
" style="fill:none;stroke:#1f77b4;stroke-width:1.5;"/>
    <path clip-path="url(#pc149c0003b)" d="M 258.746853 89.856689 
L 258.746853 80.995279 
" style="fill:none;stroke:#1f77b4;stroke-width:1.5;"/>
    <path clip-path="url(#pc149c0003b)" d="M 263.781818 112.130776 
L 263.781818 101.944059 
" style="fill:none;stroke:#1f77b4;stroke-width:1.5;"/>
   </g>
   <g id="line2d_10">
    <defs>
     <path d="M 0 2 
C 0.530406 2 1.03916 1.789267 1.414214 1.414214 
C 1.789267 1.03916 2 0.530406 2 0 
C 2 -0.530406 1.789267 -1.03916 1.414214 -1.414214 
C 1.03916 -1.789267 0.530406 -2 0 -2 
C -0.530406 -2 -1.03916 -1.789267 -1.414214 -1.414214 
C -1.789267 -1.03916 -2 -0.530406 -2 0 
C -2 0.530406 -1.789267 1.03916 -1.414214 1.414214 
C -1.03916 1.789267 -0.530406 2 0 2 
z
" id="mf7254521d6" style="stroke:#1f77b4;"/>
    </defs>
    <g clip-path="url(#pc149c0003b)">
     <use style="fill:#1f77b4;stroke:#1f77b4;" x="67.418182" xlink:href="#mf7254521d6" y="111.286107"/>
     <use style="fill:#1f77b4;stroke:#1f77b4;" x="72.453147" xlink:href="#mf7254521d6" y="132.396407"/>
     <use style="fill:#1f77b4;stroke:#1f77b4;" x="77.488112" xlink:href="#mf7254521d6" y="143.51217"/>
     <use style="fill:#1f77b4;stroke:#1f77b4;" x="82.523077" xlink:href="#mf7254521d6" y="144.197858"/>
     <use style="fill:#1f77b4;stroke:#1f77b4;" x="87.558042" xlink:href="#mf7254521d6" y="160.248695"/>
     <use style="fill:#1f77b4;stroke:#1f77b4;" x="92.593007" xlink:href="#mf7254521d6" y="160.683819"/>
     <use style="fill:#1f77b4;stroke:#1f77b4;" x="97.627972" xlink:href="#mf7254521d6" y="139.765838"/>
     <use style="fill:#1f77b4;stroke:#1f77b4;" x="102.662937" xlink:href="#mf7254521d6" y="128.642977"/>
     <use style="fill:#1f77b4;stroke:#1f77b4;" x="107.697902" xlink:href="#mf7254521d6" y="107.393727"/>
     <use style="fill:#1f77b4;stroke:#1f77b4;" x="112.732867" xlink:href="#mf7254521d6" y="99.021975"/>
     <use style="fill:#1f77b4;stroke:#1f77b4;" x="117.767832" xlink:href="#mf7254521d6" y="64.648184"/>
     <use style="fill:#1f77b4;stroke:#1f77b4;" x="122.802797" xlink:href="#mf7254521d6" y="47.365226"/>
     <use style="fill:#1f77b4;stroke:#1f77b4;" x="127.837762" xlink:href="#mf7254521d6" y="42.779872"/>
     <use style="fill:#1f77b4;stroke:#1f77b4;" x="132.872727" xlink:href="#mf7254521d6" y="24.178428"/>
     <use style="fill:#1f77b4;stroke:#1f77b4;" x="137.907692" xlink:href="#mf7254521d6" y="23.095646"/>
     <use style="fill:#1f77b4;stroke:#1f77b4;" x="142.942657" xlink:href="#mf7254521d6" y="40.620283"/>
     <use style="fill:#1f77b4;stroke:#1f77b4;" x="147.977622" xlink:href="#mf7254521d6" y="39.838225"/>
     <use style="fill:#1f77b4;stroke:#1f77b4;" x="153.012587" xlink:href="#mf7254521d6" y="50.003097"/>
     <use style="fill:#1f77b4;stroke:#1f77b4;" x="158.047552" xlink:href="#mf7254521d6" y="75.526598"/>
     <use style="fill:#1f77b4;stroke:#1f77b4;" x="163.082517" xlink:href="#mf7254521d6" y="93.434129"/>
     <use style="fill:#1f77b4;stroke:#1f77b4;" x="168.117483" xlink:href="#mf7254521d6" y="120.951977"/>
     <use style="fill:#1f77b4;stroke:#1f77b4;" x="173.152448" xlink:href="#mf7254521d6" y="131.418122"/>
     <use style="fill:#1f77b4;stroke:#1f77b4;" x="178.187413" xlink:href="#mf7254521d6" y="144.534316"/>
     <use style="fill:#1f77b4;stroke:#1f77b4;" x="183.222378" xlink:href="#mf7254521d6" y="152.255611"/>
     <use style="fill:#1f77b4;stroke:#1f77b4;" x="188.257343" xlink:href="#mf7254521d6" y="151.434315"/>
     <use style="fill:#1f77b4;stroke:#1f77b4;" x="193.292308" xlink:href="#mf7254521d6" y="146.407829"/>
     <use style="fill:#1f77b4;stroke:#1f77b4;" x="198.327273" xlink:href="#mf7254521d6" y="131.577756"/>
     <use style="fill:#1f77b4;stroke:#1f77b4;" x="203.362238" xlink:href="#mf7254521d6" y="131.203439"/>
     <use style="fill:#1f77b4;stroke:#1f77b4;" x="208.397203" xlink:href="#mf7254521d6" y="112.741802"/>
     <use style="fill:#1f77b4;stroke:#1f77b4;" x="213.432168" xlink:href="#mf7254521d6" y="85.949408"/>
     <use style="fill:#1f77b4;stroke:#1f77b4;" x="218.467133" xlink:href="#mf7254521d6" y="65.893004"/>
     <use style="fill:#1f77b4;stroke:#1f77b4;" x="223.502098" xlink:href="#mf7254521d6" y="49.418997"/>
     <use style="fill:#1f77b4;stroke:#1f77b4;" x="228.537063" xlink:href="#mf7254521d6" y="43.424208"/>
     <use style="fill:#1f77b4;stroke:#1f77b4;" x="233.572028" xlink:href="#mf7254521d6" y="23.793804"/>
     <use style="fill:#1f77b4;stroke:#1f77b4;" x="238.606993" xlink:href="#mf7254521d6" y="26.961218"/>
     <use style="fill:#1f77b4;stroke:#1f77b4;" x="243.641958" xlink:href="#mf7254521d6" y="41.879928"/>
     <use style="fill:#1f77b4;stroke:#1f77b4;" x="248.676923" xlink:href="#mf7254521d6" y="56.760117"/>
     <use style="fill:#1f77b4;stroke:#1f77b4;" x="253.711888" xlink:href="#mf7254521d6" y="59.940363"/>
     <use style="fill:#1f77b4;stroke:#1f77b4;" x="258.746853" xlink:href="#mf7254521d6" y="85.425984"/>
     <use style="fill:#1f77b4;stroke:#1f77b4;" x="263.781818" xlink:href="#mf7254521d6" y="107.037418"/>
    </g>
   </g>
   <g id="patch_3">
    <path d="M 57.6 172.8 
L 57.6 10.8 
" style="fill:none;stroke:#000000;stroke-linecap:square;stroke-linejoin:miter;stroke-width:0.8;"/>
   </g>
   <g id="patch_4">
    <path d="M 273.6 172.8 
L 273.6 10.8 
" style="fill:none;stroke:#000000;stroke-linecap:square;stroke-linejoin:miter;stroke-width:0.8;"/>
   </g>
   <g id="patch_5">
    <path d="M 57.6 172.8 
L 273.6 172.8 
" style="fill:none;stroke:#000000;stroke-linecap:square;stroke-linejoin:miter;stroke-width:0.8;"/>
   </g>
   <g id="patch_6">
    <path d="M 57.6 10.8 
L 273.6 10.8 
" style="fill:none;stroke:#000000;stroke-linecap:square;stroke-linejoin:miter;stroke-width:0.8;"/>
   </g>
  </g>
 </g>
 <defs>
  <clipPath id="pc149c0003b">
   <rect height="162" width="216" x="57.6" y="10.8"/>
  </clipPath>
 </defs>
</svg>
