<?xml version="1.0" encoding="utf-8" standalone="no"?>
<!DOCTYPE svg PUBLIC "-//W3C//DTD SVG 1.1//EN"
  "http://www.w3.org/Graphics/SVG/1.1/DTD/svg11.dtd">
<!-- Created with matplotlib (http://matplotlib.org/) -->
<svg height="216pt" version="1.1" viewBox="0 0 288 216" width="288pt" xmlns="http://www.w3.org/2000/svg" xmlns:xlink="http://www.w3.org/1999/xlink">
 <defs>
  <style type="text/css">
*{stroke-linecap:butt;stroke-linejoin:round;}
  </style>
 </defs>
 <g id="figure_1">
  <g id="patch_1">
   <path d="M 0 216 
L 288 216 
L 288 0 
L 0 0 
z
" style="fill:#ffffff;"/>
  </g>
  <g id="axes_1">
   <g id="patch_2">
    <path d="M 57.6 172.8 
L 273.6 172.8 
L 273.6 10.8 
L 57.6 10.8 
z
" style="fill:#ffffff;"/>
   </g>
   <g id="matplotlib.axis_1">
    <g id="xtick_1">
     <g id="line2d_1">
      <defs>
       <path d="M 0 0 
L 0 3.5 
" id="me8e6f0f8c3" style="stroke:#000000;stroke-width:0.8;"/>
      </defs>
      <g>
       <use style="stroke:#000000;stroke-width:0.8;" x="62.383217" xlink:href="#me8e6f0f8c3" y="172.8"/>
      </g>
     </g>
     <g id="text_1">
      <!-- $0$ -->
      <defs>
       <path d="M 26.296875 69 
C 10.796875 69 2.90625 56.6875 2.90625 32.4375 
C 2.90625 20.71875 5 10.609375 8.5 5.703125 
C 12 0.796875 17.59375 -2 23.796875 -2 
C 38.90625 -2 46.5 11 46.5 36.640625 
C 46.5 58.578125 40 69 26.296875 69 
z
M 24.5 65.484375 
C 34.203125 65.484375 38.09375 55.671875 38.09375 31.640625 
C 38.09375 10.3125 34.296875 1.5 25.09375 1.5 
C 15.40625 1.5 11.296875 11.609375 11.296875 36.046875 
C 11.296875 57.1875 15 65.484375 24.5 65.484375 
z
" id="URW_Palladio_L_Roman-48"/>
      </defs>
      <g transform="translate(59.394425 188.353876)scale(0.12 -0.12)">
       <use transform="scale(0.996264)" xlink:href="#URW_Palladio_L_Roman-48"/>
      </g>
     </g>
    </g>
    <g id="xtick_2">
     <g id="line2d_2">
      <g>
       <use style="stroke:#000000;stroke-width:0.8;" x="112.732867" xlink:href="#me8e6f0f8c3" y="172.8"/>
      </g>
     </g>
     <g id="text_2">
      <!-- $10$ -->
      <defs>
       <path d="M 6.703125 55.796875 
L 7.703125 55.796875 
L 20.59375 61.59375 
C 20.703125 61.703125 20.796875 61.703125 20.90625 61.703125 
C 21.5 61.703125 21.703125 60.796875 21.703125 58.390625 
L 21.703125 9.890625 
C 21.703125 4.6875 20.59375 3.59375 15.203125 3.296875 
L 9.59375 3 
L 9.59375 0 
C 25 0 25 0 26.09375 0 
C 27.40625 0 29.59375 0 33 -0.109375 
C 34.203125 0.09375 37.703125 0.09375 41.796875 0 
L 41.796875 3 
L 36.59375 3.296875 
C 31.09375 3.578125 30.09375 4.671875 30.09375 9.8125 
L 30.09375 68.484375 
L 28.703125 69 
C 22.203125 65.609375 15.09375 62.640625 6 59.484375 
z
" id="URW_Palladio_L_Roman-49"/>
      </defs>
      <g transform="translate(106.755283 188.353876)scale(0.12 -0.12)">
       <use transform="scale(0.996264)" xlink:href="#URW_Palladio_L_Roman-49"/>
       <use transform="translate(49.8132 0)scale(0.996264)" xlink:href="#URW_Palladio_L_Roman-48"/>
      </g>
     </g>
    </g>
    <g id="xtick_3">
     <g id="line2d_3">
      <g>
       <use style="stroke:#000000;stroke-width:0.8;" x="163.082517" xlink:href="#me8e6f0f8c3" y="172.8"/>
      </g>
     </g>
     <g id="text_3">
      <!-- $20$ -->
      <defs>
       <path d="M 1.59375 2.59375 
L 1.59375 0 
C 20.296875 0 20.296875 0 23.90625 0 
C 27.5 0.296875 27.5 0.296875 46.796875 0 
C 46.59375 2.09375 46.59375 3.09375 46.59375 4.484375 
C 46.59375 5.78125 46.59375 6.78125 46.796875 8.96875 
C 35.296875 8.46875 30.703125 8.375 12.203125 7.96875 
L 30.40625 27.203125 
C 40.09375 37.46875 43.09375 42.953125 43.09375 50.4375 
C 43.09375 61.890625 35.296875 69 22.59375 69 
C 15.40625 69 10.5 66.984375 5.59375 61.984375 
L 3.90625 48.4375 
L 6.796875 48.4375 
L 8.09375 53.03125 
C 9.703125 58.796875 13.296875 61.296875 20 61.296875 
C 28.59375 61.296875 34.09375 55.90625 34.09375 47.4375 
C 34.09375 39.96875 29.90625 32.59375 18.59375 20.625 
z
" id="URW_Palladio_L_Roman-50"/>
      </defs>
      <g transform="translate(157.104933 188.353876)scale(0.12 -0.12)">
       <use transform="scale(0.996264)" xlink:href="#URW_Palladio_L_Roman-50"/>
       <use transform="translate(49.8132 0)scale(0.996264)" xlink:href="#URW_Palladio_L_Roman-48"/>
      </g>
     </g>
    </g>
    <g id="xtick_4">
     <g id="line2d_4">
      <g>
       <use style="stroke:#000000;stroke-width:0.8;" x="213.432168" xlink:href="#me8e6f0f8c3" y="172.8"/>
      </g>
     </g>
     <g id="text_4">
      <!-- $30$ -->
      <defs>
       <path d="M 4.296875 49.9375 
L 7.40625 49.9375 
L 9.203125 55.515625 
C 10.296875 58.90625 16.59375 62.296875 21.796875 62.296875 
C 28.296875 62.296875 33.59375 57.015625 33.59375 50.734375 
C 33.59375 43.265625 27.703125 37 20.59375 37 
C 19.796875 37 18.703125 37.09375 17.40625 37.1875 
L 15.90625 37.296875 
L 14.703125 31.984375 
L 15.40625 31.375 
C 19.203125 33.09375 21.09375 33.59375 23.796875 33.59375 
C 32.09375 33.59375 36.90625 28.25 36.90625 19.09375 
C 36.90625 8.828125 30.796875 2.09375 21.5 2.09375 
C 16.90625 2.09375 12.796875 3.609375 9.796875 6.421875 
C 7.40625 8.640625 6.09375 10.953125 4.203125 16.375 
L 1.5 15.375 
C 3.59375 9.234375 4.40625 5.609375 5 0.59375 
C 10.296875 -1.203125 14.703125 -2 18.40625 -2 
C 26.40625 -2 35.59375 2.5 41.09375 9.234375 
C 44.5 13.359375 46.203125 17.796875 46.203125 22.515625 
C 46.203125 27.34375 44.203125 31.578125 40.59375 34.09375 
C 38.09375 35.890625 35.796875 36.6875 30.796875 37.59375 
C 38.796875 43.765625 41.796875 48.34375 41.796875 54.21875 
C 41.796875 63.09375 34.40625 69 23.296875 69 
C 16.5 69 12 67.09375 7.203125 62.296875 
z
" id="URW_Palladio_L_Roman-51"/>
      </defs>
      <g transform="translate(207.454584 188.353876)scale(0.12 -0.12)">
       <use transform="scale(0.996264)" xlink:href="#URW_Palladio_L_Roman-51"/>
       <use transform="translate(49.8132 0)scale(0.996264)" xlink:href="#URW_Palladio_L_Roman-48"/>
      </g>
     </g>
    </g>
    <g id="xtick_5">
     <g id="line2d_5">
      <g>
       <use style="stroke:#000000;stroke-width:0.8;" x="263.781818" xlink:href="#me8e6f0f8c3" y="172.8"/>
      </g>
     </g>
     <g id="text_5">
      <!-- $40$ -->
      <defs>
       <path d="M 28 18 
L 28 10.6875 
C 28 4.84375 26.90625 3.484375 22 3.28125 
L 15.796875 3 
L 15.796875 0 
C 29.09375 0 29.09375 0 31.5 0 
C 33.90625 0.296875 33.90625 0.296875 47.203125 0 
L 47.203125 3 
L 42.40625 3.28125 
C 37.5 3.578125 36.40625 4.84375 36.40625 10.6875 
L 36.40625 18 
C 42.296875 18 44.40625 17.890625 47.203125 17.609375 
L 47.203125 24.6875 
C 42.5 24.296875 40.59375 24.296875 39.09375 24.390625 
L 38.796875 24.390625 
L 36.40625 24.390625 
L 36.40625 38.203125 
C 36.40625 55.875 36.59375 64.40625 37.09375 68.484375 
L 35.90625 69 
L 28.5 66.296875 
L 0.203125 20.296875 
L 1.296875 18 
z
M 28 24.390625 
L 6.5 24.390625 
L 28 59.34375 
z
" id="URW_Palladio_L_Roman-52"/>
      </defs>
      <g transform="translate(257.804234 188.353876)scale(0.12 -0.12)">
       <use transform="scale(0.996264)" xlink:href="#URW_Palladio_L_Roman-52"/>
       <use transform="translate(49.8132 0)scale(0.996264)" xlink:href="#URW_Palladio_L_Roman-48"/>
      </g>
     </g>
    </g>
    <g id="text_6">
     <!-- In-degree -->
     <defs>
      <path d="M 21.59375 56.765625 
C 21.59375 64.609375 22.09375 65.390625 26.703125 65.6875 
L 31.5 65.984375 
L 31.5 69 
C 24.203125 68.6875 22 68.6875 16.796875 68.6875 
C 11.796875 68.6875 9.40625 68.796875 2.203125 69 
L 2.203125 65.984375 
L 7 65.6875 
C 11.59375 65.390625 12.09375 64.609375 12.09375 56.765625 
L 12.09375 12.21875 
C 12.09375 4.375 11.59375 3.59375 7 3.296875 
L 2.203125 3 
L 2.203125 0 
C 8.09375 -0.109375 11.59375 0 16.796875 0 
C 22 0.296875 25.59375 0.1875 31.5 0 
L 31.5 3 
L 26.703125 3.296875 
C 22.09375 3.59375 21.59375 4.390625 21.59375 12.296875 
z
" id="URW_Palladio_L_Roman-73"/>
      <path d="M 41 0 
C 47.09375 0 47.203125 0 48.90625 0 
C 50.296875 0.296875 50.296875 0.296875 57.203125 0 
L 57.203125 3 
L 53.09375 3.296875 
C 49.703125 3.484375 49.40625 4.09375 49.40625 10.46875 
L 49.40625 29.71875 
C 49.40625 41.390625 43.90625 47.09375 32.703125 47.09375 
C 29 47.09375 26.90625 46.390625 24.796875 44.59375 
L 17.203125 38 
L 17.203125 46.6875 
L 16.296875 47 
C 11.203125 44.890625 6 43.5 0.703125 42.90625 
L 0.703125 40.125 
L 4.40625 40.125 
C 8.40625 40.125 8.796875 39.421875 8.796875 32.859375 
L 8.796875 10.453125 
C 8.796875 4.1875 8.5 3.484375 5.09375 3.296875 
L 0.59375 3 
L 0.59375 0 
C 7.40625 -0.109375 10.09375 0 13 0 
C 15.90625 0.296875 18.59375 0.1875 25.40625 0 
L 25.40625 3 
L 20.90625 3.296875 
C 17.5 3.484375 17.203125 4.1875 17.203125 10.46875 
L 17.203125 31.609375 
C 17.203125 36.109375 23.796875 41 29.90625 41 
C 36.59375 41 41 36 41 28.328125 
z
" id="URW_Palladio_L_Roman-110"/>
      <path d="M 28.203125 21.796875 
L 31.203125 28.484375 
L 30.703125 29 
L 4.40625 29 
L 1.703125 22.296875 
L 2.203125 21.796875 
z
" id="URW_Palladio_L_Roman-45"/>
      <path d="M 41.203125 43.796875 
C 35.59375 46.1875 32.796875 47 29.296875 47 
C 26.59375 47 24.203125 46.390625 21.703125 45.09375 
L 12.90625 40.5 
C 7.203125 37.5 3.5 30.21875 3.5 21.75 
C 3.5 13.765625 6.203125 7.1875 11.09375 3.1875 
C 14.5 0.296875 19.203125 -1 25.703125 -1 
C 27.703125 -1 30 -0.609375 30.5 -0.203125 
L 41.59375 9.078125 
L 41.09375 0 
C 46 -0.109375 47.59375 0 48.796875 0 
C 49.59375 0 51 0 53.09375 -0.109375 
C 53.796875 0.09375 55.796875 0.09375 57.90625 0 
L 57.90625 3 
L 53.296875 3.296875 
C 49.90625 3.5 49.59375 4.1875 49.59375 10.5 
L 49.59375 72.09375 
L 48.703125 72.890625 
C 44.296875 71.203125 41 70.390625 33.09375 69.203125 
L 33.09375 66.390625 
L 38.703125 66.390625 
C 40.5 66.390625 41.203125 65.296875 41.203125 62.296875 
z
M 41.203125 22.25 
C 41.203125 15.765625 41 14.765625 39.703125 12.46875 
C 36.90625 7.78125 32 4.6875 27.296875 4.6875 
C 18.5 4.6875 12.203125 13.171875 12.203125 25.03125 
C 12.203125 35.90625 17.59375 42.296875 26.59375 42.296875 
C 30.40625 42.296875 34.40625 41 37.90625 38.59375 
C 40 37.203125 41.203125 35.90625 41.203125 35.109375 
z
" id="URW_Palladio_L_Roman-100"/>
      <path d="M 43.703125 6.984375 
L 42.40625 7.984375 
C 36 4.1875 33.703125 3.296875 29.40625 3.296875 
C 22.90625 3.296875 17.5 6.1875 14.703125 11.09375 
C 12.796875 14.390625 12.09375 17.1875 11.90625 23 
L 26.5 23 
C 33.40625 23 37.703125 23.296875 44.59375 24.390625 
C 44.703125 25.796875 44.796875 26.6875 44.796875 27.90625 
C 44.796875 39.46875 37.40625 47 26.203125 47 
C 22.5 47 18.203125 45.6875 14.09375 43.296875 
C 5.90625 38.5625 2.59375 32.328125 2.59375 21.890625 
C 2.59375 15.59375 4.09375 10.1875 6.796875 6.390625 
C 10.796875 1.09375 17.5 -2 25 -2 
C 28.703125 -2 32.40625 -1.203125 36.5 0.59375 
C 39.203125 1.6875 41.296875 3 41.703125 3.59375 
z
M 35.90625 26.6875 
C 30.703125 26.5 28.296875 26.390625 24.703125 26.390625 
C 20.09375 26.390625 17.5 26.5 12.09375 27 
C 12.09375 31.71875 12.5 33.9375 13.796875 36.546875 
C 15.90625 40.984375 20.203125 43.6875 25 43.6875 
C 28.296875 43.6875 30.90625 42.390625 32.703125 39.671875 
C 34.90625 36.34375 35.59375 33.4375 35.90625 26.6875 
z
" id="URW_Palladio_L_Roman-101"/>
      <path d="M 51.90625 38.3125 
L 54.40625 42.390625 
L 54 43.59375 
L 39.796875 43.1875 
C 36.09375 46.1875 32.5 47.390625 27.59375 47.390625 
C 23.203125 47.390625 18.09375 46 14 43.59375 
C 8.40625 40.40625 5.5 35.53125 5.5 29.453125 
C 5.5 22.078125 10.09375 16.984375 17.5 16.1875 
L 9.59375 9.96875 
C 8.59375 8.4375 8.09375 7.109375 8.09375 5.59375 
C 8.09375 2.796875 9.90625 1.1875 14.703125 -0.203125 
L 6 -4.921875 
C 4.59375 -5.734375 3.203125 -9.4375 3.203125 -12.5625 
C 3.203125 -21.6875 12.09375 -28 24.796875 -28 
C 39.90625 -28 51.796875 -18.484375 51.796875 -6.234375 
C 51.796875 1 47 6 40 6 
L 24 6 
C 18.796875 6 16.40625 7.21875 16.40625 9.96875 
C 16.40625 11.296875 17.203125 12.421875 19.796875 14.671875 
C 20.40625 15.1875 20.59375 15.390625 21 15.796875 
C 22 15.6875 22.59375 15.59375 23.40625 15.59375 
C 27.703125 15.59375 33 17.484375 37.09375 20.390625 
C 41.59375 23.671875 43.796875 27.65625 43.796875 32.9375 
C 43.796875 34.921875 43.5 36.21875 42.703125 38.3125 
z
M 24 44 
C 30.796875 44 35.40625 38.40625 35.40625 29.953125 
C 35.40625 23.46875 31.203125 19 25.09375 19 
C 18.40625 19 13.90625 24.171875 13.90625 31.84375 
C 13.90625 39.515625 17.59375 44 24 44 
z
M 28.703125 -1 
C 40 -1 43.90625 -3.3125 43.90625 -9.84375 
C 43.90625 -18.484375 36 -24.90625 25.5 -24.90625 
C 16.796875 -24.90625 10.796875 -19.78125 10.796875 -12.359375 
C 10.796875 -7.84375 13.40625 -3.71875 17.40625 -2.015625 
C 19 -1.203125 21.796875 -1 28.703125 -1 
z
" id="URW_Palladio_L_Roman-103"/>
      <path d="M 2.296875 40.296875 
L 6 40.296875 
C 10 40.296875 10.40625 39.59375 10.40625 33 
L 10.40625 10.5 
C 10.40625 4.1875 10.09375 3.5 6.703125 3.296875 
L 2.09375 3 
L 2.09375 0 
C 9.296875 -0.109375 11.90625 0 14.40625 0 
C 16.40625 0.296875 16.40625 0.296875 28.703125 0 
L 28.703125 3 
L 23.5 3.296875 
C 19 3.59375 18.796875 3.890625 18.796875 10.453125 
L 18.796875 27.546875 
C 18.796875 33.515625 22.796875 38.484375 27.703125 38.484375 
C 30.703125 38.484375 32.796875 37.09375 34.40625 33.921875 
L 36.5 33.921875 
L 37.40625 45.890625 
C 36.296875 46.59375 34.5 47 32.703125 47 
C 29.703125 47 26.5 45.390625 24.40625 42.890625 
L 18.796875 36.3125 
L 18.796875 46.59375 
L 17.90625 47 
C 12.796875 44.890625 7.59375 43.484375 2.296875 42.890625 
z
" id="URW_Palladio_L_Roman-114"/>
     </defs>
     <g transform="translate(136.079993 205.704689)scale(0.14 -0.14)">
      <use transform="scale(0.996264)" xlink:href="#URW_Palladio_L_Roman-73"/>
      <use transform="translate(33.574079 0)scale(0.996264)" xlink:href="#URW_Palladio_L_Roman-110"/>
      <use transform="translate(91.55614 0)scale(0.996264)" xlink:href="#URW_Palladio_L_Roman-45"/>
      <use transform="translate(124.731369 0)scale(0.996264)" xlink:href="#URW_Palladio_L_Roman-100"/>
      <use transform="translate(185.603 0)scale(0.996264)" xlink:href="#URW_Palladio_L_Roman-101"/>
      <use transform="translate(233.323295 0)scale(0.996264)" xlink:href="#URW_Palladio_L_Roman-103"/>
      <use transform="translate(288.714972 0)scale(0.996264)" xlink:href="#URW_Palladio_L_Roman-114"/>
      <use transform="translate(326.274289 0)scale(0.996264)" xlink:href="#URW_Palladio_L_Roman-101"/>
      <use transform="translate(373.994585 0)scale(0.996264)" xlink:href="#URW_Palladio_L_Roman-101"/>
     </g>
    </g>
   </g>
   <g id="matplotlib.axis_2">
    <g id="ytick_1">
     <g id="line2d_6">
      <defs>
       <path d="M 0 0 
L -3.5 0 
" id="m200f37dc95" style="stroke:#000000;stroke-width:0.8;"/>
      </defs>
      <g>
       <use style="stroke:#000000;stroke-width:0.8;" x="57.6" xlink:href="#m200f37dc95" y="160.647079"/>
      </g>
     </g>
     <g id="text_7">
      <!-- $16$ -->
      <defs>
       <path d="M 41.59375 66.984375 
L 37.90625 68.6875 
C 28.296875 65.515625 24.203125 63.53125 19.09375 59.1875 
C 8.796875 50.578125 3.203125 38.484375 3.203125 24.765625 
C 3.203125 8.21875 11.203125 -2 24.09375 -2 
C 37.09375 -2 46.796875 8.3125 46.796875 21.953125 
C 46.796875 33.484375 39.90625 41 29.296875 41 
C 24.296875 41 21.296875 39.6875 15.40625 34.984375 
C 14.296875 34.09375 14.203125 33.984375 13.09375 33.1875 
C 15.203125 51.171875 23.59375 60.859375 41.59375 66.203125 
z
M 25.5 34.984375 
C 33.09375 34.984375 38.203125 28.375 38.203125 18.4375 
C 38.203125 8.015625 33.09375 1.296875 25.40625 1.296875 
C 16.90625 1.296875 12.296875 8.609375 12.296875 22.046875 
C 12.296875 25.5625 12.703125 27.46875 13.796875 29.171875 
C 16 32.578125 20.703125 34.984375 25.5 34.984375 
z
" id="URW_Palladio_L_Roman-54"/>
      </defs>
      <g transform="translate(38.644832 164.924017)scale(0.12 -0.12)">
       <use transform="scale(0.996264)" xlink:href="#URW_Palladio_L_Roman-49"/>
       <use transform="translate(49.8132 0)scale(0.996264)" xlink:href="#URW_Palladio_L_Roman-54"/>
      </g>
     </g>
    </g>
    <g id="ytick_2">
     <g id="line2d_7">
      <g>
       <use style="stroke:#000000;stroke-width:0.8;" x="57.6" xlink:href="#m200f37dc95" y="128.153306"/>
      </g>
     </g>
     <g id="text_8">
      <!-- $18$ -->
      <defs>
       <path d="M 16.796875 34.546875 
C 12.703125 32.640625 11 31.546875 8.796875 29.4375 
C 5 25.625 3 21.125 3 15.921875 
C 3 5.59375 11.296875 -2 22.59375 -2 
C 35.59375 -2 46.40625 8.203125 46.40625 20.625 
C 46.40625 28.640625 42.703125 32.9375 31.296875 38.15625 
C 40.40625 44.359375 43.59375 48.5625 43.59375 54.578125 
C 43.59375 63.1875 36.5 69 25.90625 69 
C 14 69 5.296875 61.390625 5.296875 50.875 
C 5.296875 44.0625 8 40.25 16.796875 34.546875 
z
M 28.40625 29.53125 
C 34.703125 26.734375 38.5 21.828125 38.5 16.421875 
C 38.5 8 32.203125 1.390625 24.09375 1.390625 
C 15.59375 1.390625 10.09375 7.40625 10.09375 16.71875 
C 10.09375 24.03125 13 28.640625 20.40625 33.140625 
z
M 22.296875 42.359375 
C 16 45.46875 12.796875 49.46875 12.796875 54.46875 
C 12.796875 61.09375 17.59375 65.59375 24.703125 65.59375 
C 32 65.59375 36.796875 60.78125 36.796875 53.46875 
C 36.796875 47.765625 34.296875 43.859375 27.796875 39.65625 
z
" id="URW_Palladio_L_Roman-56"/>
      </defs>
      <g transform="translate(38.644832 132.430244)scale(0.12 -0.12)">
       <use transform="scale(0.996264)" xlink:href="#URW_Palladio_L_Roman-49"/>
       <use transform="translate(49.8132 0)scale(0.996264)" xlink:href="#URW_Palladio_L_Roman-56"/>
      </g>
     </g>
    </g>
    <g id="ytick_3">
     <g id="line2d_8">
      <g>
       <use style="stroke:#000000;stroke-width:0.8;" x="57.6" xlink:href="#m200f37dc95" y="95.659532"/>
      </g>
     </g>
     <g id="text_9">
      <!-- $20$ -->
      <g transform="translate(38.644832 99.93647)scale(0.12 -0.12)">
       <use transform="scale(0.996264)" xlink:href="#URW_Palladio_L_Roman-50"/>
       <use transform="translate(49.8132 0)scale(0.996264)" xlink:href="#URW_Palladio_L_Roman-48"/>
      </g>
     </g>
    </g>
    <g id="ytick_4">
     <g id="line2d_9">
      <g>
       <use style="stroke:#000000;stroke-width:0.8;" x="57.6" xlink:href="#m200f37dc95" y="63.165758"/>
      </g>
     </g>
     <g id="text_10">
      <!-- $22$ -->
      <g transform="translate(38.644832 67.442696)scale(0.12 -0.12)">
       <use transform="scale(0.996264)" xlink:href="#URW_Palladio_L_Roman-50"/>
       <use transform="translate(49.8132 0)scale(0.996264)" xlink:href="#URW_Palladio_L_Roman-50"/>
      </g>
     </g>
    </g>
    <g id="ytick_5">
     <g id="line2d_10">
      <g>
       <use style="stroke:#000000;stroke-width:0.8;" x="57.6" xlink:href="#m200f37dc95" y="30.671985"/>
      </g>
     </g>
     <g id="text_11">
      <!-- $24$ -->
      <g transform="translate(38.644832 34.948923)scale(0.12 -0.12)">
       <use transform="scale(0.996264)" xlink:href="#URW_Palladio_L_Roman-50"/>
       <use transform="translate(49.8132 0)scale(0.996264)" xlink:href="#URW_Palladio_L_Roman-52"/>
      </g>
     </g>
    </g>
    <g id="text_12">
     <!-- Out-degree -->
     <defs>
      <path d="M 40.203125 71 
C 17.40625 71 2.203125 56.171875 2.203125 34.140625 
C 2.203125 13.109375 16.796875 -2 37 -2 
C 59.40625 -2 76.40625 14.71875 76.40625 36.75 
C 76.40625 57.78125 62.40625 71 40.203125 71 
z
M 38.5 66.796875 
C 55.59375 66.796875 65.703125 54.578125 65.703125 33.75 
C 65.703125 13.90625 56.5 2.1875 41 2.1875 
C 24.203125 2.1875 12.90625 16.421875 12.90625 37.84375 
C 12.90625 56.375 22.09375 66.796875 38.5 66.796875 
z
" id="URW_Palladio_L_Roman-79"/>
      <path d="M 50.296875 46.59375 
L 49.40625 47 
C 44.296875 44.890625 39.09375 43.5 33.796875 42.890625 
L 33.796875 40.109375 
L 37.5 40.109375 
C 41.5 40.109375 41.90625 39.40625 41.90625 32.828125 
L 41.90625 16.5625 
C 41.90625 14.375 40.5 11.578125 38.203125 9.28125 
C 35.40625 6.484375 32.203125 5.09375 28.296875 5.09375 
C 24.796875 5.09375 22 6.1875 20.40625 8.078125 
C 19 9.6875 18.296875 12.765625 18.296875 17.15625 
L 18.296875 46.59375 
L 17.40625 47 
C 12.296875 44.890625 7.09375 43.5 1.796875 42.890625 
L 1.796875 40.109375 
L 5.5 40.109375 
C 9.5 40.109375 9.90625 39.40625 9.90625 32.828125 
L 9.90625 16.0625 
C 9.90625 9.078125 10.5 5.984375 12.296875 3.5 
C 14.5 0.5 18.296875 -1 24 -1 
C 28.5 -0.90625 32.5 0.5 35.203125 3 
L 41.90625 9.1875 
C 41.90625 6.296875 41.796875 4.6875 41.5 0 
C 48.203125 0 48.296875 0 49.796875 0 
C 51.203125 0.296875 51.203125 0.296875 58.09375 0 
L 58.09375 3 
L 54 3.296875 
C 50.59375 3.5 50.296875 4.09375 50.296875 10.5 
z
" id="URW_Palladio_L_Roman-117"/>
      <path d="M 9.796875 38.390625 
L 9.796875 9.59375 
C 9.796875 2.1875 13.09375 -1 20.796875 -1 
C 23.09375 -1 25.5 -0.5 26.09375 0.1875 
L 30.90625 5.5 
L 29.59375 7.1875 
C 27.09375 5.796875 25.59375 5.296875 23.703125 5.296875 
C 19.796875 5.296875 18.203125 7.296875 18.203125 12.1875 
L 18.203125 38.390625 
L 31 38.390625 
L 31.90625 43.796875 
L 18.203125 43.1875 
L 18.203125 47 
C 18.203125 51.203125 18.5 54.796875 19.296875 61.203125 
L 18.09375 62.296875 
C 15.703125 60.796875 12.703125 59.5 9.59375 58.5 
C 9.90625 55.5 10 53.59375 10 50.59375 
L 10 43.59375 
L 2.203125 40.09375 
L 2.203125 38 
z
" id="URW_Palladio_L_Roman-116"/>
     </defs>
     <g transform="translate(30.71166 126.871074)rotate(-90)scale(0.14 -0.14)">
      <use transform="scale(0.996264)" xlink:href="#URW_Palladio_L_Roman-79"/>
      <use transform="translate(78.306281 0)scale(0.996264)" xlink:href="#URW_Palladio_L_Roman-117"/>
      <use transform="translate(138.380016 0)scale(0.996264)" xlink:href="#URW_Palladio_L_Roman-116"/>
      <use transform="translate(170.857104 0)scale(0.996264)" xlink:href="#URW_Palladio_L_Roman-45"/>
      <use transform="translate(204.032334 0)scale(0.996264)" xlink:href="#URW_Palladio_L_Roman-100"/>
      <use transform="translate(264.903964 0)scale(0.996264)" xlink:href="#URW_Palladio_L_Roman-101"/>
      <use transform="translate(312.624259 0)scale(0.996264)" xlink:href="#URW_Palladio_L_Roman-103"/>
      <use transform="translate(368.015936 0)scale(0.996264)" xlink:href="#URW_Palladio_L_Roman-114"/>
      <use transform="translate(405.575254 0)scale(0.996264)" xlink:href="#URW_Palladio_L_Roman-101"/>
      <use transform="translate(453.295549 0)scale(0.996264)" xlink:href="#URW_Palladio_L_Roman-101"/>
     </g>
    </g>
   </g>
   <g id="LineCollection_1">
    <path clip-path="url(#pe34e822c67)" d="M 67.418182 98.514766 
L 67.418182 74.557794 
" style="fill:none;stroke:#1f77b4;stroke-width:1.5;"/>
    <path clip-path="url(#pe34e822c67)" d="M 72.453147 132.132963 
L 72.453147 108.397685 
" style="fill:none;stroke:#1f77b4;stroke-width:1.5;"/>
    <path clip-path="url(#pe34e822c67)" d="M 77.488112 147.565252 
L 77.488112 123.010364 
" style="fill:none;stroke:#1f77b4;stroke-width:1.5;"/>
    <path clip-path="url(#pe34e822c67)" d="M 82.523077 145.202804 
L 82.523077 122.196059 
" style="fill:none;stroke:#1f77b4;stroke-width:1.5;"/>
    <path clip-path="url(#pe34e822c67)" d="M 87.558042 142.58013 
L 87.558042 119.873952 
" style="fill:none;stroke:#1f77b4;stroke-width:1.5;"/>
    <path clip-path="url(#pe34e822c67)" d="M 92.593007 150.637152 
L 92.593007 126.898725 
" style="fill:none;stroke:#1f77b4;stroke-width:1.5;"/>
    <path clip-path="url(#pe34e822c67)" d="M 97.627972 141.643977 
L 97.627972 117.172883 
" style="fill:none;stroke:#1f77b4;stroke-width:1.5;"/>
    <path clip-path="url(#pe34e822c67)" d="M 102.662937 121.472584 
L 102.662937 96.614479 
" style="fill:none;stroke:#1f77b4;stroke-width:1.5;"/>
    <path clip-path="url(#pe34e822c67)" d="M 107.697902 119.095762 
L 107.697902 94.803721 
" style="fill:none;stroke:#1f77b4;stroke-width:1.5;"/>
    <path clip-path="url(#pe34e822c67)" d="M 112.732867 107.321169 
L 112.732867 83.625829 
" style="fill:none;stroke:#1f77b4;stroke-width:1.5;"/>
    <path clip-path="url(#pe34e822c67)" d="M 117.767832 88.016439 
L 117.767832 64.74658 
" style="fill:none;stroke:#1f77b4;stroke-width:1.5;"/>
    <path clip-path="url(#pe34e822c67)" d="M 122.802797 68.904274 
L 122.802797 45.759024 
" style="fill:none;stroke:#1f77b4;stroke-width:1.5;"/>
    <path clip-path="url(#pe34e822c67)" d="M 127.837762 66.417302 
L 127.837762 44.841057 
" style="fill:none;stroke:#1f77b4;stroke-width:1.5;"/>
    <path clip-path="url(#pe34e822c67)" d="M 132.872727 58.961057 
L 132.872727 37.40398 
" style="fill:none;stroke:#1f77b4;stroke-width:1.5;"/>
    <path clip-path="url(#pe34e822c67)" d="M 137.907692 42.415083 
L 137.907692 20.411493 
" style="fill:none;stroke:#1f77b4;stroke-width:1.5;"/>
    <path clip-path="url(#pe34e822c67)" d="M 142.942657 51.139935 
L 142.942657 27.210122 
" style="fill:none;stroke:#1f77b4;stroke-width:1.5;"/>
    <path clip-path="url(#pe34e822c67)" d="M 147.977622 42.370948 
L 147.977622 20.036455 
" style="fill:none;stroke:#1f77b4;stroke-width:1.5;"/>
    <path clip-path="url(#pe34e822c67)" d="M 153.012587 58.902506 
L 153.012587 36.607711 
" style="fill:none;stroke:#1f77b4;stroke-width:1.5;"/>
    <path clip-path="url(#pe34e822c67)" d="M 158.047552 70.383347 
L 158.047552 47.397177 
" style="fill:none;stroke:#1f77b4;stroke-width:1.5;"/>
    <path clip-path="url(#pe34e822c67)" d="M 163.082517 129.151204 
L 163.082517 104.670264 
" style="fill:none;stroke:#1f77b4;stroke-width:1.5;"/>
    <path clip-path="url(#pe34e822c67)" d="M 168.117483 110.4181 
L 168.117483 87.219198 
" style="fill:none;stroke:#1f77b4;stroke-width:1.5;"/>
    <path clip-path="url(#pe34e822c67)" d="M 173.152448 135.946747 
L 173.152448 113.688139 
" style="fill:none;stroke:#1f77b4;stroke-width:1.5;"/>
    <path clip-path="url(#pe34e822c67)" d="M 178.187413 149.223693 
L 178.187413 125.106808 
" style="fill:none;stroke:#1f77b4;stroke-width:1.5;"/>
    <path clip-path="url(#pe34e822c67)" d="M 183.222378 126.070495 
L 183.222378 102.681397 
" style="fill:none;stroke:#1f77b4;stroke-width:1.5;"/>
    <path clip-path="url(#pe34e822c67)" d="M 188.257343 135.199123 
L 188.257343 111.059213 
" style="fill:none;stroke:#1f77b4;stroke-width:1.5;"/>
    <path clip-path="url(#pe34e822c67)" d="M 193.292308 165.436364 
L 193.292308 142.653154 
" style="fill:none;stroke:#1f77b4;stroke-width:1.5;"/>
    <path clip-path="url(#pe34e822c67)" d="M 198.327273 136.706072 
L 198.327273 112.902262 
" style="fill:none;stroke:#1f77b4;stroke-width:1.5;"/>
    <path clip-path="url(#pe34e822c67)" d="M 203.362238 146.663802 
L 203.362238 123.826599 
" style="fill:none;stroke:#1f77b4;stroke-width:1.5;"/>
    <path clip-path="url(#pe34e822c67)" d="M 208.397203 107.721906 
L 208.397203 84.717633 
" style="fill:none;stroke:#1f77b4;stroke-width:1.5;"/>
    <path clip-path="url(#pe34e822c67)" d="M 213.432168 92.800718 
L 213.432168 69.676974 
" style="fill:none;stroke:#1f77b4;stroke-width:1.5;"/>
    <path clip-path="url(#pe34e822c67)" d="M 218.467133 70.324974 
L 218.467133 45.958268 
" style="fill:none;stroke:#1f77b4;stroke-width:1.5;"/>
    <path clip-path="url(#pe34e822c67)" d="M 223.502098 73.091477 
L 223.502098 50.778391 
" style="fill:none;stroke:#1f77b4;stroke-width:1.5;"/>
    <path clip-path="url(#pe34e822c67)" d="M 228.537063 56.818693 
L 228.537063 33.553048 
" style="fill:none;stroke:#1f77b4;stroke-width:1.5;"/>
    <path clip-path="url(#pe34e822c67)" d="M 233.572028 42.019841 
L 233.572028 18.163636 
" style="fill:none;stroke:#1f77b4;stroke-width:1.5;"/>
    <path clip-path="url(#pe34e822c67)" d="M 238.606993 57.034535 
L 238.606993 34.303687 
" style="fill:none;stroke:#1f77b4;stroke-width:1.5;"/>
    <path clip-path="url(#pe34e822c67)" d="M 243.641958 58.848937 
L 243.641958 36.758895 
" style="fill:none;stroke:#1f77b4;stroke-width:1.5;"/>
    <path clip-path="url(#pe34e822c67)" d="M 248.676923 67.834608 
L 248.676923 43.520355 
" style="fill:none;stroke:#1f77b4;stroke-width:1.5;"/>
    <path clip-path="url(#pe34e822c67)" d="M 253.711888 74.179209 
L 253.711888 49.729527 
" style="fill:none;stroke:#1f77b4;stroke-width:1.5;"/>
    <path clip-path="url(#pe34e822c67)" d="M 258.746853 84.977984 
L 258.746853 63.289763 
" style="fill:none;stroke:#1f77b4;stroke-width:1.5;"/>
    <path clip-path="url(#pe34e822c67)" d="M 263.781818 96.6735 
L 263.781818 73.107545 
" style="fill:none;stroke:#1f77b4;stroke-width:1.5;"/>
   </g>
   <g id="line2d_11">
    <defs>
     <path d="M 0 2 
C 0.530406 2 1.03916 1.789267 1.414214 1.414214 
C 1.789267 1.03916 2 0.530406 2 0 
C 2 -0.530406 1.789267 -1.03916 1.414214 -1.414214 
C 1.03916 -1.789267 0.530406 -2 0 -2 
C -0.530406 -2 -1.03916 -1.789267 -1.414214 -1.414214 
C -1.789267 -1.03916 -2 -0.530406 -2 0 
C -2 0.530406 -1.789267 1.03916 -1.414214 1.414214 
C -1.03916 1.789267 -0.530406 2 0 2 
z
" id="m2d41c8d7e1" style="stroke:#1f77b4;"/>
    </defs>
    <g clip-path="url(#pe34e822c67)">
     <use style="fill:#1f77b4;stroke:#1f77b4;" x="67.418182" xlink:href="#m2d41c8d7e1" y="86.53628"/>
     <use style="fill:#1f77b4;stroke:#1f77b4;" x="72.453147" xlink:href="#m2d41c8d7e1" y="120.265324"/>
     <use style="fill:#1f77b4;stroke:#1f77b4;" x="77.488112" xlink:href="#m2d41c8d7e1" y="135.287808"/>
     <use style="fill:#1f77b4;stroke:#1f77b4;" x="82.523077" xlink:href="#m2d41c8d7e1" y="133.699432"/>
     <use style="fill:#1f77b4;stroke:#1f77b4;" x="87.558042" xlink:href="#m2d41c8d7e1" y="131.227041"/>
     <use style="fill:#1f77b4;stroke:#1f77b4;" x="92.593007" xlink:href="#m2d41c8d7e1" y="138.767938"/>
     <use style="fill:#1f77b4;stroke:#1f77b4;" x="97.627972" xlink:href="#m2d41c8d7e1" y="129.40843"/>
     <use style="fill:#1f77b4;stroke:#1f77b4;" x="102.662937" xlink:href="#m2d41c8d7e1" y="109.043531"/>
     <use style="fill:#1f77b4;stroke:#1f77b4;" x="107.697902" xlink:href="#m2d41c8d7e1" y="106.949742"/>
     <use style="fill:#1f77b4;stroke:#1f77b4;" x="112.732867" xlink:href="#m2d41c8d7e1" y="95.473499"/>
     <use style="fill:#1f77b4;stroke:#1f77b4;" x="117.767832" xlink:href="#m2d41c8d7e1" y="76.38151"/>
     <use style="fill:#1f77b4;stroke:#1f77b4;" x="122.802797" xlink:href="#m2d41c8d7e1" y="57.331649"/>
     <use style="fill:#1f77b4;stroke:#1f77b4;" x="127.837762" xlink:href="#m2d41c8d7e1" y="55.62918"/>
     <use style="fill:#1f77b4;stroke:#1f77b4;" x="132.872727" xlink:href="#m2d41c8d7e1" y="48.182518"/>
     <use style="fill:#1f77b4;stroke:#1f77b4;" x="137.907692" xlink:href="#m2d41c8d7e1" y="31.413288"/>
     <use style="fill:#1f77b4;stroke:#1f77b4;" x="142.942657" xlink:href="#m2d41c8d7e1" y="39.175028"/>
     <use style="fill:#1f77b4;stroke:#1f77b4;" x="147.977622" xlink:href="#m2d41c8d7e1" y="31.203701"/>
     <use style="fill:#1f77b4;stroke:#1f77b4;" x="153.012587" xlink:href="#m2d41c8d7e1" y="47.755108"/>
     <use style="fill:#1f77b4;stroke:#1f77b4;" x="158.047552" xlink:href="#m2d41c8d7e1" y="58.890262"/>
     <use style="fill:#1f77b4;stroke:#1f77b4;" x="163.082517" xlink:href="#m2d41c8d7e1" y="116.910734"/>
     <use style="fill:#1f77b4;stroke:#1f77b4;" x="168.117483" xlink:href="#m2d41c8d7e1" y="98.818649"/>
     <use style="fill:#1f77b4;stroke:#1f77b4;" x="173.152448" xlink:href="#m2d41c8d7e1" y="124.817443"/>
     <use style="fill:#1f77b4;stroke:#1f77b4;" x="178.187413" xlink:href="#m2d41c8d7e1" y="137.165251"/>
     <use style="fill:#1f77b4;stroke:#1f77b4;" x="183.222378" xlink:href="#m2d41c8d7e1" y="114.375946"/>
     <use style="fill:#1f77b4;stroke:#1f77b4;" x="188.257343" xlink:href="#m2d41c8d7e1" y="123.129168"/>
     <use style="fill:#1f77b4;stroke:#1f77b4;" x="193.292308" xlink:href="#m2d41c8d7e1" y="154.044759"/>
     <use style="fill:#1f77b4;stroke:#1f77b4;" x="198.327273" xlink:href="#m2d41c8d7e1" y="124.804167"/>
     <use style="fill:#1f77b4;stroke:#1f77b4;" x="203.362238" xlink:href="#m2d41c8d7e1" y="135.245201"/>
     <use style="fill:#1f77b4;stroke:#1f77b4;" x="208.397203" xlink:href="#m2d41c8d7e1" y="96.21977"/>
     <use style="fill:#1f77b4;stroke:#1f77b4;" x="213.432168" xlink:href="#m2d41c8d7e1" y="81.238846"/>
     <use style="fill:#1f77b4;stroke:#1f77b4;" x="218.467133" xlink:href="#m2d41c8d7e1" y="58.141621"/>
     <use style="fill:#1f77b4;stroke:#1f77b4;" x="223.502098" xlink:href="#m2d41c8d7e1" y="61.934934"/>
     <use style="fill:#1f77b4;stroke:#1f77b4;" x="228.537063" xlink:href="#m2d41c8d7e1" y="45.18587"/>
     <use style="fill:#1f77b4;stroke:#1f77b4;" x="233.572028" xlink:href="#m2d41c8d7e1" y="30.091739"/>
     <use style="fill:#1f77b4;stroke:#1f77b4;" x="238.606993" xlink:href="#m2d41c8d7e1" y="45.669111"/>
     <use style="fill:#1f77b4;stroke:#1f77b4;" x="243.641958" xlink:href="#m2d41c8d7e1" y="47.803916"/>
     <use style="fill:#1f77b4;stroke:#1f77b4;" x="248.676923" xlink:href="#m2d41c8d7e1" y="55.677481"/>
     <use style="fill:#1f77b4;stroke:#1f77b4;" x="253.711888" xlink:href="#m2d41c8d7e1" y="61.954368"/>
     <use style="fill:#1f77b4;stroke:#1f77b4;" x="258.746853" xlink:href="#m2d41c8d7e1" y="74.133873"/>
     <use style="fill:#1f77b4;stroke:#1f77b4;" x="263.781818" xlink:href="#m2d41c8d7e1" y="84.890523"/>
    </g>
   </g>
   <g id="patch_3">
    <path d="M 57.6 172.8 
L 57.6 10.8 
" style="fill:none;stroke:#000000;stroke-linecap:square;stroke-linejoin:miter;stroke-width:0.8;"/>
   </g>
   <g id="patch_4">
    <path d="M 273.6 172.8 
L 273.6 10.8 
" style="fill:none;stroke:#000000;stroke-linecap:square;stroke-linejoin:miter;stroke-width:0.8;"/>
   </g>
   <g id="patch_5">
    <path d="M 57.6 172.8 
L 273.6 172.8 
" style="fill:none;stroke:#000000;stroke-linecap:square;stroke-linejoin:miter;stroke-width:0.8;"/>
   </g>
   <g id="patch_6">
    <path d="M 57.6 10.8 
L 273.6 10.8 
" style="fill:none;stroke:#000000;stroke-linecap:square;stroke-linejoin:miter;stroke-width:0.8;"/>
   </g>
  </g>
 </g>
 <defs>
  <clipPath id="pe34e822c67">
   <rect height="162" width="216" x="57.6" y="10.8"/>
  </clipPath>
 </defs>
</svg>
