<?xml version="1.0" encoding="utf-8" standalone="no"?>
<!DOCTYPE svg PUBLIC "-//W3C//DTD SVG 1.1//EN"
  "http://www.w3.org/Graphics/SVG/1.1/DTD/svg11.dtd">
<!-- Created with matplotlib (http://matplotlib.org/) -->
<svg height="216pt" version="1.1" viewBox="0 0 432 216" width="432pt" xmlns="http://www.w3.org/2000/svg" xmlns:xlink="http://www.w3.org/1999/xlink">
 <defs>
  <style type="text/css">
*{stroke-linecap:butt;stroke-linejoin:round;}
  </style>
 </defs>
 <g id="figure_1">
  <g id="patch_1">
   <path d="M 0 216 
L 432 216 
L 432 0 
L 0 0 
z
" style="fill:#ffffff;"/>
  </g>
  <g id="axes_1">
   <g id="patch_2">
    <path d="M 51.98787 163.288548 
L 230.964635 163.288548 
L 230.964635 17.64 
L 51.98787 17.64 
z
" style="fill:#ffffff;"/>
   </g>
   <g id="matplotlib.axis_1">
    <g id="xtick_1">
     <g id="line2d_1">
      <defs>
       <path d="M 0 0 
L 0 3.5 
" id="m6f24dd102f" style="stroke:#000000;stroke-width:0.8;"/>
      </defs>
      <g>
       <use style="stroke:#000000;stroke-width:0.8;" x="96.2801" xlink:href="#m6f24dd102f" y="163.288548"/>
      </g>
     </g>
     <g id="text_1">
      <!-- $5$ -->
      <defs>
       <path d="M 12.703125 60.796875 
C 25.59375 60.390625 31.203125 60.296875 43.203125 60.296875 
L 43.703125 60.796875 
C 43.5 62.59375 43.5 63.390625 43.5 64.6875 
C 43.5 66.09375 43.5 66.890625 43.703125 68.6875 
L 43.203125 69.1875 
C 35.703125 68.796875 31.203125 68.6875 25.796875 68.6875 
C 20.296875 68.6875 15.90625 68.796875 8.40625 69.1875 
L 7.90625 68.6875 
C 8 62.59375 8.09375 58.1875 8.09375 55 
C 8.09375 46.5 7.796875 36.875 7.5 32.4375 
L 9.5 31.84375 
C 14.203125 36.578125 16.90625 38 21.796875 38 
C 31.40625 38 37.40625 31.125 37.40625 20.234375 
C 37.40625 9.046875 31 2.5 20.09375 2.5 
C 14.703125 2.5 9.703125 4.3125 8.296875 6.921875 
L 3.703125 15.203125 
L 1.296875 13.78125 
C 3.59375 8.03125 4.796875 4.8125 6.203125 0.390625 
C 9 -1.109375 13 -2 17.296875 -2 
C 24 -2 31.09375 0.890625 36.59375 5.71875 
C 42.703125 11.171875 45.90625 18.015625 45.90625 25.484375 
C 45.90625 36.875 37.796875 44.890625 26.40625 44.890625 
C 21.59375 44.890625 18 43.59375 11.796875 39.890625 
z
" id="URW_Palladio_L_Roman-53"/>
      </defs>
      <g transform="translate(93.291308 178.842424)scale(0.12 -0.12)">
       <use transform="scale(0.996264)" xlink:href="#URW_Palladio_L_Roman-53"/>
      </g>
     </g>
    </g>
    <g id="xtick_2">
     <g id="line2d_2">
      <g>
       <use style="stroke:#000000;stroke-width:0.8;" x="141.476252" xlink:href="#m6f24dd102f" y="163.288548"/>
      </g>
     </g>
     <g id="text_2">
      <!-- $10$ -->
      <defs>
       <path d="M 6.703125 55.796875 
L 7.703125 55.796875 
L 20.59375 61.59375 
C 20.703125 61.703125 20.796875 61.703125 20.90625 61.703125 
C 21.5 61.703125 21.703125 60.796875 21.703125 58.390625 
L 21.703125 9.890625 
C 21.703125 4.6875 20.59375 3.59375 15.203125 3.296875 
L 9.59375 3 
L 9.59375 0 
C 25 0 25 0 26.09375 0 
C 27.40625 0 29.59375 0 33 -0.109375 
C 34.203125 0.09375 37.703125 0.09375 41.796875 0 
L 41.796875 3 
L 36.59375 3.296875 
C 31.09375 3.578125 30.09375 4.671875 30.09375 9.8125 
L 30.09375 68.484375 
L 28.703125 69 
C 22.203125 65.609375 15.09375 62.640625 6 59.484375 
z
" id="URW_Palladio_L_Roman-49"/>
       <path d="M 26.296875 69 
C 10.796875 69 2.90625 56.6875 2.90625 32.4375 
C 2.90625 20.71875 5 10.609375 8.5 5.703125 
C 12 0.796875 17.59375 -2 23.796875 -2 
C 38.90625 -2 46.5 11 46.5 36.640625 
C 46.5 58.578125 40 69 26.296875 69 
z
M 24.5 65.484375 
C 34.203125 65.484375 38.09375 55.671875 38.09375 31.640625 
C 38.09375 10.3125 34.296875 1.5 25.09375 1.5 
C 15.40625 1.5 11.296875 11.609375 11.296875 36.046875 
C 11.296875 57.1875 15 65.484375 24.5 65.484375 
z
" id="URW_Palladio_L_Roman-48"/>
      </defs>
      <g transform="translate(135.498668 178.842424)scale(0.12 -0.12)">
       <use transform="scale(0.996264)" xlink:href="#URW_Palladio_L_Roman-49"/>
       <use transform="translate(49.8132 0)scale(0.996264)" xlink:href="#URW_Palladio_L_Roman-48"/>
      </g>
     </g>
    </g>
    <g id="xtick_3">
     <g id="line2d_3">
      <g>
       <use style="stroke:#000000;stroke-width:0.8;" x="186.672405" xlink:href="#m6f24dd102f" y="163.288548"/>
      </g>
     </g>
     <g id="text_3">
      <!-- $15$ -->
      <g transform="translate(180.694821 178.842424)scale(0.12 -0.12)">
       <use transform="scale(0.996264)" xlink:href="#URW_Palladio_L_Roman-49"/>
       <use transform="translate(49.8132 0)scale(0.996264)" xlink:href="#URW_Palladio_L_Roman-53"/>
      </g>
     </g>
    </g>
    <g id="text_4">
     <!-- Source degree -->
     <defs>
      <path d="M 44.703125 52.671875 
C 44.703125 57.984375 45.09375 61.390625 46.09375 66.796875 
C 38.09375 69.984375 33.59375 71 28.09375 71 
C 13.203125 71 2.40625 61.59375 2.40625 48.46875 
C 2.40625 43.5625 3.703125 39.953125 6.59375 37.25 
C 10 34.140625 14.59375 32.546875 24.296875 31.234375 
C 32 30.140625 35.5 29.03125 38.09375 26.734375 
C 40.703125 24.625 41.90625 21.71875 41.90625 17.921875 
C 41.90625 8.90625 34.40625 2.390625 24 2.390625 
C 16 2.390625 8.203125 6.296875 7.703125 10.40625 
L 6.90625 17.109375 
L 3.703125 17.109375 
C 3.796875 15.3125 3.796875 13.703125 3.796875 13.109375 
C 3.796875 8.5 3.59375 6.296875 3 1.796875 
C 8.703125 -0.703125 14.5 -2 20.296875 -2 
C 37.703125 -2 50.296875 8.5 50.296875 23.03125 
C 50.296875 27.734375 49 31.03125 46.203125 33.640625 
C 42.703125 36.953125 38.5 38.25 27.296875 39.75 
C 15.09375 41.359375 10.796875 44.65625 10.796875 52.375 
C 10.796875 60.78125 17.09375 66.796875 25.90625 66.796875 
C 29.796875 66.796875 33.5 66 36.203125 64.484375 
C 39.5 62.78125 40.59375 61.28125 40.90625 58.375 
L 41.5 52.671875 
z
" id="URW_Palladio_L_Roman-83"/>
      <path d="M 27.90625 47 
C 13.296875 47 3.203125 36.671875 3.203125 21.734375 
C 3.203125 7.609375 12.09375 -2 25 -2 
C 40.40625 -2 51.40625 8.703125 51.40625 23.75 
C 51.40625 37.28125 41.59375 47 27.90625 47 
z
M 26.09375 43.6875 
C 35.296875 43.6875 42.09375 33.671875 42.09375 20.03125 
C 42.09375 8.515625 37 1.296875 28.90625 1.296875 
C 19.09375 1.296875 12.5 10.921875 12.5 25.140625 
C 12.5 37.171875 17.296875 43.6875 26.09375 43.6875 
z
" id="URW_Palladio_L_Roman-111"/>
      <path d="M 50.296875 46.59375 
L 49.40625 47 
C 44.296875 44.890625 39.09375 43.5 33.796875 42.890625 
L 33.796875 40.109375 
L 37.5 40.109375 
C 41.5 40.109375 41.90625 39.40625 41.90625 32.828125 
L 41.90625 16.5625 
C 41.90625 14.375 40.5 11.578125 38.203125 9.28125 
C 35.40625 6.484375 32.203125 5.09375 28.296875 5.09375 
C 24.796875 5.09375 22 6.1875 20.40625 8.078125 
C 19 9.6875 18.296875 12.765625 18.296875 17.15625 
L 18.296875 46.59375 
L 17.40625 47 
C 12.296875 44.890625 7.09375 43.5 1.796875 42.890625 
L 1.796875 40.109375 
L 5.5 40.109375 
C 9.5 40.109375 9.90625 39.40625 9.90625 32.828125 
L 9.90625 16.0625 
C 9.90625 9.078125 10.5 5.984375 12.296875 3.5 
C 14.5 0.5 18.296875 -1 24 -1 
C 28.5 -0.90625 32.5 0.5 35.203125 3 
L 41.90625 9.1875 
C 41.90625 6.296875 41.796875 4.6875 41.5 0 
C 48.203125 0 48.296875 0 49.796875 0 
C 51.203125 0.296875 51.203125 0.296875 58.09375 0 
L 58.09375 3 
L 54 3.296875 
C 50.59375 3.5 50.296875 4.09375 50.296875 10.5 
z
" id="URW_Palladio_L_Roman-117"/>
      <path d="M 2.296875 40.296875 
L 6 40.296875 
C 10 40.296875 10.40625 39.59375 10.40625 33 
L 10.40625 10.5 
C 10.40625 4.1875 10.09375 3.5 6.703125 3.296875 
L 2.09375 3 
L 2.09375 0 
C 9.296875 -0.109375 11.90625 0 14.40625 0 
C 16.40625 0.296875 16.40625 0.296875 28.703125 0 
L 28.703125 3 
L 23.5 3.296875 
C 19 3.59375 18.796875 3.890625 18.796875 10.453125 
L 18.796875 27.546875 
C 18.796875 33.515625 22.796875 38.484375 27.703125 38.484375 
C 30.703125 38.484375 32.796875 37.09375 34.40625 33.921875 
L 36.5 33.921875 
L 37.40625 45.890625 
C 36.296875 46.59375 34.5 47 32.703125 47 
C 29.703125 47 26.5 45.390625 24.40625 42.890625 
L 18.796875 36.3125 
L 18.796875 46.59375 
L 17.90625 47 
C 12.796875 44.890625 7.59375 43.484375 2.296875 42.890625 
z
" id="URW_Palladio_L_Roman-114"/>
      <path d="M 39.90625 31.171875 
C 39.90625 35.78125 40.40625 39.890625 41.296875 43.484375 
C 37.296875 45.890625 33.796875 47 29.703125 47 
C 24.90625 47 19.296875 45.09375 13.296875 41.296875 
C 6.296875 36.875 2.59375 29.859375 2.59375 21.046875 
C 2.59375 7.5 12.09375 -2 25.5 -2 
C 30.703125 -2 38.203125 -0.109375 39.203125 1.390625 
L 41.296875 4.59375 
L 40.296875 6.09375 
C 36.59375 4.09375 33.40625 3.1875 29.796875 3.1875 
C 18.703125 3.1875 11.40625 11.8125 11.40625 25.046875 
C 11.40625 35.78125 16.40625 41.796875 25.40625 41.796875 
C 29.796875 41.796875 34.59375 39.796875 36.40625 37.28125 
L 37.09375 31.171875 
z
" id="URW_Palladio_L_Roman-99"/>
      <path d="M 43.703125 6.984375 
L 42.40625 7.984375 
C 36 4.1875 33.703125 3.296875 29.40625 3.296875 
C 22.90625 3.296875 17.5 6.1875 14.703125 11.09375 
C 12.796875 14.390625 12.09375 17.1875 11.90625 23 
L 26.5 23 
C 33.40625 23 37.703125 23.296875 44.59375 24.390625 
C 44.703125 25.796875 44.796875 26.6875 44.796875 27.90625 
C 44.796875 39.46875 37.40625 47 26.203125 47 
C 22.5 47 18.203125 45.6875 14.09375 43.296875 
C 5.90625 38.5625 2.59375 32.328125 2.59375 21.890625 
C 2.59375 15.59375 4.09375 10.1875 6.796875 6.390625 
C 10.796875 1.09375 17.5 -2 25 -2 
C 28.703125 -2 32.40625 -1.203125 36.5 0.59375 
C 39.203125 1.6875 41.296875 3 41.703125 3.59375 
z
M 35.90625 26.6875 
C 30.703125 26.5 28.296875 26.390625 24.703125 26.390625 
C 20.09375 26.390625 17.5 26.5 12.09375 27 
C 12.09375 31.71875 12.5 33.9375 13.796875 36.546875 
C 15.90625 40.984375 20.203125 43.6875 25 43.6875 
C 28.296875 43.6875 30.90625 42.390625 32.703125 39.671875 
C 34.90625 36.34375 35.59375 33.4375 35.90625 26.6875 
z
" id="URW_Palladio_L_Roman-101"/>
      <path d="M 41.203125 43.796875 
C 35.59375 46.1875 32.796875 47 29.296875 47 
C 26.59375 47 24.203125 46.390625 21.703125 45.09375 
L 12.90625 40.5 
C 7.203125 37.5 3.5 30.21875 3.5 21.75 
C 3.5 13.765625 6.203125 7.1875 11.09375 3.1875 
C 14.5 0.296875 19.203125 -1 25.703125 -1 
C 27.703125 -1 30 -0.609375 30.5 -0.203125 
L 41.59375 9.078125 
L 41.09375 0 
C 46 -0.109375 47.59375 0 48.796875 0 
C 49.59375 0 51 0 53.09375 -0.109375 
C 53.796875 0.09375 55.796875 0.09375 57.90625 0 
L 57.90625 3 
L 53.296875 3.296875 
C 49.90625 3.5 49.59375 4.1875 49.59375 10.5 
L 49.59375 72.09375 
L 48.703125 72.890625 
C 44.296875 71.203125 41 70.390625 33.09375 69.203125 
L 33.09375 66.390625 
L 38.703125 66.390625 
C 40.5 66.390625 41.203125 65.296875 41.203125 62.296875 
z
M 41.203125 22.25 
C 41.203125 15.765625 41 14.765625 39.703125 12.46875 
C 36.90625 7.78125 32 4.6875 27.296875 4.6875 
C 18.5 4.6875 12.203125 13.171875 12.203125 25.03125 
C 12.203125 35.90625 17.59375 42.296875 26.59375 42.296875 
C 30.40625 42.296875 34.40625 41 37.90625 38.59375 
C 40 37.203125 41.203125 35.90625 41.203125 35.109375 
z
" id="URW_Palladio_L_Roman-100"/>
      <path d="M 51.90625 38.3125 
L 54.40625 42.390625 
L 54 43.59375 
L 39.796875 43.1875 
C 36.09375 46.1875 32.5 47.390625 27.59375 47.390625 
C 23.203125 47.390625 18.09375 46 14 43.59375 
C 8.40625 40.40625 5.5 35.53125 5.5 29.453125 
C 5.5 22.078125 10.09375 16.984375 17.5 16.1875 
L 9.59375 9.96875 
C 8.59375 8.4375 8.09375 7.109375 8.09375 5.59375 
C 8.09375 2.796875 9.90625 1.1875 14.703125 -0.203125 
L 6 -4.921875 
C 4.59375 -5.734375 3.203125 -9.4375 3.203125 -12.5625 
C 3.203125 -21.6875 12.09375 -28 24.796875 -28 
C 39.90625 -28 51.796875 -18.484375 51.796875 -6.234375 
C 51.796875 1 47 6 40 6 
L 24 6 
C 18.796875 6 16.40625 7.21875 16.40625 9.96875 
C 16.40625 11.296875 17.203125 12.421875 19.796875 14.671875 
C 20.40625 15.1875 20.59375 15.390625 21 15.796875 
C 22 15.6875 22.59375 15.59375 23.40625 15.59375 
C 27.703125 15.59375 33 17.484375 37.09375 20.390625 
C 41.59375 23.671875 43.796875 27.65625 43.796875 32.9375 
C 43.796875 34.921875 43.5 36.21875 42.703125 38.3125 
z
M 24 44 
C 30.796875 44 35.40625 38.40625 35.40625 29.953125 
C 35.40625 23.46875 31.203125 19 25.09375 19 
C 18.40625 19 13.90625 24.171875 13.90625 31.84375 
C 13.90625 39.515625 17.59375 44 24 44 
z
M 28.703125 -1 
C 40 -1 43.90625 -3.3125 43.90625 -9.84375 
C 43.90625 -18.484375 36 -24.90625 25.5 -24.90625 
C 16.796875 -24.90625 10.796875 -19.78125 10.796875 -12.359375 
C 10.796875 -7.84375 13.40625 -3.71875 17.40625 -2.015625 
C 19 -1.203125 21.796875 -1 28.703125 -1 
z
" id="URW_Palladio_L_Roman-103"/>
     </defs>
     <g transform="translate(98.203946 196.193237)scale(0.14 -0.14)">
      <use transform="scale(0.996264)" xlink:href="#URW_Palladio_L_Roman-83"/>
      <use transform="translate(52.303815 0)scale(0.996264)" xlink:href="#URW_Palladio_L_Roman-111"/>
      <use transform="translate(106.699395 0)scale(0.996264)" xlink:href="#URW_Palladio_L_Roman-117"/>
      <use transform="translate(166.77313 0)scale(0.996264)" xlink:href="#URW_Palladio_L_Roman-114"/>
      <use transform="translate(204.332447 0)scale(0.996264)" xlink:href="#URW_Palladio_L_Roman-99"/>
      <use transform="translate(248.566016 0)scale(0.996264)" xlink:href="#URW_Palladio_L_Roman-101"/>
      <use transform="translate(321.192911 0)scale(0.996264)" xlink:href="#URW_Palladio_L_Roman-100"/>
      <use transform="translate(382.064542 0)scale(0.996264)" xlink:href="#URW_Palladio_L_Roman-101"/>
      <use transform="translate(429.784837 0)scale(0.996264)" xlink:href="#URW_Palladio_L_Roman-103"/>
      <use transform="translate(485.176514 0)scale(0.996264)" xlink:href="#URW_Palladio_L_Roman-114"/>
      <use transform="translate(522.735831 0)scale(0.996264)" xlink:href="#URW_Palladio_L_Roman-101"/>
      <use transform="translate(570.456126 0)scale(0.996264)" xlink:href="#URW_Palladio_L_Roman-101"/>
     </g>
    </g>
   </g>
   <g id="matplotlib.axis_2">
    <g id="ytick_1">
     <g id="line2d_4">
      <defs>
       <path d="M 0 0 
L -3.5 0 
" id="m038ae2a0cf" style="stroke:#000000;stroke-width:0.8;"/>
      </defs>
      <g>
       <use style="stroke:#000000;stroke-width:0.8;" x="51.98787" xlink:href="#m038ae2a0cf" y="128.872333"/>
      </g>
     </g>
     <g id="text_5">
      <!-- $5$ -->
      <g transform="translate(39.010286 133.149271)scale(0.12 -0.12)">
       <use transform="scale(0.996264)" xlink:href="#URW_Palladio_L_Roman-53"/>
      </g>
     </g>
    </g>
    <g id="ytick_2">
     <g id="line2d_5">
      <g>
       <use style="stroke:#000000;stroke-width:0.8;" x="51.98787" xlink:href="#m038ae2a0cf" y="89.204379"/>
      </g>
     </g>
     <g id="text_6">
      <!-- $10$ -->
      <g transform="translate(33.032702 93.481317)scale(0.12 -0.12)">
       <use transform="scale(0.996264)" xlink:href="#URW_Palladio_L_Roman-49"/>
       <use transform="translate(49.8132 0)scale(0.996264)" xlink:href="#URW_Palladio_L_Roman-48"/>
      </g>
     </g>
    </g>
    <g id="ytick_3">
     <g id="line2d_6">
      <g>
       <use style="stroke:#000000;stroke-width:0.8;" x="51.98787" xlink:href="#m038ae2a0cf" y="49.536426"/>
      </g>
     </g>
     <g id="text_7">
      <!-- $15$ -->
      <g transform="translate(33.032702 53.813364)scale(0.12 -0.12)">
       <use transform="scale(0.996264)" xlink:href="#URW_Palladio_L_Roman-49"/>
       <use transform="translate(49.8132 0)scale(0.996264)" xlink:href="#URW_Palladio_L_Roman-53"/>
      </g>
     </g>
    </g>
    <g id="text_8">
     <!-- Average target degree -->
     <defs>
      <path d="M 40.796875 70 
L 37.59375 70 
C 35.796875 65.703125 34.296875 62.015625 33.703125 60.53125 
L 28.40625 48.484375 
L 10.59375 8.171875 
C 9.40625 5.28125 7.40625 3.484375 5.203125 3.28125 
L 1.5 2.984375 
L 1.5 0 
C 10.796875 0 10.796875 0 12.40625 0 
C 13.703125 0.296875 13.703125 0.296875 24.5 0 
L 24.5 2.984375 
L 20.796875 3.28125 
C 17.296875 3.578125 16 4.265625 16 5.859375 
C 16 7.140625 17.40625 11.40625 19.5 16.359375 
L 22.296875 23 
L 51.09375 23 
L 55.703125 11.59375 
C 57.40625 7.4375 57.796875 6.15625 57.796875 5.265625 
C 57.796875 4.171875 56.203125 3.484375 53.703125 3.28125 
L 49 2.984375 
L 49 0 
C 61.296875 0 61.296875 0 62.90625 0 
C 64.796875 0.296875 64.796875 0.296875 75.59375 0 
L 75.59375 2.984375 
L 72.203125 3.28125 
C 69.59375 3.671875 68.5 5.359375 65 13.390625 
z
M 24 27 
L 36.703125 56.71875 
L 49.296875 27 
z
" id="URW_Palladio_L_Roman-65"/>
      <path d="M 53.90625 42.796875 
L 53.90625 45.59375 
C 47.90625 45.390625 46.09375 45.296875 44.5 45.296875 
C 42.90625 45.296875 41.09375 45.390625 35.09375 45.59375 
L 35.09375 42.796875 
L 39.203125 42.59375 
C 40.796875 42.5 41.59375 41.59375 41.59375 40 
C 41.59375 38.390625 40.90625 35.6875 39.703125 32.6875 
L 35.5 22.09375 
C 34.296875 19.1875 33.09375 16.390625 29.296875 8.09375 
L 17.40625 36.890625 
C 16.796875 38.296875 16.5 39.59375 16.5 40.6875 
C 16.5 41.796875 17.40625 42.5 19 42.59375 
L 23.90625 42.796875 
L 23.90625 45.59375 
C 14.09375 45.296875 14.09375 45.296875 12.203125 45.296875 
C 10.296875 45.296875 5.5 45.390625 0.59375 45.59375 
L 0.59375 42.796875 
L 4 42.59375 
C 5.5 42.390625 6 41.796875 7.09375 39.296875 
L 24.296875 -1 
L 29.296875 -1 
C 29.90625 0.6875 30.90625 3.296875 30.90625 3.5 
C 32 6.5 33.296875 9.890625 33.40625 9.890625 
L 45.203125 35.890625 
C 47.40625 40.59375 48.796875 42.390625 50.796875 42.59375 
z
" id="URW_Palladio_L_Roman-118"/>
      <path d="M 32.40625 8.5 
L 31.90625 0 
C 38.40625 0 38.40625 0 39.703125 0 
C 40.203125 0.296875 42.703125 0.1875 47.09375 0 
L 47.09375 3 
L 43.203125 3.1875 
C 40.796875 3.296875 40.40625 4.09375 40.40625 9 
L 40.40625 27.359375 
C 40.40625 42 36.203125 47.296875 24.59375 47.296875 
C 20.296875 47.296875 16.296875 46.1875 12.5 43.890625 
L 7.203125 40.6875 
L 7.203125 34.171875 
L 9.796875 33.46875 
L 11.09375 36.578125 
C 13.203125 41.28125 14.203125 42 18.796875 42 
C 28.203125 42 32.09375 38.28125 32.40625 29.15625 
L 22.5 27.359375 
C 8.90625 24.84375 3.203125 20.140625 3.203125 11.40625 
C 3.203125 3.5 7.90625 -1 15.796875 -1 
C 17.59375 -1 19.296875 -0.703125 20 -0.203125 
z
M 32.40625 12.59375 
C 29.5 8.5 23.203125 4.6875 19.296875 4.6875 
C 15.296875 4.6875 11.796875 8.390625 11.796875 12.6875 
C 11.796875 16.390625 13.796875 19.890625 16.796875 21.796875 
C 19.296875 23.296875 24.796875 24.6875 32.40625 25.796875 
z
" id="URW_Palladio_L_Roman-97"/>
      <path d="M 9.796875 38.390625 
L 9.796875 9.59375 
C 9.796875 2.1875 13.09375 -1 20.796875 -1 
C 23.09375 -1 25.5 -0.5 26.09375 0.1875 
L 30.90625 5.5 
L 29.59375 7.1875 
C 27.09375 5.796875 25.59375 5.296875 23.703125 5.296875 
C 19.796875 5.296875 18.203125 7.296875 18.203125 12.1875 
L 18.203125 38.390625 
L 31 38.390625 
L 31.90625 43.796875 
L 18.203125 43.1875 
L 18.203125 47 
C 18.203125 51.203125 18.5 54.796875 19.296875 61.203125 
L 18.09375 62.296875 
C 15.703125 60.796875 12.703125 59.5 9.59375 58.5 
C 9.90625 55.5 10 53.59375 10 50.59375 
L 10 43.59375 
L 2.203125 40.09375 
L 2.203125 38 
z
" id="URW_Palladio_L_Roman-116"/>
     </defs>
     <g transform="translate(25.099529 158.144707)rotate(-90)scale(0.14 -0.14)">
      <use transform="scale(0.996264)" xlink:href="#URW_Palladio_L_Roman-65"/>
      <use transform="translate(68.343489 0)scale(0.996264)" xlink:href="#URW_Palladio_L_Roman-118"/>
      <use transform="translate(124.631402 0)scale(0.996264)" xlink:href="#URW_Palladio_L_Roman-101"/>
      <use transform="translate(172.351697 0)scale(0.996264)" xlink:href="#URW_Palladio_L_Roman-114"/>
      <use transform="translate(211.703594 0)scale(0.996264)" xlink:href="#URW_Palladio_L_Roman-97"/>
      <use transform="translate(261.516794 0)scale(0.996264)" xlink:href="#URW_Palladio_L_Roman-103"/>
      <use transform="translate(316.908471 0)scale(0.996264)" xlink:href="#URW_Palladio_L_Roman-101"/>
      <use transform="translate(389.535367 0)scale(0.996264)" xlink:href="#URW_Palladio_L_Roman-116"/>
      <use transform="translate(422.012455 0)scale(0.996264)" xlink:href="#URW_Palladio_L_Roman-97"/>
      <use transform="translate(471.825655 0)scale(0.996264)" xlink:href="#URW_Palladio_L_Roman-114"/>
      <use transform="translate(509.384972 0)scale(0.996264)" xlink:href="#URW_Palladio_L_Roman-103"/>
      <use transform="translate(564.776649 0)scale(0.996264)" xlink:href="#URW_Palladio_L_Roman-101"/>
      <use transform="translate(612.496944 0)scale(0.996264)" xlink:href="#URW_Palladio_L_Roman-116"/>
      <use transform="translate(669.880633 0)scale(0.996264)" xlink:href="#URW_Palladio_L_Roman-100"/>
      <use transform="translate(730.752263 0)scale(0.996264)" xlink:href="#URW_Palladio_L_Roman-101"/>
      <use transform="translate(778.472558 0)scale(0.996264)" xlink:href="#URW_Palladio_L_Roman-103"/>
      <use transform="translate(833.864235 0)scale(0.996264)" xlink:href="#URW_Palladio_L_Roman-114"/>
      <use transform="translate(871.423553 0)scale(0.996264)" xlink:href="#URW_Palladio_L_Roman-101"/>
      <use transform="translate(919.143848 0)scale(0.996264)" xlink:href="#URW_Palladio_L_Roman-101"/>
     </g>
    </g>
   </g>
   <g id="LineCollection_1">
    <path clip-path="url(#pea5c5481db)" d="M 60.123177 89.530165 
L 60.123177 89.022399 
" style="fill:none;stroke:#1f77b4;stroke-width:1.5;"/>
    <path clip-path="url(#pea5c5481db)" d="M 69.162408 89.426552 
L 69.162408 88.718749 
" style="fill:none;stroke:#1f77b4;stroke-width:1.5;"/>
    <path clip-path="url(#pea5c5481db)" d="M 78.201638 89.462108 
L 78.201638 88.6013 
" style="fill:none;stroke:#1f77b4;stroke-width:1.5;"/>
    <path clip-path="url(#pea5c5481db)" d="M 87.240869 90.924801 
L 87.240869 89.906004 
" style="fill:none;stroke:#1f77b4;stroke-width:1.5;"/>
    <path clip-path="url(#pea5c5481db)" d="M 96.2801 89.920134 
L 96.2801 88.827496 
" style="fill:none;stroke:#1f77b4;stroke-width:1.5;"/>
    <path clip-path="url(#pea5c5481db)" d="M 105.31933 90.882652 
L 105.31933 89.65657 
" style="fill:none;stroke:#1f77b4;stroke-width:1.5;"/>
    <path clip-path="url(#pea5c5481db)" d="M 114.358561 88.649733 
L 114.358561 87.339747 
" style="fill:none;stroke:#1f77b4;stroke-width:1.5;"/>
    <path clip-path="url(#pea5c5481db)" d="M 123.397791 92.448207 
L 123.397791 91.090304 
" style="fill:none;stroke:#1f77b4;stroke-width:1.5;"/>
    <path clip-path="url(#pea5c5481db)" d="M 132.437022 89.455855 
L 132.437022 87.958216 
" style="fill:none;stroke:#1f77b4;stroke-width:1.5;"/>
    <path clip-path="url(#pea5c5481db)" d="M 141.476252 88.113442 
L 141.476252 86.545993 
" style="fill:none;stroke:#1f77b4;stroke-width:1.5;"/>
    <path clip-path="url(#pea5c5481db)" d="M 150.515483 89.189521 
L 150.515483 87.527198 
" style="fill:none;stroke:#1f77b4;stroke-width:1.5;"/>
    <path clip-path="url(#pea5c5481db)" d="M 159.554714 90.521885 
L 159.554714 88.770534 
" style="fill:none;stroke:#1f77b4;stroke-width:1.5;"/>
    <path clip-path="url(#pea5c5481db)" d="M 168.593944 90.106734 
L 168.593944 88.329253 
" style="fill:none;stroke:#1f77b4;stroke-width:1.5;"/>
    <path clip-path="url(#pea5c5481db)" d="M 177.633175 89.539878 
L 177.633175 87.746133 
" style="fill:none;stroke:#1f77b4;stroke-width:1.5;"/>
    <path clip-path="url(#pea5c5481db)" d="M 186.672405 92.892116 
L 186.672405 90.916916 
" style="fill:none;stroke:#1f77b4;stroke-width:1.5;"/>
    <path clip-path="url(#pea5c5481db)" d="M 195.711636 87.390121 
L 195.711636 85.144776 
" style="fill:none;stroke:#1f77b4;stroke-width:1.5;"/>
    <path clip-path="url(#pea5c5481db)" d="M 204.750866 89.497279 
L 204.750866 87.446246 
" style="fill:none;stroke:#1f77b4;stroke-width:1.5;"/>
    <path clip-path="url(#pea5c5481db)" d="M 213.790097 91.698101 
L 213.790097 89.636836 
" style="fill:none;stroke:#1f77b4;stroke-width:1.5;"/>
    <path clip-path="url(#pea5c5481db)" d="M 222.829327 93.150125 
L 222.829327 90.89025 
" style="fill:none;stroke:#1f77b4;stroke-width:1.5;"/>
   </g>
   <g id="LineCollection_2">
    <path clip-path="url(#pea5c5481db)" d="M 60.123177 156.66816 
L 60.123177 156.584678 
" style="fill:none;stroke:#ff7f0e;stroke-width:1.5;"/>
    <path clip-path="url(#pea5c5481db)" d="M 69.162408 152.194685 
L 69.162408 152.020898 
" style="fill:none;stroke:#ff7f0e;stroke-width:1.5;"/>
    <path clip-path="url(#pea5c5481db)" d="M 78.201638 145.672579 
L 78.201638 145.403892 
" style="fill:none;stroke:#ff7f0e;stroke-width:1.5;"/>
    <path clip-path="url(#pea5c5481db)" d="M 87.240869 137.56359 
L 87.240869 137.190933 
" style="fill:none;stroke:#ff7f0e;stroke-width:1.5;"/>
    <path clip-path="url(#pea5c5481db)" d="M 96.2801 129.086505 
L 96.2801 128.628261 
" style="fill:none;stroke:#ff7f0e;stroke-width:1.5;"/>
    <path clip-path="url(#pea5c5481db)" d="M 105.31933 121.365486 
L 105.31933 120.80454 
" style="fill:none;stroke:#ff7f0e;stroke-width:1.5;"/>
    <path clip-path="url(#pea5c5481db)" d="M 114.358561 112.527434 
L 114.358561 111.858817 
" style="fill:none;stroke:#ff7f0e;stroke-width:1.5;"/>
    <path clip-path="url(#pea5c5481db)" d="M 123.397791 105.453297 
L 123.397791 104.733635 
" style="fill:none;stroke:#ff7f0e;stroke-width:1.5;"/>
    <path clip-path="url(#pea5c5481db)" d="M 132.437022 96.56808 
L 132.437022 95.728049 
" style="fill:none;stroke:#ff7f0e;stroke-width:1.5;"/>
    <path clip-path="url(#pea5c5481db)" d="M 141.476252 89.222767 
L 141.476252 88.316105 
" style="fill:none;stroke:#ff7f0e;stroke-width:1.5;"/>
    <path clip-path="url(#pea5c5481db)" d="M 150.515483 81.735063 
L 150.515483 80.760473 
" style="fill:none;stroke:#ff7f0e;stroke-width:1.5;"/>
    <path clip-path="url(#pea5c5481db)" d="M 159.554714 74.156236 
L 159.554714 73.143817 
" style="fill:none;stroke:#ff7f0e;stroke-width:1.5;"/>
    <path clip-path="url(#pea5c5481db)" d="M 168.593944 67.48812 
L 168.593944 66.457134 
" style="fill:none;stroke:#ff7f0e;stroke-width:1.5;"/>
    <path clip-path="url(#pea5c5481db)" d="M 177.633175 60.68181 
L 177.633175 59.619159 
" style="fill:none;stroke:#ff7f0e;stroke-width:1.5;"/>
    <path clip-path="url(#pea5c5481db)" d="M 186.672405 55.301664 
L 186.672405 54.261373 
" style="fill:none;stroke:#ff7f0e;stroke-width:1.5;"/>
    <path clip-path="url(#pea5c5481db)" d="M 195.711636 51.314771 
L 195.711636 50.200676 
" style="fill:none;stroke:#ff7f0e;stroke-width:1.5;"/>
    <path clip-path="url(#pea5c5481db)" d="M 204.750866 47.713876 
L 204.750866 46.685066 
" style="fill:none;stroke:#ff7f0e;stroke-width:1.5;"/>
    <path clip-path="url(#pea5c5481db)" d="M 213.790097 43.727142 
L 213.790097 42.778262 
" style="fill:none;stroke:#ff7f0e;stroke-width:1.5;"/>
    <path clip-path="url(#pea5c5481db)" d="M 222.829327 39.414633 
L 222.829327 38.488274 
" style="fill:none;stroke:#ff7f0e;stroke-width:1.5;"/>
   </g>
   <g id="LineCollection_3">
    <path clip-path="url(#pea5c5481db)" d="M 60.123177 24.50052 
L 60.123177 24.260389 
" style="fill:none;stroke:#2ca02c;stroke-width:1.5;"/>
    <path clip-path="url(#pea5c5481db)" d="M 69.162408 30.216128 
L 69.162408 29.894829 
" style="fill:none;stroke:#2ca02c;stroke-width:1.5;"/>
    <path clip-path="url(#pea5c5481db)" d="M 78.201638 38.125767 
L 78.201638 37.724144 
" style="fill:none;stroke:#2ca02c;stroke-width:1.5;"/>
    <path clip-path="url(#pea5c5481db)" d="M 87.240869 45.992925 
L 87.240869 45.529587 
" style="fill:none;stroke:#2ca02c;stroke-width:1.5;"/>
    <path clip-path="url(#pea5c5481db)" d="M 96.2801 54.180349 
L 96.2801 53.676942 
" style="fill:none;stroke:#2ca02c;stroke-width:1.5;"/>
    <path clip-path="url(#pea5c5481db)" d="M 105.31933 62.141497 
L 105.31933 61.586834 
" style="fill:none;stroke:#2ca02c;stroke-width:1.5;"/>
    <path clip-path="url(#pea5c5481db)" d="M 114.358561 69.299478 
L 114.358561 68.722786 
" style="fill:none;stroke:#2ca02c;stroke-width:1.5;"/>
    <path clip-path="url(#pea5c5481db)" d="M 123.397791 77.814296 
L 123.397791 77.21946 
" style="fill:none;stroke:#2ca02c;stroke-width:1.5;"/>
    <path clip-path="url(#pea5c5481db)" d="M 132.437022 85.452878 
L 132.437022 84.785859 
" style="fill:none;stroke:#2ca02c;stroke-width:1.5;"/>
    <path clip-path="url(#pea5c5481db)" d="M 141.476252 93.849618 
L 141.476252 93.158508 
" style="fill:none;stroke:#2ca02c;stroke-width:1.5;"/>
    <path clip-path="url(#pea5c5481db)" d="M 150.515483 102.532435 
L 150.515483 101.829122 
" style="fill:none;stroke:#2ca02c;stroke-width:1.5;"/>
    <path clip-path="url(#pea5c5481db)" d="M 159.554714 108.459256 
L 159.554714 107.77742 
" style="fill:none;stroke:#2ca02c;stroke-width:1.5;"/>
    <path clip-path="url(#pea5c5481db)" d="M 168.593944 115.295495 
L 168.593944 114.651663 
" style="fill:none;stroke:#2ca02c;stroke-width:1.5;"/>
    <path clip-path="url(#pea5c5481db)" d="M 177.633175 121.81187 
L 177.633175 121.138214 
" style="fill:none;stroke:#2ca02c;stroke-width:1.5;"/>
    <path clip-path="url(#pea5c5481db)" d="M 186.672405 126.265955 
L 186.672405 125.65384 
" style="fill:none;stroke:#2ca02c;stroke-width:1.5;"/>
    <path clip-path="url(#pea5c5481db)" d="M 195.711636 131.20377 
L 195.711636 130.611474 
" style="fill:none;stroke:#2ca02c;stroke-width:1.5;"/>
    <path clip-path="url(#pea5c5481db)" d="M 204.750866 135.563683 
L 204.750866 135.019081 
" style="fill:none;stroke:#2ca02c;stroke-width:1.5;"/>
    <path clip-path="url(#pea5c5481db)" d="M 213.790097 138.602559 
L 213.790097 138.100153 
" style="fill:none;stroke:#2ca02c;stroke-width:1.5;"/>
    <path clip-path="url(#pea5c5481db)" d="M 222.829327 141.430914 
L 222.829327 140.97031 
" style="fill:none;stroke:#2ca02c;stroke-width:1.5;"/>
   </g>
   <g id="LineCollection_4">
    <path clip-path="url(#pea5c5481db)" d="M 60.123177 126.99116 
L 60.123177 125.935332 
" style="fill:none;stroke:#d62728;stroke-width:1.5;"/>
    <path clip-path="url(#pea5c5481db)" d="M 69.162408 128.003653 
L 69.162408 126.987928 
" style="fill:none;stroke:#d62728;stroke-width:1.5;"/>
    <path clip-path="url(#pea5c5481db)" d="M 78.201638 126.409264 
L 78.201638 125.35463 
" style="fill:none;stroke:#d62728;stroke-width:1.5;"/>
    <path clip-path="url(#pea5c5481db)" d="M 87.240869 126.74539 
L 87.240869 125.706486 
" style="fill:none;stroke:#d62728;stroke-width:1.5;"/>
    <path clip-path="url(#pea5c5481db)" d="M 96.2801 125.280881 
L 96.2801 124.196754 
" style="fill:none;stroke:#d62728;stroke-width:1.5;"/>
    <path clip-path="url(#pea5c5481db)" d="M 105.31933 125.71288 
L 105.31933 124.625315 
" style="fill:none;stroke:#d62728;stroke-width:1.5;"/>
    <path clip-path="url(#pea5c5481db)" d="M 114.358561 127.570813 
L 114.358561 126.493734 
" style="fill:none;stroke:#d62728;stroke-width:1.5;"/>
    <path clip-path="url(#pea5c5481db)" d="M 123.397791 127.013545 
L 123.397791 126.026502 
" style="fill:none;stroke:#d62728;stroke-width:1.5;"/>
    <path clip-path="url(#pea5c5481db)" d="M 132.437022 126.521131 
L 132.437022 125.441179 
" style="fill:none;stroke:#d62728;stroke-width:1.5;"/>
    <path clip-path="url(#pea5c5481db)" d="M 141.476252 124.481978 
L 141.476252 123.369896 
" style="fill:none;stroke:#d62728;stroke-width:1.5;"/>
    <path clip-path="url(#pea5c5481db)" d="M 150.515483 128.125884 
L 150.515483 127.092998 
" style="fill:none;stroke:#d62728;stroke-width:1.5;"/>
    <path clip-path="url(#pea5c5481db)" d="M 159.554714 127.326192 
L 159.554714 126.293007 
" style="fill:none;stroke:#d62728;stroke-width:1.5;"/>
    <path clip-path="url(#pea5c5481db)" d="M 168.593944 122.712554 
L 168.593944 121.669739 
" style="fill:none;stroke:#d62728;stroke-width:1.5;"/>
    <path clip-path="url(#pea5c5481db)" d="M 177.633175 124.302559 
L 177.633175 123.196199 
" style="fill:none;stroke:#d62728;stroke-width:1.5;"/>
    <path clip-path="url(#pea5c5481db)" d="M 186.672405 125.211723 
L 186.672405 124.164351 
" style="fill:none;stroke:#d62728;stroke-width:1.5;"/>
    <path clip-path="url(#pea5c5481db)" d="M 195.711636 130.754803 
L 195.711636 129.757395 
" style="fill:none;stroke:#d62728;stroke-width:1.5;"/>
    <path clip-path="url(#pea5c5481db)" d="M 204.750866 128.888853 
L 204.750866 127.844187 
" style="fill:none;stroke:#d62728;stroke-width:1.5;"/>
    <path clip-path="url(#pea5c5481db)" d="M 213.790097 126.131637 
L 213.790097 125.085391 
" style="fill:none;stroke:#d62728;stroke-width:1.5;"/>
    <path clip-path="url(#pea5c5481db)" d="M 222.829327 129.243496 
L 222.829327 128.21453 
" style="fill:none;stroke:#d62728;stroke-width:1.5;"/>
   </g>
   <g id="line2d_7">
    <path clip-path="url(#pea5c5481db)" d="M 60.123177 89.276282 
L 69.162408 89.072651 
L 78.201638 89.031704 
L 87.240869 90.415403 
L 96.2801 89.373815 
L 105.31933 90.269611 
L 114.358561 87.99474 
L 123.397791 91.769255 
L 132.437022 88.707036 
L 141.476252 87.329718 
L 150.515483 88.35836 
L 159.554714 89.646209 
L 168.593944 89.217993 
L 177.633175 88.643005 
L 186.672405 91.904516 
L 195.711636 86.267448 
L 204.750866 88.471763 
L 213.790097 90.667469 
L 222.829327 92.020187 
" style="fill:none;stroke:#1f77b4;stroke-linecap:square;stroke-width:1.5;"/>
    <defs>
     <path d="M 0 2 
C 0.530406 2 1.03916 1.789267 1.414214 1.414214 
C 1.789267 1.03916 2 0.530406 2 0 
C 2 -0.530406 1.789267 -1.03916 1.414214 -1.414214 
C 1.03916 -1.789267 0.530406 -2 0 -2 
C -0.530406 -2 -1.03916 -1.789267 -1.414214 -1.414214 
C -1.789267 -1.03916 -2 -0.530406 -2 0 
C -2 0.530406 -1.789267 1.03916 -1.414214 1.414214 
C -1.03916 1.789267 -0.530406 2 0 2 
z
" id="m5ec27fbb71" style="stroke:#1f77b4;"/>
    </defs>
    <g clip-path="url(#pea5c5481db)">
     <use style="fill:#1f77b4;stroke:#1f77b4;" x="60.123177" xlink:href="#m5ec27fbb71" y="89.276282"/>
     <use style="fill:#1f77b4;stroke:#1f77b4;" x="69.162408" xlink:href="#m5ec27fbb71" y="89.072651"/>
     <use style="fill:#1f77b4;stroke:#1f77b4;" x="78.201638" xlink:href="#m5ec27fbb71" y="89.031704"/>
     <use style="fill:#1f77b4;stroke:#1f77b4;" x="87.240869" xlink:href="#m5ec27fbb71" y="90.415403"/>
     <use style="fill:#1f77b4;stroke:#1f77b4;" x="96.2801" xlink:href="#m5ec27fbb71" y="89.373815"/>
     <use style="fill:#1f77b4;stroke:#1f77b4;" x="105.31933" xlink:href="#m5ec27fbb71" y="90.269611"/>
     <use style="fill:#1f77b4;stroke:#1f77b4;" x="114.358561" xlink:href="#m5ec27fbb71" y="87.99474"/>
     <use style="fill:#1f77b4;stroke:#1f77b4;" x="123.397791" xlink:href="#m5ec27fbb71" y="91.769255"/>
     <use style="fill:#1f77b4;stroke:#1f77b4;" x="132.437022" xlink:href="#m5ec27fbb71" y="88.707036"/>
     <use style="fill:#1f77b4;stroke:#1f77b4;" x="141.476252" xlink:href="#m5ec27fbb71" y="87.329718"/>
     <use style="fill:#1f77b4;stroke:#1f77b4;" x="150.515483" xlink:href="#m5ec27fbb71" y="88.35836"/>
     <use style="fill:#1f77b4;stroke:#1f77b4;" x="159.554714" xlink:href="#m5ec27fbb71" y="89.646209"/>
     <use style="fill:#1f77b4;stroke:#1f77b4;" x="168.593944" xlink:href="#m5ec27fbb71" y="89.217993"/>
     <use style="fill:#1f77b4;stroke:#1f77b4;" x="177.633175" xlink:href="#m5ec27fbb71" y="88.643005"/>
     <use style="fill:#1f77b4;stroke:#1f77b4;" x="186.672405" xlink:href="#m5ec27fbb71" y="91.904516"/>
     <use style="fill:#1f77b4;stroke:#1f77b4;" x="195.711636" xlink:href="#m5ec27fbb71" y="86.267448"/>
     <use style="fill:#1f77b4;stroke:#1f77b4;" x="204.750866" xlink:href="#m5ec27fbb71" y="88.471763"/>
     <use style="fill:#1f77b4;stroke:#1f77b4;" x="213.790097" xlink:href="#m5ec27fbb71" y="90.667469"/>
     <use style="fill:#1f77b4;stroke:#1f77b4;" x="222.829327" xlink:href="#m5ec27fbb71" y="92.020187"/>
    </g>
   </g>
   <g id="line2d_8">
    <path clip-path="url(#pea5c5481db)" d="M 60.123177 156.626419 
L 69.162408 152.107792 
L 78.201638 145.538235 
L 87.240869 137.377262 
L 96.2801 128.857383 
L 105.31933 121.085013 
L 114.358561 112.193125 
L 123.397791 105.093466 
L 132.437022 96.148065 
L 141.476252 88.769436 
L 150.515483 81.247768 
L 159.554714 73.650026 
L 168.593944 66.972627 
L 177.633175 60.150485 
L 186.672405 54.781518 
L 195.711636 50.757724 
L 204.750866 47.199471 
L 213.790097 43.252702 
L 222.829327 38.951454 
" style="fill:none;stroke:#ff7f0e;stroke-linecap:square;stroke-width:1.5;"/>
    <defs>
     <path d="M 0 2 
C 0.530406 2 1.03916 1.789267 1.414214 1.414214 
C 1.789267 1.03916 2 0.530406 2 0 
C 2 -0.530406 1.789267 -1.03916 1.414214 -1.414214 
C 1.03916 -1.789267 0.530406 -2 0 -2 
C -0.530406 -2 -1.03916 -1.789267 -1.414214 -1.414214 
C -1.789267 -1.03916 -2 -0.530406 -2 0 
C -2 0.530406 -1.789267 1.03916 -1.414214 1.414214 
C -1.03916 1.789267 -0.530406 2 0 2 
z
" id="m0c6775bf99" style="stroke:#ff7f0e;"/>
    </defs>
    <g clip-path="url(#pea5c5481db)">
     <use style="fill:#ff7f0e;stroke:#ff7f0e;" x="60.123177" xlink:href="#m0c6775bf99" y="156.626419"/>
     <use style="fill:#ff7f0e;stroke:#ff7f0e;" x="69.162408" xlink:href="#m0c6775bf99" y="152.107792"/>
     <use style="fill:#ff7f0e;stroke:#ff7f0e;" x="78.201638" xlink:href="#m0c6775bf99" y="145.538235"/>
     <use style="fill:#ff7f0e;stroke:#ff7f0e;" x="87.240869" xlink:href="#m0c6775bf99" y="137.377262"/>
     <use style="fill:#ff7f0e;stroke:#ff7f0e;" x="96.2801" xlink:href="#m0c6775bf99" y="128.857383"/>
     <use style="fill:#ff7f0e;stroke:#ff7f0e;" x="105.31933" xlink:href="#m0c6775bf99" y="121.085013"/>
     <use style="fill:#ff7f0e;stroke:#ff7f0e;" x="114.358561" xlink:href="#m0c6775bf99" y="112.193125"/>
     <use style="fill:#ff7f0e;stroke:#ff7f0e;" x="123.397791" xlink:href="#m0c6775bf99" y="105.093466"/>
     <use style="fill:#ff7f0e;stroke:#ff7f0e;" x="132.437022" xlink:href="#m0c6775bf99" y="96.148065"/>
     <use style="fill:#ff7f0e;stroke:#ff7f0e;" x="141.476252" xlink:href="#m0c6775bf99" y="88.769436"/>
     <use style="fill:#ff7f0e;stroke:#ff7f0e;" x="150.515483" xlink:href="#m0c6775bf99" y="81.247768"/>
     <use style="fill:#ff7f0e;stroke:#ff7f0e;" x="159.554714" xlink:href="#m0c6775bf99" y="73.650026"/>
     <use style="fill:#ff7f0e;stroke:#ff7f0e;" x="168.593944" xlink:href="#m0c6775bf99" y="66.972627"/>
     <use style="fill:#ff7f0e;stroke:#ff7f0e;" x="177.633175" xlink:href="#m0c6775bf99" y="60.150485"/>
     <use style="fill:#ff7f0e;stroke:#ff7f0e;" x="186.672405" xlink:href="#m0c6775bf99" y="54.781518"/>
     <use style="fill:#ff7f0e;stroke:#ff7f0e;" x="195.711636" xlink:href="#m0c6775bf99" y="50.757724"/>
     <use style="fill:#ff7f0e;stroke:#ff7f0e;" x="204.750866" xlink:href="#m0c6775bf99" y="47.199471"/>
     <use style="fill:#ff7f0e;stroke:#ff7f0e;" x="213.790097" xlink:href="#m0c6775bf99" y="43.252702"/>
     <use style="fill:#ff7f0e;stroke:#ff7f0e;" x="222.829327" xlink:href="#m0c6775bf99" y="38.951454"/>
    </g>
   </g>
   <g id="line2d_9">
    <path clip-path="url(#pea5c5481db)" d="M 60.123177 24.380454 
L 69.162408 30.055479 
L 78.201638 37.924956 
L 87.240869 45.761256 
L 96.2801 53.928645 
L 105.31933 61.864166 
L 114.358561 69.011132 
L 123.397791 77.516878 
L 132.437022 85.119368 
L 141.476252 93.504063 
L 150.515483 102.180779 
L 159.554714 108.118338 
L 168.593944 114.973579 
L 177.633175 121.475042 
L 186.672405 125.959897 
L 195.711636 130.907622 
L 204.750866 135.291382 
L 213.790097 138.351356 
L 222.829327 141.200612 
" style="fill:none;stroke:#2ca02c;stroke-linecap:square;stroke-width:1.5;"/>
    <defs>
     <path d="M 0 2 
C 0.530406 2 1.03916 1.789267 1.414214 1.414214 
C 1.789267 1.03916 2 0.530406 2 0 
C 2 -0.530406 1.789267 -1.03916 1.414214 -1.414214 
C 1.03916 -1.789267 0.530406 -2 0 -2 
C -0.530406 -2 -1.03916 -1.789267 -1.414214 -1.414214 
C -1.789267 -1.03916 -2 -0.530406 -2 0 
C -2 0.530406 -1.789267 1.03916 -1.414214 1.414214 
C -1.03916 1.789267 -0.530406 2 0 2 
z
" id="m77775af88e" style="stroke:#2ca02c;"/>
    </defs>
    <g clip-path="url(#pea5c5481db)">
     <use style="fill:#2ca02c;stroke:#2ca02c;" x="60.123177" xlink:href="#m77775af88e" y="24.380454"/>
     <use style="fill:#2ca02c;stroke:#2ca02c;" x="69.162408" xlink:href="#m77775af88e" y="30.055479"/>
     <use style="fill:#2ca02c;stroke:#2ca02c;" x="78.201638" xlink:href="#m77775af88e" y="37.924956"/>
     <use style="fill:#2ca02c;stroke:#2ca02c;" x="87.240869" xlink:href="#m77775af88e" y="45.761256"/>
     <use style="fill:#2ca02c;stroke:#2ca02c;" x="96.2801" xlink:href="#m77775af88e" y="53.928645"/>
     <use style="fill:#2ca02c;stroke:#2ca02c;" x="105.31933" xlink:href="#m77775af88e" y="61.864166"/>
     <use style="fill:#2ca02c;stroke:#2ca02c;" x="114.358561" xlink:href="#m77775af88e" y="69.011132"/>
     <use style="fill:#2ca02c;stroke:#2ca02c;" x="123.397791" xlink:href="#m77775af88e" y="77.516878"/>
     <use style="fill:#2ca02c;stroke:#2ca02c;" x="132.437022" xlink:href="#m77775af88e" y="85.119368"/>
     <use style="fill:#2ca02c;stroke:#2ca02c;" x="141.476252" xlink:href="#m77775af88e" y="93.504063"/>
     <use style="fill:#2ca02c;stroke:#2ca02c;" x="150.515483" xlink:href="#m77775af88e" y="102.180779"/>
     <use style="fill:#2ca02c;stroke:#2ca02c;" x="159.554714" xlink:href="#m77775af88e" y="108.118338"/>
     <use style="fill:#2ca02c;stroke:#2ca02c;" x="168.593944" xlink:href="#m77775af88e" y="114.973579"/>
     <use style="fill:#2ca02c;stroke:#2ca02c;" x="177.633175" xlink:href="#m77775af88e" y="121.475042"/>
     <use style="fill:#2ca02c;stroke:#2ca02c;" x="186.672405" xlink:href="#m77775af88e" y="125.959897"/>
     <use style="fill:#2ca02c;stroke:#2ca02c;" x="195.711636" xlink:href="#m77775af88e" y="130.907622"/>
     <use style="fill:#2ca02c;stroke:#2ca02c;" x="204.750866" xlink:href="#m77775af88e" y="135.291382"/>
     <use style="fill:#2ca02c;stroke:#2ca02c;" x="213.790097" xlink:href="#m77775af88e" y="138.351356"/>
     <use style="fill:#2ca02c;stroke:#2ca02c;" x="222.829327" xlink:href="#m77775af88e" y="141.200612"/>
    </g>
   </g>
   <g id="line2d_10">
    <path clip-path="url(#pea5c5481db)" d="M 60.123177 126.463246 
L 69.162408 127.495791 
L 78.201638 125.881947 
L 87.240869 126.225938 
L 96.2801 124.738817 
L 105.31933 125.169097 
L 114.358561 127.032273 
L 123.397791 126.520023 
L 132.437022 125.981155 
L 141.476252 123.925937 
L 150.515483 127.609441 
L 159.554714 126.809599 
L 168.593944 122.191146 
L 177.633175 123.749379 
L 186.672405 124.688037 
L 195.711636 130.256099 
L 204.750866 128.36652 
L 213.790097 125.608514 
L 222.829327 128.729013 
" style="fill:none;stroke:#d62728;stroke-linecap:square;stroke-width:1.5;"/>
    <defs>
     <path d="M 0 2 
C 0.530406 2 1.03916 1.789267 1.414214 1.414214 
C 1.789267 1.03916 2 0.530406 2 0 
C 2 -0.530406 1.789267 -1.03916 1.414214 -1.414214 
C 1.03916 -1.789267 0.530406 -2 0 -2 
C -0.530406 -2 -1.03916 -1.789267 -1.414214 -1.414214 
C -1.789267 -1.03916 -2 -0.530406 -2 0 
C -2 0.530406 -1.789267 1.03916 -1.414214 1.414214 
C -1.03916 1.789267 -0.530406 2 0 2 
z
" id="md838a11de1" style="stroke:#d62728;"/>
    </defs>
    <g clip-path="url(#pea5c5481db)">
     <use style="fill:#d62728;stroke:#d62728;" x="60.123177" xlink:href="#md838a11de1" y="126.463246"/>
     <use style="fill:#d62728;stroke:#d62728;" x="69.162408" xlink:href="#md838a11de1" y="127.495791"/>
     <use style="fill:#d62728;stroke:#d62728;" x="78.201638" xlink:href="#md838a11de1" y="125.881947"/>
     <use style="fill:#d62728;stroke:#d62728;" x="87.240869" xlink:href="#md838a11de1" y="126.225938"/>
     <use style="fill:#d62728;stroke:#d62728;" x="96.2801" xlink:href="#md838a11de1" y="124.738817"/>
     <use style="fill:#d62728;stroke:#d62728;" x="105.31933" xlink:href="#md838a11de1" y="125.169097"/>
     <use style="fill:#d62728;stroke:#d62728;" x="114.358561" xlink:href="#md838a11de1" y="127.032273"/>
     <use style="fill:#d62728;stroke:#d62728;" x="123.397791" xlink:href="#md838a11de1" y="126.520023"/>
     <use style="fill:#d62728;stroke:#d62728;" x="132.437022" xlink:href="#md838a11de1" y="125.981155"/>
     <use style="fill:#d62728;stroke:#d62728;" x="141.476252" xlink:href="#md838a11de1" y="123.925937"/>
     <use style="fill:#d62728;stroke:#d62728;" x="150.515483" xlink:href="#md838a11de1" y="127.609441"/>
     <use style="fill:#d62728;stroke:#d62728;" x="159.554714" xlink:href="#md838a11de1" y="126.809599"/>
     <use style="fill:#d62728;stroke:#d62728;" x="168.593944" xlink:href="#md838a11de1" y="122.191146"/>
     <use style="fill:#d62728;stroke:#d62728;" x="177.633175" xlink:href="#md838a11de1" y="123.749379"/>
     <use style="fill:#d62728;stroke:#d62728;" x="186.672405" xlink:href="#md838a11de1" y="124.688037"/>
     <use style="fill:#d62728;stroke:#d62728;" x="195.711636" xlink:href="#md838a11de1" y="130.256099"/>
     <use style="fill:#d62728;stroke:#d62728;" x="204.750866" xlink:href="#md838a11de1" y="128.36652"/>
     <use style="fill:#d62728;stroke:#d62728;" x="213.790097" xlink:href="#md838a11de1" y="125.608514"/>
     <use style="fill:#d62728;stroke:#d62728;" x="222.829327" xlink:href="#md838a11de1" y="128.729013"/>
    </g>
   </g>
   <g id="patch_3">
    <path d="M 51.98787 163.288548 
L 51.98787 17.64 
" style="fill:none;stroke:#000000;stroke-linecap:square;stroke-linejoin:miter;stroke-width:0.8;"/>
   </g>
   <g id="patch_4">
    <path d="M 230.964635 163.288548 
L 230.964635 17.64 
" style="fill:none;stroke:#000000;stroke-linecap:square;stroke-linejoin:miter;stroke-width:0.8;"/>
   </g>
   <g id="patch_5">
    <path d="M 51.98787 163.288548 
L 230.964635 163.288548 
" style="fill:none;stroke:#000000;stroke-linecap:square;stroke-linejoin:miter;stroke-width:0.8;"/>
   </g>
   <g id="patch_6">
    <path d="M 51.98787 17.64 
L 230.964635 17.64 
" style="fill:none;stroke:#000000;stroke-linecap:square;stroke-linejoin:miter;stroke-width:0.8;"/>
   </g>
   <g id="legend_1">
    <g id="patch_7">
     <path d="M 239.128035 128.088365 
L 337.843272 128.088365 
Q 340.175672 128.088365 340.175672 125.755965 
L 340.175672 55.172583 
Q 340.175672 52.840183 337.843272 52.840183 
L 239.128035 52.840183 
Q 236.795635 52.840183 236.795635 55.172583 
L 236.795635 125.755965 
Q 236.795635 128.088365 239.128035 128.088365 
z
" style="fill:#ffffff;opacity:0.8;stroke:#cccccc;stroke-linejoin:miter;"/>
    </g>
    <g id="LineCollection_5">
     <path d="M 253.122435 68.084345 
L 253.122435 56.422345 
" style="fill:none;stroke:#1f77b4;stroke-width:1.5;"/>
    </g>
    <g id="line2d_11">
     <path d="M 241.460435 62.253345 
L 264.784435 62.253345 
" style="fill:none;stroke:#1f77b4;stroke-linecap:square;stroke-width:1.5;"/>
    </g>
    <g id="line2d_12">
     <g>
      <use style="fill:#1f77b4;stroke:#1f77b4;" x="253.122435" xlink:href="#m5ec27fbb71" y="62.253345"/>
     </g>
    </g>
    <g id="text_9">
     <!-- $\left&lt;\text{in}\right&gt;$ vs in -->
     <defs>
      <path d="M 32.796875 71.203125 
C 33.296875 72.296875 33.296875 72.5 33.296875 73 
C 33.296875 74.09375 32.40625 75 31.296875 75 
C 30.40625 75 29.703125 74.5 29 72.703125 
L 11.5 26.796875 
C 11.296875 26.203125 11 25.59375 11 25 
C 11 24.6875 11 24.5 11.5 23.296875 
L 29 -22.609375 
C 29.40625 -23.703125 29.90625 -25 31.296875 -25 
C 32.40625 -25 33.296875 -24.109375 33.296875 -23 
C 33.296875 -22.703125 33.296875 -22.5 32.796875 -21.40625 
L 15.09375 25 
z
" id="CMSY10-104"/>
      <path d="M 18.796875 46.59375 
L 17.90625 47 
C 12.796875 44.890625 7.59375 43.5 2.296875 42.90625 
L 2.296875 40.125 
L 6 40.125 
C 10 40.125 10.40625 39.421875 10.40625 32.859375 
L 10.40625 10.453125 
C 10.40625 4.1875 10.09375 3.484375 6.703125 3.296875 
L 2.09375 3 
L 2.09375 0 
C 12.09375 0 12.09375 0 14.59375 0 
C 17.09375 0.296875 17.09375 0.296875 27.09375 0 
L 27.09375 3 
L 22.5 3.296875 
C 19.09375 3.5 18.796875 4.1875 18.796875 10.484375 
z
M 14.203125 69 
C 11.203125 69 8.59375 66.390625 8.59375 63.390625 
C 8.59375 60.484375 11.203125 57.890625 14.09375 57.890625 
C 17 57.890625 19.703125 60.484375 19.703125 63.390625 
C 19.703125 66.1875 17 69 14.203125 69 
z
" id="URW_Palladio_L_Roman-105"/>
      <path d="M 41 0 
C 47.09375 0 47.203125 0 48.90625 0 
C 50.296875 0.296875 50.296875 0.296875 57.203125 0 
L 57.203125 3 
L 53.09375 3.296875 
C 49.703125 3.484375 49.40625 4.09375 49.40625 10.46875 
L 49.40625 29.71875 
C 49.40625 41.390625 43.90625 47.09375 32.703125 47.09375 
C 29 47.09375 26.90625 46.390625 24.796875 44.59375 
L 17.203125 38 
L 17.203125 46.6875 
L 16.296875 47 
C 11.203125 44.890625 6 43.5 0.703125 42.90625 
L 0.703125 40.125 
L 4.40625 40.125 
C 8.40625 40.125 8.796875 39.421875 8.796875 32.859375 
L 8.796875 10.453125 
C 8.796875 4.1875 8.5 3.484375 5.09375 3.296875 
L 0.59375 3 
L 0.59375 0 
C 7.40625 -0.109375 10.09375 0 13 0 
C 15.90625 0.296875 18.59375 0.1875 25.40625 0 
L 25.40625 3 
L 20.90625 3.296875 
C 17.5 3.484375 17.203125 4.1875 17.203125 10.46875 
L 17.203125 31.609375 
C 17.203125 36.109375 23.796875 41 29.90625 41 
C 36.59375 41 41 36 41 28.328125 
z
" id="URW_Palladio_L_Roman-110"/>
      <path d="M 27.296875 23.296875 
C 27.796875 24.5 27.796875 24.6875 27.796875 25 
C 27.796875 25.296875 27.796875 25.5 27.296875 26.703125 
L 9.796875 72.703125 
C 9.203125 74.390625 8.59375 75 7.5 75 
C 6.40625 75 5.5 74.09375 5.5 73 
C 5.5 72.703125 5.5 72.5 6 71.390625 
L 23.703125 25 
L 6 -21.203125 
C 5.5 -22.3125 5.5 -22.5 5.5 -23 
C 5.5 -24.109375 6.40625 -25 7.5 -25 
C 8.796875 -25 9.203125 -24 9.59375 -23 
z
" id="CMSY10-105"/>
      <path d="M 4.09375 14.328125 
C 4.09375 7.40625 3.796875 4.40625 3 0.390625 
C 8.203125 -1.3125 12.09375 -2 16.703125 -2 
C 29.796875 -2 39.09375 5 39.09375 14.828125 
C 39.09375 17.9375 38.203125 20.234375 36.296875 22.234375 
C 33.703125 24.75 30.40625 25.953125 21.59375 27.65625 
C 13.40625 29.25 10.703125 31.265625 10.703125 35.875 
C 10.703125 40.890625 14.203125 43.6875 20.296875 43.6875 
C 27 43.6875 32.09375 40.1875 32.09375 35.46875 
L 32.09375 33.171875 
L 34.90625 33.171875 
C 35 38.984375 35.09375 41.390625 35.40625 44.484375 
C 30.09375 46.296875 26.5 47 22.40625 47 
C 10.796875 47 3.703125 41.484375 3.703125 32.46875 
C 3.703125 27.65625 5.90625 24.25 10.5 22.140625 
C 13.203125 20.9375 18.5 19.328125 25.296875 17.828125 
C 29.796875 16.828125 31.703125 14.71875 31.703125 10.90625 
C 31.703125 5.5 26.703125 1.6875 19.59375 1.6875 
C 12.296875 1.6875 7.09375 5.203125 7.09375 10.21875 
L 7.09375 14.328125 
z
" id="URW_Palladio_L_Roman-115"/>
     </defs>
     <g transform="translate(274.114035 66.335045)scale(0.11662 -0.11662)">
      <use transform="scale(1.038107)" xlink:href="#CMSY10-104"/>
      <use transform="translate(41.494405 1.344978)scale(0.996264)" xlink:href="#URW_Palladio_L_Roman-105"/>
      <use transform="translate(70.484767 1.344978)scale(0.996264)" xlink:href="#URW_Palladio_L_Roman-110"/>
      <use transform="translate(129.712127 0)scale(1.038107)" xlink:href="#CMSY10-105"/>
      <use transform="translate(196.113132 1.344978)scale(0.996264)" xlink:href="#URW_Palladio_L_Roman-118"/>
      <use transform="translate(252.401046 1.344978)scale(0.996264)" xlink:href="#URW_Palladio_L_Roman-115"/>
      <use transform="translate(319.549112 1.344978)scale(0.996264)" xlink:href="#URW_Palladio_L_Roman-105"/>
      <use transform="translate(348.539474 1.344978)scale(0.996264)" xlink:href="#URW_Palladio_L_Roman-110"/>
     </g>
    </g>
    <g id="LineCollection_6">
     <path d="M 253.122435 86.02174 
L 253.122435 74.35974 
" style="fill:none;stroke:#ff7f0e;stroke-width:1.5;"/>
    </g>
    <g id="line2d_13">
     <path d="M 241.460435 80.19074 
L 264.784435 80.19074 
" style="fill:none;stroke:#ff7f0e;stroke-linecap:square;stroke-width:1.5;"/>
    </g>
    <g id="line2d_14">
     <g>
      <use style="fill:#ff7f0e;stroke:#ff7f0e;" x="253.122435" xlink:href="#m0c6775bf99" y="80.19074"/>
     </g>
    </g>
    <g id="text_10">
     <!-- $\left&lt;\text{out}\right&gt;$ vs in -->
     <g transform="translate(274.114035 84.27244)scale(0.11662 -0.11662)">
      <use transform="scale(1.038107)" xlink:href="#CMSY10-104"/>
      <use transform="translate(41.494405 1.344978)scale(0.996264)" xlink:href="#URW_Palladio_L_Roman-111"/>
      <use transform="translate(95.889985 1.344978)scale(0.996264)" xlink:href="#URW_Palladio_L_Roman-117"/>
      <use transform="translate(155.96372 1.344978)scale(0.996264)" xlink:href="#URW_Palladio_L_Roman-116"/>
      <use transform="translate(189.686108 0)scale(1.038107)" xlink:href="#CMSY10-105"/>
      <use transform="translate(256.087113 1.344978)scale(0.996264)" xlink:href="#URW_Palladio_L_Roman-118"/>
      <use transform="translate(312.375026 1.344978)scale(0.996264)" xlink:href="#URW_Palladio_L_Roman-115"/>
      <use transform="translate(379.523093 1.344978)scale(0.996264)" xlink:href="#URW_Palladio_L_Roman-105"/>
      <use transform="translate(408.513454 1.344978)scale(0.996264)" xlink:href="#URW_Palladio_L_Roman-110"/>
     </g>
    </g>
    <g id="LineCollection_7">
     <path d="M 253.122435 103.959136 
L 253.122435 92.297136 
" style="fill:none;stroke:#2ca02c;stroke-width:1.5;"/>
    </g>
    <g id="line2d_15">
     <path d="M 241.460435 98.128136 
L 264.784435 98.128136 
" style="fill:none;stroke:#2ca02c;stroke-linecap:square;stroke-width:1.5;"/>
    </g>
    <g id="line2d_16">
     <g>
      <use style="fill:#2ca02c;stroke:#2ca02c;" x="253.122435" xlink:href="#m77775af88e" y="98.128136"/>
     </g>
    </g>
    <g id="text_11">
     <!-- $\left&lt;\text{in}\right&gt;$ vs out -->
     <g transform="translate(274.114035 102.209836)scale(0.11662 -0.11662)">
      <use transform="scale(1.038107)" xlink:href="#CMSY10-104"/>
      <use transform="translate(41.494405 1.344978)scale(0.996264)" xlink:href="#URW_Palladio_L_Roman-105"/>
      <use transform="translate(70.484767 1.344978)scale(0.996264)" xlink:href="#URW_Palladio_L_Roman-110"/>
      <use transform="translate(129.712127 0)scale(1.038107)" xlink:href="#CMSY10-105"/>
      <use transform="translate(196.113132 1.344978)scale(0.996264)" xlink:href="#URW_Palladio_L_Roman-118"/>
      <use transform="translate(252.401046 1.344978)scale(0.996264)" xlink:href="#URW_Palladio_L_Roman-115"/>
      <use transform="translate(319.549112 1.344978)scale(0.996264)" xlink:href="#URW_Palladio_L_Roman-111"/>
      <use transform="translate(373.944692 1.344978)scale(0.996264)" xlink:href="#URW_Palladio_L_Roman-117"/>
      <use transform="translate(434.018427 1.344978)scale(0.996264)" xlink:href="#URW_Palladio_L_Roman-116"/>
     </g>
    </g>
    <g id="LineCollection_8">
     <path d="M 253.122435 121.896531 
L 253.122435 110.234531 
" style="fill:none;stroke:#d62728;stroke-width:1.5;"/>
    </g>
    <g id="line2d_17">
     <path d="M 241.460435 116.065531 
L 264.784435 116.065531 
" style="fill:none;stroke:#d62728;stroke-linecap:square;stroke-width:1.5;"/>
    </g>
    <g id="line2d_18">
     <g>
      <use style="fill:#d62728;stroke:#d62728;" x="253.122435" xlink:href="#md838a11de1" y="116.065531"/>
     </g>
    </g>
    <g id="text_12">
     <!-- $\left&lt;\text{out}\right&gt;$ vs out -->
     <g transform="translate(274.114035 120.147231)scale(0.11662 -0.11662)">
      <use transform="scale(1.038107)" xlink:href="#CMSY10-104"/>
      <use transform="translate(41.494405 1.344978)scale(0.996264)" xlink:href="#URW_Palladio_L_Roman-111"/>
      <use transform="translate(95.889985 1.344978)scale(0.996264)" xlink:href="#URW_Palladio_L_Roman-117"/>
      <use transform="translate(155.96372 1.344978)scale(0.996264)" xlink:href="#URW_Palladio_L_Roman-116"/>
      <use transform="translate(189.686108 0)scale(1.038107)" xlink:href="#CMSY10-105"/>
      <use transform="translate(256.087113 1.344978)scale(0.996264)" xlink:href="#URW_Palladio_L_Roman-118"/>
      <use transform="translate(312.375026 1.344978)scale(0.996264)" xlink:href="#URW_Palladio_L_Roman-115"/>
      <use transform="translate(379.523093 1.344978)scale(0.996264)" xlink:href="#URW_Palladio_L_Roman-111"/>
      <use transform="translate(433.918673 1.344978)scale(0.996264)" xlink:href="#URW_Palladio_L_Roman-117"/>
      <use transform="translate(493.992408 1.344978)scale(0.996264)" xlink:href="#URW_Palladio_L_Roman-116"/>
     </g>
    </g>
   </g>
  </g>
 </g>
 <defs>
  <clipPath id="pea5c5481db">
   <rect height="145.648548" width="178.976765" x="51.98787" y="17.64"/>
  </clipPath>
 </defs>
</svg>
