<?xml version="1.0" encoding="utf-8" standalone="no"?>
<!DOCTYPE svg PUBLIC "-//W3C//DTD SVG 1.1//EN"
  "http://www.w3.org/Graphics/SVG/1.1/DTD/svg11.dtd">
<!-- Created with matplotlib (http://matplotlib.org/) -->
<svg height="216pt" version="1.1" viewBox="0 0 288 216" width="288pt" xmlns="http://www.w3.org/2000/svg" xmlns:xlink="http://www.w3.org/1999/xlink">
 <defs>
  <style type="text/css">
*{stroke-linecap:butt;stroke-linejoin:round;}
  </style>
 </defs>
 <g id="figure_1">
  <g id="patch_1">
   <path d="M 0 216 
L 288 216 
L 288 0 
L 0 0 
z
" style="fill:#ffffff;"/>
  </g>
  <g id="axes_1">
   <g id="patch_2">
    <path d="M 57.6 172.8 
L 273.6 172.8 
L 273.6 10.8 
L 57.6 10.8 
z
" style="fill:#ffffff;"/>
   </g>
   <g id="matplotlib.axis_1">
    <g id="xtick_1">
     <g id="line2d_1">
      <defs>
       <path d="M 0 0 
L 0 3.5 
" id="m4389516c6f" style="stroke:#000000;stroke-width:0.8;"/>
      </defs>
      <g>
       <use style="stroke:#000000;stroke-width:0.8;" x="67.418182" xlink:href="#m4389516c6f" y="172.8"/>
      </g>
     </g>
     <g id="text_1">
      <!-- $0$ -->
      <defs>
       <path d="M 26.296875 69 
C 10.796875 69 2.90625 56.6875 2.90625 32.4375 
C 2.90625 20.71875 5 10.609375 8.5 5.703125 
C 12 0.796875 17.59375 -2 23.796875 -2 
C 38.90625 -2 46.5 11 46.5 36.640625 
C 46.5 58.578125 40 69 26.296875 69 
z
M 24.5 65.484375 
C 34.203125 65.484375 38.09375 55.671875 38.09375 31.640625 
C 38.09375 10.3125 34.296875 1.5 25.09375 1.5 
C 15.40625 1.5 11.296875 11.609375 11.296875 36.046875 
C 11.296875 57.1875 15 65.484375 24.5 65.484375 
z
" id="URW_Palladio_L_Roman-48"/>
      </defs>
      <g transform="translate(64.42939 188.353876)scale(0.12 -0.12)">
       <use transform="scale(0.996264)" xlink:href="#URW_Palladio_L_Roman-48"/>
      </g>
     </g>
    </g>
    <g id="xtick_2">
     <g id="line2d_2">
      <g>
       <use style="stroke:#000000;stroke-width:0.8;" x="147.221334" xlink:href="#m4389516c6f" y="172.8"/>
      </g>
     </g>
     <g id="text_2">
      <!-- $10000$ -->
      <defs>
       <path d="M 6.703125 55.796875 
L 7.703125 55.796875 
L 20.59375 61.59375 
C 20.703125 61.703125 20.796875 61.703125 20.90625 61.703125 
C 21.5 61.703125 21.703125 60.796875 21.703125 58.390625 
L 21.703125 9.890625 
C 21.703125 4.6875 20.59375 3.59375 15.203125 3.296875 
L 9.59375 3 
L 9.59375 0 
C 25 0 25 0 26.09375 0 
C 27.40625 0 29.59375 0 33 -0.109375 
C 34.203125 0.09375 37.703125 0.09375 41.796875 0 
L 41.796875 3 
L 36.59375 3.296875 
C 31.09375 3.578125 30.09375 4.671875 30.09375 9.8125 
L 30.09375 68.484375 
L 28.703125 69 
C 22.203125 65.609375 15.09375 62.640625 6 59.484375 
z
" id="URW_Palladio_L_Roman-49"/>
      </defs>
      <g transform="translate(132.277374 188.353876)scale(0.12 -0.12)">
       <use transform="scale(0.996264)" xlink:href="#URW_Palladio_L_Roman-49"/>
       <use transform="translate(49.8132 0)scale(0.996264)" xlink:href="#URW_Palladio_L_Roman-48"/>
       <use transform="translate(99.626401 0)scale(0.996264)" xlink:href="#URW_Palladio_L_Roman-48"/>
       <use transform="translate(149.439601 0)scale(0.996264)" xlink:href="#URW_Palladio_L_Roman-48"/>
       <use transform="translate(199.252802 0)scale(0.996264)" xlink:href="#URW_Palladio_L_Roman-48"/>
      </g>
     </g>
    </g>
    <g id="xtick_3">
     <g id="line2d_3">
      <g>
       <use style="stroke:#000000;stroke-width:0.8;" x="227.024486" xlink:href="#m4389516c6f" y="172.8"/>
      </g>
     </g>
     <g id="text_3">
      <!-- $20000$ -->
      <defs>
       <path d="M 1.59375 2.59375 
L 1.59375 0 
C 20.296875 0 20.296875 0 23.90625 0 
C 27.5 0.296875 27.5 0.296875 46.796875 0 
C 46.59375 2.09375 46.59375 3.09375 46.59375 4.484375 
C 46.59375 5.78125 46.59375 6.78125 46.796875 8.96875 
C 35.296875 8.46875 30.703125 8.375 12.203125 7.96875 
L 30.40625 27.203125 
C 40.09375 37.46875 43.09375 42.953125 43.09375 50.4375 
C 43.09375 61.890625 35.296875 69 22.59375 69 
C 15.40625 69 10.5 66.984375 5.59375 61.984375 
L 3.90625 48.4375 
L 6.796875 48.4375 
L 8.09375 53.03125 
C 9.703125 58.796875 13.296875 61.296875 20 61.296875 
C 28.59375 61.296875 34.09375 55.90625 34.09375 47.4375 
C 34.09375 39.96875 29.90625 32.59375 18.59375 20.625 
z
" id="URW_Palladio_L_Roman-50"/>
      </defs>
      <g transform="translate(212.080526 188.353876)scale(0.12 -0.12)">
       <use transform="scale(0.996264)" xlink:href="#URW_Palladio_L_Roman-50"/>
       <use transform="translate(49.8132 0)scale(0.996264)" xlink:href="#URW_Palladio_L_Roman-48"/>
       <use transform="translate(99.626401 0)scale(0.996264)" xlink:href="#URW_Palladio_L_Roman-48"/>
       <use transform="translate(149.439601 0)scale(0.996264)" xlink:href="#URW_Palladio_L_Roman-48"/>
       <use transform="translate(199.252802 0)scale(0.996264)" xlink:href="#URW_Palladio_L_Roman-48"/>
      </g>
     </g>
    </g>
    <g id="text_4">
     <!-- Edges remaining -->
     <defs>
      <path d="M 2.203125 65.984375 
L 7 65.6875 
C 11.59375 65.390625 12.09375 64.609375 12.09375 56.765625 
L 12.09375 12.21875 
C 12.09375 4.375 11.703125 3.6875 7 3.296875 
L 3.40625 3 
L 3.40625 0 
C 10 -0.109375 12.90625 0 15.703125 0 
C 16.203125 0 19 0 22.796875 -0.109375 
C 36.703125 0 36.703125 0 38.90625 0 
C 42 -0.3125 42 -0.3125 55.59375 0 
C 55.59375 5.796875 56.203125 11.1875 57.203125 16.390625 
L 53.703125 16.390625 
C 53.5 14.796875 53.296875 13.390625 53.203125 13 
C 52.59375 8.6875 51.296875 5.59375 49.90625 5.09375 
C 47.796875 4.6875 40.5 4.1875 31.5 4.1875 
C 26.296875 4.1875 24.5 4.390625 21.59375 4.984375 
L 21.59375 32.703125 
C 24.40625 32.890625 27.40625 33 31.90625 33 
C 39.296875 33 42 32.703125 43.796875 31.796875 
L 44.59375 29.328125 
L 45.09375 23.484375 
L 48.09375 23.484375 
C 47.796875 32.703125 47.796875 32.703125 47.796875 34.5 
C 47.796875 36.09375 47.796875 36.09375 48.09375 46.03125 
L 45.09375 46.03125 
L 44.59375 40.859375 
C 44.5 39.96875 44.203125 39.078125 43.796875 38.28125 
C 42 37.484375 39.203125 37.1875 32.59375 37.1875 
C 28.40625 37.1875 25 37.296875 21.59375 37.484375 
L 21.59375 64 
C 24.703125 64.6875 26.40625 64.796875 33.296875 64.796875 
C 39 64.796875 44.59375 64.296875 47.796875 63.40625 
C 50.203125 62.8125 50.5 62.3125 50.5 60.03125 
L 50.5 53.578125 
L 54 53.578125 
C 54 59.53125 54.5 64.296875 55.59375 68.6875 
C 50.703125 68.890625 47.59375 69 43.203125 69 
C 40.703125 69 37.40625 69 33.296875 68.890625 
C 27 68.796875 22.703125 68.6875 20 68.6875 
C 16.59375 68.6875 12.09375 68.796875 2.203125 69 
z
" id="URW_Palladio_L_Roman-69"/>
      <path d="M 41.203125 43.796875 
C 35.59375 46.1875 32.796875 47 29.296875 47 
C 26.59375 47 24.203125 46.390625 21.703125 45.09375 
L 12.90625 40.5 
C 7.203125 37.5 3.5 30.21875 3.5 21.75 
C 3.5 13.765625 6.203125 7.1875 11.09375 3.1875 
C 14.5 0.296875 19.203125 -1 25.703125 -1 
C 27.703125 -1 30 -0.609375 30.5 -0.203125 
L 41.59375 9.078125 
L 41.09375 0 
C 46 -0.109375 47.59375 0 48.796875 0 
C 49.59375 0 51 0 53.09375 -0.109375 
C 53.796875 0.09375 55.796875 0.09375 57.90625 0 
L 57.90625 3 
L 53.296875 3.296875 
C 49.90625 3.5 49.59375 4.1875 49.59375 10.5 
L 49.59375 72.09375 
L 48.703125 72.890625 
C 44.296875 71.203125 41 70.390625 33.09375 69.203125 
L 33.09375 66.390625 
L 38.703125 66.390625 
C 40.5 66.390625 41.203125 65.296875 41.203125 62.296875 
z
M 41.203125 22.25 
C 41.203125 15.765625 41 14.765625 39.703125 12.46875 
C 36.90625 7.78125 32 4.6875 27.296875 4.6875 
C 18.5 4.6875 12.203125 13.171875 12.203125 25.03125 
C 12.203125 35.90625 17.59375 42.296875 26.59375 42.296875 
C 30.40625 42.296875 34.40625 41 37.90625 38.59375 
C 40 37.203125 41.203125 35.90625 41.203125 35.109375 
z
" id="URW_Palladio_L_Roman-100"/>
      <path d="M 51.90625 38.3125 
L 54.40625 42.390625 
L 54 43.59375 
L 39.796875 43.1875 
C 36.09375 46.1875 32.5 47.390625 27.59375 47.390625 
C 23.203125 47.390625 18.09375 46 14 43.59375 
C 8.40625 40.40625 5.5 35.53125 5.5 29.453125 
C 5.5 22.078125 10.09375 16.984375 17.5 16.1875 
L 9.59375 9.96875 
C 8.59375 8.4375 8.09375 7.109375 8.09375 5.59375 
C 8.09375 2.796875 9.90625 1.1875 14.703125 -0.203125 
L 6 -4.921875 
C 4.59375 -5.734375 3.203125 -9.4375 3.203125 -12.5625 
C 3.203125 -21.6875 12.09375 -28 24.796875 -28 
C 39.90625 -28 51.796875 -18.484375 51.796875 -6.234375 
C 51.796875 1 47 6 40 6 
L 24 6 
C 18.796875 6 16.40625 7.21875 16.40625 9.96875 
C 16.40625 11.296875 17.203125 12.421875 19.796875 14.671875 
C 20.40625 15.1875 20.59375 15.390625 21 15.796875 
C 22 15.6875 22.59375 15.59375 23.40625 15.59375 
C 27.703125 15.59375 33 17.484375 37.09375 20.390625 
C 41.59375 23.671875 43.796875 27.65625 43.796875 32.9375 
C 43.796875 34.921875 43.5 36.21875 42.703125 38.3125 
z
M 24 44 
C 30.796875 44 35.40625 38.40625 35.40625 29.953125 
C 35.40625 23.46875 31.203125 19 25.09375 19 
C 18.40625 19 13.90625 24.171875 13.90625 31.84375 
C 13.90625 39.515625 17.59375 44 24 44 
z
M 28.703125 -1 
C 40 -1 43.90625 -3.3125 43.90625 -9.84375 
C 43.90625 -18.484375 36 -24.90625 25.5 -24.90625 
C 16.796875 -24.90625 10.796875 -19.78125 10.796875 -12.359375 
C 10.796875 -7.84375 13.40625 -3.71875 17.40625 -2.015625 
C 19 -1.203125 21.796875 -1 28.703125 -1 
z
" id="URW_Palladio_L_Roman-103"/>
      <path d="M 43.703125 6.984375 
L 42.40625 7.984375 
C 36 4.1875 33.703125 3.296875 29.40625 3.296875 
C 22.90625 3.296875 17.5 6.1875 14.703125 11.09375 
C 12.796875 14.390625 12.09375 17.1875 11.90625 23 
L 26.5 23 
C 33.40625 23 37.703125 23.296875 44.59375 24.390625 
C 44.703125 25.796875 44.796875 26.6875 44.796875 27.90625 
C 44.796875 39.46875 37.40625 47 26.203125 47 
C 22.5 47 18.203125 45.6875 14.09375 43.296875 
C 5.90625 38.5625 2.59375 32.328125 2.59375 21.890625 
C 2.59375 15.59375 4.09375 10.1875 6.796875 6.390625 
C 10.796875 1.09375 17.5 -2 25 -2 
C 28.703125 -2 32.40625 -1.203125 36.5 0.59375 
C 39.203125 1.6875 41.296875 3 41.703125 3.59375 
z
M 35.90625 26.6875 
C 30.703125 26.5 28.296875 26.390625 24.703125 26.390625 
C 20.09375 26.390625 17.5 26.5 12.09375 27 
C 12.09375 31.71875 12.5 33.9375 13.796875 36.546875 
C 15.90625 40.984375 20.203125 43.6875 25 43.6875 
C 28.296875 43.6875 30.90625 42.390625 32.703125 39.671875 
C 34.90625 36.34375 35.59375 33.4375 35.90625 26.6875 
z
" id="URW_Palladio_L_Roman-101"/>
      <path d="M 4.09375 14.328125 
C 4.09375 7.40625 3.796875 4.40625 3 0.390625 
C 8.203125 -1.3125 12.09375 -2 16.703125 -2 
C 29.796875 -2 39.09375 5 39.09375 14.828125 
C 39.09375 17.9375 38.203125 20.234375 36.296875 22.234375 
C 33.703125 24.75 30.40625 25.953125 21.59375 27.65625 
C 13.40625 29.25 10.703125 31.265625 10.703125 35.875 
C 10.703125 40.890625 14.203125 43.6875 20.296875 43.6875 
C 27 43.6875 32.09375 40.1875 32.09375 35.46875 
L 32.09375 33.171875 
L 34.90625 33.171875 
C 35 38.984375 35.09375 41.390625 35.40625 44.484375 
C 30.09375 46.296875 26.5 47 22.40625 47 
C 10.796875 47 3.703125 41.484375 3.703125 32.46875 
C 3.703125 27.65625 5.90625 24.25 10.5 22.140625 
C 13.203125 20.9375 18.5 19.328125 25.296875 17.828125 
C 29.796875 16.828125 31.703125 14.71875 31.703125 10.90625 
C 31.703125 5.5 26.703125 1.6875 19.59375 1.6875 
C 12.296875 1.6875 7.09375 5.203125 7.09375 10.21875 
L 7.09375 14.328125 
z
" id="URW_Palladio_L_Roman-115"/>
      <path d="M 2.296875 40.296875 
L 6 40.296875 
C 10 40.296875 10.40625 39.59375 10.40625 33 
L 10.40625 10.5 
C 10.40625 4.1875 10.09375 3.5 6.703125 3.296875 
L 2.09375 3 
L 2.09375 0 
C 9.296875 -0.109375 11.90625 0 14.40625 0 
C 16.40625 0.296875 16.40625 0.296875 28.703125 0 
L 28.703125 3 
L 23.5 3.296875 
C 19 3.59375 18.796875 3.890625 18.796875 10.453125 
L 18.796875 27.546875 
C 18.796875 33.515625 22.796875 38.484375 27.703125 38.484375 
C 30.703125 38.484375 32.796875 37.09375 34.40625 33.921875 
L 36.5 33.921875 
L 37.40625 45.890625 
C 36.296875 46.59375 34.5 47 32.703125 47 
C 29.703125 47 26.5 45.390625 24.40625 42.890625 
L 18.796875 36.3125 
L 18.796875 46.59375 
L 17.90625 47 
C 12.796875 44.890625 7.59375 43.484375 2.296875 42.890625 
z
" id="URW_Palladio_L_Roman-114"/>
      <path d="M 1.796875 40.296875 
L 5.5 40.296875 
C 9.5 40.296875 9.90625 39.59375 9.90625 33 
L 9.90625 10.5 
C 9.90625 4.1875 9.59375 3.5 6.203125 3.296875 
L 1.59375 3 
L 1.59375 0 
C 11.203125 0 11.5 0 14.296875 0 
C 17.09375 0.296875 19.703125 0.1875 26.203125 0 
L 26.203125 3 
L 22 3.296875 
C 18.59375 3.484375 18.296875 4.1875 18.296875 10.46875 
L 18.296875 31.609375 
C 18.296875 36.109375 24.90625 41 30.90625 41 
C 36.296875 41 40 35.90625 40 28.328125 
L 40 10.46875 
C 40 4.1875 39.703125 3.484375 36.296875 3.296875 
L 31.703125 3 
L 31.703125 0 
C 41.703125 0 41.703125 0 44.203125 0 
C 46.703125 0.296875 46.703125 0.296875 56.703125 0 
L 56.703125 3 
L 52.09375 3.296875 
C 48.703125 3.484375 48.40625 4.1875 48.40625 10.46875 
L 48.40625 31.609375 
C 48.40625 36.109375 55 41 61 41 
C 66.40625 41 70.09375 35.90625 70.09375 28.328125 
L 70.09375 0 
C 76.203125 0 76.296875 0 78 0 
C 79.296875 0.296875 79.296875 0.296875 86.90625 0 
L 86.90625 3 
L 82.203125 3.296875 
C 78.796875 3.484375 78.5 4.1875 78.5 10.46875 
L 78.5 31.015625 
C 78.5 40.890625 72.703125 47.09375 63.5 47.09375 
C 60 47.09375 57.09375 46.1875 55.296875 44.59375 
L 47.703125 37.796875 
C 44.5 44.390625 40.40625 47.09375 33.5 47.09375 
C 29.796875 47.09375 27 46.1875 25.203125 44.59375 
L 18.296875 38.203125 
L 18.296875 46.6875 
L 17.40625 47 
C 12.296875 44.890625 7.09375 43.484375 1.796875 42.890625 
z
" id="URW_Palladio_L_Roman-109"/>
      <path d="M 32.40625 8.5 
L 31.90625 0 
C 38.40625 0 38.40625 0 39.703125 0 
C 40.203125 0.296875 42.703125 0.1875 47.09375 0 
L 47.09375 3 
L 43.203125 3.1875 
C 40.796875 3.296875 40.40625 4.09375 40.40625 9 
L 40.40625 27.359375 
C 40.40625 42 36.203125 47.296875 24.59375 47.296875 
C 20.296875 47.296875 16.296875 46.1875 12.5 43.890625 
L 7.203125 40.6875 
L 7.203125 34.171875 
L 9.796875 33.46875 
L 11.09375 36.578125 
C 13.203125 41.28125 14.203125 42 18.796875 42 
C 28.203125 42 32.09375 38.28125 32.40625 29.15625 
L 22.5 27.359375 
C 8.90625 24.84375 3.203125 20.140625 3.203125 11.40625 
C 3.203125 3.5 7.90625 -1 15.796875 -1 
C 17.59375 -1 19.296875 -0.703125 20 -0.203125 
z
M 32.40625 12.59375 
C 29.5 8.5 23.203125 4.6875 19.296875 4.6875 
C 15.296875 4.6875 11.796875 8.390625 11.796875 12.6875 
C 11.796875 16.390625 13.796875 19.890625 16.796875 21.796875 
C 19.296875 23.296875 24.796875 24.6875 32.40625 25.796875 
z
" id="URW_Palladio_L_Roman-97"/>
      <path d="M 18.796875 46.59375 
L 17.90625 47 
C 12.796875 44.890625 7.59375 43.5 2.296875 42.90625 
L 2.296875 40.125 
L 6 40.125 
C 10 40.125 10.40625 39.421875 10.40625 32.859375 
L 10.40625 10.453125 
C 10.40625 4.1875 10.09375 3.484375 6.703125 3.296875 
L 2.09375 3 
L 2.09375 0 
C 12.09375 0 12.09375 0 14.59375 0 
C 17.09375 0.296875 17.09375 0.296875 27.09375 0 
L 27.09375 3 
L 22.5 3.296875 
C 19.09375 3.5 18.796875 4.1875 18.796875 10.484375 
z
M 14.203125 69 
C 11.203125 69 8.59375 66.390625 8.59375 63.390625 
C 8.59375 60.484375 11.203125 57.890625 14.09375 57.890625 
C 17 57.890625 19.703125 60.484375 19.703125 63.390625 
C 19.703125 66.1875 17 69 14.203125 69 
z
" id="URW_Palladio_L_Roman-105"/>
      <path d="M 41 0 
C 47.09375 0 47.203125 0 48.90625 0 
C 50.296875 0.296875 50.296875 0.296875 57.203125 0 
L 57.203125 3 
L 53.09375 3.296875 
C 49.703125 3.484375 49.40625 4.09375 49.40625 10.46875 
L 49.40625 29.71875 
C 49.40625 41.390625 43.90625 47.09375 32.703125 47.09375 
C 29 47.09375 26.90625 46.390625 24.796875 44.59375 
L 17.203125 38 
L 17.203125 46.6875 
L 16.296875 47 
C 11.203125 44.890625 6 43.5 0.703125 42.90625 
L 0.703125 40.125 
L 4.40625 40.125 
C 8.40625 40.125 8.796875 39.421875 8.796875 32.859375 
L 8.796875 10.453125 
C 8.796875 4.1875 8.5 3.484375 5.09375 3.296875 
L 0.59375 3 
L 0.59375 0 
C 7.40625 -0.109375 10.09375 0 13 0 
C 15.90625 0.296875 18.59375 0.1875 25.40625 0 
L 25.40625 3 
L 20.90625 3.296875 
C 17.5 3.484375 17.203125 4.1875 17.203125 10.46875 
L 17.203125 31.609375 
C 17.203125 36.109375 23.796875 41 29.90625 41 
C 36.59375 41 41 36 41 28.328125 
z
" id="URW_Palladio_L_Roman-110"/>
     </defs>
     <g transform="translate(113.491878 205.704689)scale(0.14 -0.14)">
      <use transform="scale(0.996264)" xlink:href="#URW_Palladio_L_Roman-69"/>
      <use transform="translate(60.871631 0)scale(0.996264)" xlink:href="#URW_Palladio_L_Roman-100"/>
      <use transform="translate(121.743261 0)scale(0.996264)" xlink:href="#URW_Palladio_L_Roman-103"/>
      <use transform="translate(177.134938 0)scale(0.996264)" xlink:href="#URW_Palladio_L_Roman-101"/>
      <use transform="translate(224.855233 0)scale(0.996264)" xlink:href="#URW_Palladio_L_Roman-115"/>
      <use transform="translate(292.0033 0)scale(0.996264)" xlink:href="#URW_Palladio_L_Roman-114"/>
      <use transform="translate(329.562617 0)scale(0.996264)" xlink:href="#URW_Palladio_L_Roman-101"/>
      <use transform="translate(377.282912 0)scale(0.996264)" xlink:href="#URW_Palladio_L_Roman-109"/>
      <use transform="translate(465.252587 0)scale(0.996264)" xlink:href="#URW_Palladio_L_Roman-97"/>
      <use transform="translate(515.065787 0)scale(0.996264)" xlink:href="#URW_Palladio_L_Roman-105"/>
      <use transform="translate(544.056149 0)scale(0.996264)" xlink:href="#URW_Palladio_L_Roman-110"/>
      <use transform="translate(602.038209 0)scale(0.996264)" xlink:href="#URW_Palladio_L_Roman-105"/>
      <use transform="translate(631.028571 0)scale(0.996264)" xlink:href="#URW_Palladio_L_Roman-110"/>
      <use transform="translate(689.010632 0)scale(0.996264)" xlink:href="#URW_Palladio_L_Roman-103"/>
     </g>
    </g>
   </g>
   <g id="matplotlib.axis_2">
    <g id="ytick_1">
     <g id="line2d_4">
      <defs>
       <path d="M 0 0 
L -3.5 0 
" id="m46853956e0" style="stroke:#000000;stroke-width:0.8;"/>
      </defs>
      <g>
       <use style="stroke:#000000;stroke-width:0.8;" x="57.6" xlink:href="#m46853956e0" y="165.465824"/>
      </g>
     </g>
     <g id="text_5">
      <!-- $0$ -->
      <g transform="translate(44.622416 169.742762)scale(0.12 -0.12)">
       <use transform="scale(0.996264)" xlink:href="#URW_Palladio_L_Roman-48"/>
      </g>
     </g>
    </g>
    <g id="ytick_2">
     <g id="line2d_5">
      <g>
       <use style="stroke:#000000;stroke-width:0.8;" x="57.6" xlink:href="#m46853956e0" y="136.005387"/>
      </g>
     </g>
     <g id="text_6">
      <!-- $2000$ -->
      <g transform="translate(26.689664 140.282324)scale(0.12 -0.12)">
       <use transform="scale(0.996264)" xlink:href="#URW_Palladio_L_Roman-50"/>
       <use transform="translate(49.8132 0)scale(0.996264)" xlink:href="#URW_Palladio_L_Roman-48"/>
       <use transform="translate(99.626401 0)scale(0.996264)" xlink:href="#URW_Palladio_L_Roman-48"/>
       <use transform="translate(149.439601 0)scale(0.996264)" xlink:href="#URW_Palladio_L_Roman-48"/>
      </g>
     </g>
    </g>
    <g id="ytick_3">
     <g id="line2d_6">
      <g>
       <use style="stroke:#000000;stroke-width:0.8;" x="57.6" xlink:href="#m46853956e0" y="106.544949"/>
      </g>
     </g>
     <g id="text_7">
      <!-- $4000$ -->
      <defs>
       <path d="M 28 18 
L 28 10.6875 
C 28 4.84375 26.90625 3.484375 22 3.28125 
L 15.796875 3 
L 15.796875 0 
C 29.09375 0 29.09375 0 31.5 0 
C 33.90625 0.296875 33.90625 0.296875 47.203125 0 
L 47.203125 3 
L 42.40625 3.28125 
C 37.5 3.578125 36.40625 4.84375 36.40625 10.6875 
L 36.40625 18 
C 42.296875 18 44.40625 17.890625 47.203125 17.609375 
L 47.203125 24.6875 
C 42.5 24.296875 40.59375 24.296875 39.09375 24.390625 
L 38.796875 24.390625 
L 36.40625 24.390625 
L 36.40625 38.203125 
C 36.40625 55.875 36.59375 64.40625 37.09375 68.484375 
L 35.90625 69 
L 28.5 66.296875 
L 0.203125 20.296875 
L 1.296875 18 
z
M 28 24.390625 
L 6.5 24.390625 
L 28 59.34375 
z
" id="URW_Palladio_L_Roman-52"/>
      </defs>
      <g transform="translate(26.689664 110.821887)scale(0.12 -0.12)">
       <use transform="scale(0.996264)" xlink:href="#URW_Palladio_L_Roman-52"/>
       <use transform="translate(49.8132 0)scale(0.996264)" xlink:href="#URW_Palladio_L_Roman-48"/>
       <use transform="translate(99.626401 0)scale(0.996264)" xlink:href="#URW_Palladio_L_Roman-48"/>
       <use transform="translate(149.439601 0)scale(0.996264)" xlink:href="#URW_Palladio_L_Roman-48"/>
      </g>
     </g>
    </g>
    <g id="ytick_4">
     <g id="line2d_7">
      <g>
       <use style="stroke:#000000;stroke-width:0.8;" x="57.6" xlink:href="#m46853956e0" y="77.084511"/>
      </g>
     </g>
     <g id="text_8">
      <!-- $6000$ -->
      <defs>
       <path d="M 41.59375 66.984375 
L 37.90625 68.6875 
C 28.296875 65.515625 24.203125 63.53125 19.09375 59.1875 
C 8.796875 50.578125 3.203125 38.484375 3.203125 24.765625 
C 3.203125 8.21875 11.203125 -2 24.09375 -2 
C 37.09375 -2 46.796875 8.3125 46.796875 21.953125 
C 46.796875 33.484375 39.90625 41 29.296875 41 
C 24.296875 41 21.296875 39.6875 15.40625 34.984375 
C 14.296875 34.09375 14.203125 33.984375 13.09375 33.1875 
C 15.203125 51.171875 23.59375 60.859375 41.59375 66.203125 
z
M 25.5 34.984375 
C 33.09375 34.984375 38.203125 28.375 38.203125 18.4375 
C 38.203125 8.015625 33.09375 1.296875 25.40625 1.296875 
C 16.90625 1.296875 12.296875 8.609375 12.296875 22.046875 
C 12.296875 25.5625 12.703125 27.46875 13.796875 29.171875 
C 16 32.578125 20.703125 34.984375 25.5 34.984375 
z
" id="URW_Palladio_L_Roman-54"/>
      </defs>
      <g transform="translate(26.689664 81.361449)scale(0.12 -0.12)">
       <use transform="scale(0.996264)" xlink:href="#URW_Palladio_L_Roman-54"/>
       <use transform="translate(49.8132 0)scale(0.996264)" xlink:href="#URW_Palladio_L_Roman-48"/>
       <use transform="translate(99.626401 0)scale(0.996264)" xlink:href="#URW_Palladio_L_Roman-48"/>
       <use transform="translate(149.439601 0)scale(0.996264)" xlink:href="#URW_Palladio_L_Roman-48"/>
      </g>
     </g>
    </g>
    <g id="ytick_5">
     <g id="line2d_8">
      <g>
       <use style="stroke:#000000;stroke-width:0.8;" x="57.6" xlink:href="#m46853956e0" y="47.624074"/>
      </g>
     </g>
     <g id="text_9">
      <!-- $8000$ -->
      <defs>
       <path d="M 16.796875 34.546875 
C 12.703125 32.640625 11 31.546875 8.796875 29.4375 
C 5 25.625 3 21.125 3 15.921875 
C 3 5.59375 11.296875 -2 22.59375 -2 
C 35.59375 -2 46.40625 8.203125 46.40625 20.625 
C 46.40625 28.640625 42.703125 32.9375 31.296875 38.15625 
C 40.40625 44.359375 43.59375 48.5625 43.59375 54.578125 
C 43.59375 63.1875 36.5 69 25.90625 69 
C 14 69 5.296875 61.390625 5.296875 50.875 
C 5.296875 44.0625 8 40.25 16.796875 34.546875 
z
M 28.40625 29.53125 
C 34.703125 26.734375 38.5 21.828125 38.5 16.421875 
C 38.5 8 32.203125 1.390625 24.09375 1.390625 
C 15.59375 1.390625 10.09375 7.40625 10.09375 16.71875 
C 10.09375 24.03125 13 28.640625 20.40625 33.140625 
z
M 22.296875 42.359375 
C 16 45.46875 12.796875 49.46875 12.796875 54.46875 
C 12.796875 61.09375 17.59375 65.59375 24.703125 65.59375 
C 32 65.59375 36.796875 60.78125 36.796875 53.46875 
C 36.796875 47.765625 34.296875 43.859375 27.796875 39.65625 
z
" id="URW_Palladio_L_Roman-56"/>
      </defs>
      <g transform="translate(26.689664 51.901012)scale(0.12 -0.12)">
       <use transform="scale(0.996264)" xlink:href="#URW_Palladio_L_Roman-56"/>
       <use transform="translate(49.8132 0)scale(0.996264)" xlink:href="#URW_Palladio_L_Roman-48"/>
       <use transform="translate(99.626401 0)scale(0.996264)" xlink:href="#URW_Palladio_L_Roman-48"/>
       <use transform="translate(149.439601 0)scale(0.996264)" xlink:href="#URW_Palladio_L_Roman-48"/>
      </g>
     </g>
    </g>
    <g id="ytick_6">
     <g id="line2d_9">
      <g>
       <use style="stroke:#000000;stroke-width:0.8;" x="57.6" xlink:href="#m46853956e0" y="18.163636"/>
      </g>
     </g>
     <g id="text_10">
      <!-- $10000$ -->
      <g transform="translate(20.71208 22.440574)scale(0.12 -0.12)">
       <use transform="scale(0.996264)" xlink:href="#URW_Palladio_L_Roman-49"/>
       <use transform="translate(49.8132 0)scale(0.996264)" xlink:href="#URW_Palladio_L_Roman-48"/>
       <use transform="translate(99.626401 0)scale(0.996264)" xlink:href="#URW_Palladio_L_Roman-48"/>
       <use transform="translate(149.439601 0)scale(0.996264)" xlink:href="#URW_Palladio_L_Roman-48"/>
       <use transform="translate(199.252802 0)scale(0.996264)" xlink:href="#URW_Palladio_L_Roman-48"/>
      </g>
     </g>
    </g>
    <g id="text_11">
     <!-- Size of largest component -->
     <defs>
      <path d="M 44.703125 52.671875 
C 44.703125 57.984375 45.09375 61.390625 46.09375 66.796875 
C 38.09375 69.984375 33.59375 71 28.09375 71 
C 13.203125 71 2.40625 61.59375 2.40625 48.46875 
C 2.40625 43.5625 3.703125 39.953125 6.59375 37.25 
C 10 34.140625 14.59375 32.546875 24.296875 31.234375 
C 32 30.140625 35.5 29.03125 38.09375 26.734375 
C 40.703125 24.625 41.90625 21.71875 41.90625 17.921875 
C 41.90625 8.90625 34.40625 2.390625 24 2.390625 
C 16 2.390625 8.203125 6.296875 7.703125 10.40625 
L 6.90625 17.109375 
L 3.703125 17.109375 
C 3.796875 15.3125 3.796875 13.703125 3.796875 13.109375 
C 3.796875 8.5 3.59375 6.296875 3 1.796875 
C 8.703125 -0.703125 14.5 -2 20.296875 -2 
C 37.703125 -2 50.296875 8.5 50.296875 23.03125 
C 50.296875 27.734375 49 31.03125 46.203125 33.640625 
C 42.703125 36.953125 38.5 38.25 27.296875 39.75 
C 15.09375 41.359375 10.796875 44.65625 10.796875 52.375 
C 10.796875 60.78125 17.09375 66.796875 25.90625 66.796875 
C 29.796875 66.796875 33.5 66 36.203125 64.484375 
C 39.5 62.78125 40.59375 61.28125 40.90625 58.375 
L 41.5 52.671875 
z
" id="URW_Palladio_L_Roman-83"/>
      <path d="M 45.5 43.296875 
L 45.5 46.296875 
C 38.5 46.09375 35.5 46 31.703125 46 
L 6.90625 46.296875 
C 6.703125 41.203125 6.59375 40 6 33.140625 
L 9 33.140625 
L 10.203125 39.90625 
C 10.59375 42 12.40625 42.484375 19.796875 42.484375 
L 34.09375 42.484375 
C 32 39.203125 30.296875 36.921875 27.59375 33.53125 
L 10.59375 12.4375 
C 8.203125 9.546875 6.796875 7.859375 1.59375 2 
L 2.203125 0 
C 12.59375 0 13.203125 0 17.5 0 
L 45.09375 0 
C 45.09375 2.296875 45.296875 4.6875 46 9.5 
L 46.59375 14.1875 
L 43.59375 14.1875 
L 41.796875 6.296875 
C 41.40625 4.1875 37.203125 3.5 27.59375 3.5 
L 14.09375 3.5 
z
" id="URW_Palladio_L_Roman-122"/>
      <path d="M 27.90625 47 
C 13.296875 47 3.203125 36.671875 3.203125 21.734375 
C 3.203125 7.609375 12.09375 -2 25 -2 
C 40.40625 -2 51.40625 8.703125 51.40625 23.75 
C 51.40625 37.28125 41.59375 47 27.90625 47 
z
M 26.09375 43.6875 
C 35.296875 43.6875 42.09375 33.671875 42.09375 20.03125 
C 42.09375 8.515625 37 1.296875 28.90625 1.296875 
C 19.09375 1.296875 12.5 10.921875 12.5 25.140625 
C 12.5 37.171875 17.296875 43.6875 26.09375 43.6875 
z
" id="URW_Palladio_L_Roman-111"/>
      <path d="M 34.09375 71.890625 
C 32 72.6875 30.796875 73 29.5 73 
C 26.296875 73 22.796875 71.296875 20.59375 68.796875 
L 14.796875 62.203125 
C 11.90625 58.90625 10.59375 54.40625 10.59375 47.8125 
L 10.59375 43.625 
L 3.703125 40.53125 
L 3.703125 38.328125 
L 10.59375 38.734375 
L 10.59375 10.484375 
C 10.59375 4.1875 10.296875 3.484375 6.90625 3.296875 
L 2.296875 3 
L 2.296875 0 
C 12.296875 0 12.296875 0 14.796875 0 
C 17.296875 0.296875 17.296875 0.296875 27.296875 0 
L 27.296875 3 
L 22.703125 3.296875 
C 19.296875 3.484375 19 4.1875 19 10.484375 
L 19 38.734375 
L 31.40625 38.734375 
L 32.09375 44.03125 
L 19 43.625 
L 19 52.109375 
C 19 63.59375 20.296875 66.390625 26 66.390625 
C 28.703125 66.390625 30.5 65.6875 32.90625 63.59375 
L 34.09375 64.1875 
z
" id="URW_Palladio_L_Roman-102"/>
      <path d="M 2.296875 66.390625 
L 7.90625 66.390625 
C 9.703125 66.390625 10.40625 65.296875 10.40625 62.296875 
L 10.40625 10.5 
C 10.40625 4.1875 10.09375 3.5 6.703125 3.296875 
L 2.09375 3 
L 2.09375 0 
C 12.09375 0 12.09375 0 14.59375 0 
C 17.09375 0.296875 17.09375 0.296875 27.09375 0 
L 27.09375 3 
L 22.5 3.296875 
C 19.09375 3.5 18.796875 4.1875 18.796875 10.5 
L 18.796875 72.09375 
L 17.90625 72.890625 
C 13.5 71.203125 10.203125 70.390625 2.296875 69.203125 
z
" id="URW_Palladio_L_Roman-108"/>
      <path d="M 9.796875 38.390625 
L 9.796875 9.59375 
C 9.796875 2.1875 13.09375 -1 20.796875 -1 
C 23.09375 -1 25.5 -0.5 26.09375 0.1875 
L 30.90625 5.5 
L 29.59375 7.1875 
C 27.09375 5.796875 25.59375 5.296875 23.703125 5.296875 
C 19.796875 5.296875 18.203125 7.296875 18.203125 12.1875 
L 18.203125 38.390625 
L 31 38.390625 
L 31.90625 43.796875 
L 18.203125 43.1875 
L 18.203125 47 
C 18.203125 51.203125 18.5 54.796875 19.296875 61.203125 
L 18.09375 62.296875 
C 15.703125 60.796875 12.703125 59.5 9.59375 58.5 
C 9.90625 55.5 10 53.59375 10 50.59375 
L 10 43.59375 
L 2.203125 40.09375 
L 2.203125 38 
z
" id="URW_Palladio_L_Roman-116"/>
      <path d="M 39.90625 31.171875 
C 39.90625 35.78125 40.40625 39.890625 41.296875 43.484375 
C 37.296875 45.890625 33.796875 47 29.703125 47 
C 24.90625 47 19.296875 45.09375 13.296875 41.296875 
C 6.296875 36.875 2.59375 29.859375 2.59375 21.046875 
C 2.59375 7.5 12.09375 -2 25.5 -2 
C 30.703125 -2 38.203125 -0.109375 39.203125 1.390625 
L 41.296875 4.59375 
L 40.296875 6.09375 
C 36.59375 4.09375 33.40625 3.1875 29.796875 3.1875 
C 18.703125 3.1875 11.40625 11.8125 11.40625 25.046875 
C 11.40625 35.78125 16.40625 41.796875 25.40625 41.796875 
C 29.796875 41.796875 34.59375 39.796875 36.40625 37.28125 
L 37.09375 31.171875 
z
" id="URW_Palladio_L_Roman-99"/>
      <path d="M 1 40.09375 
L 4.703125 40.09375 
C 8.703125 40.09375 9.09375 39.390625 9.09375 32.8125 
L 9.09375 -17.46875 
C 9.09375 -23.796875 8.796875 -24.5 5.40625 -24.703125 
L 0.796875 -25 
L 0.796875 -28 
C 10.796875 -27.703125 10.796875 -27.703125 13.296875 -27.703125 
C 15.796875 -27.703125 15.796875 -27.703125 25.796875 -28 
L 25.796875 -25 
L 21.203125 -24.703125 
C 17.796875 -24.5 17.5 -23.796875 17.5 -17.46875 
L 17.5 1.5 
C 20.5 -0.3125 23.703125 -1 28.203125 -1 
C 31.09375 -1 33.703125 -0.40625 35.296875 0.59375 
L 46.703125 7.984375 
C 50.703125 10.578125 55.40625 20.84375 55.40625 27.234375 
C 55.40625 38.296875 46.203125 47 34.59375 47 
C 30.90625 47 27.296875 45.984375 25.703125 44.484375 
L 17.5 37 
L 17.5 46.59375 
L 16.59375 47 
C 11.5 44.890625 6.296875 43.484375 1 42.890625 
z
M 17.5 30.71875 
C 17.5 32.109375 18 33.21875 19.296875 34.90625 
C 22.203125 38.59375 26.296875 40.484375 31.296875 40.484375 
C 40.703125 40.484375 46.703125 33.90625 46.703125 23.546875 
C 46.703125 12.375 40 4.09375 31 4.09375 
C 25.5 4.09375 21.40625 5.890625 17.5 9.984375 
z
" id="URW_Palladio_L_Roman-112"/>
     </defs>
     <g transform="translate(12.778907 171.063887)rotate(-90)scale(0.14 -0.14)">
      <use transform="scale(0.996264)" xlink:href="#URW_Palladio_L_Roman-83"/>
      <use transform="translate(52.303815 0)scale(0.996264)" xlink:href="#URW_Palladio_L_Roman-105"/>
      <use transform="translate(81.294176 0)scale(0.996264)" xlink:href="#URW_Palladio_L_Roman-122"/>
      <use transform="translate(131.107377 0)scale(0.996264)" xlink:href="#URW_Palladio_L_Roman-101"/>
      <use transform="translate(203.734272 0)scale(0.996264)" xlink:href="#URW_Palladio_L_Roman-111"/>
      <use transform="translate(258.129852 0)scale(0.996264)" xlink:href="#URW_Palladio_L_Roman-102"/>
      <use transform="translate(316.211682 0)scale(0.996264)" xlink:href="#URW_Palladio_L_Roman-108"/>
      <use transform="translate(345.202044 0)scale(0.996264)" xlink:href="#URW_Palladio_L_Roman-97"/>
      <use transform="translate(395.015244 0)scale(0.996264)" xlink:href="#URW_Palladio_L_Roman-114"/>
      <use transform="translate(432.574562 0)scale(0.996264)" xlink:href="#URW_Palladio_L_Roman-103"/>
      <use transform="translate(487.966239 0)scale(0.996264)" xlink:href="#URW_Palladio_L_Roman-101"/>
      <use transform="translate(535.686534 0)scale(0.996264)" xlink:href="#URW_Palladio_L_Roman-115"/>
      <use transform="translate(577.928 0)scale(0.996264)" xlink:href="#URW_Palladio_L_Roman-116"/>
      <use transform="translate(635.311688 0)scale(0.996264)" xlink:href="#URW_Palladio_L_Roman-99"/>
      <use transform="translate(679.545257 0)scale(0.996264)" xlink:href="#URW_Palladio_L_Roman-111"/>
      <use transform="translate(733.940837 0)scale(0.996264)" xlink:href="#URW_Palladio_L_Roman-109"/>
      <use transform="translate(821.910511 0)scale(0.996264)" xlink:href="#URW_Palladio_L_Roman-112"/>
      <use transform="translate(881.784905 0)scale(0.996264)" xlink:href="#URW_Palladio_L_Roman-111"/>
      <use transform="translate(936.180485 0)scale(0.996264)" xlink:href="#URW_Palladio_L_Roman-110"/>
      <use transform="translate(994.162546 0)scale(0.996264)" xlink:href="#URW_Palladio_L_Roman-101"/>
      <use transform="translate(1041.882841 0)scale(0.996264)" xlink:href="#URW_Palladio_L_Roman-110"/>
      <use transform="translate(1099.864902 0)scale(0.996264)" xlink:href="#URW_Palladio_L_Roman-116"/>
     </g>
    </g>
   </g>
   <g id="line2d_10">
    <path clip-path="url(#p11456ab158)" d="M 67.418182 165.436364 
L 78.095844 165.347982 
L 78.215548 165.318522 
L 93.673419 165.21541 
L 93.793124 165.18595 
L 100.201317 165.082838 
L 100.321021 165.053378 
L 101.430285 165.038648 
L 101.54201 164.699853 
L 105.715715 164.640932 
L 105.827439 164.53782 
L 110.464002 164.53782 
L 110.575727 163.963342 
L 111.525384 163.87496 
L 111.645089 163.8455 
L 114.398298 163.786579 
L 114.414258 163.727658 
L 114.525983 162.711273 
L 114.661648 162.711273 
L 114.773372 162.401939 
L 115.73899 162.372478 
L 115.850715 162.122064 
L 117.622345 162.063144 
L 117.74205 159.971452 
L 117.773971 159.971452 
L 117.885695 159.603197 
L 118.141065 159.500085 
L 118.26077 159.470625 
L 118.579983 159.426434 
L 118.699687 156.937027 
L 118.76353 156.922297 
L 118.883235 152.503232 
L 118.923136 152.444311 
L 119.090723 151.634149 
L 119.146585 151.634149 
L 119.26629 150.455731 
L 119.393975 150.41154 
L 119.51368 149.557188 
L 119.633384 149.483537 
L 119.976538 149.395155 
L 120.29575 140.851629 
L 120.359593 140.792708 
L 120.567081 139.702671 
L 120.686786 139.62902 
L 120.726688 139.62902 
L 120.854373 138.126538 
L 121.03792 138.082347 
L 121.157625 137.007041 
L 121.213487 137.007041 
L 121.333191 135.725512 
L 121.341172 135.725512 
L 121.468857 134.782778 
L 121.500778 134.782778 
L 121.628463 130.923461 
L 121.644424 130.923461 
L 121.764128 129.53882 
L 121.80403 129.53882 
L 121.931715 129.258946 
L 121.947676 129.258946 
L 122.0594 128.920151 
L 122.203046 128.905421 
L 122.330731 128.065799 
L 122.346691 128.065799 
L 122.490337 122.262092 
L 122.538219 122.247362 
L 122.681865 121.702344 
L 122.689845 121.702344 
L 122.80955 120.126211 
L 122.897333 120.09675 
L 123.017038 119.478081 
L 123.168664 119.37497 
L 123.663444 113.880598 
L 123.783148 112.908403 
L 124.277928 111.022935 
L 124.397633 109.608834 
L 124.509357 109.520453 
L 124.629062 108.592449 
L 124.708865 108.489338 
L 124.804629 108.253654 
L 124.940294 106.662791 
L 125.004136 106.662791 
L 125.123841 106.427107 
L 125.171723 106.338726 
L 125.307388 105.823168 
L 125.387192 105.705327 
L 125.506896 105.26342 
L 125.60266 105.189769 
L 125.754286 103.805128 
L 125.84207 103.731477 
L 125.977735 103.171729 
L 126.089459 102.523599 
L 126.209164 102.022772 
L 126.312908 101.978581 
L 126.448574 101.728167 
L 126.807688 101.286261 
L 126.895471 101.183149 
L 127.039117 100.800164 
L 127.079018 100.770703 
L 127.350349 98.929426 
L 127.525916 98.826314 
L 127.645621 98.399138 
L 127.749365 98.296026 
L 127.956853 97.751008 
L 128.148381 96.705163 
L 128.236164 96.602051 
L 128.371829 95.615127 
L 128.403751 95.541476 
L 128.531436 95.305792 
L 128.563357 95.261601 
L 128.691042 94.4809 
L 128.730944 94.46617 
L 128.88257 93.641277 
L 128.89055 93.641277 
L 129.026215 92.44813 
L 129.058137 92.418669 
L 129.209763 91.726349 
L 129.441192 91.092949 
L 129.560896 90.518471 
L 129.592818 90.503741 
L 129.712522 89.840881 
L 129.720503 89.840881 
L 129.864148 88.824496 
L 130.031735 88.515161 
L 130.071637 88.41205 
L 130.127499 88.367859 
L 130.247204 87.616618 
L 130.279125 87.557697 
L 130.614298 85.466006 
L 130.91755 84.729495 
L 131.101097 83.609998 
L 131.148979 83.344854 
L 131.268684 82.284279 
L 131.356467 81.901293 
L 131.524054 81.238433 
L 131.819326 80.531383 
L 131.994893 79.750681 
L 132.042774 79.721221 
L 132.17046 79.411886 
L 132.210361 79.132012 
L 132.553515 77.850483 
L 132.625338 77.747371 
L 132.665239 77.526418 
L 132.792924 77.246544 
L 132.840806 77.217083 
L 133.008393 76.082857 
L 133.088196 75.744062 
L 133.367507 74.477263 
L 133.423369 74.388881 
L 133.598936 73.239924 
L 133.646818 73.136813 
L 133.766523 72.518144 
L 133.774503 72.518144 
L 133.902188 71.914205 
L 133.95805 71.811093 
L 134.077755 70.91255 
L 134.101696 70.853629 
L 134.508692 68.644096 
L 134.564554 68.540985 
L 134.947609 67.53933 
L 134.96357 67.53933 
L 135.115196 66.788089 
L 135.163078 66.699707 
L 135.298743 65.845355 
L 135.322684 65.830624 
L 135.442389 65.491829 
L 135.594015 64.799509 
L 135.689779 64.711128 
L 135.817464 64.431254 
L 135.897267 64.416523 
L 136.024952 63.856775 
L 136.072834 63.812584 
L 136.248401 63.090804 
L 136.264361 63.061343 
L 136.559633 61.013843 
L 136.591554 60.969652 
L 136.711259 60.83708 
L 136.74318 60.80762 
L 136.870865 60.439364 
L 136.894806 60.350983 
L 137.206038 59.599742 
L 137.261901 59.555551 
L 137.413527 59.157835 
L 137.50929 59.054724 
L 137.517271 59.039993 
L 137.644956 58.244562 
L 137.788601 57.390209 
L 137.804562 57.375479 
L 137.932247 57.080874 
L 137.988109 57.080874 
L 138.107814 56.874651 
L 138.897865 55.224867 
L 139.01757 55.048104 
L 139.193137 54.694579 
L 139.320822 53.899147 
L 140.446046 51.601233 
L 140.669495 50.953103 
L 140.749298 50.879452 
L 140.996688 49.833607 
L 141.028609 49.804146 
L 141.156294 49.332779 
L 141.515409 48.463696 
L 141.651074 48.301664 
L 141.675015 48.286934 
L 141.8027 47.579883 
L 142.002208 46.887563 
L 142.089991 46.828642 
L 142.249598 46.342545 
L 142.29748 46.254164 
L 142.584771 45.606034 
L 142.696495 45.502922 
L 142.951865 45.252509 
L 143.06359 45.149397 
L 143.183295 44.840063 
L 143.287039 44.751681 
L 143.486547 44.427616 
L 144.83522 42.159163 
L 145.186354 42.056051 
L 145.322019 41.95294 
L 145.401822 41.849828 
L 145.537488 41.614145 
L 145.681133 41.511033 
L 146.064188 40.583029 
L 146.263696 40.067472 
L 146.407342 39.96436 
L 147.604389 37.975781 
L 147.668232 37.887399 
L 147.811877 37.769558 
L 147.86774 37.681176 
L 148.035326 37.474953 
L 148.282716 37.371842 
L 149.39996 35.530564 
L 149.567547 35.442183 
L 149.695232 35.324341 
L 149.798976 35.25069 
L 149.982523 34.852974 
L 150.142129 34.749863 
L 150.437401 34.425798 
L 150.549125 34.322686 
L 150.740653 34.013352 
L 150.780555 33.983891 
L 150.900259 33.821859 
L 151.099767 33.733478 
L 151.227452 33.512524 
L 151.379078 33.409413 
L 151.522724 32.996967 
L 151.714252 32.923316 
L 151.849917 32.746553 
L 151.881838 32.731823 
L 152.009523 32.437218 
L 152.145189 32.407758 
L 152.280854 32.319377 
L 152.43248 32.068963 
L 152.480362 32.068963 
L 152.600067 31.87747 
L 152.831496 31.774359 
L 153.110807 31.479754 
L 153.270413 31.376643 
L 153.477901 31.21461 
L 153.525783 31.111499 
L 153.717311 30.978927 
L 153.932779 30.920006 
L 154.052484 30.816894 
L 154.100366 30.713783 
L 154.259972 30.640132 
L 154.483421 30.53702 
L 154.906378 29.977272 
L 155.097905 29.888891 
L 155.233571 29.726858 
L 155.568744 29.623747 
L 155.848055 29.329142 
L 155.96776 29.255491 
L 156.095445 29.137649 
L 156.502441 29.034538 
L 156.622145 28.975617 
L 156.845594 28.901966 
L 156.973279 28.784124 
L 157.164807 28.681013 
L 157.292492 28.592631 
L 157.523921 28.548441 
L 157.651606 28.386408 
L 157.73939 28.312757 
L 157.914956 27.959232 
L 158.194267 27.85612 
L 158.337913 27.738279 
L 158.673086 27.635167 
L 158.808752 27.502595 
L 159.127964 27.13434 
L 159.223728 27.031228 
L 159.471118 26.795545 
L 159.574862 26.721893 
L 159.710527 26.589322 
L 159.822252 26.48621 
L 159.989838 26.397829 
L 160.420775 26.309447 
L 160.54846 26.250526 
L 160.708067 26.176875 
L 160.859693 26.073764 
L 161.003338 25.941192 
L 161.55398 25.83808 
L 161.673685 25.779159 
L 161.913094 25.676048 
L 162.04876 25.646587 
L 162.120583 25.631857 
L 162.240287 25.499285 
L 162.631323 25.425634 
L 162.751027 25.366713 
L 163.173984 25.263602 
L 163.33359 25.189951 
L 163.628862 25.086839 
L 163.860291 24.880616 
L 164.227386 24.777505 
L 164.506697 24.4829 
L 164.738126 24.379789 
L 164.881772 24.335598 
L 165.224925 24.232486 
L 165.360591 24.070454 
L 165.576059 23.967343 
L 165.727685 23.908422 
L 166.182563 23.80531 
L 166.406012 23.613817 
L 166.445913 23.510706 
L 166.581579 23.481245 
L 167.068378 23.378134 
L 167.220004 23.319213 
L 167.507295 23.216101 
L 167.650941 23.171911 
L 168.041976 23.068799 
L 168.217543 22.965688 
L 168.568677 22.921497 
L 168.696362 22.715274 
L 169.350748 22.626893 
L 169.470453 22.567972 
L 169.861488 22.46486 
L 170.100898 22.243907 
L 170.260504 22.140795 
L 170.460012 21.993493 
L 170.787205 21.890382 
L 170.91489 21.875651 
L 171.16228 21.77254 
L 171.297945 21.610508 
L 171.896469 21.507396 
L 172.032134 21.477936 
L 172.6945 21.374824 
L 172.854107 21.301173 
L 173.316965 21.198061 
L 173.492532 21.09495 
L 173.731941 21.021299 
L 173.851646 20.962378 
L 174.506032 20.859266 
L 174.641697 20.829806 
L 175.798843 20.741425 
L 175.918548 20.711964 
L 177.163477 20.608853 
L 177.291162 20.594122 
L 178.049292 20.491011 
L 178.200918 20.43209 
L 179.198457 20.328979 
L 179.334122 20.299518 
L 180.052351 20.211137 
L 180.172056 20.108025 
L 180.78654 20.004914 
L 180.914225 19.990183 
L 181.56063 19.887072 
L 181.696296 19.857612 
L 182.334721 19.7545 
L 182.470386 19.72504 
L 183.627532 19.621928 
L 183.755217 19.607198 
L 184.696894 19.533547 
L 184.816599 19.459896 
L 184.960245 19.415705 
L 186.516406 19.312593 
L 186.644091 19.297863 
L 187.138871 19.194752 
L 187.282516 19.150561 
L 188.280056 19.047449 
L 188.407741 19.032719 
L 190.291095 18.929608 
L 190.41878 18.914878 
L 192.365977 18.811766 
L 192.493662 18.797036 
L 195.446379 18.693924 
L 195.574064 18.679194 
L 196.98658 18.576082 
L 197.114265 18.561352 
L 202.892013 18.458241 
L 203.027678 18.42878 
L 204.767387 18.325669 
L 204.895072 18.310939 
L 210.593017 18.207827 
L 210.720702 18.193097 
L 263.781818 18.163636 
L 263.781818 18.163636 
" style="fill:none;stroke:#1f77b4;stroke-linecap:square;stroke-width:1.5;"/>
   </g>
   <g id="line2d_11">
    <path clip-path="url(#p11456ab158)" d="M 67.418182 165.436364 
L 75.278792 165.362713 
L 75.398497 165.318522 
L 83.211226 165.230141 
L 83.33093 165.18595 
L 85.533497 165.112299 
L 85.653202 165.053378 
L 88.597938 164.964997 
L 88.709663 164.50836 
L 89.443852 164.405248 
L 89.579517 164.375788 
L 92.228982 164.287407 
L 92.340706 164.110644 
L 93.841006 164.022263 
L 93.95273 163.889691 
L 94.990171 163.81604 
L 95.101895 163.712928 
L 95.700419 163.712928 
L 95.820124 162.770194 
L 96.107415 162.770194 
L 96.22712 162.637622 
L 97.25658 162.593431 
L 97.376285 162.460859 
L 97.639636 162.387208 
L 97.75136 161.238251 
L 97.982789 161.14987 
L 98.102494 160.914186 
L 98.405746 160.811075 
L 98.525451 160.781615 
L 98.597273 160.781615 
L 98.708998 158.881416 
L 98.796781 158.851956 
L 98.908506 158.248017 
L 98.988309 158.159636 
L 99.115994 158.085984 
L 99.315502 158.027064 
L 99.467128 157.688269 
L 99.666636 157.614617 
L 99.794321 157.511506 
L 99.874124 157.482046 
L 100.001809 157.261092 
L 100.185356 157.157981 
L 100.376884 157.025409 
L 100.488608 156.995948 
L 100.608313 155.979563 
L 100.616293 155.979563 
L 100.735998 154.300318 
L 100.879644 154.197207 
L 101.04723 154.108825 
L 101.318561 154.079365 
L 101.438266 153.401775 
L 101.757478 153.298663 
L 101.956986 153.151361 
L 102.164474 153.06298 
L 102.284179 153.004059 
L 102.348022 152.959868 
L 102.459746 148.658644 
L 102.547529 148.584993 
L 102.770978 146.832097 
L 102.922604 146.817367 
L 103.042309 146.154507 
L 103.217876 146.066126 
L 103.337581 145.933554 
L 103.465266 145.830442 
L 103.600931 144.725676 
L 103.664774 144.725676 
L 103.784478 143.355766 
L 103.968026 142.98751 
L 104.08773 141.426107 
L 104.103691 141.426107 
L 104.223396 141.116772 
L 104.614431 140.615945 
L 104.750096 140.527564 
L 105.061329 138.435873 
L 105.181033 137.935045 
L 105.236896 137.876124 
L 105.3566 137.58152 
L 105.388522 137.56679 
L 105.635911 134.385062 
L 105.747636 134.281951 
L 105.779557 134.25249 
L 105.931183 132.823659 
L 106.074829 132.308102 
L 106.11473 132.249181 
L 106.234435 131.601051 
L 106.713254 130.702508 
L 106.832959 130.393173 
L 106.968624 130.290062 
L 107.12025 129.892346 
L 107.247935 129.332597 
L 107.335719 129.244216 
L 108.333258 125.959377 
L 108.413061 125.856266 
L 108.532766 125.47328 
L 108.700352 124.604197 
L 108.740254 124.501086 
L 108.859959 124.044449 
L 108.923801 124.029719 
L 109.043506 123.160636 
L 109.099368 123.101715 
L 109.258975 122.497776 
L 109.274935 122.497776 
L 109.40262 122.173711 
L 109.554246 121.731805 
L 109.681931 121.496121 
L 109.769715 121.39301 
L 110.064986 120.671229 
L 110.192671 120.288243 
L 110.232573 120.273513 
L 110.376219 119.551732 
L 110.551786 119.212937 
L 110.687451 117.960869 
L 110.751293 117.931408 
L 110.870998 117.460041 
L 111.006664 117.38639 
L 111.142329 117.135976 
L 111.198191 117.077055 
L 111.389719 115.721875 
L 111.469522 115.604034 
L 111.589227 114.941174 
L 111.637108 114.911713 
L 111.764794 114.617109 
L 112.060065 113.910058 
L 112.17977 112.849483 
L 112.355337 112.333925 
L 112.483022 111.671065 
L 112.538884 111.567954 
L 112.68253 110.993475 
L 114.765392 107.031046 
L 114.893077 106.662791 
L 114.9649 106.574409 
L 115.140467 106.338726 
L 115.252191 106.235614 
L 115.499581 105.661136 
L 115.619286 105.395992 
L 115.842735 105.204499 
L 115.858695 105.145578 
L 116.002341 104.909895 
L 116.010321 104.909895 
L 116.145987 104.217574 
L 116.393376 103.466333 
L 116.433278 103.407412 
L 116.680668 102.405758 
L 116.74451 102.081693 
L 116.864215 101.816549 
L 117.374955 100.785433 
L 117.50264 100.255146 
L 117.550522 100.166764 
L 117.917617 99.22403 
L 118.021361 99.120919 
L 118.316632 98.796854 
L 118.332593 98.796854 
L 118.460278 98.369678 
L 120.048361 95.261601 
L 120.207967 94.804965 
L 120.263829 94.701853 
L 120.367573 94.392519 
L 120.495258 94.083184 
L 120.974077 93.081529 
L 121.093782 92.669083 
L 121.101762 92.669083 
L 121.245408 92.050414 
L 121.253388 92.050414 
L 121.381073 91.741079 
L 121.436936 91.682158 
L 121.580581 91.431745 
L 122.394573 89.899802 
L 122.514278 89.531546 
L 122.538219 89.487356 
L 122.681865 89.163291 
L 123.032999 88.264747 
L 123.136743 88.161636 
L 123.958715 86.467661 
L 124.0864 85.71642 
L 124.557239 85.06829 
L 124.629062 84.994639 
L 124.756747 84.788416 
L 124.900392 84.685304 
L 125.028077 84.42016 
L 125.067979 84.317049 
L 125.666503 83.433236 
L 125.770247 83.374315 
L 125.889951 83.168092 
L 125.953794 83.094441 
L 126.10542 82.858757 
L 126.193203 82.770376 
L 126.320888 82.652534 
L 126.480495 82.549423 
L 128.284046 79.441346 
L 128.339908 79.338235 
L 128.523455 79.058361 
L 128.6272 78.98471 
L 128.754885 78.822677 
L 129.042176 78.513343 
L 129.169861 78.424961 
L 129.297546 78.041976 
L 129.353408 77.953594 
L 129.528975 77.717911 
L 129.696562 77.614799 
L 130.606318 76.156508 
L 130.686121 76.053396 
L 132.106617 73.225194 
L 132.258243 72.842208 
L 132.346026 72.739097 
L 132.609377 72.473953 
L 132.800904 72.370841 
L 133.431349 71.428107 
L 133.559034 71.324996 
L 134.237361 70.293881 
L 134.285243 70.190769 
L 134.71618 69.616291 
L 134.859826 69.513179 
L 135.075294 69.336416 
L 135.187019 69.248035 
L 135.314704 69.100733 
L 135.402487 68.997621 
L 135.905247 68.290571 
L 136.008991 68.26111 
L 136.136676 67.878125 
L 136.280322 67.775013 
L 136.687318 67.244725 
L 136.72722 67.141614 
L 136.878846 66.994312 
L 136.98259 66.8912 
L 137.437468 66.272531 
L 137.708798 66.169419 
L 137.844464 65.977926 
L 137.892346 65.933736 
L 138.028011 65.653862 
L 138.203578 65.55075 
L 138.562692 65.108844 
L 138.666436 65.020462 
L 138.794121 64.828969 
L 138.921806 64.681667 
L 139.288901 64.22503 
L 139.368704 64.121919 
L 139.839542 63.473789 
L 139.999149 63.385408 
L 140.150775 63.164455 
L 140.190676 63.090804 
L 140.326342 62.86985 
L 140.469987 62.766739 
L 140.621613 62.604706 
L 140.701417 62.589976 
L 140.829102 62.354293 
L 141.004668 62.251181 
L 141.411665 61.720893 
L 141.595212 61.617782 
L 142.018169 61.058033 
L 142.121913 61.013843 
L 142.249598 60.748699 
L 142.329401 60.675048 
L 142.457086 60.454094 
L 142.56881 60.350983 
L 142.919944 59.923807 
L 143.015708 59.820695 
L 143.287039 59.540821 
L 143.390783 59.45244 
L 143.526448 59.231486 
L 143.622212 59.128375 
L 144.204775 58.274022 
L 144.34044 58.170911 
L 144.468125 57.949957 
L 144.555909 57.846846 
L 144.755417 57.699544 
L 144.8432 57.625892 
L 144.986846 57.4344 
L 145.258176 57.154525 
L 145.34596 57.051414 
L 146.000346 56.064489 
L 146.10409 55.961378 
L 146.423303 55.593122 
L 146.550988 55.490011 
L 146.774436 55.298518 
L 146.902121 55.195406 
L 147.237295 54.79769 
L 147.333058 54.694579 
L 147.492665 54.503086 
L 147.588429 54.458895 
L 147.732074 54.164291 
L 148.075228 53.751845 
L 148.210893 53.648733 
L 148.442322 53.44251 
L 148.546066 53.339399 
L 148.777496 53.133176 
L 149.008925 53.044794 
L 149.168531 52.853302 
L 149.352078 52.75019 
L 149.631389 52.455586 
L 149.89474 52.352474 
L 150.054346 52.175712 
L 150.134149 52.0726 
L 150.253854 51.895837 
L 150.285775 51.807456 
L 150.42144 51.719075 
L 150.469322 51.674884 
L 150.589027 51.571773 
L 150.748633 51.39501 
L 150.876318 51.291898 
L 151.099767 51.100406 
L 151.195531 50.997294 
L 151.395039 50.849992 
L 151.482822 50.776341 
L 151.610507 50.511197 
L 151.770114 50.408085 
L 151.897799 50.349164 
L 152.065385 50.260783 
L 152.201051 50.172402 
L 152.328736 50.06929 
L 152.480362 49.848337 
L 152.544204 49.745225 
L 152.67987 49.715765 
L 152.743712 49.612653 
L 152.903318 49.421161 
L 152.911299 49.421161 
L 153.031004 49.200207 
L 153.270413 49.097096 
L 153.661448 48.596268 
L 153.844996 48.493157 
L 154.020563 48.242743 
L 154.132287 48.139632 
L 154.395637 47.874488 
L 154.571204 47.786106 
L 154.70687 47.697725 
L 154.842535 47.594613 
L 155.073964 47.38839 
L 155.417118 47.285279 
L 155.696429 46.990674 
L 155.98372 46.887563 
L 156.143326 46.813912 
L 156.175248 46.740261 
L 156.310913 46.578228 
L 156.446578 46.475117 
L 156.662047 46.298354 
L 156.909437 46.195243 
L 157.140866 45.98902 
L 157.372295 45.885908 
L 157.49998 45.826987 
L 157.627665 45.723876 
L 157.779291 45.488192 
L 157.898996 45.385081 
L 158.082543 45.267239 
L 158.234169 45.164127 
L 158.393775 45.090476 
L 158.449638 44.987365 
L 158.601264 44.928444 
L 158.800771 44.825332 
L 158.984319 44.545458 
L 159.056142 44.457077 
L 159.207768 44.309775 
L 159.503039 44.206663 
L 159.630724 44.103552 
L 159.965897 43.705836 
L 160.133484 43.602724 
L 160.428756 43.278659 
L 160.77989 43.175548 
L 161.019299 42.954595 
L 161.146984 42.851483 
L 161.29063 42.733641 
L 161.514079 42.63053 
L 161.649744 42.527418 
L 161.777429 42.483228 
L 161.897134 42.277004 
L 162.06472 42.188623 
L 162.200386 42.100242 
L 162.439795 41.99713 
L 162.575461 41.96767 
L 162.607382 41.864558 
L 162.743047 41.835098 
L 162.81487 41.731986 
L 162.998417 41.614145 
L 163.102161 41.511033 
L 163.277728 41.407922 
L 163.397433 41.30481 
L 163.525118 41.245889 
L 163.668764 41.142778 
L 163.804429 40.936555 
L 164.179504 40.833443 
L 164.307189 40.715601 
L 164.379012 40.62722 
L 164.522657 40.450457 
L 164.722165 40.347346 
L 164.905713 40.229504 
L 165.057339 40.126393 
L 165.34463 39.817058 
L 165.568079 39.713946 
L 165.783547 39.537184 
L 166.054878 39.434072 
L 166.238425 39.316231 
L 166.565618 39.213119 
L 166.693303 39.110007 
L 167.052417 39.006896 
L 167.188083 38.903784 
L 167.419512 38.800673 
L 167.611039 38.668101 
L 167.730744 38.564989 
L 167.954193 38.373497 
L 167.970154 38.344036 
L 168.089858 38.182004 
L 168.305327 38.078892 
L 168.464933 38.005241 
L 168.776165 37.90213 
L 168.943752 37.813748 
L 169.350748 37.710637 
L 169.534295 37.592795 
L 170.021095 37.489683 
L 170.188681 37.401302 
L 170.452032 37.298191 
L 170.579717 37.209809 
L 170.938831 37.106698 
L 171.074496 37.077237 
L 171.281984 37.003586 
L 171.41765 36.841554 
L 171.66504 36.753172 
L 171.792725 36.694252 
L 171.912429 36.59114 
L 172.119918 36.429108 
L 172.351347 36.340726 
L 172.479032 36.281805 
L 172.718441 36.193424 
L 172.854107 36.105043 
L 173.301004 36.001931 
L 173.468591 35.91355 
L 173.747902 35.810438 
L 173.899528 35.751518 
L 174.122977 35.648406 
L 174.242681 35.545295 
L 174.537953 35.442183 
L 174.665638 35.324341 
L 174.817264 35.22123 
L 174.96889 35.162309 
L 175.056674 35.059197 
L 175.200319 35.015007 
L 175.431748 34.911895 
L 175.679138 34.676212 
L 175.886626 34.5731 
L 176.030272 34.528909 
L 176.373426 34.425798 
L 176.572933 34.278496 
L 176.74052 34.175384 
L 176.940028 34.028082 
L 177.155496 33.954431 
L 177.291162 33.777668 
L 177.370965 33.674557 
L 177.514611 33.630366 
L 177.522591 33.630366 
L 177.634315 33.512524 
L 177.785941 33.409413 
L 177.961508 33.306301 
L 178.161016 33.20319 
L 178.328603 33.114808 
L 178.735599 33.011697 
L 178.887225 32.849664 
L 179.02289 32.746553 
L 179.142595 32.672902 
L 179.350083 32.56979 
L 179.52565 32.466679 
L 179.581512 32.437218 
L 179.701217 32.245726 
L 179.908705 32.142614 
L 180.052351 32.098423 
L 180.195997 31.995312 
L 180.363583 31.90693 
L 180.54713 31.803819 
L 180.738658 31.671247 
L 181.002008 31.568135 
L 181.153634 31.509215 
L 181.688315 31.420833 
L 181.80802 31.288261 
L 182.05541 31.18515 
L 182.199056 31.140959 
L 182.725756 31.037848 
L 182.877382 30.978927 
L 183.06891 30.875815 
L 183.204575 30.699053 
L 183.547729 30.610671 
L 183.667434 30.50756 
L 183.930784 30.404448 
L 184.050489 30.330797 
L 184.33778 30.227686 
L 184.489406 30.168765 
L 184.960245 30.065653 
L 185.119851 29.992002 
L 185.287438 29.918351 
L 185.407142 29.8447 
L 185.758276 29.741588 
L 185.909902 29.682667 
L 186.229115 29.579556 
L 186.380741 29.520635 
L 186.62015 29.417524 
L 186.795717 29.314412 
L 187.043107 29.2113 
L 187.186753 29.16711 
L 187.354339 29.063998 
L 187.497985 29.019808 
L 187.665572 28.960887 
L 187.785276 28.857775 
L 188.272076 28.754664 
L 188.431682 28.681013 
L 188.750894 28.577901 
L 188.870599 28.53371 
L 189.094048 28.445329 
L 189.221733 28.371678 
L 189.556906 28.342218 
L 189.676611 28.209646 
L 189.89208 28.106534 
L 190.019765 28.047613 
L 190.442721 27.944502 
L 190.610308 27.85612 
L 190.91356 27.753009 
L 191.081147 27.664627 
L 191.536024 27.561516 
L 191.66371 27.443674 
L 192.126568 27.340563 
L 192.262233 27.311102 
L 192.661249 27.207991 
L 192.796914 27.17853 
L 193.267753 27.104879 
L 193.395438 26.987037 
L 193.563025 26.898656 
L 194.033863 26.795545 
L 194.169528 26.766084 
L 194.592485 26.662973 
L 194.728151 26.51567 
L 195.238891 26.412559 
L 195.374556 26.309447 
L 195.605985 26.206336 
L 195.765592 26.132685 
L 196.212489 26.029573 
L 196.348155 26.000113 
L 196.563623 25.897001 
L 196.707269 25.852811 
L 197.066383 25.749699 
L 197.202048 25.720239 
L 197.521261 25.631857 
L 197.656926 25.543476 
L 198.415056 25.440364 
L 198.574662 25.366713 
L 198.853974 25.263602 
L 199.0056 25.204681 
L 199.468458 25.101569 
L 199.659985 24.968997 
L 200.210627 24.865886 
L 200.386194 24.762774 
L 200.80117 24.659663 
L 200.936836 24.630202 
L 201.471517 24.527091 
L 201.607182 24.49763 
L 202.181765 24.409249 
L 202.30147 24.365058 
L 203.043639 24.261947 
L 203.195265 24.203026 
L 203.729946 24.099915 
L 203.849651 24.070454 
L 204.176844 23.967343 
L 204.296549 23.908422 
L 204.950934 23.80531 
L 205.078619 23.79058 
L 205.421773 23.687468 
L 205.581379 23.613817 
L 205.940493 23.510706 
L 206.1001 23.437055 
L 206.666702 23.333943 
L 206.818328 23.275022 
L 207.249265 23.171911 
L 207.36897 23.14245 
L 208.406411 23.039339 
L 208.550057 22.995148 
L 209.411931 22.892037 
L 209.555576 22.847846 
L 210.058336 22.744734 
L 210.241883 22.626893 
L 210.936171 22.538511 
L 211.055876 22.494321 
L 212.053415 22.391209 
L 212.197061 22.347018 
L 212.69184 22.258637 
L 212.811545 22.229177 
L 213.019033 22.126065 
L 213.154698 22.096605 
L 214.343765 21.993493 
L 214.47145 21.978763 
L 214.798643 21.875651 
L 214.96623 21.78727 
L 215.804163 21.684159 
L 215.947809 21.639968 
L 216.091454 21.595777 
L 216.211159 21.522126 
L 216.817663 21.419015 
L 216.961309 21.374824 
L 217.472049 21.271713 
L 217.615695 21.227522 
L 218.437667 21.12441 
L 218.565352 21.10968 
L 218.788801 21.036029 
L 218.908506 20.991838 
L 219.914025 20.888727 
L 220.049691 20.859266 
L 220.52851 20.770885 
L 220.648214 20.741425 
L 221.701616 20.638313 
L 221.837281 20.608853 
L 223.632852 20.505741 
L 223.792459 20.43209 
L 224.861821 20.328979 
L 224.989506 20.314248 
L 226.888821 20.211137 
L 227.024486 20.181676 
L 228.987644 20.078565 
L 229.14725 20.004914 
L 229.921341 19.901802 
L 230.057006 19.872342 
L 232.099967 19.76923 
L 232.251593 19.710309 
L 234.031203 19.607198 
L 234.150908 19.577737 
L 234.278593 19.563007 
L 235.651207 19.459896 
L 235.786872 19.430435 
L 237.007861 19.327324 
L 237.135546 19.312593 
L 238.220869 19.209482 
L 238.348554 19.194752 
L 239.441857 19.09164 
L 239.577522 19.06218 
L 240.27979 18.959068 
L 240.399495 18.900147 
L 242.450436 18.797036 
L 242.578121 18.782306 
L 243.192605 18.679194 
L 243.32029 18.664464 
L 246.664042 18.561352 
L 246.783747 18.531892 
L 246.911432 18.517162 
L 249.935971 18.41405 
L 250.055676 18.369859 
L 256.455889 18.266748 
L 256.599534 18.222557 
L 263.781818 18.163636 
L 263.781818 18.163636 
" style="fill:none;stroke:#ff7f0e;stroke-linecap:square;stroke-width:1.5;"/>
   </g>
   <g id="patch_3">
    <path d="M 57.6 172.8 
L 57.6 10.8 
" style="fill:none;stroke:#000000;stroke-linecap:square;stroke-linejoin:miter;stroke-width:0.8;"/>
   </g>
   <g id="patch_4">
    <path d="M 273.6 172.8 
L 273.6 10.8 
" style="fill:none;stroke:#000000;stroke-linecap:square;stroke-linejoin:miter;stroke-width:0.8;"/>
   </g>
   <g id="patch_5">
    <path d="M 57.6 172.8 
L 273.6 172.8 
" style="fill:none;stroke:#000000;stroke-linecap:square;stroke-linejoin:miter;stroke-width:0.8;"/>
   </g>
   <g id="patch_6">
    <path d="M 57.6 10.8 
L 273.6 10.8 
" style="fill:none;stroke:#000000;stroke-linecap:square;stroke-linejoin:miter;stroke-width:0.8;"/>
   </g>
   <g id="legend_1">
    <g id="patch_7">
     <path d="M 183.399345 166.969 
L 265.4366 166.969 
Q 267.769 166.969 267.769 164.6366 
L 267.769 130.962247 
Q 267.769 128.629847 265.4366 128.629847 
L 183.399345 128.629847 
Q 181.066945 128.629847 181.066945 130.962247 
L 181.066945 164.6366 
Q 181.066945 166.969 183.399345 166.969 
z
" style="fill:#ffffff;opacity:0.8;stroke:#cccccc;stroke-linejoin:miter;"/>
    </g>
    <g id="line2d_12">
     <path d="M 185.731745 137.52589 
L 209.055745 137.52589 
" style="fill:none;stroke:#1f77b4;stroke-linecap:square;stroke-width:1.5;"/>
    </g>
    <g id="line2d_13"/>
    <g id="text_12">
     <!-- Targeted -->
     <defs>
      <path d="M 25.5 64 
C 25.796875 60.625 25.90625 58.34375 25.90625 54.09375 
L 25.90625 12.203125 
C 25.90625 4.375 25.40625 3.59375 20.796875 3.296875 
L 16 3 
L 16 0 
C 21.90625 -0.109375 25.40625 0 30.59375 0 
C 35.796875 0.296875 39.40625 0.1875 45.296875 0 
L 45.296875 3 
L 40.5 3.296875 
C 35.90625 3.59375 35.40625 4.375 35.40625 12.203125 
L 35.40625 54.09375 
C 35.40625 58.546875 35.5 60.734375 35.796875 64 
L 51.296875 64 
C 54.09375 64 55.203125 63.109375 55.296875 60.734375 
L 55.703125 52.90625 
L 58.796875 52.90625 
C 58.796875 59.390625 59 63.296875 59.5 69 
C 52.296875 68.890625 49 68.890625 46.203125 68.796875 
C 42.296875 68.59375 39.40625 68.59375 37.90625 68.59375 
L 22.09375 68.59375 
C 21.09375 68.59375 15.703125 68.6875 8.59375 68.796875 
L 1.796875 69 
C 2.296875 63.296875 2.5 59.390625 2.5 52.890625 
L 5.59375 52.890625 
L 6 60.796875 
C 6.09375 63.09375 7.203125 64 10 64 
z
" id="URW_Palladio_L_Roman-84"/>
     </defs>
     <g transform="translate(218.385345 141.60759)scale(0.11662 -0.11662)">
      <use transform="scale(0.996264)" xlink:href="#URW_Palladio_L_Roman-84"/>
      <use transform="translate(51.904951 0)scale(0.996264)" xlink:href="#URW_Palladio_L_Roman-97"/>
      <use transform="translate(101.718151 0)scale(0.996264)" xlink:href="#URW_Palladio_L_Roman-114"/>
      <use transform="translate(139.277468 0)scale(0.996264)" xlink:href="#URW_Palladio_L_Roman-103"/>
      <use transform="translate(194.669145 0)scale(0.996264)" xlink:href="#URW_Palladio_L_Roman-101"/>
      <use transform="translate(242.38944 0)scale(0.996264)" xlink:href="#URW_Palladio_L_Roman-116"/>
      <use transform="translate(274.866528 0)scale(0.996264)" xlink:href="#URW_Palladio_L_Roman-101"/>
      <use transform="translate(322.586823 0)scale(0.996264)" xlink:href="#URW_Palladio_L_Roman-100"/>
     </g>
    </g>
    <g id="line2d_14">
     <path d="M 185.731745 154.946166 
L 209.055745 154.946166 
" style="fill:none;stroke:#ff7f0e;stroke-linecap:square;stroke-width:1.5;"/>
    </g>
    <g id="line2d_15"/>
    <g id="text_13">
     <!-- Random -->
     <defs>
      <path d="M 21.59375 64 
C 25 64.796875 28 65.1875 31.40625 65.1875 
C 41.796875 65.1875 47.59375 60.421875 47.59375 52 
C 47.59375 42.875 40.296875 37.109375 28.703125 37.109375 
C 28 37.109375 27.09375 37.109375 25.796875 37.21875 
L 25.203125 36.03125 
C 26.296875 34.734375 26.59375 34.34375 27.796875 33.046875 
C 29.203125 31.46875 29.5 31.0625 30.40625 29.875 
L 48.796875 5.375 
C 49.40625 4.578125 50 3.78125 50.59375 3.09375 
C 51.296875 2.1875 51.90625 1.296875 52.90625 0 
C 57.59375 0 58.59375 0 59.703125 0 
C 60.59375 0.296875 60.59375 0.296875 66.90625 0 
L 66.90625 3 
C 63.703125 3.296875 62.09375 3.890625 60.796875 5.578125 
L 38.09375 34.9375 
C 43.703125 36.328125 46.296875 37.40625 49.59375 39.703125 
C 54.796875 43.359375 57.59375 48.328125 57.59375 54.078125 
C 57.59375 63.609375 50.59375 69 38.203125 69 
L 36.59375 69 
C 23.59375 68.6875 23.59375 68.6875 20.203125 68.6875 
C 16.90625 68.6875 16.90625 68.6875 2.90625 69 
L 2.90625 65.984375 
L 7 65.6875 
C 11.59375 65.390625 12.09375 64.5 12.09375 56.765625 
L 12.09375 12.21875 
C 12.09375 4.375 11.59375 3.59375 7 3.296875 
L 2.203125 3 
L 2.203125 0 
C 8.09375 -0.109375 11.59375 0 16.796875 0 
C 22 0.296875 25.59375 0.1875 31.5 0 
L 31.5 3 
L 26.703125 3.296875 
C 22.09375 3.59375 21.59375 4.390625 21.59375 12.296875 
z
" id="URW_Palladio_L_Roman-82"/>
     </defs>
     <g transform="translate(218.385345 159.027866)scale(0.11662 -0.11662)">
      <use transform="scale(0.996264)" xlink:href="#URW_Palladio_L_Roman-82"/>
      <use transform="translate(66.549694 0)scale(0.996264)" xlink:href="#URW_Palladio_L_Roman-97"/>
      <use transform="translate(116.362895 0)scale(0.996264)" xlink:href="#URW_Palladio_L_Roman-110"/>
      <use transform="translate(174.344955 0)scale(0.996264)" xlink:href="#URW_Palladio_L_Roman-100"/>
      <use transform="translate(235.216586 0)scale(0.996264)" xlink:href="#URW_Palladio_L_Roman-111"/>
      <use transform="translate(289.612166 0)scale(0.996264)" xlink:href="#URW_Palladio_L_Roman-109"/>
     </g>
    </g>
   </g>
  </g>
 </g>
 <defs>
  <clipPath id="p11456ab158">
   <rect height="162" width="216" x="57.6" y="10.8"/>
  </clipPath>
 </defs>
</svg>
