<?xml version="1.0" encoding="utf-8" standalone="no"?>
<!DOCTYPE svg PUBLIC "-//W3C//DTD SVG 1.1//EN"
  "http://www.w3.org/Graphics/SVG/1.1/DTD/svg11.dtd">
<!-- Created with matplotlib (http://matplotlib.org/) -->
<svg height="216pt" version="1.1" viewBox="0 0 720 216" width="720pt" xmlns="http://www.w3.org/2000/svg" xmlns:xlink="http://www.w3.org/1999/xlink">
 <defs>
  <style type="text/css">
*{stroke-linecap:butt;stroke-linejoin:round;}
  </style>
 </defs>
 <g id="figure_1">
  <g id="patch_1">
   <path d="M 0 216 
L 720 216 
L 720 0 
L 0 0 
z
" style="fill:#ffffff;"/>
  </g>
  <g id="axes_1">
   <g id="patch_2">
    <path d="M 55.597442 163.735 
L 133.673933 163.735 
L 133.673933 17.64 
L 55.597442 17.64 
z
" style="fill:#ffffff;"/>
   </g>
   <g id="patch_3">
    <path clip-path="url(#pde15d32785)" d="M 59.146373 163.735 
L 73.342099 163.735 
L 73.342099 153.261025 
L 59.146373 153.261025 
z
" style="fill:#ccb974;"/>
   </g>
   <g id="patch_4">
    <path clip-path="url(#pde15d32785)" d="M 73.342099 163.735 
L 87.537824 163.735 
L 87.537824 24.596905 
L 73.342099 24.596905 
z
" style="fill:#ccb974;"/>
   </g>
   <g id="patch_5">
    <path clip-path="url(#pde15d32785)" d="M 87.537824 163.735 
L 101.73355 163.735 
L 101.73355 128.545457 
L 87.537824 128.545457 
z
" style="fill:#ccb974;"/>
   </g>
   <g id="patch_6">
    <path clip-path="url(#pde15d32785)" d="M 101.73355 163.735 
L 115.929276 163.735 
L 115.929276 160.28763 
L 101.73355 160.28763 
z
" style="fill:#ccb974;"/>
   </g>
   <g id="patch_7">
    <path clip-path="url(#pde15d32785)" d="M 115.929276 163.735 
L 130.125001 163.735 
L 130.125001 163.621971 
L 115.929276 163.621971 
z
" style="fill:#ccb974;"/>
   </g>
   <g id="matplotlib.axis_1">
    <g id="xtick_1">
     <g id="line2d_1">
      <defs>
       <path d="M 0 0 
L 0 3.5 
" id="meba27a27bc" style="stroke:#000000;stroke-width:0.8;"/>
      </defs>
      <g>
       <use style="stroke:#000000;stroke-width:0.8;" x="66.244236" xlink:href="#meba27a27bc" y="163.735"/>
      </g>
     </g>
     <g id="text_1">
      <!-- $6$ -->
      <defs>
       <path d="M 41.59375 66.984375 
L 37.90625 68.6875 
C 28.296875 65.515625 24.203125 63.53125 19.09375 59.1875 
C 8.796875 50.578125 3.203125 38.484375 3.203125 24.765625 
C 3.203125 8.21875 11.203125 -2 24.09375 -2 
C 37.09375 -2 46.796875 8.3125 46.796875 21.953125 
C 46.796875 33.484375 39.90625 41 29.296875 41 
C 24.296875 41 21.296875 39.6875 15.40625 34.984375 
C 14.296875 34.09375 14.203125 33.984375 13.09375 33.1875 
C 15.203125 51.171875 23.59375 60.859375 41.59375 66.203125 
z
M 25.5 34.984375 
C 33.09375 34.984375 38.203125 28.375 38.203125 18.4375 
C 38.203125 8.015625 33.09375 1.296875 25.40625 1.296875 
C 16.90625 1.296875 12.296875 8.609375 12.296875 22.046875 
C 12.296875 25.5625 12.703125 27.46875 13.796875 29.171875 
C 16 32.578125 20.703125 34.984375 25.5 34.984375 
z
" id="URW_Palladio_L_Roman-54"/>
      </defs>
      <g transform="translate(63.255444 179.288876)scale(0.12 -0.12)">
       <use transform="scale(0.996264)" xlink:href="#URW_Palladio_L_Roman-54"/>
      </g>
     </g>
    </g>
    <g id="xtick_2">
     <g id="line2d_2">
      <g>
       <use style="stroke:#000000;stroke-width:0.8;" x="80.439962" xlink:href="#meba27a27bc" y="163.735"/>
      </g>
     </g>
     <g id="text_2">
      <!-- $7$ -->
      <defs>
       <path d="M 5.59375 1.296875 
L 6.5 0 
C 10.40625 0 10.40625 0 11.09375 0 
C 11.796875 0.296875 11.796875 0.296875 15.703125 0 
C 19.90625 10.9375 24.796875 21.390625 31.40625 33.453125 
L 49.703125 66.484375 
L 49.703125 69.5 
C 38.90625 69.09375 35.40625 69 27.296875 69 
C 20 69 15.09375 69.09375 5.40625 69.5 
L 4.40625 69 
C 4.703125 59.484375 4.703125 59.484375 4.703125 58.484375 
C 4.703125 57.375 4.703125 57.375 4.40625 48.234375 
L 7.40625 48.234375 
L 8.09375 53.859375 
C 8.90625 60.09375 9.59375 60.890625 14.203125 60.890625 
L 40.90625 60.890625 
C 36.90625 52.65625 33.796875 46.8125 30 40.6875 
z
" id="URW_Palladio_L_Roman-55"/>
      </defs>
      <g transform="translate(77.45117 179.288876)scale(0.12 -0.12)">
       <use transform="scale(0.996264)" xlink:href="#URW_Palladio_L_Roman-55"/>
      </g>
     </g>
    </g>
    <g id="xtick_3">
     <g id="line2d_3">
      <g>
       <use style="stroke:#000000;stroke-width:0.8;" x="94.635687" xlink:href="#meba27a27bc" y="163.735"/>
      </g>
     </g>
     <g id="text_3">
      <!-- $8$ -->
      <defs>
       <path d="M 16.796875 34.546875 
C 12.703125 32.640625 11 31.546875 8.796875 29.4375 
C 5 25.625 3 21.125 3 15.921875 
C 3 5.59375 11.296875 -2 22.59375 -2 
C 35.59375 -2 46.40625 8.203125 46.40625 20.625 
C 46.40625 28.640625 42.703125 32.9375 31.296875 38.15625 
C 40.40625 44.359375 43.59375 48.5625 43.59375 54.578125 
C 43.59375 63.1875 36.5 69 25.90625 69 
C 14 69 5.296875 61.390625 5.296875 50.875 
C 5.296875 44.0625 8 40.25 16.796875 34.546875 
z
M 28.40625 29.53125 
C 34.703125 26.734375 38.5 21.828125 38.5 16.421875 
C 38.5 8 32.203125 1.390625 24.09375 1.390625 
C 15.59375 1.390625 10.09375 7.40625 10.09375 16.71875 
C 10.09375 24.03125 13 28.640625 20.40625 33.140625 
z
M 22.296875 42.359375 
C 16 45.46875 12.796875 49.46875 12.796875 54.46875 
C 12.796875 61.09375 17.59375 65.59375 24.703125 65.59375 
C 32 65.59375 36.796875 60.78125 36.796875 53.46875 
C 36.796875 47.765625 34.296875 43.859375 27.796875 39.65625 
z
" id="URW_Palladio_L_Roman-56"/>
      </defs>
      <g transform="translate(91.646895 179.288876)scale(0.12 -0.12)">
       <use transform="scale(0.996264)" xlink:href="#URW_Palladio_L_Roman-56"/>
      </g>
     </g>
    </g>
    <g id="xtick_4">
     <g id="line2d_4">
      <g>
       <use style="stroke:#000000;stroke-width:0.8;" x="108.831413" xlink:href="#meba27a27bc" y="163.735"/>
      </g>
     </g>
     <g id="text_4">
      <!-- $9$ -->
      <defs>
       <path d="M 9.59375 -2 
C 20.703125 1.609375 25.5 3.9375 30.90625 8.59375 
C 40.59375 16.984375 45.703125 28.59375 45.703125 41.9375 
C 45.703125 58.734375 37.59375 69 24.40625 69 
C 11.59375 69 2 59.03125 2 45.703125 
C 2 34.28125 9.5 25.890625 19.90625 25.890625 
C 23.296875 25.890625 27.203125 26.984375 29 28.484375 
L 36 34.28125 
C 35.203125 17.390625 24.296875 4.953125 6.203125 0.5 
L 6.203125 -0.3125 
z
M 24 65.6875 
C 28.5 65.6875 31.796875 63.796875 34 59.828125 
C 35.796875 56.640625 37 51.78125 37 47.296875 
C 37 38.15625 31.703125 32 24 32 
C 16 32 10.59375 39.046875 10.59375 49.390625 
C 10.59375 59.421875 15.796875 65.6875 24 65.6875 
z
" id="URW_Palladio_L_Roman-57"/>
      </defs>
      <g transform="translate(105.842621 179.288876)scale(0.12 -0.12)">
       <use transform="scale(0.996264)" xlink:href="#URW_Palladio_L_Roman-57"/>
      </g>
     </g>
    </g>
    <g id="xtick_5">
     <g id="line2d_5">
      <g>
       <use style="stroke:#000000;stroke-width:0.8;" x="123.027139" xlink:href="#meba27a27bc" y="163.735"/>
      </g>
     </g>
     <g id="text_5">
      <!-- $10$ -->
      <defs>
       <path d="M 6.703125 55.796875 
L 7.703125 55.796875 
L 20.59375 61.59375 
C 20.703125 61.703125 20.796875 61.703125 20.90625 61.703125 
C 21.5 61.703125 21.703125 60.796875 21.703125 58.390625 
L 21.703125 9.890625 
C 21.703125 4.6875 20.59375 3.59375 15.203125 3.296875 
L 9.59375 3 
L 9.59375 0 
C 25 0 25 0 26.09375 0 
C 27.40625 0 29.59375 0 33 -0.109375 
C 34.203125 0.09375 37.703125 0.09375 41.796875 0 
L 41.796875 3 
L 36.59375 3.296875 
C 31.09375 3.578125 30.09375 4.671875 30.09375 9.8125 
L 30.09375 68.484375 
L 28.703125 69 
C 22.203125 65.609375 15.09375 62.640625 6 59.484375 
z
" id="URW_Palladio_L_Roman-49"/>
       <path d="M 26.296875 69 
C 10.796875 69 2.90625 56.6875 2.90625 32.4375 
C 2.90625 20.71875 5 10.609375 8.5 5.703125 
C 12 0.796875 17.59375 -2 23.796875 -2 
C 38.90625 -2 46.5 11 46.5 36.640625 
C 46.5 58.578125 40 69 26.296875 69 
z
M 24.5 65.484375 
C 34.203125 65.484375 38.09375 55.671875 38.09375 31.640625 
C 38.09375 10.3125 34.296875 1.5 25.09375 1.5 
C 15.40625 1.5 11.296875 11.609375 11.296875 36.046875 
C 11.296875 57.1875 15 65.484375 24.5 65.484375 
z
" id="URW_Palladio_L_Roman-48"/>
      </defs>
      <g transform="translate(117.049554 179.288876)scale(0.12 -0.12)">
       <use transform="scale(0.996264)" xlink:href="#URW_Palladio_L_Roman-49"/>
       <use transform="translate(49.8132 0)scale(0.996264)" xlink:href="#URW_Palladio_L_Roman-48"/>
      </g>
     </g>
    </g>
    <g id="text_6">
     <!-- $B_{0}$ -->
     <defs>
      <path d="M 9.703125 66.390625 
L 15 66.203125 
C 17.40625 66.09375 18.5 65.296875 18.5 63.5 
C 18.5 62.09375 18.09375 58.890625 17.59375 55.890625 
L 8.90625 5.5 
C 8.5 3.6875 7.296875 3 3.09375 2.296875 
L 2.59375 -0.3125 
L 6.296875 -0.203125 
C 9 0 10.5 0 11.703125 0 
C 12.796875 0 15.40625 -0.109375 18 -0.203125 
L 21.703125 -0.3125 
L 23.703125 -0.40625 
C 25.59375 -0.90625 26.90625 -1 27.703125 -1 
C 32.5 -1 37.296875 0.390625 42 3.1875 
C 49.90625 7.90625 54.296875 14.734375 54.296875 22.359375 
C 54.296875 26.671875 52.90625 29.984375 50.203125 32.1875 
C 47.59375 34.296875 44.59375 35.203125 37.703125 36.203125 
C 43.40625 38.203125 45.90625 39.40625 49 42.21875 
C 53.59375 46.140625 55.90625 50.84375 55.90625 55.96875 
C 55.90625 64.1875 50.09375 69 40.09375 69 
C 39.90625 69 38.90625 69 37.40625 68.890625 
L 31.09375 68.796875 
C 29.90625 68.6875 26.296875 68.6875 25.09375 68.6875 
C 23.203125 68.6875 20.09375 68.796875 15.203125 68.890625 
L 10 69 
z
M 21.703125 34 
L 30.203125 34 
C 40.5 34 45.5 29.734375 45.5 20.921875 
C 45.5 10.484375 38.203125 3 28.203125 3 
C 26.203125 3 23.296875 3.09375 20 3.390625 
C 19.40625 3.5 18.203125 3.59375 16.59375 3.703125 
z
M 27.203125 64.796875 
C 28.296875 64.796875 28.5 64.890625 30.59375 65 
C 32.703125 65.1875 34 65.296875 35.203125 65.296875 
C 43.296875 65.296875 47.296875 61.71875 47.296875 54.265625 
C 47.296875 43.84375 39.90625 37.59375 27.5 37.59375 
L 22.296875 37.59375 
z
" id="URW_Palladio_L_Italic-66"/>
     </defs>
     <g transform="translate(87.811805 196.639689)scale(0.14 -0.14)">
      <use transform="translate(0 17.441431)scale(0.996264)" xlink:href="#URW_Palladio_L_Italic-66"/>
      <use transform="translate(59.626331 0)scale(0.757155)" xlink:href="#URW_Palladio_L_Roman-48"/>
     </g>
    </g>
   </g>
   <g id="matplotlib.axis_2">
    <g id="ytick_1">
     <g id="line2d_6">
      <defs>
       <path d="M 0 0 
L -3.5 0 
" id="m48ece84786" style="stroke:#000000;stroke-width:0.8;"/>
      </defs>
      <g>
       <use style="stroke:#000000;stroke-width:0.8;" x="55.597442" xlink:href="#m48ece84786" y="126.062598"/>
      </g>
     </g>
     <g id="text_7">
      <!-- $0.2$ -->
      <defs>
       <path d="M 12.40625 10.59375 
C 9.40625 10.59375 6.703125 7.796875 6.703125 4.796875 
C 6.703125 1.796875 9.40625 -1 12.296875 -1 
C 15.5 -1 18.296875 1.6875 18.296875 4.796875 
C 18.296875 7.796875 15.5 10.59375 12.40625 10.59375 
z
" id="URW_Palladio_L_Roman-46"/>
       <path d="M 1.59375 2.59375 
L 1.59375 0 
C 20.296875 0 20.296875 0 23.90625 0 
C 27.5 0.296875 27.5 0.296875 46.796875 0 
C 46.59375 2.09375 46.59375 3.09375 46.59375 4.484375 
C 46.59375 5.78125 46.59375 6.78125 46.796875 8.96875 
C 35.296875 8.46875 30.703125 8.375 12.203125 7.96875 
L 30.40625 27.203125 
C 40.09375 37.46875 43.09375 42.953125 43.09375 50.4375 
C 43.09375 61.890625 35.296875 69 22.59375 69 
C 15.40625 69 10.5 66.984375 5.59375 61.984375 
L 3.90625 48.4375 
L 6.796875 48.4375 
L 8.09375 53.03125 
C 9.703125 58.796875 13.296875 61.296875 20 61.296875 
C 28.59375 61.296875 34.09375 55.90625 34.09375 47.4375 
C 34.09375 39.96875 29.90625 32.59375 18.59375 20.625 
z
" id="URW_Palladio_L_Roman-50"/>
      </defs>
      <g transform="translate(33.653482 130.339536)scale(0.12 -0.12)">
       <use transform="scale(0.996264)" xlink:href="#URW_Palladio_L_Roman-48"/>
       <use transform="translate(49.8132 0)scale(0.996264)" xlink:href="#URW_Palladio_L_Roman-46"/>
       <use transform="translate(74.719801 0)scale(0.996264)" xlink:href="#URW_Palladio_L_Roman-50"/>
      </g>
     </g>
    </g>
    <g id="ytick_2">
     <g id="line2d_7">
      <g>
       <use style="stroke:#000000;stroke-width:0.8;" x="55.597442" xlink:href="#m48ece84786" y="88.390196"/>
      </g>
     </g>
     <g id="text_8">
      <!-- $0.4$ -->
      <defs>
       <path d="M 28 18 
L 28 10.6875 
C 28 4.84375 26.90625 3.484375 22 3.28125 
L 15.796875 3 
L 15.796875 0 
C 29.09375 0 29.09375 0 31.5 0 
C 33.90625 0.296875 33.90625 0.296875 47.203125 0 
L 47.203125 3 
L 42.40625 3.28125 
C 37.5 3.578125 36.40625 4.84375 36.40625 10.6875 
L 36.40625 18 
C 42.296875 18 44.40625 17.890625 47.203125 17.609375 
L 47.203125 24.6875 
C 42.5 24.296875 40.59375 24.296875 39.09375 24.390625 
L 38.796875 24.390625 
L 36.40625 24.390625 
L 36.40625 38.203125 
C 36.40625 55.875 36.59375 64.40625 37.09375 68.484375 
L 35.90625 69 
L 28.5 66.296875 
L 0.203125 20.296875 
L 1.296875 18 
z
M 28 24.390625 
L 6.5 24.390625 
L 28 59.34375 
z
" id="URW_Palladio_L_Roman-52"/>
      </defs>
      <g transform="translate(33.653482 92.667133)scale(0.12 -0.12)">
       <use transform="scale(0.996264)" xlink:href="#URW_Palladio_L_Roman-48"/>
       <use transform="translate(49.8132 0)scale(0.996264)" xlink:href="#URW_Palladio_L_Roman-46"/>
       <use transform="translate(74.719801 0)scale(0.996264)" xlink:href="#URW_Palladio_L_Roman-52"/>
      </g>
     </g>
    </g>
    <g id="ytick_3">
     <g id="line2d_8">
      <g>
       <use style="stroke:#000000;stroke-width:0.8;" x="55.597442" xlink:href="#m48ece84786" y="50.717793"/>
      </g>
     </g>
     <g id="text_9">
      <!-- $0.6$ -->
      <g transform="translate(33.653482 54.994731)scale(0.12 -0.12)">
       <use transform="scale(0.996264)" xlink:href="#URW_Palladio_L_Roman-48"/>
       <use transform="translate(49.8132 0)scale(0.996264)" xlink:href="#URW_Palladio_L_Roman-46"/>
       <use transform="translate(74.719801 0)scale(0.996264)" xlink:href="#URW_Palladio_L_Roman-54"/>
      </g>
     </g>
    </g>
    <g id="text_10">
     <!-- $P(B_{0}|\boldsymbol G)$ -->
     <defs>
      <path d="M 10.5 66.703125 
L 16 66.5 
C 18.40625 66.390625 19.5 65.59375 19.5 63.796875 
C 19.5 62.390625 19.09375 59.296875 18.59375 56.203125 
L 11.203125 12.796875 
C 9.5 3.6875 9.40625 3.390625 5.40625 3.09375 
L 1.296875 2.796875 
L 0.90625 0 
L 5.09375 0.09375 
C 9.203125 -0.109375 12.296875 0 14.09375 0 
C 15.796875 0 18.703125 -0.109375 22.703125 -0.203125 
L 28 0 
L 28.296875 2.796875 
L 21.796875 3.09375 
C 19.203125 3.1875 18.203125 3.984375 18.203125 6.078125 
C 18.203125 6.96875 18.296875 7.671875 18.59375 9.5625 
L 26.796875 57.890625 
C 26.796875 58 27.203125 59.96875 27.703125 61.84375 
C 27.796875 62.34375 28.09375 63.328125 28.40625 64.625 
C 32 65.203125 33.59375 65.40625 35.5 65.40625 
C 45.703125 65.40625 50.59375 61.0625 50.59375 51.859375 
C 50.59375 41.1875 43.40625 32.5 34.59375 32.5 
C 32.40625 32.5 30.40625 32.984375 26.703125 34.375 
L 26.90625 31.296875 
C 30.59375 29.5 32.59375 29 35.5 29 
C 48.40625 29 59.40625 40.59375 59.40625 54.046875 
C 59.40625 64.03125 53.09375 69.296875 41.203125 69 
L 27.40625 68.6875 
L 16.09375 68.890625 
L 10.796875 69 
z
" id="URW_Palladio_L_Italic-80"/>
      <path d="M 33.09375 -24 
C 33.09375 -23.703125 33.09375 -23.5 31.40625 -21.8125 
C 18.90625 -9.203125 15.703125 9.6875 15.703125 25 
C 15.703125 42.390625 19.5 59.796875 31.796875 72.296875 
C 33.09375 73.5 33.09375 73.6875 33.09375 74 
C 33.09375 74.6875 32.703125 75 32.09375 75 
C 31.09375 75 22.09375 68.203125 16.203125 55.5 
C 11.09375 44.5 9.90625 33.390625 9.90625 25 
C 9.90625 17.1875 11 5.09375 16.5 -6.203125 
C 22.5 -18.5 31.09375 -25 32.09375 -25 
C 32.703125 -25 33.09375 -24.703125 33.09375 -24 
z
" id="CMR10-40"/>
      <path d="M 15.90625 71.390625 
C 15.90625 73.1875 15.90625 75 13.90625 75 
C 11.90625 75 11.90625 73.1875 11.90625 71.390625 
L 11.90625 -21.40625 
C 11.90625 -23.203125 11.90625 -25 13.90625 -25 
C 15.90625 -25 15.90625 -23.203125 15.90625 -21.40625 
z
" id="CMSY10-106"/>
      <path d="M 51.703125 5.625 
C 48.296875 3.703125 44.296875 2.6875 39.59375 2.6875 
C 27.59375 2.6875 21 10.90625 21 25.890625 
C 21 39.671875 25.296875 52.953125 31.59375 58.421875 
C 35.40625 61.765625 41.796875 63.796875 48.203125 63.796875 
C 57.40625 63.796875 65.40625 60.953125 65.40625 57.8125 
C 65.40625 57.609375 65.40625 57.203125 65.296875 56.59375 
L 64.90625 48.6875 
L 68.40625 48.6875 
C 68.90625 53.453125 69.59375 56.390625 72.203125 65.6875 
C 65.296875 68.796875 59.59375 70 52.296875 70 
C 46.59375 70 41.09375 68.890625 35.203125 66.59375 
C 17.703125 59.640625 7.203125 44.234375 7.203125 25.59375 
C 7.203125 16.875 9.40625 10.296875 14 5.734375 
C 19.09375 0.59375 26.90625 -2 36.796875 -2 
C 45.203125 -2 50.796875 -0.703125 65.203125 4.515625 
L 64.90625 6.140625 
C 64.90625 7.453125 65.09375 8.875 65.5 10.796875 
L 67.5 20.53125 
C 68.296875 23.765625 69.296875 24.78125 72 25.078125 
L 74.5 25.28125 
L 75 28.625 
C 62.796875 28.328125 62.796875 28.328125 60.203125 28.328125 
C 57.796875 28.328125 57.796875 28.328125 45.296875 28.625 
L 44.796875 25.28125 
L 50.796875 25.078125 
C 54 24.984375 55.203125 24.171875 55.203125 22.25 
C 55.203125 21.640625 55.09375 20.734375 54.90625 19.921875 
z
" id="URW_Palladio_L_Bold_Italic-71"/>
      <path d="M 28.90625 25 
C 28.90625 32.796875 27.796875 44.890625 22.296875 56.203125 
C 16.296875 68.5 7.703125 75 6.703125 75 
C 6.09375 75 5.703125 74.59375 5.703125 74 
C 5.703125 73.6875 5.703125 73.5 7.59375 71.703125 
C 17.40625 61.796875 23.09375 45.890625 23.09375 25 
C 23.09375 7.890625 19.40625 -9.703125 7 -22.3125 
C 5.703125 -23.5 5.703125 -23.703125 5.703125 -24 
C 5.703125 -24.609375 6.09375 -25 6.703125 -25 
C 7.703125 -25 16.703125 -18.203125 22.59375 -5.5 
C 27.703125 5.5 28.90625 16.59375 28.90625 25 
z
" id="CMR10-41"/>
     </defs>
     <g transform="translate(25.720309 116.169457)rotate(-90)scale(0.14 -0.14)">
      <use transform="translate(0 17.441431)scale(0.996264)" xlink:href="#URW_Palladio_L_Italic-80"/>
      <use transform="translate(63.362352 17.441431)scale(1.038107)" xlink:href="#CMR10-40"/>
      <use transform="translate(108.09463 17.441431)scale(0.996264)" xlink:href="#URW_Palladio_L_Italic-66"/>
      <use transform="translate(167.720961 0)scale(0.757155)" xlink:href="#URW_Palladio_L_Roman-48"/>
      <use transform="translate(207.322151 17.441431)scale(1.038107)" xlink:href="#CMSY10-106"/>
      <use transform="translate(239.601145 17.441431)scale(0.996264)" xlink:href="#URW_Palladio_L_Bold_Italic-71"/>
      <use transform="translate(320.597366 17.441431)scale(1.038107)" xlink:href="#CMR10-41"/>
     </g>
    </g>
   </g>
   <g id="patch_8">
    <path d="M 55.597442 163.735 
L 55.597442 17.64 
" style="fill:none;stroke:#000000;stroke-linecap:square;stroke-linejoin:miter;stroke-width:0.8;"/>
   </g>
   <g id="patch_9">
    <path d="M 133.673933 163.735 
L 133.673933 17.64 
" style="fill:none;stroke:#000000;stroke-linecap:square;stroke-linejoin:miter;stroke-width:0.8;"/>
   </g>
   <g id="patch_10">
    <path d="M 55.597442 163.735 
L 133.673933 163.735 
" style="fill:none;stroke:#000000;stroke-linecap:square;stroke-linejoin:miter;stroke-width:0.8;"/>
   </g>
   <g id="patch_11">
    <path d="M 55.597442 17.64 
L 133.673933 17.64 
" style="fill:none;stroke:#000000;stroke-linecap:square;stroke-linejoin:miter;stroke-width:0.8;"/>
   </g>
  </g>
  <g id="axes_2">
   <g id="patch_12">
    <path d="M 197.768959 163.735 
L 275.84545 163.735 
L 275.84545 17.64 
L 197.768959 17.64 
z
" style="fill:#ffffff;"/>
   </g>
   <g id="patch_13">
    <path clip-path="url(#pf88c1e8272)" d="M 201.31789 163.735 
L 213.147661 163.735 
L 213.147661 136.807196 
L 201.31789 136.807196 
z
" style="fill:#ccb974;"/>
   </g>
   <g id="patch_14">
    <path clip-path="url(#pf88c1e8272)" d="M 213.147661 163.735 
L 224.977433 163.735 
L 224.977433 48.058754 
L 213.147661 48.058754 
z
" style="fill:#ccb974;"/>
   </g>
   <g id="patch_15">
    <path clip-path="url(#pf88c1e8272)" d="M 224.977433 163.735 
L 236.807204 163.735 
L 236.807204 24.596905 
L 224.977433 24.596905 
z
" style="fill:#ccb974;"/>
   </g>
   <g id="patch_16">
    <path clip-path="url(#pf88c1e8272)" d="M 236.807204 163.735 
L 248.636975 163.735 
L 248.636975 117.444506 
L 236.807204 117.444506 
z
" style="fill:#ccb974;"/>
   </g>
   <g id="patch_17">
    <path clip-path="url(#pf88c1e8272)" d="M 248.636975 163.735 
L 260.466747 163.735 
L 260.466747 158.736027 
L 248.636975 158.736027 
z
" style="fill:#ccb974;"/>
   </g>
   <g id="patch_18">
    <path clip-path="url(#pf88c1e8272)" d="M 260.466747 163.735 
L 272.296518 163.735 
L 272.296518 163.535041 
L 260.466747 163.535041 
z
" style="fill:#ccb974;"/>
   </g>
   <g id="matplotlib.axis_3">
    <g id="xtick_6">
     <g id="line2d_9">
      <g>
       <use style="stroke:#000000;stroke-width:0.8;" x="207.232776" xlink:href="#meba27a27bc" y="163.735"/>
      </g>
     </g>
     <g id="text_11">
      <!-- $1$ -->
      <g transform="translate(204.243984 179.288876)scale(0.12 -0.12)">
       <use transform="scale(0.996264)" xlink:href="#URW_Palladio_L_Roman-49"/>
      </g>
     </g>
    </g>
    <g id="xtick_7">
     <g id="line2d_10">
      <g>
       <use style="stroke:#000000;stroke-width:0.8;" x="219.062547" xlink:href="#meba27a27bc" y="163.735"/>
      </g>
     </g>
     <g id="text_12">
      <!-- $2$ -->
      <g transform="translate(216.073755 179.288876)scale(0.12 -0.12)">
       <use transform="scale(0.996264)" xlink:href="#URW_Palladio_L_Roman-50"/>
      </g>
     </g>
    </g>
    <g id="xtick_8">
     <g id="line2d_11">
      <g>
       <use style="stroke:#000000;stroke-width:0.8;" x="230.892318" xlink:href="#meba27a27bc" y="163.735"/>
      </g>
     </g>
     <g id="text_13">
      <!-- $3$ -->
      <defs>
       <path d="M 4.296875 49.9375 
L 7.40625 49.9375 
L 9.203125 55.515625 
C 10.296875 58.90625 16.59375 62.296875 21.796875 62.296875 
C 28.296875 62.296875 33.59375 57.015625 33.59375 50.734375 
C 33.59375 43.265625 27.703125 37 20.59375 37 
C 19.796875 37 18.703125 37.09375 17.40625 37.1875 
L 15.90625 37.296875 
L 14.703125 31.984375 
L 15.40625 31.375 
C 19.203125 33.09375 21.09375 33.59375 23.796875 33.59375 
C 32.09375 33.59375 36.90625 28.25 36.90625 19.09375 
C 36.90625 8.828125 30.796875 2.09375 21.5 2.09375 
C 16.90625 2.09375 12.796875 3.609375 9.796875 6.421875 
C 7.40625 8.640625 6.09375 10.953125 4.203125 16.375 
L 1.5 15.375 
C 3.59375 9.234375 4.40625 5.609375 5 0.59375 
C 10.296875 -1.203125 14.703125 -2 18.40625 -2 
C 26.40625 -2 35.59375 2.5 41.09375 9.234375 
C 44.5 13.359375 46.203125 17.796875 46.203125 22.515625 
C 46.203125 27.34375 44.203125 31.578125 40.59375 34.09375 
C 38.09375 35.890625 35.796875 36.6875 30.796875 37.59375 
C 38.796875 43.765625 41.796875 48.34375 41.796875 54.21875 
C 41.796875 63.09375 34.40625 69 23.296875 69 
C 16.5 69 12 67.09375 7.203125 62.296875 
z
" id="URW_Palladio_L_Roman-51"/>
      </defs>
      <g transform="translate(227.903526 179.288876)scale(0.12 -0.12)">
       <use transform="scale(0.996264)" xlink:href="#URW_Palladio_L_Roman-51"/>
      </g>
     </g>
    </g>
    <g id="xtick_9">
     <g id="line2d_12">
      <g>
       <use style="stroke:#000000;stroke-width:0.8;" x="242.72209" xlink:href="#meba27a27bc" y="163.735"/>
      </g>
     </g>
     <g id="text_14">
      <!-- $4$ -->
      <g transform="translate(239.733298 179.288876)scale(0.12 -0.12)">
       <use transform="scale(0.996264)" xlink:href="#URW_Palladio_L_Roman-52"/>
      </g>
     </g>
    </g>
    <g id="xtick_10">
     <g id="line2d_13">
      <g>
       <use style="stroke:#000000;stroke-width:0.8;" x="254.551861" xlink:href="#meba27a27bc" y="163.735"/>
      </g>
     </g>
     <g id="text_15">
      <!-- $5$ -->
      <defs>
       <path d="M 12.703125 60.796875 
C 25.59375 60.390625 31.203125 60.296875 43.203125 60.296875 
L 43.703125 60.796875 
C 43.5 62.59375 43.5 63.390625 43.5 64.6875 
C 43.5 66.09375 43.5 66.890625 43.703125 68.6875 
L 43.203125 69.1875 
C 35.703125 68.796875 31.203125 68.6875 25.796875 68.6875 
C 20.296875 68.6875 15.90625 68.796875 8.40625 69.1875 
L 7.90625 68.6875 
C 8 62.59375 8.09375 58.1875 8.09375 55 
C 8.09375 46.5 7.796875 36.875 7.5 32.4375 
L 9.5 31.84375 
C 14.203125 36.578125 16.90625 38 21.796875 38 
C 31.40625 38 37.40625 31.125 37.40625 20.234375 
C 37.40625 9.046875 31 2.5 20.09375 2.5 
C 14.703125 2.5 9.703125 4.3125 8.296875 6.921875 
L 3.703125 15.203125 
L 1.296875 13.78125 
C 3.59375 8.03125 4.796875 4.8125 6.203125 0.390625 
C 9 -1.109375 13 -2 17.296875 -2 
C 24 -2 31.09375 0.890625 36.59375 5.71875 
C 42.703125 11.171875 45.90625 18.015625 45.90625 25.484375 
C 45.90625 36.875 37.796875 44.890625 26.40625 44.890625 
C 21.59375 44.890625 18 43.59375 11.796875 39.890625 
z
" id="URW_Palladio_L_Roman-53"/>
      </defs>
      <g transform="translate(251.563069 179.288876)scale(0.12 -0.12)">
       <use transform="scale(0.996264)" xlink:href="#URW_Palladio_L_Roman-53"/>
      </g>
     </g>
    </g>
    <g id="xtick_11">
     <g id="line2d_14">
      <g>
       <use style="stroke:#000000;stroke-width:0.8;" x="266.381632" xlink:href="#meba27a27bc" y="163.735"/>
      </g>
     </g>
     <g id="text_16">
      <!-- $6$ -->
      <g transform="translate(263.39284 179.288876)scale(0.12 -0.12)">
       <use transform="scale(0.996264)" xlink:href="#URW_Palladio_L_Roman-54"/>
      </g>
     </g>
    </g>
    <g id="text_17">
     <!-- $B_{1}$ -->
     <g transform="translate(229.983322 196.639689)scale(0.14 -0.14)">
      <use transform="translate(0 18.577338)scale(0.996264)" xlink:href="#URW_Palladio_L_Italic-66"/>
      <use transform="translate(59.626331 0)scale(0.757155)" xlink:href="#URW_Palladio_L_Roman-49"/>
     </g>
    </g>
   </g>
   <g id="matplotlib.axis_4">
    <g id="ytick_4">
     <g id="line2d_15">
      <g>
       <use style="stroke:#000000;stroke-width:0.8;" x="197.768959" xlink:href="#m48ece84786" y="130.411843"/>
      </g>
     </g>
     <g id="text_18">
      <!-- $0.1$ -->
      <g transform="translate(175.824998 134.688781)scale(0.12 -0.12)">
       <use transform="scale(0.996264)" xlink:href="#URW_Palladio_L_Roman-48"/>
       <use transform="translate(49.8132 0)scale(0.996264)" xlink:href="#URW_Palladio_L_Roman-46"/>
       <use transform="translate(74.719801 0)scale(0.996264)" xlink:href="#URW_Palladio_L_Roman-49"/>
      </g>
     </g>
    </g>
    <g id="ytick_5">
     <g id="line2d_16">
      <g>
       <use style="stroke:#000000;stroke-width:0.8;" x="197.768959" xlink:href="#m48ece84786" y="97.088686"/>
      </g>
     </g>
     <g id="text_19">
      <!-- $0.2$ -->
      <g transform="translate(175.824998 101.365623)scale(0.12 -0.12)">
       <use transform="scale(0.996264)" xlink:href="#URW_Palladio_L_Roman-48"/>
       <use transform="translate(49.8132 0)scale(0.996264)" xlink:href="#URW_Palladio_L_Roman-46"/>
       <use transform="translate(74.719801 0)scale(0.996264)" xlink:href="#URW_Palladio_L_Roman-50"/>
      </g>
     </g>
    </g>
    <g id="ytick_6">
     <g id="line2d_17">
      <g>
       <use style="stroke:#000000;stroke-width:0.8;" x="197.768959" xlink:href="#m48ece84786" y="63.765528"/>
      </g>
     </g>
     <g id="text_20">
      <!-- $0.3$ -->
      <g transform="translate(175.824998 68.042466)scale(0.12 -0.12)">
       <use transform="scale(0.996264)" xlink:href="#URW_Palladio_L_Roman-48"/>
       <use transform="translate(49.8132 0)scale(0.996264)" xlink:href="#URW_Palladio_L_Roman-46"/>
       <use transform="translate(74.719801 0)scale(0.996264)" xlink:href="#URW_Palladio_L_Roman-51"/>
      </g>
     </g>
    </g>
    <g id="ytick_7">
     <g id="line2d_18">
      <g>
       <use style="stroke:#000000;stroke-width:0.8;" x="197.768959" xlink:href="#m48ece84786" y="30.442371"/>
      </g>
     </g>
     <g id="text_21">
      <!-- $0.4$ -->
      <g transform="translate(175.824998 34.719309)scale(0.12 -0.12)">
       <use transform="scale(0.996264)" xlink:href="#URW_Palladio_L_Roman-48"/>
       <use transform="translate(49.8132 0)scale(0.996264)" xlink:href="#URW_Palladio_L_Roman-46"/>
       <use transform="translate(74.719801 0)scale(0.996264)" xlink:href="#URW_Palladio_L_Roman-52"/>
      </g>
     </g>
    </g>
    <g id="text_22">
     <!-- $P(B_{1}|\boldsymbol G)$ -->
     <g transform="translate(167.891826 116.169457)rotate(-90)scale(0.14 -0.14)">
      <use transform="translate(0 18.577338)scale(0.996264)" xlink:href="#URW_Palladio_L_Italic-80"/>
      <use transform="translate(63.362352 18.577338)scale(1.038107)" xlink:href="#CMR10-40"/>
      <use transform="translate(108.09463 18.577338)scale(0.996264)" xlink:href="#URW_Palladio_L_Italic-66"/>
      <use transform="translate(167.720961 0)scale(0.757155)" xlink:href="#URW_Palladio_L_Roman-49"/>
      <use transform="translate(207.322151 18.577338)scale(1.038107)" xlink:href="#CMSY10-106"/>
      <use transform="translate(239.601145 18.577338)scale(0.996264)" xlink:href="#URW_Palladio_L_Bold_Italic-71"/>
      <use transform="translate(320.597366 18.577338)scale(1.038107)" xlink:href="#CMR10-41"/>
     </g>
    </g>
   </g>
   <g id="patch_19">
    <path d="M 197.768959 163.735 
L 197.768959 17.64 
" style="fill:none;stroke:#000000;stroke-linecap:square;stroke-linejoin:miter;stroke-width:0.8;"/>
   </g>
   <g id="patch_20">
    <path d="M 275.84545 163.735 
L 275.84545 17.64 
" style="fill:none;stroke:#000000;stroke-linecap:square;stroke-linejoin:miter;stroke-width:0.8;"/>
   </g>
   <g id="patch_21">
    <path d="M 197.768959 163.735 
L 275.84545 163.735 
" style="fill:none;stroke:#000000;stroke-linecap:square;stroke-linejoin:miter;stroke-width:0.8;"/>
   </g>
   <g id="patch_22">
    <path d="M 197.768959 17.64 
L 275.84545 17.64 
" style="fill:none;stroke:#000000;stroke-linecap:square;stroke-linejoin:miter;stroke-width:0.8;"/>
   </g>
  </g>
  <g id="axes_3">
   <g id="patch_23">
    <path d="M 339.940475 163.735 
L 418.016966 163.735 
L 418.016966 17.64 
L 339.940475 17.64 
z
" style="fill:#ffffff;"/>
   </g>
   <g id="patch_24">
    <path clip-path="url(#p7ca1013c59)" d="M 343.489407 163.735 
L 361.234064 163.735 
L 361.234064 24.596905 
L 343.489407 24.596905 
z
" style="fill:#ccb974;"/>
   </g>
   <g id="patch_25">
    <path clip-path="url(#p7ca1013c59)" d="M 361.234064 163.735 
L 378.978721 163.735 
L 378.978721 117.222525 
L 361.234064 117.222525 
z
" style="fill:#ccb974;"/>
   </g>
   <g id="patch_26">
    <path clip-path="url(#p7ca1013c59)" d="M 378.978721 163.735 
L 396.723378 163.735 
L 396.723378 159.285319 
L 378.978721 159.285319 
z
" style="fill:#ccb974;"/>
   </g>
   <g id="patch_27">
    <path clip-path="url(#p7ca1013c59)" d="M 396.723378 163.735 
L 414.468035 163.735 
L 414.468035 163.696969 
L 396.723378 163.696969 
z
" style="fill:#ccb974;"/>
   </g>
   <g id="matplotlib.axis_5">
    <g id="xtick_12">
     <g id="line2d_19">
      <g>
       <use style="stroke:#000000;stroke-width:0.8;" x="352.361735" xlink:href="#meba27a27bc" y="163.735"/>
      </g>
     </g>
     <g id="text_23">
      <!-- $1$ -->
      <g transform="translate(349.372943 179.288876)scale(0.12 -0.12)">
       <use transform="scale(0.996264)" xlink:href="#URW_Palladio_L_Roman-49"/>
      </g>
     </g>
    </g>
    <g id="xtick_13">
     <g id="line2d_20">
      <g>
       <use style="stroke:#000000;stroke-width:0.8;" x="370.106392" xlink:href="#meba27a27bc" y="163.735"/>
      </g>
     </g>
     <g id="text_24">
      <!-- $2$ -->
      <g transform="translate(367.1176 179.288876)scale(0.12 -0.12)">
       <use transform="scale(0.996264)" xlink:href="#URW_Palladio_L_Roman-50"/>
      </g>
     </g>
    </g>
    <g id="xtick_14">
     <g id="line2d_21">
      <g>
       <use style="stroke:#000000;stroke-width:0.8;" x="387.851049" xlink:href="#meba27a27bc" y="163.735"/>
      </g>
     </g>
     <g id="text_25">
      <!-- $3$ -->
      <g transform="translate(384.862257 179.288876)scale(0.12 -0.12)">
       <use transform="scale(0.996264)" xlink:href="#URW_Palladio_L_Roman-51"/>
      </g>
     </g>
    </g>
    <g id="xtick_15">
     <g id="line2d_22">
      <g>
       <use style="stroke:#000000;stroke-width:0.8;" x="405.595706" xlink:href="#meba27a27bc" y="163.735"/>
      </g>
     </g>
     <g id="text_26">
      <!-- $4$ -->
      <g transform="translate(402.606914 179.288876)scale(0.12 -0.12)">
       <use transform="scale(0.996264)" xlink:href="#URW_Palladio_L_Roman-52"/>
      </g>
     </g>
    </g>
    <g id="text_27">
     <!-- $B_{2}$ -->
     <g transform="translate(372.154838 196.639689)scale(0.14 -0.14)">
      <use transform="translate(0 17.441431)scale(0.996264)" xlink:href="#URW_Palladio_L_Italic-66"/>
      <use transform="translate(59.626331 0)scale(0.757155)" xlink:href="#URW_Palladio_L_Roman-50"/>
     </g>
    </g>
   </g>
   <g id="matplotlib.axis_6">
    <g id="ytick_8">
     <g id="line2d_23">
      <g>
       <use style="stroke:#000000;stroke-width:0.8;" x="339.940475" xlink:href="#m48ece84786" y="125.707343"/>
      </g>
     </g>
     <g id="text_28">
      <!-- $0.2$ -->
      <g transform="translate(317.996515 129.984281)scale(0.12 -0.12)">
       <use transform="scale(0.996264)" xlink:href="#URW_Palladio_L_Roman-48"/>
       <use transform="translate(49.8132 0)scale(0.996264)" xlink:href="#URW_Palladio_L_Roman-46"/>
       <use transform="translate(74.719801 0)scale(0.996264)" xlink:href="#URW_Palladio_L_Roman-50"/>
      </g>
     </g>
    </g>
    <g id="ytick_9">
     <g id="line2d_24">
      <g>
       <use style="stroke:#000000;stroke-width:0.8;" x="339.940475" xlink:href="#m48ece84786" y="87.679687"/>
      </g>
     </g>
     <g id="text_29">
      <!-- $0.4$ -->
      <g transform="translate(317.996515 91.956625)scale(0.12 -0.12)">
       <use transform="scale(0.996264)" xlink:href="#URW_Palladio_L_Roman-48"/>
       <use transform="translate(49.8132 0)scale(0.996264)" xlink:href="#URW_Palladio_L_Roman-46"/>
       <use transform="translate(74.719801 0)scale(0.996264)" xlink:href="#URW_Palladio_L_Roman-52"/>
      </g>
     </g>
    </g>
    <g id="ytick_10">
     <g id="line2d_25">
      <g>
       <use style="stroke:#000000;stroke-width:0.8;" x="339.940475" xlink:href="#m48ece84786" y="49.65203"/>
      </g>
     </g>
     <g id="text_30">
      <!-- $0.6$ -->
      <g transform="translate(317.996515 53.928968)scale(0.12 -0.12)">
       <use transform="scale(0.996264)" xlink:href="#URW_Palladio_L_Roman-48"/>
       <use transform="translate(49.8132 0)scale(0.996264)" xlink:href="#URW_Palladio_L_Roman-46"/>
       <use transform="translate(74.719801 0)scale(0.996264)" xlink:href="#URW_Palladio_L_Roman-54"/>
      </g>
     </g>
    </g>
    <g id="text_31">
     <!-- $P(B_{2}|\boldsymbol G)$ -->
     <g transform="translate(310.063343 116.169457)rotate(-90)scale(0.14 -0.14)">
      <use transform="translate(0 17.441431)scale(0.996264)" xlink:href="#URW_Palladio_L_Italic-80"/>
      <use transform="translate(63.362352 17.441431)scale(1.038107)" xlink:href="#CMR10-40"/>
      <use transform="translate(108.09463 17.441431)scale(0.996264)" xlink:href="#URW_Palladio_L_Italic-66"/>
      <use transform="translate(167.720961 0)scale(0.757155)" xlink:href="#URW_Palladio_L_Roman-50"/>
      <use transform="translate(207.322151 17.441431)scale(1.038107)" xlink:href="#CMSY10-106"/>
      <use transform="translate(239.601145 17.441431)scale(0.996264)" xlink:href="#URW_Palladio_L_Bold_Italic-71"/>
      <use transform="translate(320.597366 17.441431)scale(1.038107)" xlink:href="#CMR10-41"/>
     </g>
    </g>
   </g>
   <g id="patch_28">
    <path d="M 339.940475 163.735 
L 339.940475 17.64 
" style="fill:none;stroke:#000000;stroke-linecap:square;stroke-linejoin:miter;stroke-width:0.8;"/>
   </g>
   <g id="patch_29">
    <path d="M 418.016966 163.735 
L 418.016966 17.64 
" style="fill:none;stroke:#000000;stroke-linecap:square;stroke-linejoin:miter;stroke-width:0.8;"/>
   </g>
   <g id="patch_30">
    <path d="M 339.940475 163.735 
L 418.016966 163.735 
" style="fill:none;stroke:#000000;stroke-linecap:square;stroke-linejoin:miter;stroke-width:0.8;"/>
   </g>
   <g id="patch_31">
    <path d="M 339.940475 17.64 
L 418.016966 17.64 
" style="fill:none;stroke:#000000;stroke-linecap:square;stroke-linejoin:miter;stroke-width:0.8;"/>
   </g>
  </g>
  <g id="axes_4">
   <g id="patch_32">
    <path d="M 482.111992 163.735 
L 560.188483 163.735 
L 560.188483 17.64 
L 482.111992 17.64 
z
" style="fill:#ffffff;"/>
   </g>
   <g id="patch_33">
    <path clip-path="url(#pe8668382b9)" d="M 485.660924 163.735 
L 521.150238 163.735 
L 521.150238 24.596905 
L 485.660924 24.596905 
z
" style="fill:#ccb974;"/>
   </g>
   <g id="patch_34">
    <path clip-path="url(#pe8668382b9)" d="M 521.150238 163.735 
L 556.639552 163.735 
L 556.639552 159.401731 
L 521.150238 159.401731 
z
" style="fill:#ccb974;"/>
   </g>
   <g id="matplotlib.axis_7">
    <g id="xtick_16">
     <g id="line2d_26">
      <g>
       <use style="stroke:#000000;stroke-width:0.8;" x="503.405581" xlink:href="#meba27a27bc" y="163.735"/>
      </g>
     </g>
     <g id="text_32">
      <!-- $1$ -->
      <g transform="translate(500.416789 179.288876)scale(0.12 -0.12)">
       <use transform="scale(0.996264)" xlink:href="#URW_Palladio_L_Roman-49"/>
      </g>
     </g>
    </g>
    <g id="xtick_17">
     <g id="line2d_27">
      <g>
       <use style="stroke:#000000;stroke-width:0.8;" x="538.894895" xlink:href="#meba27a27bc" y="163.735"/>
      </g>
     </g>
     <g id="text_33">
      <!-- $2$ -->
      <g transform="translate(535.906103 179.288876)scale(0.12 -0.12)">
       <use transform="scale(0.996264)" xlink:href="#URW_Palladio_L_Roman-50"/>
      </g>
     </g>
    </g>
    <g id="text_34">
     <!-- $B_{3}$ -->
     <g transform="translate(514.326355 196.639689)scale(0.14 -0.14)">
      <use transform="translate(0 17.441431)scale(0.996264)" xlink:href="#URW_Palladio_L_Italic-66"/>
      <use transform="translate(59.626331 0)scale(0.757155)" xlink:href="#URW_Palladio_L_Roman-51"/>
     </g>
    </g>
   </g>
   <g id="matplotlib.axis_8">
    <g id="ytick_11">
     <g id="line2d_28">
      <g>
       <use style="stroke:#000000;stroke-width:0.8;" x="482.111992" xlink:href="#m48ece84786" y="127.867159"/>
      </g>
     </g>
     <g id="text_35">
      <!-- $0.25$ -->
      <g transform="translate(454.190448 132.144097)scale(0.12 -0.12)">
       <use transform="scale(0.996264)" xlink:href="#URW_Palladio_L_Roman-48"/>
       <use transform="translate(49.8132 0)scale(0.996264)" xlink:href="#URW_Palladio_L_Roman-46"/>
       <use transform="translate(74.719801 0)scale(0.996264)" xlink:href="#URW_Palladio_L_Roman-50"/>
       <use transform="translate(124.533001 0)scale(0.996264)" xlink:href="#URW_Palladio_L_Roman-53"/>
      </g>
     </g>
    </g>
    <g id="ytick_12">
     <g id="line2d_29">
      <g>
       <use style="stroke:#000000;stroke-width:0.8;" x="482.111992" xlink:href="#m48ece84786" y="91.999318"/>
      </g>
     </g>
     <g id="text_36">
      <!-- $0.50$ -->
      <g transform="translate(454.190448 96.276256)scale(0.12 -0.12)">
       <use transform="scale(0.996264)" xlink:href="#URW_Palladio_L_Roman-48"/>
       <use transform="translate(49.8132 0)scale(0.996264)" xlink:href="#URW_Palladio_L_Roman-46"/>
       <use transform="translate(74.719801 0)scale(0.996264)" xlink:href="#URW_Palladio_L_Roman-53"/>
       <use transform="translate(124.533001 0)scale(0.996264)" xlink:href="#URW_Palladio_L_Roman-48"/>
      </g>
     </g>
    </g>
    <g id="ytick_13">
     <g id="line2d_30">
      <g>
       <use style="stroke:#000000;stroke-width:0.8;" x="482.111992" xlink:href="#m48ece84786" y="56.131477"/>
      </g>
     </g>
     <g id="text_37">
      <!-- $0.75$ -->
      <g transform="translate(454.190448 60.408415)scale(0.12 -0.12)">
       <use transform="scale(0.996264)" xlink:href="#URW_Palladio_L_Roman-48"/>
       <use transform="translate(49.8132 0)scale(0.996264)" xlink:href="#URW_Palladio_L_Roman-46"/>
       <use transform="translate(74.719801 0)scale(0.996264)" xlink:href="#URW_Palladio_L_Roman-55"/>
       <use transform="translate(124.533001 0)scale(0.996264)" xlink:href="#URW_Palladio_L_Roman-53"/>
      </g>
     </g>
    </g>
    <g id="ytick_14">
     <g id="line2d_31">
      <g>
       <use style="stroke:#000000;stroke-width:0.8;" x="482.111992" xlink:href="#m48ece84786" y="20.263636"/>
      </g>
     </g>
     <g id="text_38">
      <!-- $1.00$ -->
      <g transform="translate(454.190448 24.540574)scale(0.12 -0.12)">
       <use transform="scale(0.996264)" xlink:href="#URW_Palladio_L_Roman-49"/>
       <use transform="translate(49.8132 0)scale(0.996264)" xlink:href="#URW_Palladio_L_Roman-46"/>
       <use transform="translate(74.719801 0)scale(0.996264)" xlink:href="#URW_Palladio_L_Roman-48"/>
       <use transform="translate(124.533001 0)scale(0.996264)" xlink:href="#URW_Palladio_L_Roman-48"/>
      </g>
     </g>
    </g>
    <g id="text_39">
     <!-- $P(B_{3}|\boldsymbol G)$ -->
     <g transform="translate(446.257276 116.169457)rotate(-90)scale(0.14 -0.14)">
      <use transform="translate(0 17.441431)scale(0.996264)" xlink:href="#URW_Palladio_L_Italic-80"/>
      <use transform="translate(63.362352 17.441431)scale(1.038107)" xlink:href="#CMR10-40"/>
      <use transform="translate(108.09463 17.441431)scale(0.996264)" xlink:href="#URW_Palladio_L_Italic-66"/>
      <use transform="translate(167.720961 0)scale(0.757155)" xlink:href="#URW_Palladio_L_Roman-51"/>
      <use transform="translate(207.322151 17.441431)scale(1.038107)" xlink:href="#CMSY10-106"/>
      <use transform="translate(239.601145 17.441431)scale(0.996264)" xlink:href="#URW_Palladio_L_Bold_Italic-71"/>
      <use transform="translate(320.597366 17.441431)scale(1.038107)" xlink:href="#CMR10-41"/>
     </g>
    </g>
   </g>
   <g id="patch_35">
    <path d="M 482.111992 163.735 
L 482.111992 17.64 
" style="fill:none;stroke:#000000;stroke-linecap:square;stroke-linejoin:miter;stroke-width:0.8;"/>
   </g>
   <g id="patch_36">
    <path d="M 560.188483 163.735 
L 560.188483 17.64 
" style="fill:none;stroke:#000000;stroke-linecap:square;stroke-linejoin:miter;stroke-width:0.8;"/>
   </g>
   <g id="patch_37">
    <path d="M 482.111992 163.735 
L 560.188483 163.735 
" style="fill:none;stroke:#000000;stroke-linecap:square;stroke-linejoin:miter;stroke-width:0.8;"/>
   </g>
   <g id="patch_38">
    <path d="M 482.111992 17.64 
L 560.188483 17.64 
" style="fill:none;stroke:#000000;stroke-linecap:square;stroke-linejoin:miter;stroke-width:0.8;"/>
   </g>
  </g>
  <g id="axes_5">
   <g id="patch_39">
    <path d="M 624.283509 163.735 
L 702.36 163.735 
L 702.36 17.64 
L 624.283509 17.64 
z
" style="fill:#ffffff;"/>
   </g>
   <g id="patch_40">
    <path clip-path="url(#p12cbb519e8)" d="M 627.83244 163.735 
L 663.321755 163.735 
L 663.321755 24.596905 
L 627.83244 24.596905 
z
" style="fill:#ccb974;"/>
   </g>
   <g id="patch_41">
    <path clip-path="url(#p12cbb519e8)" d="M 663.321755 163.735 
L 698.811069 163.735 
L 698.811069 163.400232 
L 663.321755 163.400232 
z
" style="fill:#ccb974;"/>
   </g>
   <g id="matplotlib.axis_9">
    <g id="xtick_18">
     <g id="line2d_32">
      <g>
       <use style="stroke:#000000;stroke-width:0.8;" x="645.577097" xlink:href="#meba27a27bc" y="163.735"/>
      </g>
     </g>
     <g id="text_40">
      <!-- $1$ -->
      <g transform="translate(642.588305 179.288876)scale(0.12 -0.12)">
       <use transform="scale(0.996264)" xlink:href="#URW_Palladio_L_Roman-49"/>
      </g>
     </g>
    </g>
    <g id="xtick_19">
     <g id="line2d_33">
      <g>
       <use style="stroke:#000000;stroke-width:0.8;" x="681.066412" xlink:href="#meba27a27bc" y="163.735"/>
      </g>
     </g>
     <g id="text_41">
      <!-- $2$ -->
      <g transform="translate(678.07762 179.288876)scale(0.12 -0.12)">
       <use transform="scale(0.996264)" xlink:href="#URW_Palladio_L_Roman-50"/>
      </g>
     </g>
    </g>
    <g id="text_42">
     <!-- $B_{4}$ -->
     <g transform="translate(656.497872 196.639689)scale(0.14 -0.14)">
      <use transform="translate(0 18.577338)scale(0.996264)" xlink:href="#URW_Palladio_L_Italic-66"/>
      <use transform="translate(59.626331 0)scale(0.757155)" xlink:href="#URW_Palladio_L_Roman-52"/>
     </g>
    </g>
   </g>
   <g id="matplotlib.axis_10">
    <g id="ytick_15">
     <g id="line2d_34">
      <g>
       <use style="stroke:#000000;stroke-width:0.8;" x="624.283509" xlink:href="#m48ece84786" y="128.866784"/>
      </g>
     </g>
     <g id="text_43">
      <!-- $0.25$ -->
      <g transform="translate(596.361965 133.143722)scale(0.12 -0.12)">
       <use transform="scale(0.996264)" xlink:href="#URW_Palladio_L_Roman-48"/>
       <use transform="translate(49.8132 0)scale(0.996264)" xlink:href="#URW_Palladio_L_Roman-46"/>
       <use transform="translate(74.719801 0)scale(0.996264)" xlink:href="#URW_Palladio_L_Roman-50"/>
       <use transform="translate(124.533001 0)scale(0.996264)" xlink:href="#URW_Palladio_L_Roman-53"/>
      </g>
     </g>
    </g>
    <g id="ytick_16">
     <g id="line2d_35">
      <g>
       <use style="stroke:#000000;stroke-width:0.8;" x="624.283509" xlink:href="#m48ece84786" y="93.998568"/>
      </g>
     </g>
     <g id="text_44">
      <!-- $0.50$ -->
      <g transform="translate(596.361965 98.275506)scale(0.12 -0.12)">
       <use transform="scale(0.996264)" xlink:href="#URW_Palladio_L_Roman-48"/>
       <use transform="translate(49.8132 0)scale(0.996264)" xlink:href="#URW_Palladio_L_Roman-46"/>
       <use transform="translate(74.719801 0)scale(0.996264)" xlink:href="#URW_Palladio_L_Roman-53"/>
       <use transform="translate(124.533001 0)scale(0.996264)" xlink:href="#URW_Palladio_L_Roman-48"/>
      </g>
     </g>
    </g>
    <g id="ytick_17">
     <g id="line2d_36">
      <g>
       <use style="stroke:#000000;stroke-width:0.8;" x="624.283509" xlink:href="#m48ece84786" y="59.130352"/>
      </g>
     </g>
     <g id="text_45">
      <!-- $0.75$ -->
      <g transform="translate(596.361965 63.40729)scale(0.12 -0.12)">
       <use transform="scale(0.996264)" xlink:href="#URW_Palladio_L_Roman-48"/>
       <use transform="translate(49.8132 0)scale(0.996264)" xlink:href="#URW_Palladio_L_Roman-46"/>
       <use transform="translate(74.719801 0)scale(0.996264)" xlink:href="#URW_Palladio_L_Roman-55"/>
       <use transform="translate(124.533001 0)scale(0.996264)" xlink:href="#URW_Palladio_L_Roman-53"/>
      </g>
     </g>
    </g>
    <g id="ytick_18">
     <g id="line2d_37">
      <g>
       <use style="stroke:#000000;stroke-width:0.8;" x="624.283509" xlink:href="#m48ece84786" y="24.262136"/>
      </g>
     </g>
     <g id="text_46">
      <!-- $1.00$ -->
      <g transform="translate(596.361965 28.539074)scale(0.12 -0.12)">
       <use transform="scale(0.996264)" xlink:href="#URW_Palladio_L_Roman-49"/>
       <use transform="translate(49.8132 0)scale(0.996264)" xlink:href="#URW_Palladio_L_Roman-46"/>
       <use transform="translate(74.719801 0)scale(0.996264)" xlink:href="#URW_Palladio_L_Roman-48"/>
       <use transform="translate(124.533001 0)scale(0.996264)" xlink:href="#URW_Palladio_L_Roman-48"/>
      </g>
     </g>
    </g>
    <g id="text_47">
     <!-- $P(B_{4}|\boldsymbol G)$ -->
     <g transform="translate(588.428792 116.169457)rotate(-90)scale(0.14 -0.14)">
      <use transform="translate(0 18.577338)scale(0.996264)" xlink:href="#URW_Palladio_L_Italic-80"/>
      <use transform="translate(63.362352 18.577338)scale(1.038107)" xlink:href="#CMR10-40"/>
      <use transform="translate(108.09463 18.577338)scale(0.996264)" xlink:href="#URW_Palladio_L_Italic-66"/>
      <use transform="translate(167.720961 0)scale(0.757155)" xlink:href="#URW_Palladio_L_Roman-52"/>
      <use transform="translate(207.322151 18.577338)scale(1.038107)" xlink:href="#CMSY10-106"/>
      <use transform="translate(239.601145 18.577338)scale(0.996264)" xlink:href="#URW_Palladio_L_Bold_Italic-71"/>
      <use transform="translate(320.597366 18.577338)scale(1.038107)" xlink:href="#CMR10-41"/>
     </g>
    </g>
   </g>
   <g id="patch_42">
    <path d="M 624.283509 163.735 
L 624.283509 17.64 
" style="fill:none;stroke:#000000;stroke-linecap:square;stroke-linejoin:miter;stroke-width:0.8;"/>
   </g>
   <g id="patch_43">
    <path d="M 702.36 163.735 
L 702.36 17.64 
" style="fill:none;stroke:#000000;stroke-linecap:square;stroke-linejoin:miter;stroke-width:0.8;"/>
   </g>
   <g id="patch_44">
    <path d="M 624.283509 163.735 
L 702.36 163.735 
" style="fill:none;stroke:#000000;stroke-linecap:square;stroke-linejoin:miter;stroke-width:0.8;"/>
   </g>
   <g id="patch_45">
    <path d="M 624.283509 17.64 
L 702.36 17.64 
" style="fill:none;stroke:#000000;stroke-linecap:square;stroke-linejoin:miter;stroke-width:0.8;"/>
   </g>
  </g>
 </g>
 <defs>
  <clipPath id="pde15d32785">
   <rect height="146.095" width="78.076491" x="55.597442" y="17.64"/>
  </clipPath>
  <clipPath id="pf88c1e8272">
   <rect height="146.095" width="78.076491" x="197.768959" y="17.64"/>
  </clipPath>
  <clipPath id="p7ca1013c59">
   <rect height="146.095" width="78.076491" x="339.940475" y="17.64"/>
  </clipPath>
  <clipPath id="pe8668382b9">
   <rect height="146.095" width="78.076491" x="482.111992" y="17.64"/>
  </clipPath>
  <clipPath id="p12cbb519e8">
   <rect height="146.095" width="78.076491" x="624.283509" y="17.64"/>
  </clipPath>
 </defs>
</svg>
