<?xml version="1.0" encoding="utf-8" standalone="no"?>
<!DOCTYPE svg PUBLIC "-//W3C//DTD SVG 1.1//EN"
  "http://www.w3.org/Graphics/SVG/1.1/DTD/svg11.dtd">
<!-- Created with matplotlib (http://matplotlib.org/) -->
<svg height="216pt" version="1.1" viewBox="0 0 288 216" width="288pt" xmlns="http://www.w3.org/2000/svg" xmlns:xlink="http://www.w3.org/1999/xlink">
 <defs>
  <style type="text/css">
*{stroke-linecap:butt;stroke-linejoin:round;}
  </style>
 </defs>
 <g id="figure_1">
  <g id="patch_1">
   <path d="M 0 216 
L 288 216 
L 288 0 
L 0 0 
z
" style="fill:#ffffff;"/>
  </g>
  <g id="axes_1">
   <g id="patch_2">
    <path d="M 57.6 172.8 
L 273.6 172.8 
L 273.6 10.8 
L 57.6 10.8 
z
" style="fill:#ffffff;"/>
   </g>
   <g id="patch_3">
    <path clip-path="url(#p12f927d8c0)" d="M 67.418182 172.8 
L 116.509091 172.8 
L 116.509091 151.087637 
L 67.418182 151.087637 
z
" style="fill:#ccb974;"/>
   </g>
   <g id="patch_4">
    <path clip-path="url(#p12f927d8c0)" d="M 116.509091 172.8 
L 165.6 172.8 
L 165.6 18.514286 
L 116.509091 18.514286 
z
" style="fill:#ccb974;"/>
   </g>
   <g id="patch_5">
    <path clip-path="url(#p12f927d8c0)" d="M 165.6 172.8 
L 214.690909 172.8 
L 214.690909 163.56622 
L 165.6 163.56622 
z
" style="fill:#ccb974;"/>
   </g>
   <g id="patch_6">
    <path clip-path="url(#p12f927d8c0)" d="M 214.690909 172.8 
L 263.781818 172.8 
L 263.781818 172.633124 
L 214.690909 172.633124 
z
" style="fill:#ccb974;"/>
   </g>
   <g id="matplotlib.axis_1">
    <g id="xtick_1">
     <g id="line2d_1">
      <defs>
       <path d="M 0 0 
L 0 3.5 
" id="mca344c3f3d" style="stroke:#000000;stroke-width:0.8;"/>
      </defs>
      <g>
       <use style="stroke:#000000;stroke-width:0.8;" x="91.963636" xlink:href="#mca344c3f3d" y="172.8"/>
      </g>
     </g>
     <g id="text_1">
      <!-- $6$ -->
      <defs>
       <path d="M 41.59375 66.984375 
L 37.90625 68.6875 
C 28.296875 65.515625 24.203125 63.53125 19.09375 59.1875 
C 8.796875 50.578125 3.203125 38.484375 3.203125 24.765625 
C 3.203125 8.21875 11.203125 -2 24.09375 -2 
C 37.09375 -2 46.796875 8.3125 46.796875 21.953125 
C 46.796875 33.484375 39.90625 41 29.296875 41 
C 24.296875 41 21.296875 39.6875 15.40625 34.984375 
C 14.296875 34.09375 14.203125 33.984375 13.09375 33.1875 
C 15.203125 51.171875 23.59375 60.859375 41.59375 66.203125 
z
M 25.5 34.984375 
C 33.09375 34.984375 38.203125 28.375 38.203125 18.4375 
C 38.203125 8.015625 33.09375 1.296875 25.40625 1.296875 
C 16.90625 1.296875 12.296875 8.609375 12.296875 22.046875 
C 12.296875 25.5625 12.703125 27.46875 13.796875 29.171875 
C 16 32.578125 20.703125 34.984375 25.5 34.984375 
z
" id="URW_Palladio_L_Roman-54"/>
      </defs>
      <g transform="translate(88.974844 188.353876)scale(0.12 -0.12)">
       <use transform="scale(0.996264)" xlink:href="#URW_Palladio_L_Roman-54"/>
      </g>
     </g>
    </g>
    <g id="xtick_2">
     <g id="line2d_2">
      <g>
       <use style="stroke:#000000;stroke-width:0.8;" x="141.054545" xlink:href="#mca344c3f3d" y="172.8"/>
      </g>
     </g>
     <g id="text_2">
      <!-- $7$ -->
      <defs>
       <path d="M 5.59375 1.296875 
L 6.5 0 
C 10.40625 0 10.40625 0 11.09375 0 
C 11.796875 0.296875 11.796875 0.296875 15.703125 0 
C 19.90625 10.9375 24.796875 21.390625 31.40625 33.453125 
L 49.703125 66.484375 
L 49.703125 69.5 
C 38.90625 69.09375 35.40625 69 27.296875 69 
C 20 69 15.09375 69.09375 5.40625 69.5 
L 4.40625 69 
C 4.703125 59.484375 4.703125 59.484375 4.703125 58.484375 
C 4.703125 57.375 4.703125 57.375 4.40625 48.234375 
L 7.40625 48.234375 
L 8.09375 53.859375 
C 8.90625 60.09375 9.59375 60.890625 14.203125 60.890625 
L 40.90625 60.890625 
C 36.90625 52.65625 33.796875 46.8125 30 40.6875 
z
" id="URW_Palladio_L_Roman-55"/>
      </defs>
      <g transform="translate(138.065753 188.353876)scale(0.12 -0.12)">
       <use transform="scale(0.996264)" xlink:href="#URW_Palladio_L_Roman-55"/>
      </g>
     </g>
    </g>
    <g id="xtick_3">
     <g id="line2d_3">
      <g>
       <use style="stroke:#000000;stroke-width:0.8;" x="190.145455" xlink:href="#mca344c3f3d" y="172.8"/>
      </g>
     </g>
     <g id="text_3">
      <!-- $8$ -->
      <defs>
       <path d="M 16.796875 34.546875 
C 12.703125 32.640625 11 31.546875 8.796875 29.4375 
C 5 25.625 3 21.125 3 15.921875 
C 3 5.59375 11.296875 -2 22.59375 -2 
C 35.59375 -2 46.40625 8.203125 46.40625 20.625 
C 46.40625 28.640625 42.703125 32.9375 31.296875 38.15625 
C 40.40625 44.359375 43.59375 48.5625 43.59375 54.578125 
C 43.59375 63.1875 36.5 69 25.90625 69 
C 14 69 5.296875 61.390625 5.296875 50.875 
C 5.296875 44.0625 8 40.25 16.796875 34.546875 
z
M 28.40625 29.53125 
C 34.703125 26.734375 38.5 21.828125 38.5 16.421875 
C 38.5 8 32.203125 1.390625 24.09375 1.390625 
C 15.59375 1.390625 10.09375 7.40625 10.09375 16.71875 
C 10.09375 24.03125 13 28.640625 20.40625 33.140625 
z
M 22.296875 42.359375 
C 16 45.46875 12.796875 49.46875 12.796875 54.46875 
C 12.796875 61.09375 17.59375 65.59375 24.703125 65.59375 
C 32 65.59375 36.796875 60.78125 36.796875 53.46875 
C 36.796875 47.765625 34.296875 43.859375 27.796875 39.65625 
z
" id="URW_Palladio_L_Roman-56"/>
      </defs>
      <g transform="translate(187.156663 188.353876)scale(0.12 -0.12)">
       <use transform="scale(0.996264)" xlink:href="#URW_Palladio_L_Roman-56"/>
      </g>
     </g>
    </g>
    <g id="xtick_4">
     <g id="line2d_4">
      <g>
       <use style="stroke:#000000;stroke-width:0.8;" x="239.236364" xlink:href="#mca344c3f3d" y="172.8"/>
      </g>
     </g>
     <g id="text_4">
      <!-- $9$ -->
      <defs>
       <path d="M 9.59375 -2 
C 20.703125 1.609375 25.5 3.9375 30.90625 8.59375 
C 40.59375 16.984375 45.703125 28.59375 45.703125 41.9375 
C 45.703125 58.734375 37.59375 69 24.40625 69 
C 11.59375 69 2 59.03125 2 45.703125 
C 2 34.28125 9.5 25.890625 19.90625 25.890625 
C 23.296875 25.890625 27.203125 26.984375 29 28.484375 
L 36 34.28125 
C 35.203125 17.390625 24.296875 4.953125 6.203125 0.5 
L 6.203125 -0.3125 
z
M 24 65.6875 
C 28.5 65.6875 31.796875 63.796875 34 59.828125 
C 35.796875 56.640625 37 51.78125 37 47.296875 
C 37 38.15625 31.703125 32 24 32 
C 16 32 10.59375 39.046875 10.59375 49.390625 
C 10.59375 59.421875 15.796875 65.6875 24 65.6875 
z
" id="URW_Palladio_L_Roman-57"/>
      </defs>
      <g transform="translate(236.247572 188.353876)scale(0.12 -0.12)">
       <use transform="scale(0.996264)" xlink:href="#URW_Palladio_L_Roman-57"/>
      </g>
     </g>
    </g>
    <g id="text_5">
     <!-- $B$ -->
     <defs>
      <path d="M 9.703125 66.390625 
L 15 66.203125 
C 17.40625 66.09375 18.5 65.296875 18.5 63.5 
C 18.5 62.09375 18.09375 58.890625 17.59375 55.890625 
L 8.90625 5.5 
C 8.5 3.6875 7.296875 3 3.09375 2.296875 
L 2.59375 -0.3125 
L 6.296875 -0.203125 
C 9 0 10.5 0 11.703125 0 
C 12.796875 0 15.40625 -0.109375 18 -0.203125 
L 21.703125 -0.3125 
L 23.703125 -0.40625 
C 25.59375 -0.90625 26.90625 -1 27.703125 -1 
C 32.5 -1 37.296875 0.390625 42 3.1875 
C 49.90625 7.90625 54.296875 14.734375 54.296875 22.359375 
C 54.296875 26.671875 52.90625 29.984375 50.203125 32.1875 
C 47.59375 34.296875 44.59375 35.203125 37.703125 36.203125 
C 43.40625 38.203125 45.90625 39.40625 49 42.21875 
C 53.59375 46.140625 55.90625 50.84375 55.90625 55.96875 
C 55.90625 64.1875 50.09375 69 40.09375 69 
C 39.90625 69 38.90625 69 37.40625 68.890625 
L 31.09375 68.796875 
C 29.90625 68.6875 26.296875 68.6875 25.09375 68.6875 
C 23.203125 68.6875 20.09375 68.796875 15.203125 68.890625 
L 10 69 
z
M 21.703125 34 
L 30.203125 34 
C 40.5 34 45.5 29.734375 45.5 20.921875 
C 45.5 10.484375 38.203125 3 28.203125 3 
C 26.203125 3 23.296875 3.09375 20 3.390625 
C 19.40625 3.5 18.203125 3.59375 16.59375 3.703125 
z
M 27.203125 64.796875 
C 28.296875 64.796875 28.5 64.890625 30.59375 65 
C 32.703125 65.1875 34 65.296875 35.203125 65.296875 
C 43.296875 65.296875 47.296875 61.71875 47.296875 54.265625 
C 47.296875 43.84375 39.90625 37.59375 27.5 37.59375 
L 22.296875 37.59375 
z
" id="URW_Palladio_L_Italic-66"/>
     </defs>
     <g transform="translate(161.338986 205.704689)scale(0.14 -0.14)">
      <use transform="scale(0.996264)" xlink:href="#URW_Palladio_L_Italic-66"/>
     </g>
    </g>
   </g>
   <g id="matplotlib.axis_2">
    <g id="ytick_1">
     <g id="line2d_5">
      <defs>
       <path d="M 0 0 
L -3.5 0 
" id="ma39e7b2160" style="stroke:#000000;stroke-width:0.8;"/>
      </defs>
      <g>
       <use style="stroke:#000000;stroke-width:0.8;" x="57.6" xlink:href="#ma39e7b2160" y="172.8"/>
      </g>
     </g>
     <g id="text_6">
      <!-- $0.0$ -->
      <defs>
       <path d="M 26.296875 69 
C 10.796875 69 2.90625 56.6875 2.90625 32.4375 
C 2.90625 20.71875 5 10.609375 8.5 5.703125 
C 12 0.796875 17.59375 -2 23.796875 -2 
C 38.90625 -2 46.5 11 46.5 36.640625 
C 46.5 58.578125 40 69 26.296875 69 
z
M 24.5 65.484375 
C 34.203125 65.484375 38.09375 55.671875 38.09375 31.640625 
C 38.09375 10.3125 34.296875 1.5 25.09375 1.5 
C 15.40625 1.5 11.296875 11.609375 11.296875 36.046875 
C 11.296875 57.1875 15 65.484375 24.5 65.484375 
z
" id="URW_Palladio_L_Roman-48"/>
       <path d="M 12.40625 10.59375 
C 9.40625 10.59375 6.703125 7.796875 6.703125 4.796875 
C 6.703125 1.796875 9.40625 -1 12.296875 -1 
C 15.5 -1 18.296875 1.6875 18.296875 4.796875 
C 18.296875 7.796875 15.5 10.59375 12.40625 10.59375 
z
" id="URW_Palladio_L_Roman-46"/>
      </defs>
      <g transform="translate(35.65604 177.076938)scale(0.12 -0.12)">
       <use transform="scale(0.996264)" xlink:href="#URW_Palladio_L_Roman-48"/>
       <use transform="translate(49.8132 0)scale(0.996264)" xlink:href="#URW_Palladio_L_Roman-46"/>
       <use transform="translate(74.719801 0)scale(0.996264)" xlink:href="#URW_Palladio_L_Roman-48"/>
      </g>
     </g>
    </g>
    <g id="ytick_2">
     <g id="line2d_6">
      <g>
       <use style="stroke:#000000;stroke-width:0.8;" x="57.6" xlink:href="#ma39e7b2160" y="135.720253"/>
      </g>
     </g>
     <g id="text_7">
      <!-- $0.2$ -->
      <defs>
       <path d="M 1.59375 2.59375 
L 1.59375 0 
C 20.296875 0 20.296875 0 23.90625 0 
C 27.5 0.296875 27.5 0.296875 46.796875 0 
C 46.59375 2.09375 46.59375 3.09375 46.59375 4.484375 
C 46.59375 5.78125 46.59375 6.78125 46.796875 8.96875 
C 35.296875 8.46875 30.703125 8.375 12.203125 7.96875 
L 30.40625 27.203125 
C 40.09375 37.46875 43.09375 42.953125 43.09375 50.4375 
C 43.09375 61.890625 35.296875 69 22.59375 69 
C 15.40625 69 10.5 66.984375 5.59375 61.984375 
L 3.90625 48.4375 
L 6.796875 48.4375 
L 8.09375 53.03125 
C 9.703125 58.796875 13.296875 61.296875 20 61.296875 
C 28.59375 61.296875 34.09375 55.90625 34.09375 47.4375 
C 34.09375 39.96875 29.90625 32.59375 18.59375 20.625 
z
" id="URW_Palladio_L_Roman-50"/>
      </defs>
      <g transform="translate(35.65604 139.997191)scale(0.12 -0.12)">
       <use transform="scale(0.996264)" xlink:href="#URW_Palladio_L_Roman-48"/>
       <use transform="translate(49.8132 0)scale(0.996264)" xlink:href="#URW_Palladio_L_Roman-46"/>
       <use transform="translate(74.719801 0)scale(0.996264)" xlink:href="#URW_Palladio_L_Roman-50"/>
      </g>
     </g>
    </g>
    <g id="ytick_3">
     <g id="line2d_7">
      <g>
       <use style="stroke:#000000;stroke-width:0.8;" x="57.6" xlink:href="#ma39e7b2160" y="98.640507"/>
      </g>
     </g>
     <g id="text_8">
      <!-- $0.4$ -->
      <defs>
       <path d="M 28 18 
L 28 10.6875 
C 28 4.84375 26.90625 3.484375 22 3.28125 
L 15.796875 3 
L 15.796875 0 
C 29.09375 0 29.09375 0 31.5 0 
C 33.90625 0.296875 33.90625 0.296875 47.203125 0 
L 47.203125 3 
L 42.40625 3.28125 
C 37.5 3.578125 36.40625 4.84375 36.40625 10.6875 
L 36.40625 18 
C 42.296875 18 44.40625 17.890625 47.203125 17.609375 
L 47.203125 24.6875 
C 42.5 24.296875 40.59375 24.296875 39.09375 24.390625 
L 38.796875 24.390625 
L 36.40625 24.390625 
L 36.40625 38.203125 
C 36.40625 55.875 36.59375 64.40625 37.09375 68.484375 
L 35.90625 69 
L 28.5 66.296875 
L 0.203125 20.296875 
L 1.296875 18 
z
M 28 24.390625 
L 6.5 24.390625 
L 28 59.34375 
z
" id="URW_Palladio_L_Roman-52"/>
      </defs>
      <g transform="translate(35.65604 102.917445)scale(0.12 -0.12)">
       <use transform="scale(0.996264)" xlink:href="#URW_Palladio_L_Roman-48"/>
       <use transform="translate(49.8132 0)scale(0.996264)" xlink:href="#URW_Palladio_L_Roman-46"/>
       <use transform="translate(74.719801 0)scale(0.996264)" xlink:href="#URW_Palladio_L_Roman-52"/>
      </g>
     </g>
    </g>
    <g id="ytick_4">
     <g id="line2d_8">
      <g>
       <use style="stroke:#000000;stroke-width:0.8;" x="57.6" xlink:href="#ma39e7b2160" y="61.56076"/>
      </g>
     </g>
     <g id="text_9">
      <!-- $0.6$ -->
      <g transform="translate(35.65604 65.837698)scale(0.12 -0.12)">
       <use transform="scale(0.996264)" xlink:href="#URW_Palladio_L_Roman-48"/>
       <use transform="translate(49.8132 0)scale(0.996264)" xlink:href="#URW_Palladio_L_Roman-46"/>
       <use transform="translate(74.719801 0)scale(0.996264)" xlink:href="#URW_Palladio_L_Roman-54"/>
      </g>
     </g>
    </g>
    <g id="ytick_5">
     <g id="line2d_9">
      <g>
       <use style="stroke:#000000;stroke-width:0.8;" x="57.6" xlink:href="#ma39e7b2160" y="24.481014"/>
      </g>
     </g>
     <g id="text_10">
      <!-- $0.8$ -->
      <g transform="translate(35.65604 28.757951)scale(0.12 -0.12)">
       <use transform="scale(0.996264)" xlink:href="#URW_Palladio_L_Roman-48"/>
       <use transform="translate(49.8132 0)scale(0.996264)" xlink:href="#URW_Palladio_L_Roman-46"/>
       <use transform="translate(74.719801 0)scale(0.996264)" xlink:href="#URW_Palladio_L_Roman-56"/>
      </g>
     </g>
    </g>
    <g id="text_11">
     <!-- $P(B|\boldsymbol G)$ -->
     <defs>
      <path d="M 10.5 66.703125 
L 16 66.5 
C 18.40625 66.390625 19.5 65.59375 19.5 63.796875 
C 19.5 62.390625 19.09375 59.296875 18.59375 56.203125 
L 11.203125 12.796875 
C 9.5 3.6875 9.40625 3.390625 5.40625 3.09375 
L 1.296875 2.796875 
L 0.90625 0 
L 5.09375 0.09375 
C 9.203125 -0.109375 12.296875 0 14.09375 0 
C 15.796875 0 18.703125 -0.109375 22.703125 -0.203125 
L 28 0 
L 28.296875 2.796875 
L 21.796875 3.09375 
C 19.203125 3.1875 18.203125 3.984375 18.203125 6.078125 
C 18.203125 6.96875 18.296875 7.671875 18.59375 9.5625 
L 26.796875 57.890625 
C 26.796875 58 27.203125 59.96875 27.703125 61.84375 
C 27.796875 62.34375 28.09375 63.328125 28.40625 64.625 
C 32 65.203125 33.59375 65.40625 35.5 65.40625 
C 45.703125 65.40625 50.59375 61.0625 50.59375 51.859375 
C 50.59375 41.1875 43.40625 32.5 34.59375 32.5 
C 32.40625 32.5 30.40625 32.984375 26.703125 34.375 
L 26.90625 31.296875 
C 30.59375 29.5 32.59375 29 35.5 29 
C 48.40625 29 59.40625 40.59375 59.40625 54.046875 
C 59.40625 64.03125 53.09375 69.296875 41.203125 69 
L 27.40625 68.6875 
L 16.09375 68.890625 
L 10.796875 69 
z
" id="URW_Palladio_L_Italic-80"/>
      <path d="M 33.09375 -24 
C 33.09375 -23.703125 33.09375 -23.5 31.40625 -21.8125 
C 18.90625 -9.203125 15.703125 9.6875 15.703125 25 
C 15.703125 42.390625 19.5 59.796875 31.796875 72.296875 
C 33.09375 73.5 33.09375 73.6875 33.09375 74 
C 33.09375 74.6875 32.703125 75 32.09375 75 
C 31.09375 75 22.09375 68.203125 16.203125 55.5 
C 11.09375 44.5 9.90625 33.390625 9.90625 25 
C 9.90625 17.1875 11 5.09375 16.5 -6.203125 
C 22.5 -18.5 31.09375 -25 32.09375 -25 
C 32.703125 -25 33.09375 -24.703125 33.09375 -24 
z
" id="CMR10-40"/>
      <path d="M 15.90625 71.390625 
C 15.90625 73.1875 15.90625 75 13.90625 75 
C 11.90625 75 11.90625 73.1875 11.90625 71.390625 
L 11.90625 -21.40625 
C 11.90625 -23.203125 11.90625 -25 13.90625 -25 
C 15.90625 -25 15.90625 -23.203125 15.90625 -21.40625 
z
" id="CMSY10-106"/>
      <path d="M 51.703125 5.625 
C 48.296875 3.703125 44.296875 2.6875 39.59375 2.6875 
C 27.59375 2.6875 21 10.90625 21 25.890625 
C 21 39.671875 25.296875 52.953125 31.59375 58.421875 
C 35.40625 61.765625 41.796875 63.796875 48.203125 63.796875 
C 57.40625 63.796875 65.40625 60.953125 65.40625 57.8125 
C 65.40625 57.609375 65.40625 57.203125 65.296875 56.59375 
L 64.90625 48.6875 
L 68.40625 48.6875 
C 68.90625 53.453125 69.59375 56.390625 72.203125 65.6875 
C 65.296875 68.796875 59.59375 70 52.296875 70 
C 46.59375 70 41.09375 68.890625 35.203125 66.59375 
C 17.703125 59.640625 7.203125 44.234375 7.203125 25.59375 
C 7.203125 16.875 9.40625 10.296875 14 5.734375 
C 19.09375 0.59375 26.90625 -2 36.796875 -2 
C 45.203125 -2 50.796875 -0.703125 65.203125 4.515625 
L 64.90625 6.140625 
C 64.90625 7.453125 65.09375 8.875 65.5 10.796875 
L 67.5 20.53125 
C 68.296875 23.765625 69.296875 24.78125 72 25.078125 
L 74.5 25.28125 
L 75 28.625 
C 62.796875 28.328125 62.796875 28.328125 60.203125 28.328125 
C 57.796875 28.328125 57.796875 28.328125 45.296875 28.625 
L 44.796875 25.28125 
L 50.796875 25.078125 
C 54 24.984375 55.203125 24.171875 55.203125 22.25 
C 55.203125 21.640625 55.09375 20.734375 54.90625 19.921875 
z
" id="URW_Palladio_L_Bold_Italic-71"/>
      <path d="M 28.90625 25 
C 28.90625 32.796875 27.796875 44.890625 22.296875 56.203125 
C 16.296875 68.5 7.703125 75 6.703125 75 
C 6.09375 75 5.703125 74.59375 5.703125 74 
C 5.703125 73.6875 5.703125 73.5 7.59375 71.703125 
C 17.40625 61.796875 23.09375 45.890625 23.09375 25 
C 23.09375 7.890625 19.40625 -9.703125 7 -22.3125 
C 5.703125 -23.5 5.703125 -23.703125 5.703125 -24 
C 5.703125 -24.609375 6.09375 -25 6.703125 -25 
C 7.703125 -25 16.703125 -18.203125 22.59375 -5.5 
C 27.703125 5.5 28.90625 16.59375 28.90625 25 
z
" id="CMR10-41"/>
     </defs>
     <g transform="translate(27.722867 114.55719)rotate(-90)scale(0.14 -0.14)">
      <use transform="scale(0.996264)" xlink:href="#URW_Palladio_L_Italic-80"/>
      <use transform="translate(63.362352 0)scale(1.038107)" xlink:href="#CMR10-40"/>
      <use transform="translate(108.09463 0)scale(0.996264)" xlink:href="#URW_Palladio_L_Italic-66"/>
      <use transform="translate(171.456875 0)scale(1.038107)" xlink:href="#CMSY10-106"/>
      <use transform="translate(203.735868 0)scale(0.996264)" xlink:href="#URW_Palladio_L_Bold_Italic-71"/>
      <use transform="translate(284.73209 0)scale(1.038107)" xlink:href="#CMR10-41"/>
     </g>
    </g>
   </g>
   <g id="patch_7">
    <path d="M 57.6 172.8 
L 57.6 10.8 
" style="fill:none;stroke:#000000;stroke-linecap:square;stroke-linejoin:miter;stroke-width:0.8;"/>
   </g>
   <g id="patch_8">
    <path d="M 273.6 172.8 
L 273.6 10.8 
" style="fill:none;stroke:#000000;stroke-linecap:square;stroke-linejoin:miter;stroke-width:0.8;"/>
   </g>
   <g id="patch_9">
    <path d="M 57.6 172.8 
L 273.6 172.8 
" style="fill:none;stroke:#000000;stroke-linecap:square;stroke-linejoin:miter;stroke-width:0.8;"/>
   </g>
   <g id="patch_10">
    <path d="M 57.6 10.8 
L 273.6 10.8 
" style="fill:none;stroke:#000000;stroke-linecap:square;stroke-linejoin:miter;stroke-width:0.8;"/>
   </g>
  </g>
 </g>
 <defs>
  <clipPath id="p12f927d8c0">
   <rect height="162" width="216" x="57.6" y="10.8"/>
  </clipPath>
 </defs>
</svg>
