<?xml version="1.0" encoding="utf-8" standalone="no"?>
<!DOCTYPE svg PUBLIC "-//W3C//DTD SVG 1.1//EN"
  "http://www.w3.org/Graphics/SVG/1.1/DTD/svg11.dtd">
<!-- Created with matplotlib (http://matplotlib.org/) -->
<svg height="216pt" version="1.1" viewBox="0 0 288 216" width="288pt" xmlns="http://www.w3.org/2000/svg" xmlns:xlink="http://www.w3.org/1999/xlink">
 <defs>
  <style type="text/css">
*{stroke-linecap:butt;stroke-linejoin:round;}
  </style>
 </defs>
 <g id="figure_1">
  <g id="patch_1">
   <path d="M 0 216 
L 288 216 
L 288 0 
L 0 0 
z
" style="fill:#ffffff;"/>
  </g>
  <g id="axes_1">
   <g id="patch_2">
    <path d="M 57.6 172.8 
L 273.6 172.8 
L 273.6 10.8 
L 57.6 10.8 
z
" style="fill:#ffffff;"/>
   </g>
   <g id="matplotlib.axis_1">
    <g id="xtick_1">
     <g id="line2d_1">
      <defs>
       <path d="M 0 0 
L 0 3.5 
" id="mafff9417a3" style="stroke:#000000;stroke-width:0.8;"/>
      </defs>
      <g>
       <use style="stroke:#000000;stroke-width:0.8;" x="67.418182" xlink:href="#mafff9417a3" y="172.8"/>
      </g>
     </g>
     <g id="text_1">
      <!-- $0$ -->
      <defs>
       <path d="M 26.296875 69 
C 10.796875 69 2.90625 56.6875 2.90625 32.4375 
C 2.90625 20.71875 5 10.609375 8.5 5.703125 
C 12 0.796875 17.59375 -2 23.796875 -2 
C 38.90625 -2 46.5 11 46.5 36.640625 
C 46.5 58.578125 40 69 26.296875 69 
z
M 24.5 65.484375 
C 34.203125 65.484375 38.09375 55.671875 38.09375 31.640625 
C 38.09375 10.3125 34.296875 1.5 25.09375 1.5 
C 15.40625 1.5 11.296875 11.609375 11.296875 36.046875 
C 11.296875 57.1875 15 65.484375 24.5 65.484375 
z
" id="URW_Palladio_L_Roman-48"/>
      </defs>
      <g transform="translate(64.42939 188.353876)scale(0.12 -0.12)">
       <use transform="scale(0.996264)" xlink:href="#URW_Palladio_L_Roman-48"/>
      </g>
     </g>
    </g>
    <g id="xtick_2">
     <g id="line2d_2">
      <g>
       <use style="stroke:#000000;stroke-width:0.8;" x="116.514" xlink:href="#mafff9417a3" y="172.8"/>
      </g>
     </g>
     <g id="text_2">
      <!-- $2500$ -->
      <defs>
       <path d="M 1.59375 2.59375 
L 1.59375 0 
C 20.296875 0 20.296875 0 23.90625 0 
C 27.5 0.296875 27.5 0.296875 46.796875 0 
C 46.59375 2.09375 46.59375 3.09375 46.59375 4.484375 
C 46.59375 5.78125 46.59375 6.78125 46.796875 8.96875 
C 35.296875 8.46875 30.703125 8.375 12.203125 7.96875 
L 30.40625 27.203125 
C 40.09375 37.46875 43.09375 42.953125 43.09375 50.4375 
C 43.09375 61.890625 35.296875 69 22.59375 69 
C 15.40625 69 10.5 66.984375 5.59375 61.984375 
L 3.90625 48.4375 
L 6.796875 48.4375 
L 8.09375 53.03125 
C 9.703125 58.796875 13.296875 61.296875 20 61.296875 
C 28.59375 61.296875 34.09375 55.90625 34.09375 47.4375 
C 34.09375 39.96875 29.90625 32.59375 18.59375 20.625 
z
" id="URW_Palladio_L_Roman-50"/>
       <path d="M 12.703125 60.796875 
C 25.59375 60.390625 31.203125 60.296875 43.203125 60.296875 
L 43.703125 60.796875 
C 43.5 62.59375 43.5 63.390625 43.5 64.6875 
C 43.5 66.09375 43.5 66.890625 43.703125 68.6875 
L 43.203125 69.1875 
C 35.703125 68.796875 31.203125 68.6875 25.796875 68.6875 
C 20.296875 68.6875 15.90625 68.796875 8.40625 69.1875 
L 7.90625 68.6875 
C 8 62.59375 8.09375 58.1875 8.09375 55 
C 8.09375 46.5 7.796875 36.875 7.5 32.4375 
L 9.5 31.84375 
C 14.203125 36.578125 16.90625 38 21.796875 38 
C 31.40625 38 37.40625 31.125 37.40625 20.234375 
C 37.40625 9.046875 31 2.5 20.09375 2.5 
C 14.703125 2.5 9.703125 4.3125 8.296875 6.921875 
L 3.703125 15.203125 
L 1.296875 13.78125 
C 3.59375 8.03125 4.796875 4.8125 6.203125 0.390625 
C 9 -1.109375 13 -2 17.296875 -2 
C 24 -2 31.09375 0.890625 36.59375 5.71875 
C 42.703125 11.171875 45.90625 18.015625 45.90625 25.484375 
C 45.90625 36.875 37.796875 44.890625 26.40625 44.890625 
C 21.59375 44.890625 18 43.59375 11.796875 39.890625 
z
" id="URW_Palladio_L_Roman-53"/>
      </defs>
      <g transform="translate(104.558832 188.353876)scale(0.12 -0.12)">
       <use transform="scale(0.996264)" xlink:href="#URW_Palladio_L_Roman-50"/>
       <use transform="translate(49.8132 0)scale(0.996264)" xlink:href="#URW_Palladio_L_Roman-53"/>
       <use transform="translate(99.626401 0)scale(0.996264)" xlink:href="#URW_Palladio_L_Roman-48"/>
       <use transform="translate(149.439601 0)scale(0.996264)" xlink:href="#URW_Palladio_L_Roman-48"/>
      </g>
     </g>
    </g>
    <g id="xtick_3">
     <g id="line2d_3">
      <g>
       <use style="stroke:#000000;stroke-width:0.8;" x="165.609819" xlink:href="#mafff9417a3" y="172.8"/>
      </g>
     </g>
     <g id="text_3">
      <!-- $5000$ -->
      <g transform="translate(153.654651 188.353876)scale(0.12 -0.12)">
       <use transform="scale(0.996264)" xlink:href="#URW_Palladio_L_Roman-53"/>
       <use transform="translate(49.8132 0)scale(0.996264)" xlink:href="#URW_Palladio_L_Roman-48"/>
       <use transform="translate(99.626401 0)scale(0.996264)" xlink:href="#URW_Palladio_L_Roman-48"/>
       <use transform="translate(149.439601 0)scale(0.996264)" xlink:href="#URW_Palladio_L_Roman-48"/>
      </g>
     </g>
    </g>
    <g id="xtick_4">
     <g id="line2d_4">
      <g>
       <use style="stroke:#000000;stroke-width:0.8;" x="214.705638" xlink:href="#mafff9417a3" y="172.8"/>
      </g>
     </g>
     <g id="text_4">
      <!-- $7500$ -->
      <defs>
       <path d="M 5.59375 1.296875 
L 6.5 0 
C 10.40625 0 10.40625 0 11.09375 0 
C 11.796875 0.296875 11.796875 0.296875 15.703125 0 
C 19.90625 10.9375 24.796875 21.390625 31.40625 33.453125 
L 49.703125 66.484375 
L 49.703125 69.5 
C 38.90625 69.09375 35.40625 69 27.296875 69 
C 20 69 15.09375 69.09375 5.40625 69.5 
L 4.40625 69 
C 4.703125 59.484375 4.703125 59.484375 4.703125 58.484375 
C 4.703125 57.375 4.703125 57.375 4.40625 48.234375 
L 7.40625 48.234375 
L 8.09375 53.859375 
C 8.90625 60.09375 9.59375 60.890625 14.203125 60.890625 
L 40.90625 60.890625 
C 36.90625 52.65625 33.796875 46.8125 30 40.6875 
z
" id="URW_Palladio_L_Roman-55"/>
      </defs>
      <g transform="translate(202.75047 188.353876)scale(0.12 -0.12)">
       <use transform="scale(0.996264)" xlink:href="#URW_Palladio_L_Roman-55"/>
       <use transform="translate(49.8132 0)scale(0.996264)" xlink:href="#URW_Palladio_L_Roman-53"/>
       <use transform="translate(99.626401 0)scale(0.996264)" xlink:href="#URW_Palladio_L_Roman-48"/>
       <use transform="translate(149.439601 0)scale(0.996264)" xlink:href="#URW_Palladio_L_Roman-48"/>
      </g>
     </g>
    </g>
    <g id="xtick_5">
     <g id="line2d_5">
      <g>
       <use style="stroke:#000000;stroke-width:0.8;" x="263.801457" xlink:href="#mafff9417a3" y="172.8"/>
      </g>
     </g>
     <g id="text_5">
      <!-- $10000$ -->
      <defs>
       <path d="M 6.703125 55.796875 
L 7.703125 55.796875 
L 20.59375 61.59375 
C 20.703125 61.703125 20.796875 61.703125 20.90625 61.703125 
C 21.5 61.703125 21.703125 60.796875 21.703125 58.390625 
L 21.703125 9.890625 
C 21.703125 4.6875 20.59375 3.59375 15.203125 3.296875 
L 9.59375 3 
L 9.59375 0 
C 25 0 25 0 26.09375 0 
C 27.40625 0 29.59375 0 33 -0.109375 
C 34.203125 0.09375 37.703125 0.09375 41.796875 0 
L 41.796875 3 
L 36.59375 3.296875 
C 31.09375 3.578125 30.09375 4.671875 30.09375 9.8125 
L 30.09375 68.484375 
L 28.703125 69 
C 22.203125 65.609375 15.09375 62.640625 6 59.484375 
z
" id="URW_Palladio_L_Roman-49"/>
      </defs>
      <g transform="translate(248.857496 188.353876)scale(0.12 -0.12)">
       <use transform="scale(0.996264)" xlink:href="#URW_Palladio_L_Roman-49"/>
       <use transform="translate(49.8132 0)scale(0.996264)" xlink:href="#URW_Palladio_L_Roman-48"/>
       <use transform="translate(99.626401 0)scale(0.996264)" xlink:href="#URW_Palladio_L_Roman-48"/>
       <use transform="translate(149.439601 0)scale(0.996264)" xlink:href="#URW_Palladio_L_Roman-48"/>
       <use transform="translate(199.252802 0)scale(0.996264)" xlink:href="#URW_Palladio_L_Roman-48"/>
      </g>
     </g>
    </g>
    <g id="text_6">
     <!-- Vertices remaining -->
     <defs>
      <path d="M 27.40625 66 
L 27.40625 69 
C 16.40625 68.6875 16.40625 68.6875 14.09375 68.6875 
C 11.796875 68.6875 11.796875 68.6875 0.796875 69 
L 0.796875 66 
L 4.40625 65.703125 
C 6.5 65.5 7.5 64.59375 8.796875 61.609375 
L 27.59375 15.46875 
C 30.703125 7.875 31.90625 4.390625 33.40625 -1 
L 38.40625 -1 
C 40.296875 5.1875 41.5 8.484375 44.796875 16.46875 
L 62.203125 58.515625 
C 64.5 63.90625 65.59375 65.390625 67.59375 65.703125 
L 70.59375 66 
L 70.59375 69 
L 59.796875 68.6875 
C 58 68.6875 55.703125 68.796875 52.796875 68.890625 
C 52.296875 68.890625 50.59375 68.890625 49 69 
L 49 66 
L 54.203125 65.703125 
C 56.40625 65.59375 57.703125 64.59375 57.703125 63.09375 
C 57.703125 62.109375 57.40625 60.703125 56.796875 59.203125 
L 38.5 11.96875 
L 18.796875 62.609375 
C 18.703125 63 18.59375 63.296875 18.59375 63.703125 
C 18.59375 64.90625 19.796875 65.59375 21.796875 65.703125 
z
" id="URW_Palladio_L_Roman-86"/>
      <path d="M 43.703125 6.984375 
L 42.40625 7.984375 
C 36 4.1875 33.703125 3.296875 29.40625 3.296875 
C 22.90625 3.296875 17.5 6.1875 14.703125 11.09375 
C 12.796875 14.390625 12.09375 17.1875 11.90625 23 
L 26.5 23 
C 33.40625 23 37.703125 23.296875 44.59375 24.390625 
C 44.703125 25.796875 44.796875 26.6875 44.796875 27.90625 
C 44.796875 39.46875 37.40625 47 26.203125 47 
C 22.5 47 18.203125 45.6875 14.09375 43.296875 
C 5.90625 38.5625 2.59375 32.328125 2.59375 21.890625 
C 2.59375 15.59375 4.09375 10.1875 6.796875 6.390625 
C 10.796875 1.09375 17.5 -2 25 -2 
C 28.703125 -2 32.40625 -1.203125 36.5 0.59375 
C 39.203125 1.6875 41.296875 3 41.703125 3.59375 
z
M 35.90625 26.6875 
C 30.703125 26.5 28.296875 26.390625 24.703125 26.390625 
C 20.09375 26.390625 17.5 26.5 12.09375 27 
C 12.09375 31.71875 12.5 33.9375 13.796875 36.546875 
C 15.90625 40.984375 20.203125 43.6875 25 43.6875 
C 28.296875 43.6875 30.90625 42.390625 32.703125 39.671875 
C 34.90625 36.34375 35.59375 33.4375 35.90625 26.6875 
z
" id="URW_Palladio_L_Roman-101"/>
      <path d="M 2.296875 40.296875 
L 6 40.296875 
C 10 40.296875 10.40625 39.59375 10.40625 33 
L 10.40625 10.5 
C 10.40625 4.1875 10.09375 3.5 6.703125 3.296875 
L 2.09375 3 
L 2.09375 0 
C 9.296875 -0.109375 11.90625 0 14.40625 0 
C 16.40625 0.296875 16.40625 0.296875 28.703125 0 
L 28.703125 3 
L 23.5 3.296875 
C 19 3.59375 18.796875 3.890625 18.796875 10.453125 
L 18.796875 27.546875 
C 18.796875 33.515625 22.796875 38.484375 27.703125 38.484375 
C 30.703125 38.484375 32.796875 37.09375 34.40625 33.921875 
L 36.5 33.921875 
L 37.40625 45.890625 
C 36.296875 46.59375 34.5 47 32.703125 47 
C 29.703125 47 26.5 45.390625 24.40625 42.890625 
L 18.796875 36.3125 
L 18.796875 46.59375 
L 17.90625 47 
C 12.796875 44.890625 7.59375 43.484375 2.296875 42.890625 
z
" id="URW_Palladio_L_Roman-114"/>
      <path d="M 9.796875 38.390625 
L 9.796875 9.59375 
C 9.796875 2.1875 13.09375 -1 20.796875 -1 
C 23.09375 -1 25.5 -0.5 26.09375 0.1875 
L 30.90625 5.5 
L 29.59375 7.1875 
C 27.09375 5.796875 25.59375 5.296875 23.703125 5.296875 
C 19.796875 5.296875 18.203125 7.296875 18.203125 12.1875 
L 18.203125 38.390625 
L 31 38.390625 
L 31.90625 43.796875 
L 18.203125 43.1875 
L 18.203125 47 
C 18.203125 51.203125 18.5 54.796875 19.296875 61.203125 
L 18.09375 62.296875 
C 15.703125 60.796875 12.703125 59.5 9.59375 58.5 
C 9.90625 55.5 10 53.59375 10 50.59375 
L 10 43.59375 
L 2.203125 40.09375 
L 2.203125 38 
z
" id="URW_Palladio_L_Roman-116"/>
      <path d="M 18.796875 46.59375 
L 17.90625 47 
C 12.796875 44.890625 7.59375 43.5 2.296875 42.90625 
L 2.296875 40.125 
L 6 40.125 
C 10 40.125 10.40625 39.421875 10.40625 32.859375 
L 10.40625 10.453125 
C 10.40625 4.1875 10.09375 3.484375 6.703125 3.296875 
L 2.09375 3 
L 2.09375 0 
C 12.09375 0 12.09375 0 14.59375 0 
C 17.09375 0.296875 17.09375 0.296875 27.09375 0 
L 27.09375 3 
L 22.5 3.296875 
C 19.09375 3.5 18.796875 4.1875 18.796875 10.484375 
z
M 14.203125 69 
C 11.203125 69 8.59375 66.390625 8.59375 63.390625 
C 8.59375 60.484375 11.203125 57.890625 14.09375 57.890625 
C 17 57.890625 19.703125 60.484375 19.703125 63.390625 
C 19.703125 66.1875 17 69 14.203125 69 
z
" id="URW_Palladio_L_Roman-105"/>
      <path d="M 39.90625 31.171875 
C 39.90625 35.78125 40.40625 39.890625 41.296875 43.484375 
C 37.296875 45.890625 33.796875 47 29.703125 47 
C 24.90625 47 19.296875 45.09375 13.296875 41.296875 
C 6.296875 36.875 2.59375 29.859375 2.59375 21.046875 
C 2.59375 7.5 12.09375 -2 25.5 -2 
C 30.703125 -2 38.203125 -0.109375 39.203125 1.390625 
L 41.296875 4.59375 
L 40.296875 6.09375 
C 36.59375 4.09375 33.40625 3.1875 29.796875 3.1875 
C 18.703125 3.1875 11.40625 11.8125 11.40625 25.046875 
C 11.40625 35.78125 16.40625 41.796875 25.40625 41.796875 
C 29.796875 41.796875 34.59375 39.796875 36.40625 37.28125 
L 37.09375 31.171875 
z
" id="URW_Palladio_L_Roman-99"/>
      <path d="M 4.09375 14.328125 
C 4.09375 7.40625 3.796875 4.40625 3 0.390625 
C 8.203125 -1.3125 12.09375 -2 16.703125 -2 
C 29.796875 -2 39.09375 5 39.09375 14.828125 
C 39.09375 17.9375 38.203125 20.234375 36.296875 22.234375 
C 33.703125 24.75 30.40625 25.953125 21.59375 27.65625 
C 13.40625 29.25 10.703125 31.265625 10.703125 35.875 
C 10.703125 40.890625 14.203125 43.6875 20.296875 43.6875 
C 27 43.6875 32.09375 40.1875 32.09375 35.46875 
L 32.09375 33.171875 
L 34.90625 33.171875 
C 35 38.984375 35.09375 41.390625 35.40625 44.484375 
C 30.09375 46.296875 26.5 47 22.40625 47 
C 10.796875 47 3.703125 41.484375 3.703125 32.46875 
C 3.703125 27.65625 5.90625 24.25 10.5 22.140625 
C 13.203125 20.9375 18.5 19.328125 25.296875 17.828125 
C 29.796875 16.828125 31.703125 14.71875 31.703125 10.90625 
C 31.703125 5.5 26.703125 1.6875 19.59375 1.6875 
C 12.296875 1.6875 7.09375 5.203125 7.09375 10.21875 
L 7.09375 14.328125 
z
" id="URW_Palladio_L_Roman-115"/>
      <path d="M 1.796875 40.296875 
L 5.5 40.296875 
C 9.5 40.296875 9.90625 39.59375 9.90625 33 
L 9.90625 10.5 
C 9.90625 4.1875 9.59375 3.5 6.203125 3.296875 
L 1.59375 3 
L 1.59375 0 
C 11.203125 0 11.5 0 14.296875 0 
C 17.09375 0.296875 19.703125 0.1875 26.203125 0 
L 26.203125 3 
L 22 3.296875 
C 18.59375 3.484375 18.296875 4.1875 18.296875 10.46875 
L 18.296875 31.609375 
C 18.296875 36.109375 24.90625 41 30.90625 41 
C 36.296875 41 40 35.90625 40 28.328125 
L 40 10.46875 
C 40 4.1875 39.703125 3.484375 36.296875 3.296875 
L 31.703125 3 
L 31.703125 0 
C 41.703125 0 41.703125 0 44.203125 0 
C 46.703125 0.296875 46.703125 0.296875 56.703125 0 
L 56.703125 3 
L 52.09375 3.296875 
C 48.703125 3.484375 48.40625 4.1875 48.40625 10.46875 
L 48.40625 31.609375 
C 48.40625 36.109375 55 41 61 41 
C 66.40625 41 70.09375 35.90625 70.09375 28.328125 
L 70.09375 0 
C 76.203125 0 76.296875 0 78 0 
C 79.296875 0.296875 79.296875 0.296875 86.90625 0 
L 86.90625 3 
L 82.203125 3.296875 
C 78.796875 3.484375 78.5 4.1875 78.5 10.46875 
L 78.5 31.015625 
C 78.5 40.890625 72.703125 47.09375 63.5 47.09375 
C 60 47.09375 57.09375 46.1875 55.296875 44.59375 
L 47.703125 37.796875 
C 44.5 44.390625 40.40625 47.09375 33.5 47.09375 
C 29.796875 47.09375 27 46.1875 25.203125 44.59375 
L 18.296875 38.203125 
L 18.296875 46.6875 
L 17.40625 47 
C 12.296875 44.890625 7.09375 43.484375 1.796875 42.890625 
z
" id="URW_Palladio_L_Roman-109"/>
      <path d="M 32.40625 8.5 
L 31.90625 0 
C 38.40625 0 38.40625 0 39.703125 0 
C 40.203125 0.296875 42.703125 0.1875 47.09375 0 
L 47.09375 3 
L 43.203125 3.1875 
C 40.796875 3.296875 40.40625 4.09375 40.40625 9 
L 40.40625 27.359375 
C 40.40625 42 36.203125 47.296875 24.59375 47.296875 
C 20.296875 47.296875 16.296875 46.1875 12.5 43.890625 
L 7.203125 40.6875 
L 7.203125 34.171875 
L 9.796875 33.46875 
L 11.09375 36.578125 
C 13.203125 41.28125 14.203125 42 18.796875 42 
C 28.203125 42 32.09375 38.28125 32.40625 29.15625 
L 22.5 27.359375 
C 8.90625 24.84375 3.203125 20.140625 3.203125 11.40625 
C 3.203125 3.5 7.90625 -1 15.796875 -1 
C 17.59375 -1 19.296875 -0.703125 20 -0.203125 
z
M 32.40625 12.59375 
C 29.5 8.5 23.203125 4.6875 19.296875 4.6875 
C 15.296875 4.6875 11.796875 8.390625 11.796875 12.6875 
C 11.796875 16.390625 13.796875 19.890625 16.796875 21.796875 
C 19.296875 23.296875 24.796875 24.6875 32.40625 25.796875 
z
" id="URW_Palladio_L_Roman-97"/>
      <path d="M 41 0 
C 47.09375 0 47.203125 0 48.90625 0 
C 50.296875 0.296875 50.296875 0.296875 57.203125 0 
L 57.203125 3 
L 53.09375 3.296875 
C 49.703125 3.484375 49.40625 4.09375 49.40625 10.46875 
L 49.40625 29.71875 
C 49.40625 41.390625 43.90625 47.09375 32.703125 47.09375 
C 29 47.09375 26.90625 46.390625 24.796875 44.59375 
L 17.203125 38 
L 17.203125 46.6875 
L 16.296875 47 
C 11.203125 44.890625 6 43.5 0.703125 42.90625 
L 0.703125 40.125 
L 4.40625 40.125 
C 8.40625 40.125 8.796875 39.421875 8.796875 32.859375 
L 8.796875 10.453125 
C 8.796875 4.1875 8.5 3.484375 5.09375 3.296875 
L 0.59375 3 
L 0.59375 0 
C 7.40625 -0.109375 10.09375 0 13 0 
C 15.90625 0.296875 18.59375 0.1875 25.40625 0 
L 25.40625 3 
L 20.90625 3.296875 
C 17.5 3.484375 17.203125 4.1875 17.203125 10.46875 
L 17.203125 31.609375 
C 17.203125 36.109375 23.796875 41 29.90625 41 
C 36.59375 41 41 36 41 28.328125 
z
" id="URW_Palladio_L_Roman-110"/>
      <path d="M 51.90625 38.3125 
L 54.40625 42.390625 
L 54 43.59375 
L 39.796875 43.1875 
C 36.09375 46.1875 32.5 47.390625 27.59375 47.390625 
C 23.203125 47.390625 18.09375 46 14 43.59375 
C 8.40625 40.40625 5.5 35.53125 5.5 29.453125 
C 5.5 22.078125 10.09375 16.984375 17.5 16.1875 
L 9.59375 9.96875 
C 8.59375 8.4375 8.09375 7.109375 8.09375 5.59375 
C 8.09375 2.796875 9.90625 1.1875 14.703125 -0.203125 
L 6 -4.921875 
C 4.59375 -5.734375 3.203125 -9.4375 3.203125 -12.5625 
C 3.203125 -21.6875 12.09375 -28 24.796875 -28 
C 39.90625 -28 51.796875 -18.484375 51.796875 -6.234375 
C 51.796875 1 47 6 40 6 
L 24 6 
C 18.796875 6 16.40625 7.21875 16.40625 9.96875 
C 16.40625 11.296875 17.203125 12.421875 19.796875 14.671875 
C 20.40625 15.1875 20.59375 15.390625 21 15.796875 
C 22 15.6875 22.59375 15.59375 23.40625 15.59375 
C 27.703125 15.59375 33 17.484375 37.09375 20.390625 
C 41.59375 23.671875 43.796875 27.65625 43.796875 32.9375 
C 43.796875 34.921875 43.5 36.21875 42.703125 38.3125 
z
M 24 44 
C 30.796875 44 35.40625 38.40625 35.40625 29.953125 
C 35.40625 23.46875 31.203125 19 25.09375 19 
C 18.40625 19 13.90625 24.171875 13.90625 31.84375 
C 13.90625 39.515625 17.59375 44 24 44 
z
M 28.703125 -1 
C 40 -1 43.90625 -3.3125 43.90625 -9.84375 
C 43.90625 -18.484375 36 -24.90625 25.5 -24.90625 
C 16.796875 -24.90625 10.796875 -19.78125 10.796875 -12.359375 
C 10.796875 -7.84375 13.40625 -3.71875 17.40625 -2.015625 
C 19 -1.203125 21.796875 -1 28.703125 -1 
z
" id="URW_Palladio_L_Roman-103"/>
     </defs>
     <g transform="translate(108.136206 205.704689)scale(0.14 -0.14)">
      <use transform="scale(0.996264)" xlink:href="#URW_Palladio_L_Roman-86"/>
      <use transform="translate(60.871539 0)scale(0.996264)" xlink:href="#URW_Palladio_L_Roman-101"/>
      <use transform="translate(108.591835 0)scale(0.996264)" xlink:href="#URW_Palladio_L_Roman-114"/>
      <use transform="translate(147.943731 0)scale(0.996264)" xlink:href="#URW_Palladio_L_Roman-116"/>
      <use transform="translate(180.420819 0)scale(0.996264)" xlink:href="#URW_Palladio_L_Roman-105"/>
      <use transform="translate(209.41118 0)scale(0.996264)" xlink:href="#URW_Palladio_L_Roman-99"/>
      <use transform="translate(253.644749 0)scale(0.996264)" xlink:href="#URW_Palladio_L_Roman-101"/>
      <use transform="translate(301.365044 0)scale(0.996264)" xlink:href="#URW_Palladio_L_Roman-115"/>
      <use transform="translate(368.513111 0)scale(0.996264)" xlink:href="#URW_Palladio_L_Roman-114"/>
      <use transform="translate(406.072428 0)scale(0.996264)" xlink:href="#URW_Palladio_L_Roman-101"/>
      <use transform="translate(453.792723 0)scale(0.996264)" xlink:href="#URW_Palladio_L_Roman-109"/>
      <use transform="translate(541.762397 0)scale(0.996264)" xlink:href="#URW_Palladio_L_Roman-97"/>
      <use transform="translate(591.575598 0)scale(0.996264)" xlink:href="#URW_Palladio_L_Roman-105"/>
      <use transform="translate(620.565959 0)scale(0.996264)" xlink:href="#URW_Palladio_L_Roman-110"/>
      <use transform="translate(678.54802 0)scale(0.996264)" xlink:href="#URW_Palladio_L_Roman-105"/>
      <use transform="translate(707.538381 0)scale(0.996264)" xlink:href="#URW_Palladio_L_Roman-110"/>
      <use transform="translate(765.520442 0)scale(0.996264)" xlink:href="#URW_Palladio_L_Roman-103"/>
     </g>
    </g>
   </g>
   <g id="matplotlib.axis_2">
    <g id="ytick_1">
     <g id="line2d_6">
      <defs>
       <path d="M 0 0 
L -3.5 0 
" id="m1939b1c4d7" style="stroke:#000000;stroke-width:0.8;"/>
      </defs>
      <g>
       <use style="stroke:#000000;stroke-width:0.8;" x="57.6" xlink:href="#m1939b1c4d7" y="165.451092"/>
      </g>
     </g>
     <g id="text_7">
      <!-- $0$ -->
      <g transform="translate(44.622416 169.72803)scale(0.12 -0.12)">
       <use transform="scale(0.996264)" xlink:href="#URW_Palladio_L_Roman-48"/>
      </g>
     </g>
    </g>
    <g id="ytick_2">
     <g id="line2d_7">
      <g>
       <use style="stroke:#000000;stroke-width:0.8;" x="57.6" xlink:href="#m1939b1c4d7" y="135.993601"/>
      </g>
     </g>
     <g id="text_8">
      <!-- $2000$ -->
      <g transform="translate(26.689664 140.270539)scale(0.12 -0.12)">
       <use transform="scale(0.996264)" xlink:href="#URW_Palladio_L_Roman-50"/>
       <use transform="translate(49.8132 0)scale(0.996264)" xlink:href="#URW_Palladio_L_Roman-48"/>
       <use transform="translate(99.626401 0)scale(0.996264)" xlink:href="#URW_Palladio_L_Roman-48"/>
       <use transform="translate(149.439601 0)scale(0.996264)" xlink:href="#URW_Palladio_L_Roman-48"/>
      </g>
     </g>
    </g>
    <g id="ytick_3">
     <g id="line2d_8">
      <g>
       <use style="stroke:#000000;stroke-width:0.8;" x="57.6" xlink:href="#m1939b1c4d7" y="106.53611"/>
      </g>
     </g>
     <g id="text_9">
      <!-- $4000$ -->
      <defs>
       <path d="M 28 18 
L 28 10.6875 
C 28 4.84375 26.90625 3.484375 22 3.28125 
L 15.796875 3 
L 15.796875 0 
C 29.09375 0 29.09375 0 31.5 0 
C 33.90625 0.296875 33.90625 0.296875 47.203125 0 
L 47.203125 3 
L 42.40625 3.28125 
C 37.5 3.578125 36.40625 4.84375 36.40625 10.6875 
L 36.40625 18 
C 42.296875 18 44.40625 17.890625 47.203125 17.609375 
L 47.203125 24.6875 
C 42.5 24.296875 40.59375 24.296875 39.09375 24.390625 
L 38.796875 24.390625 
L 36.40625 24.390625 
L 36.40625 38.203125 
C 36.40625 55.875 36.59375 64.40625 37.09375 68.484375 
L 35.90625 69 
L 28.5 66.296875 
L 0.203125 20.296875 
L 1.296875 18 
z
M 28 24.390625 
L 6.5 24.390625 
L 28 59.34375 
z
" id="URW_Palladio_L_Roman-52"/>
      </defs>
      <g transform="translate(26.689664 110.813048)scale(0.12 -0.12)">
       <use transform="scale(0.996264)" xlink:href="#URW_Palladio_L_Roman-52"/>
       <use transform="translate(49.8132 0)scale(0.996264)" xlink:href="#URW_Palladio_L_Roman-48"/>
       <use transform="translate(99.626401 0)scale(0.996264)" xlink:href="#URW_Palladio_L_Roman-48"/>
       <use transform="translate(149.439601 0)scale(0.996264)" xlink:href="#URW_Palladio_L_Roman-48"/>
      </g>
     </g>
    </g>
    <g id="ytick_4">
     <g id="line2d_9">
      <g>
       <use style="stroke:#000000;stroke-width:0.8;" x="57.6" xlink:href="#m1939b1c4d7" y="77.078619"/>
      </g>
     </g>
     <g id="text_10">
      <!-- $6000$ -->
      <defs>
       <path d="M 41.59375 66.984375 
L 37.90625 68.6875 
C 28.296875 65.515625 24.203125 63.53125 19.09375 59.1875 
C 8.796875 50.578125 3.203125 38.484375 3.203125 24.765625 
C 3.203125 8.21875 11.203125 -2 24.09375 -2 
C 37.09375 -2 46.796875 8.3125 46.796875 21.953125 
C 46.796875 33.484375 39.90625 41 29.296875 41 
C 24.296875 41 21.296875 39.6875 15.40625 34.984375 
C 14.296875 34.09375 14.203125 33.984375 13.09375 33.1875 
C 15.203125 51.171875 23.59375 60.859375 41.59375 66.203125 
z
M 25.5 34.984375 
C 33.09375 34.984375 38.203125 28.375 38.203125 18.4375 
C 38.203125 8.015625 33.09375 1.296875 25.40625 1.296875 
C 16.90625 1.296875 12.296875 8.609375 12.296875 22.046875 
C 12.296875 25.5625 12.703125 27.46875 13.796875 29.171875 
C 16 32.578125 20.703125 34.984375 25.5 34.984375 
z
" id="URW_Palladio_L_Roman-54"/>
      </defs>
      <g transform="translate(26.689664 81.355557)scale(0.12 -0.12)">
       <use transform="scale(0.996264)" xlink:href="#URW_Palladio_L_Roman-54"/>
       <use transform="translate(49.8132 0)scale(0.996264)" xlink:href="#URW_Palladio_L_Roman-48"/>
       <use transform="translate(99.626401 0)scale(0.996264)" xlink:href="#URW_Palladio_L_Roman-48"/>
       <use transform="translate(149.439601 0)scale(0.996264)" xlink:href="#URW_Palladio_L_Roman-48"/>
      </g>
     </g>
    </g>
    <g id="ytick_5">
     <g id="line2d_10">
      <g>
       <use style="stroke:#000000;stroke-width:0.8;" x="57.6" xlink:href="#m1939b1c4d7" y="47.621128"/>
      </g>
     </g>
     <g id="text_11">
      <!-- $8000$ -->
      <defs>
       <path d="M 16.796875 34.546875 
C 12.703125 32.640625 11 31.546875 8.796875 29.4375 
C 5 25.625 3 21.125 3 15.921875 
C 3 5.59375 11.296875 -2 22.59375 -2 
C 35.59375 -2 46.40625 8.203125 46.40625 20.625 
C 46.40625 28.640625 42.703125 32.9375 31.296875 38.15625 
C 40.40625 44.359375 43.59375 48.5625 43.59375 54.578125 
C 43.59375 63.1875 36.5 69 25.90625 69 
C 14 69 5.296875 61.390625 5.296875 50.875 
C 5.296875 44.0625 8 40.25 16.796875 34.546875 
z
M 28.40625 29.53125 
C 34.703125 26.734375 38.5 21.828125 38.5 16.421875 
C 38.5 8 32.203125 1.390625 24.09375 1.390625 
C 15.59375 1.390625 10.09375 7.40625 10.09375 16.71875 
C 10.09375 24.03125 13 28.640625 20.40625 33.140625 
z
M 22.296875 42.359375 
C 16 45.46875 12.796875 49.46875 12.796875 54.46875 
C 12.796875 61.09375 17.59375 65.59375 24.703125 65.59375 
C 32 65.59375 36.796875 60.78125 36.796875 53.46875 
C 36.796875 47.765625 34.296875 43.859375 27.796875 39.65625 
z
" id="URW_Palladio_L_Roman-56"/>
      </defs>
      <g transform="translate(26.689664 51.898065)scale(0.12 -0.12)">
       <use transform="scale(0.996264)" xlink:href="#URW_Palladio_L_Roman-56"/>
       <use transform="translate(49.8132 0)scale(0.996264)" xlink:href="#URW_Palladio_L_Roman-48"/>
       <use transform="translate(99.626401 0)scale(0.996264)" xlink:href="#URW_Palladio_L_Roman-48"/>
       <use transform="translate(149.439601 0)scale(0.996264)" xlink:href="#URW_Palladio_L_Roman-48"/>
      </g>
     </g>
    </g>
    <g id="ytick_6">
     <g id="line2d_11">
      <g>
       <use style="stroke:#000000;stroke-width:0.8;" x="57.6" xlink:href="#m1939b1c4d7" y="18.163636"/>
      </g>
     </g>
     <g id="text_12">
      <!-- $10000$ -->
      <g transform="translate(20.71208 22.440574)scale(0.12 -0.12)">
       <use transform="scale(0.996264)" xlink:href="#URW_Palladio_L_Roman-49"/>
       <use transform="translate(49.8132 0)scale(0.996264)" xlink:href="#URW_Palladio_L_Roman-48"/>
       <use transform="translate(99.626401 0)scale(0.996264)" xlink:href="#URW_Palladio_L_Roman-48"/>
       <use transform="translate(149.439601 0)scale(0.996264)" xlink:href="#URW_Palladio_L_Roman-48"/>
       <use transform="translate(199.252802 0)scale(0.996264)" xlink:href="#URW_Palladio_L_Roman-48"/>
      </g>
     </g>
    </g>
    <g id="text_13">
     <!-- Size of largest component -->
     <defs>
      <path d="M 44.703125 52.671875 
C 44.703125 57.984375 45.09375 61.390625 46.09375 66.796875 
C 38.09375 69.984375 33.59375 71 28.09375 71 
C 13.203125 71 2.40625 61.59375 2.40625 48.46875 
C 2.40625 43.5625 3.703125 39.953125 6.59375 37.25 
C 10 34.140625 14.59375 32.546875 24.296875 31.234375 
C 32 30.140625 35.5 29.03125 38.09375 26.734375 
C 40.703125 24.625 41.90625 21.71875 41.90625 17.921875 
C 41.90625 8.90625 34.40625 2.390625 24 2.390625 
C 16 2.390625 8.203125 6.296875 7.703125 10.40625 
L 6.90625 17.109375 
L 3.703125 17.109375 
C 3.796875 15.3125 3.796875 13.703125 3.796875 13.109375 
C 3.796875 8.5 3.59375 6.296875 3 1.796875 
C 8.703125 -0.703125 14.5 -2 20.296875 -2 
C 37.703125 -2 50.296875 8.5 50.296875 23.03125 
C 50.296875 27.734375 49 31.03125 46.203125 33.640625 
C 42.703125 36.953125 38.5 38.25 27.296875 39.75 
C 15.09375 41.359375 10.796875 44.65625 10.796875 52.375 
C 10.796875 60.78125 17.09375 66.796875 25.90625 66.796875 
C 29.796875 66.796875 33.5 66 36.203125 64.484375 
C 39.5 62.78125 40.59375 61.28125 40.90625 58.375 
L 41.5 52.671875 
z
" id="URW_Palladio_L_Roman-83"/>
      <path d="M 45.5 43.296875 
L 45.5 46.296875 
C 38.5 46.09375 35.5 46 31.703125 46 
L 6.90625 46.296875 
C 6.703125 41.203125 6.59375 40 6 33.140625 
L 9 33.140625 
L 10.203125 39.90625 
C 10.59375 42 12.40625 42.484375 19.796875 42.484375 
L 34.09375 42.484375 
C 32 39.203125 30.296875 36.921875 27.59375 33.53125 
L 10.59375 12.4375 
C 8.203125 9.546875 6.796875 7.859375 1.59375 2 
L 2.203125 0 
C 12.59375 0 13.203125 0 17.5 0 
L 45.09375 0 
C 45.09375 2.296875 45.296875 4.6875 46 9.5 
L 46.59375 14.1875 
L 43.59375 14.1875 
L 41.796875 6.296875 
C 41.40625 4.1875 37.203125 3.5 27.59375 3.5 
L 14.09375 3.5 
z
" id="URW_Palladio_L_Roman-122"/>
      <path d="M 27.90625 47 
C 13.296875 47 3.203125 36.671875 3.203125 21.734375 
C 3.203125 7.609375 12.09375 -2 25 -2 
C 40.40625 -2 51.40625 8.703125 51.40625 23.75 
C 51.40625 37.28125 41.59375 47 27.90625 47 
z
M 26.09375 43.6875 
C 35.296875 43.6875 42.09375 33.671875 42.09375 20.03125 
C 42.09375 8.515625 37 1.296875 28.90625 1.296875 
C 19.09375 1.296875 12.5 10.921875 12.5 25.140625 
C 12.5 37.171875 17.296875 43.6875 26.09375 43.6875 
z
" id="URW_Palladio_L_Roman-111"/>
      <path d="M 34.09375 71.890625 
C 32 72.6875 30.796875 73 29.5 73 
C 26.296875 73 22.796875 71.296875 20.59375 68.796875 
L 14.796875 62.203125 
C 11.90625 58.90625 10.59375 54.40625 10.59375 47.8125 
L 10.59375 43.625 
L 3.703125 40.53125 
L 3.703125 38.328125 
L 10.59375 38.734375 
L 10.59375 10.484375 
C 10.59375 4.1875 10.296875 3.484375 6.90625 3.296875 
L 2.296875 3 
L 2.296875 0 
C 12.296875 0 12.296875 0 14.796875 0 
C 17.296875 0.296875 17.296875 0.296875 27.296875 0 
L 27.296875 3 
L 22.703125 3.296875 
C 19.296875 3.484375 19 4.1875 19 10.484375 
L 19 38.734375 
L 31.40625 38.734375 
L 32.09375 44.03125 
L 19 43.625 
L 19 52.109375 
C 19 63.59375 20.296875 66.390625 26 66.390625 
C 28.703125 66.390625 30.5 65.6875 32.90625 63.59375 
L 34.09375 64.1875 
z
" id="URW_Palladio_L_Roman-102"/>
      <path d="M 2.296875 66.390625 
L 7.90625 66.390625 
C 9.703125 66.390625 10.40625 65.296875 10.40625 62.296875 
L 10.40625 10.5 
C 10.40625 4.1875 10.09375 3.5 6.703125 3.296875 
L 2.09375 3 
L 2.09375 0 
C 12.09375 0 12.09375 0 14.59375 0 
C 17.09375 0.296875 17.09375 0.296875 27.09375 0 
L 27.09375 3 
L 22.5 3.296875 
C 19.09375 3.5 18.796875 4.1875 18.796875 10.5 
L 18.796875 72.09375 
L 17.90625 72.890625 
C 13.5 71.203125 10.203125 70.390625 2.296875 69.203125 
z
" id="URW_Palladio_L_Roman-108"/>
      <path d="M 1 40.09375 
L 4.703125 40.09375 
C 8.703125 40.09375 9.09375 39.390625 9.09375 32.8125 
L 9.09375 -17.46875 
C 9.09375 -23.796875 8.796875 -24.5 5.40625 -24.703125 
L 0.796875 -25 
L 0.796875 -28 
C 10.796875 -27.703125 10.796875 -27.703125 13.296875 -27.703125 
C 15.796875 -27.703125 15.796875 -27.703125 25.796875 -28 
L 25.796875 -25 
L 21.203125 -24.703125 
C 17.796875 -24.5 17.5 -23.796875 17.5 -17.46875 
L 17.5 1.5 
C 20.5 -0.3125 23.703125 -1 28.203125 -1 
C 31.09375 -1 33.703125 -0.40625 35.296875 0.59375 
L 46.703125 7.984375 
C 50.703125 10.578125 55.40625 20.84375 55.40625 27.234375 
C 55.40625 38.296875 46.203125 47 34.59375 47 
C 30.90625 47 27.296875 45.984375 25.703125 44.484375 
L 17.5 37 
L 17.5 46.59375 
L 16.59375 47 
C 11.5 44.890625 6.296875 43.484375 1 42.890625 
z
M 17.5 30.71875 
C 17.5 32.109375 18 33.21875 19.296875 34.90625 
C 22.203125 38.59375 26.296875 40.484375 31.296875 40.484375 
C 40.703125 40.484375 46.703125 33.90625 46.703125 23.546875 
C 46.703125 12.375 40 4.09375 31 4.09375 
C 25.5 4.09375 21.40625 5.890625 17.5 9.984375 
z
" id="URW_Palladio_L_Roman-112"/>
     </defs>
     <g transform="translate(12.778907 171.063887)rotate(-90)scale(0.14 -0.14)">
      <use transform="scale(0.996264)" xlink:href="#URW_Palladio_L_Roman-83"/>
      <use transform="translate(52.303815 0)scale(0.996264)" xlink:href="#URW_Palladio_L_Roman-105"/>
      <use transform="translate(81.294176 0)scale(0.996264)" xlink:href="#URW_Palladio_L_Roman-122"/>
      <use transform="translate(131.107377 0)scale(0.996264)" xlink:href="#URW_Palladio_L_Roman-101"/>
      <use transform="translate(203.734272 0)scale(0.996264)" xlink:href="#URW_Palladio_L_Roman-111"/>
      <use transform="translate(258.129852 0)scale(0.996264)" xlink:href="#URW_Palladio_L_Roman-102"/>
      <use transform="translate(316.211682 0)scale(0.996264)" xlink:href="#URW_Palladio_L_Roman-108"/>
      <use transform="translate(345.202044 0)scale(0.996264)" xlink:href="#URW_Palladio_L_Roman-97"/>
      <use transform="translate(395.015244 0)scale(0.996264)" xlink:href="#URW_Palladio_L_Roman-114"/>
      <use transform="translate(432.574562 0)scale(0.996264)" xlink:href="#URW_Palladio_L_Roman-103"/>
      <use transform="translate(487.966239 0)scale(0.996264)" xlink:href="#URW_Palladio_L_Roman-101"/>
      <use transform="translate(535.686534 0)scale(0.996264)" xlink:href="#URW_Palladio_L_Roman-115"/>
      <use transform="translate(577.928 0)scale(0.996264)" xlink:href="#URW_Palladio_L_Roman-116"/>
      <use transform="translate(635.311688 0)scale(0.996264)" xlink:href="#URW_Palladio_L_Roman-99"/>
      <use transform="translate(679.545257 0)scale(0.996264)" xlink:href="#URW_Palladio_L_Roman-111"/>
      <use transform="translate(733.940837 0)scale(0.996264)" xlink:href="#URW_Palladio_L_Roman-109"/>
      <use transform="translate(821.910511 0)scale(0.996264)" xlink:href="#URW_Palladio_L_Roman-112"/>
      <use transform="translate(881.784905 0)scale(0.996264)" xlink:href="#URW_Palladio_L_Roman-111"/>
      <use transform="translate(936.180485 0)scale(0.996264)" xlink:href="#URW_Palladio_L_Roman-110"/>
      <use transform="translate(994.162546 0)scale(0.996264)" xlink:href="#URW_Palladio_L_Roman-101"/>
      <use transform="translate(1041.882841 0)scale(0.996264)" xlink:href="#URW_Palladio_L_Roman-110"/>
      <use transform="translate(1099.864902 0)scale(0.996264)" xlink:href="#URW_Palladio_L_Roman-116"/>
     </g>
    </g>
   </g>
   <g id="line2d_12">
    <path clip-path="url(#pbaba87bb49)" d="M 67.418182 165.436364 
L 154.062483 165.333262 
L 154.258866 165.318534 
L 170.696146 165.215432 
L 170.892529 165.200704 
L 183.186122 165.112331 
L 183.303952 165.023959 
L 187.153064 164.920858 
L 187.290533 164.8914 
L 190.746878 164.847214 
L 191.002177 164.272793 
L 191.984093 164.169692 
L 192.101923 164.051862 
L 192.180476 164.051862 
L 192.298306 163.506898 
L 193.319499 163.447983 
L 193.515882 163.065036 
L 193.889011 163.065036 
L 194.006841 162.917748 
L 194.497799 162.844104 
L 194.635267 162.549529 
L 194.792374 162.549529 
L 194.910204 162.225497 
L 195.047672 162.181311 
L 195.244055 162.07821 
L 195.361885 161.72472 
L 195.401162 161.72472 
L 195.518992 160.958825 
L 195.676099 160.826266 
L 196.48127 160.723165 
L 196.5991 160.66425 
L 197.698846 160.590606 
L 197.993421 159.913084 
L 198.562933 159.913084 
L 198.680763 155.229343 
L 198.936061 155.126242 
L 199.112806 154.964226 
L 199.348466 154.890582 
L 199.466296 154.831667 
L 199.780509 154.831667 
L 200.035807 152.224679 
L 200.075084 152.20995 
L 200.271467 146.436282 
L 200.526765 145.920776 
L 200.664234 145.16961 
L 200.860617 145.095966 
L 200.880255 144.904492 
L 200.998085 142.444792 
L 201.076639 142.356419 
L 201.194469 142.091302 
L 201.253384 142.076573 
L 201.390852 141.634711 
L 201.41049 141.634711 
L 201.567597 140.368039 
L 201.705065 140.294395 
L 201.76398 140.250209 
L 201.88181 139.602144 
L 201.921087 139.587415 
L 202.078193 139.012994 
L 202.2353 138.909893 
L 202.392407 138.394387 
L 202.628066 138.217642 
L 202.765535 137.319188 
L 202.981556 137.319188 
L 203.099386 137.171901 
L 203.276131 137.098257 
L 203.4136 136.59748 
L 203.551068 135.566468 
L 203.570706 135.566468 
L 203.727813 135.021504 
L 204.140218 134.623828 
L 204.238409 133.740103 
L 204.395516 132.237771 
L 204.532984 131.913739 
L 204.670452 131.869552 
L 205.043581 130.337763 
L 205.161411 129.174192 
L 205.357794 128.216824 
L 205.495262 125.683479 
L 205.534539 125.683479 
L 205.691646 124.519908 
L 205.770199 124.416807 
L 205.966582 124.284248 
L 206.10405 122.575714 
L 206.320072 121.603617 
L 206.45754 119.512135 
L 206.516455 119.482677 
L 206.653924 118.937714 
L 206.712839 118.834613 
L 206.850307 118.525309 
L 206.968137 118.304378 
L 206.987775 118.260191 
L 207.16452 116.890418 
L 207.28235 116.684216 
L 207.439457 116.139252 
L 207.498372 116.05088 
L 207.557287 115.844677 
L 207.694755 115.417544 
L 207.75367 115.167155 
L 208.126798 112.147762 
L 208.401735 111.779543 
L 208.421373 111.779543 
L 208.558841 110.40977 
L 208.676671 110.350855 
L 208.81414 109.923721 
L 208.971246 108.789608 
L 209.030161 108.598134 
L 209.206906 107.729138 
L 209.265821 107.655495 
L 209.854971 106.167891 
L 209.992439 105.608199 
L 210.267376 104.002766 
L 210.306652 103.943851 
L 210.542312 102.485705 
L 210.581589 102.397332 
L 210.758334 101.911284 
L 210.935079 101.778725 
L 211.072547 101.410507 
L 211.642059 97.934523 
L 212.741805 95.224433 
L 212.879273 94.974045 
L 213.095295 94.767842 
L 213.252402 94.281794 
L 213.330955 94.046134 
L 213.468423 93.545356 
L 213.723721 92.735275 
L 213.998658 92.4407 
L 214.195041 91.851551 
L 214.371786 91.601162 
L 214.548531 91.100385 
L 214.587808 91.085656 
L 214.725276 90.614336 
L 215.334064 89.008903 
L 215.510809 88.390295 
L 215.746469 87.845332 
L 216.001767 86.873235 
L 216.139236 86.254627 
L 216.826577 84.501907 
L 216.924769 84.310433 
L 217.278259 83.588724 
L 218.378005 80.878635 
L 218.515473 80.377858 
L 218.652942 80.127469 
L 218.79041 79.626692 
L 218.849325 79.449947 
L 219.301006 77.932886 
L 219.438475 77.446837 
L 219.49739 77.240635 
L 219.654496 76.784044 
L 219.693773 76.695671 
L 219.909795 76.077064 
L 220.047263 75.841404 
L 220.989903 74.280157 
L 221.186286 73.705736 
L 221.264839 73.602635 
L 222.070011 72.203404 
L 222.325309 71.746813 
L 222.600245 71.452238 
L 222.757352 70.701072 
L 224.878291 66.179347 
L 224.917568 66.14989 
L 225.074675 65.56074 
L 225.25142 65.221979 
L 225.428165 64.956861 
L 226.036953 63.469258 
L 226.154783 63.32197 
L 226.311889 63.027395 
L 228.354275 59.904901 
L 228.491744 59.56614 
L 228.589935 59.404124 
L 228.747042 59.139007 
L 229.021979 58.814974 
L 229.316553 58.270011 
L 229.512937 57.990164 
L 230.710875 56.001784 
L 230.966173 55.69248 
L 232.183749 53.718828 
L 232.419409 53.159136 
L 232.655069 52.702545 
L 233.735177 51.273856 
L 233.93156 50.99401 
L 234.16722 50.537419 
L 235.286605 49.049816 
L 235.424073 48.858342 
L 235.600818 48.607954 
L 235.797202 48.357565 
L 236.091776 47.783144 
L 236.327436 47.488569 
L 236.64165 47.046706 
L 236.838033 46.781589 
L 237.014778 46.487014 
L 237.230799 46.251354 
L 237.564651 45.868407 
L 239.881974 42.583897 
L 240.333655 42.112577 
L 240.844252 41.538156 
L 241.197742 41.155208 
L 241.492317 40.742803 
L 241.649423 40.521872 
L 241.80653 40.286212 
L 242.199296 39.859079 
L 242.454595 39.549775 
L 242.906276 39.063726 
L 243.299043 38.636593 
L 243.731086 38.180002 
L 244.143491 37.738139 
L 244.732641 37.045888 
L 245.046854 36.692398 
L 245.262875 36.471467 
L 245.79311 35.867589 
L 246.1466 35.484641 
L 246.421537 35.131151 
L 246.73575 34.762933 
L 247.010687 34.394714 
L 247.501645 33.893937 
L 248.110433 33.172228 
L 248.444284 32.804009 
L 248.679944 32.524163 
L 248.895966 32.273775 
L 249.092349 31.949742 
L 249.563669 31.463694 
L 250.015351 30.977645 
L 250.447394 30.521054 
L 250.879437 30.064463 
L 251.272204 29.637329 
L 251.723885 29.151281 
L 252.057737 28.797791 
L 252.214843 28.635774 
L 252.529057 28.282285 
L 252.764716 28.017167 
L 253.098568 27.63422 
L 253.393143 27.383831 
L 253.805548 26.941969 
L 254.001931 26.765224 
L 254.473251 26.279175 
L 254.866018 25.881499 
L 255.789019 25.056689 
L 256.162147 24.688471 
L 256.613829 24.217151 
L 256.810212 24.025677 
L 257.53683 23.348155 
L 257.792128 23.038851 
L 259.048981 21.963653 
L 259.323918 21.742722 
L 261.582326 19.916357 
L 261.8769 19.665968 
L 263.781818 18.163636 
L 263.781818 18.163636 
" style="fill:none;stroke:#1f77b4;stroke-linecap:square;stroke-width:1.5;"/>
   </g>
   <g id="line2d_13">
    <path clip-path="url(#pbaba87bb49)" d="M 67.418182 165.436364 
L 79.849243 165.347991 
L 79.986711 165.318534 
L 85.76038 165.24489 
L 85.87821 165.171246 
L 88.607937 165.112331 
L 88.725767 164.994501 
L 93.812094 164.906129 
L 93.969201 164.611554 
L 97.091695 164.552639 
L 97.209525 164.493724 
L 97.464823 164.493724 
L 97.602291 164.199149 
L 99.192996 164.125505 
L 99.350102 162.932477 
L 99.821422 162.844104 
L 99.95889 162.667359 
L 100.233827 162.667359 
L 100.351657 162.372785 
L 100.606955 162.284412 
L 100.744424 162.240226 
L 100.921168 162.240226 
L 101.038998 162.048752 
L 101.25502 162.019295 
L 101.37285 161.930922 
L 101.628148 161.930922 
L 101.745978 160.944096 
L 101.785255 160.944096 
L 101.922723 160.66425 
L 101.962 160.66425 
L 102.07983 160.54642 
L 102.19766 160.54642 
L 102.31549 160.19293 
L 103.02247 160.089829 
L 103.238491 160.060371 
L 103.258129 160.060371 
L 103.375959 159.883627 
L 103.670534 159.809983 
L 103.808003 159.500679 
L 104.043663 159.48595 
L 104.220407 158.985173 
L 104.377514 158.911529 
L 104.534621 158.469667 
L 105.143409 158.145635 
L 105.261239 157.806873 
L 105.496899 157.762687 
L 105.71292 157.703772 
L 105.850389 157.6154 
L 106.007495 157.571213 
L 106.125325 157.423926 
L 106.321709 157.409197 
L 106.439538 157.129351 
L 106.478815 157.129351 
L 106.596645 156.613845 
L 106.910858 156.510744 
L 107.421455 156.260355 
L 107.578561 156.216169 
L 107.71603 156.08361 
L 108.462286 155.656477 
L 108.697946 155.553375 
L 108.855053 155.509189 
L 109.110351 155.420817 
L 109.228181 155.361902 
L 109.778054 155.273529 
L 109.895884 155.052598 
L 109.974437 155.02314 
L 110.111906 154.890582 
L 110.956354 154.389804 
L 111.368759 154.286703 
L 111.545504 153.653367 
L 111.722249 153.564995 
L 111.879355 153.461893 
L 111.997185 153.123132 
L 112.075738 153.064217 
L 112.213207 152.902201 
L 112.40959 152.858015 
L 112.547058 152.725456 
L 112.802357 152.622355 
L 112.959463 152.313051 
L 112.99874 152.313051 
L 113.136208 152.136306 
L 113.430783 152.033205 
L 114.667998 151.016922 
L 114.785828 150.825448 
L 114.864381 150.737076 
L 114.923296 150.692889 
L 115.041126 150.147926 
L 115.178594 150.044824 
L 115.296424 149.882808 
L 115.708829 149.779707 
L 115.944489 149.617691 
L 115.964127 149.602962 
L 116.101596 149.27893 
L 118.556387 147.570395 
L 118.63494 147.496751 
L 118.811685 147.27582 
L 119.086621 147.187448 
L 119.440111 146.848687 
L 119.715048 146.568841 
L 119.872154 146.347909 
L 120.009623 146.303723 
L 120.166729 146.038606 
L 120.245283 145.935504 
L 120.402389 145.773488 
L 120.559496 145.670387 
L 121.030816 145.375812 
L 121.168284 145.007593 
L 121.266476 144.830849 
L 121.423582 144.447901 
L 122.660797 143.416889 
L 122.798265 143.328516 
L 122.876819 143.299059 
L 123.053564 142.886654 
L 123.249947 142.783553 
L 123.583798 142.45952 
L 123.780182 142.356419 
L 123.937288 142.179674 
L 124.231863 142.076573 
L 124.604991 141.929286 
L 124.821013 141.826184 
L 124.879928 141.811456 
L 125.017396 141.546338 
L 125.272695 141.457966 
L 125.469078 141.266492 
L 125.586908 141.104476 
L 125.881483 140.250209 
L 126.117143 140.147107 
L 126.490271 139.778889 
L 126.627739 139.64633 
L 126.804484 139.543229 
L 127.000867 139.351755 
L 128.670125 137.996711 
L 129.062892 137.127715 
L 129.573488 136.671123 
L 129.710957 136.36182 
L 129.926978 136.155617 
L 130.064446 135.905229 
L 130.339383 135.802127 
L 132.440684 134.108322 
L 132.617429 133.916848 
L 132.695982 133.828476 
L 132.813812 133.445528 
L 132.931642 133.371884 
L 133.088749 133.19514 
L 133.285132 133.092038 
L 134.01175 132.473431 
L 134.168857 132.061026 
L 134.502708 131.751722 
L 134.640177 131.383504 
L 135.995221 130.264119 
L 136.152328 130.102103 
L 136.270158 129.999002 
L 136.446903 129.866443 
L 136.604009 129.763342 
L 137.271713 129.130006 
L 137.409181 128.982718 
L 137.527011 128.879617 
L 137.998331 128.408297 
L 138.155437 128.246281 
L 138.528566 127.878062 
L 138.94097 127.4362 
L 139.078439 127.229998 
L 139.235545 127.141625 
L 139.41229 126.979609 
L 139.608674 126.876508 
L 140.94408 125.845495 
L 141.06191 125.536192 
L 142.515146 124.313706 
L 142.927551 123.871844 
L 143.045381 123.768742 
L 143.398871 123.385795 
L 143.555977 123.282694 
L 145.205597 121.957107 
L 145.362704 121.706718 
L 145.578725 121.574159 
L 145.853662 121.235398 
L 146.46245 120.51369 
L 146.914131 120.04237 
L 147.28726 119.674151 
L 148.426283 118.716783 
L 148.583389 118.525309 
L 149.624221 117.877244 
L 149.761689 117.774143 
L 150.429392 117.155536 
L 150.625775 116.964062 
L 150.900712 116.713673 
L 151.03818 116.492742 
L 152.589608 115.211341 
L 152.746715 115.064054 
L 152.864545 114.960952 
L 153.728631 114.180329 
L 154.082121 113.841568 
L 155.61391 112.604353 
L 155.869209 112.05939 
L 156.163784 111.720628 
L 156.32089 111.440782 
L 156.811848 110.940005 
L 157.02787 110.807446 
L 157.342083 110.468685 
L 157.577743 110.085738 
L 159.482661 108.539219 
L 159.679044 108.362474 
L 159.993258 108.082628 
L 160.130726 107.979527 
L 161.505409 106.815956 
L 161.858899 106.477195 
L 162.958645 105.578742 
L 163.096113 105.328353 
L 163.783455 104.680288 
L 164.136945 104.341527 
L 164.785009 103.737648 
L 164.942116 103.531446 
L 165.079584 103.443073 
L 165.550904 102.927567 
L 165.786564 102.632992 
L 165.943671 102.470976 
L 166.611374 101.852369 
L 166.827395 101.60198 
L 166.925587 101.513608 
L 167.200524 101.292677 
L 168.005695 100.556239 
L 168.732313 99.657786 
L 169.616038 98.891891 
L 169.773145 98.641502 
L 169.969528 98.538401 
L 170.224826 98.346927 
L 171.403126 97.345373 
L 171.599509 97.153899 
L 171.835169 96.844595 
L 172.188659 96.505834 
L 172.777809 95.931413 
L 173.150937 95.563195 
L 173.681172 95.062417 
L 173.838278 94.885672 
L 174.191768 94.546911 
L 175.036216 93.810474 
L 175.193323 93.648458 
L 175.507536 93.280239 
L 175.703919 93.103494 
L 176.725113 92.219769 
L 176.901857 92.087211 
L 177.451731 91.571704 
L 177.628476 91.321316 
L 178.178349 90.68798 
L 178.531839 90.319761 
L 178.708584 90.113559 
L 179.945798 89.053089 
L 180.260011 88.773243 
L 181.399034 87.815874 
L 181.595418 87.550757 
L 182.204206 86.961607 
L 182.557696 86.622846 
L 182.970101 86.195712 
L 183.127207 86.033696 
L 184.50189 84.870125 
L 184.717912 84.634465 
L 185.228508 84.118959 
L 185.79802 83.456166 
L 186.563915 82.749186 
L 186.779936 82.513526 
L 187.742214 81.673987 
L 187.938597 81.497242 
L 188.017151 81.438327 
L 188.174257 81.276311 
L 188.370641 81.17321 
L 189.057982 80.525145 
L 189.274004 80.304214 
L 189.90243 79.715064 
L 190.13809 79.435218 
L 191.120007 78.610408 
L 191.277113 78.404206 
L 191.944816 77.77087 
L 192.357221 77.343736 
L 193.319499 76.489469 
L 193.653351 76.180165 
L 193.751542 76.077064 
L 194.163947 75.635202 
L 194.340692 75.487914 
L 196.461632 73.77938 
L 196.658015 73.587906 
L 197.757761 72.630538 
L 198.209443 72.144489 
L 198.877146 71.511153 
L 199.210997 71.201849 
L 200.93917 69.773161 
L 201.233745 69.508044 
L 201.351575 69.404942 
L 201.665788 69.125096 
L 202.94228 68.035169 
L 203.315408 67.66695 
L 203.786728 67.180902 
L 204.179494 66.783226 
L 205.514901 65.663841 
L 205.711284 65.472367 
L 206.6932 64.603371 
L 207.066328 64.235153 
L 208.185713 63.263055 
L 208.539203 62.924294 
L 209.658588 61.952197 
L 209.874609 61.716537 
L 210.267376 61.289403 
L 210.601227 60.9801 
L 211.426037 60.228934 
L 211.720612 59.978545 
L 212.781082 59.09482 
L 212.977465 58.770788 
L 214.548531 57.45993 
L 214.843106 57.209541 
L 216.532002 55.81031 
L 216.826577 55.559921 
L 218.927878 53.851387 
L 219.242091 53.571541 
L 221.107733 52.039751 
L 221.402308 51.789363 
L 222.89482 50.537419 
L 223.110842 50.316488 
L 224.583717 49.079273 
L 224.89793 48.799427 
L 227.961509 46.369184 
L 228.256084 46.118796 
L 230.475215 44.321889 
L 230.750151 44.100957 
L 234.952753 40.816447 
L 235.266967 40.536601 
L 237.191523 38.960625 
L 237.466459 38.739694 
L 239.096441 37.399378 
L 239.292824 37.222633 
L 244.064937 33.510989 
L 244.339874 33.290058 
L 247.010687 31.15439 
L 247.305261 30.904001 
L 249.760052 28.930349 
L 250.034989 28.709418 
L 255.887211 24.187693 
L 256.181785 23.937305 
L 263.781818 18.163636 
L 263.781818 18.163636 
" style="fill:none;stroke:#ff7f0e;stroke-linecap:square;stroke-width:1.5;"/>
   </g>
   <g id="patch_3">
    <path d="M 57.6 172.8 
L 57.6 10.8 
" style="fill:none;stroke:#000000;stroke-linecap:square;stroke-linejoin:miter;stroke-width:0.8;"/>
   </g>
   <g id="patch_4">
    <path d="M 273.6 172.8 
L 273.6 10.8 
" style="fill:none;stroke:#000000;stroke-linecap:square;stroke-linejoin:miter;stroke-width:0.8;"/>
   </g>
   <g id="patch_5">
    <path d="M 57.6 172.8 
L 273.6 172.8 
" style="fill:none;stroke:#000000;stroke-linecap:square;stroke-linejoin:miter;stroke-width:0.8;"/>
   </g>
   <g id="patch_6">
    <path d="M 57.6 10.8 
L 273.6 10.8 
" style="fill:none;stroke:#000000;stroke-linecap:square;stroke-linejoin:miter;stroke-width:0.8;"/>
   </g>
   <g id="legend_1">
    <g id="patch_7">
     <path d="M 183.399345 166.969 
L 265.4366 166.969 
Q 267.769 166.969 267.769 164.6366 
L 267.769 130.962247 
Q 267.769 128.629847 265.4366 128.629847 
L 183.399345 128.629847 
Q 181.066945 128.629847 181.066945 130.962247 
L 181.066945 164.6366 
Q 181.066945 166.969 183.399345 166.969 
z
" style="fill:#ffffff;opacity:0.8;stroke:#cccccc;stroke-linejoin:miter;"/>
    </g>
    <g id="line2d_14">
     <path d="M 185.731745 137.52589 
L 209.055745 137.52589 
" style="fill:none;stroke:#1f77b4;stroke-linecap:square;stroke-width:1.5;"/>
    </g>
    <g id="line2d_15"/>
    <g id="text_14">
     <!-- Targeted -->
     <defs>
      <path d="M 25.5 64 
C 25.796875 60.625 25.90625 58.34375 25.90625 54.09375 
L 25.90625 12.203125 
C 25.90625 4.375 25.40625 3.59375 20.796875 3.296875 
L 16 3 
L 16 0 
C 21.90625 -0.109375 25.40625 0 30.59375 0 
C 35.796875 0.296875 39.40625 0.1875 45.296875 0 
L 45.296875 3 
L 40.5 3.296875 
C 35.90625 3.59375 35.40625 4.375 35.40625 12.203125 
L 35.40625 54.09375 
C 35.40625 58.546875 35.5 60.734375 35.796875 64 
L 51.296875 64 
C 54.09375 64 55.203125 63.109375 55.296875 60.734375 
L 55.703125 52.90625 
L 58.796875 52.90625 
C 58.796875 59.390625 59 63.296875 59.5 69 
C 52.296875 68.890625 49 68.890625 46.203125 68.796875 
C 42.296875 68.59375 39.40625 68.59375 37.90625 68.59375 
L 22.09375 68.59375 
C 21.09375 68.59375 15.703125 68.6875 8.59375 68.796875 
L 1.796875 69 
C 2.296875 63.296875 2.5 59.390625 2.5 52.890625 
L 5.59375 52.890625 
L 6 60.796875 
C 6.09375 63.09375 7.203125 64 10 64 
z
" id="URW_Palladio_L_Roman-84"/>
      <path d="M 41.203125 43.796875 
C 35.59375 46.1875 32.796875 47 29.296875 47 
C 26.59375 47 24.203125 46.390625 21.703125 45.09375 
L 12.90625 40.5 
C 7.203125 37.5 3.5 30.21875 3.5 21.75 
C 3.5 13.765625 6.203125 7.1875 11.09375 3.1875 
C 14.5 0.296875 19.203125 -1 25.703125 -1 
C 27.703125 -1 30 -0.609375 30.5 -0.203125 
L 41.59375 9.078125 
L 41.09375 0 
C 46 -0.109375 47.59375 0 48.796875 0 
C 49.59375 0 51 0 53.09375 -0.109375 
C 53.796875 0.09375 55.796875 0.09375 57.90625 0 
L 57.90625 3 
L 53.296875 3.296875 
C 49.90625 3.5 49.59375 4.1875 49.59375 10.5 
L 49.59375 72.09375 
L 48.703125 72.890625 
C 44.296875 71.203125 41 70.390625 33.09375 69.203125 
L 33.09375 66.390625 
L 38.703125 66.390625 
C 40.5 66.390625 41.203125 65.296875 41.203125 62.296875 
z
M 41.203125 22.25 
C 41.203125 15.765625 41 14.765625 39.703125 12.46875 
C 36.90625 7.78125 32 4.6875 27.296875 4.6875 
C 18.5 4.6875 12.203125 13.171875 12.203125 25.03125 
C 12.203125 35.90625 17.59375 42.296875 26.59375 42.296875 
C 30.40625 42.296875 34.40625 41 37.90625 38.59375 
C 40 37.203125 41.203125 35.90625 41.203125 35.109375 
z
" id="URW_Palladio_L_Roman-100"/>
     </defs>
     <g transform="translate(218.385345 141.60759)scale(0.11662 -0.11662)">
      <use transform="scale(0.996264)" xlink:href="#URW_Palladio_L_Roman-84"/>
      <use transform="translate(51.904951 0)scale(0.996264)" xlink:href="#URW_Palladio_L_Roman-97"/>
      <use transform="translate(101.718151 0)scale(0.996264)" xlink:href="#URW_Palladio_L_Roman-114"/>
      <use transform="translate(139.277468 0)scale(0.996264)" xlink:href="#URW_Palladio_L_Roman-103"/>
      <use transform="translate(194.669145 0)scale(0.996264)" xlink:href="#URW_Palladio_L_Roman-101"/>
      <use transform="translate(242.38944 0)scale(0.996264)" xlink:href="#URW_Palladio_L_Roman-116"/>
      <use transform="translate(274.866528 0)scale(0.996264)" xlink:href="#URW_Palladio_L_Roman-101"/>
      <use transform="translate(322.586823 0)scale(0.996264)" xlink:href="#URW_Palladio_L_Roman-100"/>
     </g>
    </g>
    <g id="line2d_16">
     <path d="M 185.731745 154.946166 
L 209.055745 154.946166 
" style="fill:none;stroke:#ff7f0e;stroke-linecap:square;stroke-width:1.5;"/>
    </g>
    <g id="line2d_17"/>
    <g id="text_15">
     <!-- Random -->
     <defs>
      <path d="M 21.59375 64 
C 25 64.796875 28 65.1875 31.40625 65.1875 
C 41.796875 65.1875 47.59375 60.421875 47.59375 52 
C 47.59375 42.875 40.296875 37.109375 28.703125 37.109375 
C 28 37.109375 27.09375 37.109375 25.796875 37.21875 
L 25.203125 36.03125 
C 26.296875 34.734375 26.59375 34.34375 27.796875 33.046875 
C 29.203125 31.46875 29.5 31.0625 30.40625 29.875 
L 48.796875 5.375 
C 49.40625 4.578125 50 3.78125 50.59375 3.09375 
C 51.296875 2.1875 51.90625 1.296875 52.90625 0 
C 57.59375 0 58.59375 0 59.703125 0 
C 60.59375 0.296875 60.59375 0.296875 66.90625 0 
L 66.90625 3 
C 63.703125 3.296875 62.09375 3.890625 60.796875 5.578125 
L 38.09375 34.9375 
C 43.703125 36.328125 46.296875 37.40625 49.59375 39.703125 
C 54.796875 43.359375 57.59375 48.328125 57.59375 54.078125 
C 57.59375 63.609375 50.59375 69 38.203125 69 
L 36.59375 69 
C 23.59375 68.6875 23.59375 68.6875 20.203125 68.6875 
C 16.90625 68.6875 16.90625 68.6875 2.90625 69 
L 2.90625 65.984375 
L 7 65.6875 
C 11.59375 65.390625 12.09375 64.5 12.09375 56.765625 
L 12.09375 12.21875 
C 12.09375 4.375 11.59375 3.59375 7 3.296875 
L 2.203125 3 
L 2.203125 0 
C 8.09375 -0.109375 11.59375 0 16.796875 0 
C 22 0.296875 25.59375 0.1875 31.5 0 
L 31.5 3 
L 26.703125 3.296875 
C 22.09375 3.59375 21.59375 4.390625 21.59375 12.296875 
z
" id="URW_Palladio_L_Roman-82"/>
     </defs>
     <g transform="translate(218.385345 159.027866)scale(0.11662 -0.11662)">
      <use transform="scale(0.996264)" xlink:href="#URW_Palladio_L_Roman-82"/>
      <use transform="translate(66.549694 0)scale(0.996264)" xlink:href="#URW_Palladio_L_Roman-97"/>
      <use transform="translate(116.362895 0)scale(0.996264)" xlink:href="#URW_Palladio_L_Roman-110"/>
      <use transform="translate(174.344955 0)scale(0.996264)" xlink:href="#URW_Palladio_L_Roman-100"/>
      <use transform="translate(235.216586 0)scale(0.996264)" xlink:href="#URW_Palladio_L_Roman-111"/>
      <use transform="translate(289.612166 0)scale(0.996264)" xlink:href="#URW_Palladio_L_Roman-109"/>
     </g>
    </g>
   </g>
  </g>
 </g>
 <defs>
  <clipPath id="pbaba87bb49">
   <rect height="162" width="216" x="57.6" y="10.8"/>
  </clipPath>
 </defs>
</svg>
